<?xml version="1.0" standalone="no"?>
<!DOCTYPE svg PUBLIC "-//W3C//DTD SVG 1.1//EN" "http://www.w3.org/Graphics/SVG/1.1/DTD/svg11.dtd" >
<svg xmlns="http://www.w3.org/2000/svg" xmlns:xlink="http://www.w3.org/1999/xlink" version="1.1">
<metadata>
Created by FontForge 20190801 at Fri Oct 14 21:18:02 2016
 By Jimmy Wärting
Copyright (c) 2013 by atipo. All rights reserved.
</metadata>
<defs>
<font id="Geomanist-Bold" horiz-adv-x="263" >
  <font-face 
    font-family="Geomanist"
    font-weight="700"
    font-stretch="normal"
    units-per-em="1000"
    panose-1="2 0 5 3 0 0 0 2 0 4"
    ascent="750"
    descent="-250"
    x-height="525"
    cap-height="700"
    bbox="-52 -318 1205 1017"
    underline-thickness="50"
    underline-position="-100"
    unicode-range="U+000D-F6C3"
  />
<missing-glyph horiz-adv-x="509" 
d="M4 0v700h500v-700h-500zM254 395l170 255h-340zM284 350l170 -255v510zM54 95l170 255l-170 255v-510zM84 50h340l-170 255z" />
    <glyph glyph-name="ellipsis" unicode="&#x2e;&#x2e;&#x2e;" horiz-adv-x="817" 
d="M130 -13c-55 0 -99 45 -99 99c0 55 44 100 99 100s100 -45 100 -100c0 -54 -45 -99 -100 -99zM408 -13c-55 0 -99 45 -99 99c0 55 44 100 99 100s100 -45 100 -100c0 -54 -45 -99 -100 -99zM686 -13c-55 0 -99 45 -99 99c0 55 44 100 99 100s100 -45 100 -100
c0 -54 -45 -99 -100 -99z" />
    <glyph glyph-name=".notdef" horiz-adv-x="509" 
d="M4 0v700h500v-700h-500zM254 395l170 255h-340zM284 350l170 -255v510zM54 95l170 255l-170 255v-510zM84 50h340l-170 255z" />
    <glyph glyph-name=".null" horiz-adv-x="0" 
 />
    <glyph glyph-name=".null" horiz-adv-x="0" 
 />
    <glyph glyph-name="CR" unicode="&#xd;" horiz-adv-x="196" 
 />
    <glyph glyph-name="space" unicode=" " horiz-adv-x="196" 
 />
    <glyph glyph-name="onehalf" unicode="&#xbd;" horiz-adv-x="865" 
d="M656 741l-368 -782h-141l367 782h142zM231 700v-399h-123v278l-39 -13l-30 104l90 30h102zM826 0h-311v51c0 118 179 159 179 215c0 19 -13 32 -35 32c-29 0 -42 -22 -51 -42l-98 35c11 42 53 116 154 116c85 0 157 -46 157 -136c0 -99 -131 -131 -155 -170h160v-101z
" />
    <glyph glyph-name="onequarter" unicode="&#xbc;" horiz-adv-x="853" 
d="M668 741l-368 -782h-141l367 782h142zM826 70h-45v-70h-119v70h-183v91l169 238h133v-225h45v-104zM662 280l-71 -106h71v106zM231 700v-399h-123v278l-39 -13l-30 104l90 30h102z" />
    <glyph glyph-name="onesuperior" unicode="&#xb9;" horiz-adv-x="302" 
d="M231 700v-399h-123v278l-39 -13l-30 104l90 30h102z" />
    <glyph glyph-name="threequarters" unicode="&#xbe;" horiz-adv-x="893" 
d="M45 700h279v-78l-82 -78c56 -6 96 -49 96 -115c0 -90 -72 -136 -157 -136c-101 0 -143 74 -154 116l98 35c9 -20 22 -42 51 -42c22 0 37 13 37 35c0 23 -18 36 -45 36h-49v77l50 50h-124v100zM710 741l-368 -782h-141l367 782h142zM862 70h-45v-70h-119v70h-183v91
l169 238h133v-225h45v-104zM698 280l-71 -106h71v106z" />
    <glyph glyph-name="threesuperior" unicode="&#xb3;" horiz-adv-x="366" 
d="M45 700h279v-78l-82 -78c56 -6 96 -49 96 -115c0 -90 -72 -136 -157 -136c-101 0 -143 74 -154 116l98 35c9 -20 22 -42 51 -42c22 0 37 13 37 35c0 23 -18 36 -45 36h-49v77l50 50h-124v100z" />
    <glyph glyph-name="twosuperior" unicode="&#xb2;" horiz-adv-x="370" 
d="M343 301h-311v51c0 118 179 159 179 215c0 19 -13 32 -35 32c-29 0 -42 -22 -51 -42l-98 35c11 42 53 116 154 116c85 0 157 -46 157 -136c0 -99 -131 -131 -155 -170h160v-101z" />
    <glyph glyph-name="minus" unicode="&#x2212;" horiz-adv-x="551" 
d="M35 246v132h481v-132h-481z" />
    <glyph glyph-name="multiply" unicode="&#xd7;" horiz-adv-x="528" 
d="M27 463l93 93l143 -151l145 151l92 -93l-145 -152l145 -152l-92 -92l-144 150l-144 -151l-93 93l145 152z" />
    <glyph glyph-name="exclam" unicode="!" horiz-adv-x="309" 
d="M154 -13c-55 0 -99 45 -99 99c0 55 44 100 99 100s100 -45 100 -100c0 -54 -45 -99 -100 -99zM243 700l-13 -489h-151l-13 489h177z" />
    <glyph glyph-name="quotedbl" unicode="&#x22;" horiz-adv-x="407" 
d="M41 700h133l-5 -257h-123zM234 700h133l-5 -257h-123z" />
    <glyph glyph-name="numbersign" unicode="#" horiz-adv-x="665" 
d="M592 700l-36 -172h85l-25 -124h-86l-22 -109h85l-25 -124h-86l-35 -171h-138l35 171h-94l-35 -171h-138l35 171h-88l25 124h89l22 109h-88l25 124h89l36 172h138l-36 -172h94l36 172h138zM298 404l-22 -109h94l22 109h-94z" />
    <glyph glyph-name="percent" unicode="%" horiz-adv-x="828" 
d="M758 700l-528 -700h-160l528 700h160zM572 160c0 -32 23 -56 54 -56c34 0 55 25 55 56c0 30 -23 54 -55 54c-33 0 -54 -25 -54 -54zM448 159c0 96 75 173 177 173c105 0 180 -77 180 -173c0 -97 -75 -172 -179 -172s-178 74 -178 172zM146 541c0 -32 23 -56 54 -56
c34 0 55 25 55 56c0 30 -23 54 -55 54c-33 0 -54 -25 -54 -54zM22 540c0 96 75 173 177 173c105 0 180 -77 180 -173c0 -97 -75 -172 -179 -172s-178 74 -178 172z" />
    <glyph glyph-name="ampersand" unicode="&#x26;" horiz-adv-x="669" 
d="M540 -26l-68 72c-40 -32 -104 -59 -183 -59c-170 0 -267 91 -267 218c0 89 41 147 114 199c-24 32 -48 72 -48 125c0 107 82 184 210 184c138 0 214 -81 214 -188c0 -83 -51 -141 -114 -182l72 -70c8 18 11 36 11 63h155c0 -65 -15 -127 -53 -184l68 -74zM292 137
c33 0 60 13 72 26l-130 133c-30 -17 -43 -47 -43 -76c0 -56 51 -83 101 -83zM240 520c0 -35 26 -62 61 -90c38 26 63 55 63 90c0 34 -23 60 -63 60c-35 0 -61 -26 -61 -60z" />
    <glyph glyph-name="quotesingle" unicode="'" horiz-adv-x="215" 
d="M41 700h133l-5 -257h-123z" />
    <glyph glyph-name="parenleft" unicode="(" horiz-adv-x="350" 
d="M35 56v532c0 145 79 231 253 231v-144c-65 0 -88 -33 -88 -84v-538c0 -51 23 -84 88 -84v-144c-174 0 -253 85 -253 231z" />
    <glyph glyph-name="parenright" unicode=")" horiz-adv-x="350" 
d="M315 588v-532c0 -146 -79 -231 -253 -231v144c65 0 88 33 88 84v538c0 51 -23 84 -88 84v144c174 0 253 -86 253 -231z" />
    <glyph glyph-name="asterisk" unicode="*" horiz-adv-x="437" 
d="M29 559l55 93l79 -43v91h110v-91l79 43l54 -93l-78 -43l79 -42l-55 -94l-79 44v-92h-110v92l-79 -44l-55 93l79 43z" />
    <glyph glyph-name="plus" unicode="+" horiz-adv-x="551" 
d="M35 246v132h171v182h139v-182h171v-132h-171v-183h-139v183h-171z" />
    <glyph glyph-name="comma" unicode="," horiz-adv-x="261" 
d="M39 -97c27 15 65 50 71 86c-52 12 -79 55 -79 97c0 55 44 100 99 100s102 -37 102 -108c0 -101 -51 -194 -128 -247z" />
    <glyph glyph-name="hyphen" unicode="-" horiz-adv-x="385" 
d="M47 231v150h290v-150h-290z" />
    <glyph glyph-name="period" unicode="." horiz-adv-x="261" 
d="M130 -13c-55 0 -99 45 -99 99c0 55 44 100 99 100s100 -45 100 -100c0 -54 -45 -99 -100 -99z" />
    <glyph glyph-name="slash" unicode="/" horiz-adv-x="466" 
d="M455 750l-299 -858h-145l299 858h145z" />
    <glyph glyph-name="zero" unicode="0" horiz-adv-x="587" 
d="M542 350c0 -243 -73 -363 -249 -363s-249 120 -249 363s73 363 249 363s249 -120 249 -363zM217 350c0 -141 14 -203 76 -203s76 62 76 203s-14 203 -76 203s-76 -62 -76 -203z" />
    <glyph glyph-name="one" unicode="1" horiz-adv-x="356" 
d="M291 700v-700h-169v533l-68 -21l-40 142l137 46h140z" />
    <glyph glyph-name="two" unicode="2" horiz-adv-x="557" 
d="M520 0h-479v61c0 202 298 324 298 429c0 42 -28 66 -71 66c-46 0 -72 -31 -84 -69l-148 44c18 76 81 182 239 182c137 0 238 -80 238 -216c0 -178 -235 -255 -268 -348h275v-149z" />
    <glyph glyph-name="three" unicode="3" horiz-adv-x="549" 
d="M272 -13c-158 0 -221 106 -239 182l148 44c12 -38 41 -69 87 -69c47 0 77 29 77 75c0 39 -28 72 -82 72h-97v131l125 129h-229v149h425v-148l-127 -121c83 -17 158 -69 158 -205c0 -143 -104 -239 -246 -239z" />
    <glyph glyph-name="four" unicode="4" horiz-adv-x="602" 
d="M576 156h-78v-156h-167v156h-306v121l272 423h201v-400h78v-144zM331 517l-132 -217h132v217z" />
    <glyph glyph-name="five" unicode="5" horiz-adv-x="551" 
d="M263 320c-36 0 -59 -20 -68 -32l-140 22l14 390h414v-149h-262l-5 -105c32 15 61 18 90 18c113 0 222 -82 222 -218c0 -152 -106 -259 -248 -259c-158 0 -229 106 -247 182l148 44c11 -43 44 -69 90 -69c47 0 84 35 84 88c0 39 -25 88 -92 88z" />
    <glyph glyph-name="six" unicode="6" horiz-adv-x="570" 
d="M503 669l-65 -139c-17 10 -47 23 -91 23c-109 0 -128 -81 -128 -109c18 13 52 29 109 29c116 0 206 -78 206 -235c0 -146 -98 -251 -243 -251c-199 0 -255 131 -255 324c0 200 63 402 299 402c85 0 140 -27 168 -44zM288 321c-28 0 -56 -13 -79 -35c0 -72 5 -139 83 -139
c50 0 74 34 74 85c0 52 -27 89 -78 89z" />
    <glyph glyph-name="seven" unicode="7" horiz-adv-x="524" 
d="M501 580l-220 -580h-185l215 551h-288v149h478v-120z" />
    <glyph glyph-name="eight" unicode="8" horiz-adv-x="572" 
d="M285 -13c-156 0 -253 86 -253 224c0 77 41 133 85 160c-33 24 -68 72 -68 138c0 116 90 204 237 204c146 0 237 -87 237 -204c0 -66 -35 -114 -69 -138c47 -28 86 -83 86 -160c0 -137 -100 -224 -255 -224zM286 287c-51 0 -80 -33 -80 -73c0 -42 28 -72 80 -72
c53 0 80 30 80 72c0 40 -28 73 -80 73zM286 560c-45 0 -68 -27 -68 -62c0 -40 27 -63 68 -63s68 23 68 63c0 35 -24 62 -68 62z" />
    <glyph glyph-name="nine" unicode="9" horiz-adv-x="570" 
d="M67 31l65 139c17 -10 47 -23 91 -23c109 0 128 81 128 109c-18 -13 -52 -29 -109 -29c-116 0 -206 78 -206 235c0 146 98 251 243 251c199 0 255 -131 255 -324c0 -200 -63 -402 -299 -402c-85 0 -140 27 -168 44zM282 379c28 0 56 13 79 35c0 72 -5 139 -83 139
c-50 0 -74 -34 -74 -85c0 -52 27 -89 78 -89z" />
    <glyph glyph-name="colon" unicode=":" horiz-adv-x="261" 
d="M130 -13c-55 0 -99 45 -99 99c0 55 44 100 99 100s100 -45 100 -100c0 -54 -45 -99 -100 -99zM130 326c-55 0 -99 45 -99 99c0 55 44 100 99 100s100 -45 100 -100c0 -54 -45 -99 -100 -99z" />
    <glyph glyph-name="semicolon" unicode=";" horiz-adv-x="261" 
d="M130 326c-55 0 -99 45 -99 99c0 55 44 100 99 100s100 -45 100 -100c0 -54 -45 -99 -100 -99zM39 -97c27 15 65 50 71 86c-52 12 -79 55 -79 97c0 55 44 100 99 100s102 -37 102 -108c0 -101 -51 -194 -128 -247z" />
    <glyph glyph-name="less" unicode="&#x3c;" horiz-adv-x="516" 
d="M46 253v119l424 190v-143l-269 -106l269 -106v-144z" />
    <glyph glyph-name="equal" unicode="=" horiz-adv-x="551" 
d="M35 342v132h481v-132h-481zM35 141v132h481v-132h-481z" />
    <glyph glyph-name="greater" unicode="&#x3e;" horiz-adv-x="516" 
d="M470 372v-119l-424 -190v144l269 106l-269 106v143z" />
    <glyph glyph-name="question" unicode="?" horiz-adv-x="490" 
d="M305 250v-39h-162v50c0 135 153 165 153 244c0 31 -20 60 -66 60c-48 0 -65 -36 -75 -57l-131 59c19 57 75 146 217 146c131 0 225 -79 225 -197c0 -143 -161 -175 -161 -266zM223 -13c-55 0 -99 45 -99 99c0 55 44 100 99 100s100 -45 100 -100c0 -54 -45 -99 -100 -99z
" />
    <glyph glyph-name="at" unicode="@" horiz-adv-x="912" 
d="M563 126c-12 -18 -48 -64 -124 -64c-115 0 -187 83 -187 197c0 113 75 197 182 197c55 0 85 -24 94 -31v25h122v-228c0 -36 13 -54 45 -54c41 0 66 51 66 136c0 179 -112 267 -298 267c-187 0 -306 -132 -306 -307c0 -185 123 -303 320 -303c72 0 141 23 190 52l54 -86
c-61 -43 -142 -72 -244 -72c-266 0 -443 165 -443 405c0 249 190 416 431 416c256 0 413 -151 413 -366c0 -151 -74 -247 -193 -247c-56 0 -101 25 -122 63zM383 260c0 -48 30 -84 74 -84c41 0 74 32 74 84c0 43 -29 82 -74 82c-42 0 -74 -34 -74 -82z" />
    <glyph glyph-name="A" unicode="A" horiz-adv-x="676" 
d="M448 157h-220l-50 -157h-172l242 700h180l242 -700h-172zM404 297l-66 222l-66 -222h132z" />
    <glyph glyph-name="B" unicode="B" horiz-adv-x="587" 
d="M561 209c0 -142 -107 -209 -241 -209h-258v700h250c142 0 227 -68 227 -188c0 -60 -28 -118 -76 -145c69 -29 98 -86 98 -158zM316 290h-84v-143h83c45 0 70 32 70 72c0 42 -24 71 -69 71zM303 554h-71v-127h73c39 0 60 27 60 65c0 37 -20 62 -62 62z" />
    <glyph glyph-name="C" unicode="C" horiz-adv-x="630" 
d="M397 -13c-226 0 -370 158 -370 364c0 205 152 362 370 362c87 0 154 -25 204 -59l-48 -150c-37 25 -90 49 -150 49c-128 0 -198 -93 -198 -202s70 -204 198 -204c60 0 116 24 153 49l48 -150c-50 -34 -120 -59 -207 -59z" />
    <glyph glyph-name="D" unicode="D" horiz-adv-x="664" 
d="M62 700h206c225 0 369 -131 369 -350s-144 -350 -369 -350h-206v700zM268 552h-35v-404h35c115 0 191 68 191 202s-76 202 -191 202z" />
    <glyph glyph-name="E" unicode="E" horiz-adv-x="485" 
d="M443 0h-381v700h373v-153h-202v-117h172v-152h-172v-125h210v-153z" />
    <glyph glyph-name="F" unicode="F" horiz-adv-x="472" 
d="M407 267h-174v-267h-171v700h370v-153h-199v-128h174v-152z" />
    <glyph glyph-name="G" unicode="G" horiz-adv-x="753" 
d="M710 393v-296c-74 -57 -159 -110 -320 -110c-198 0 -362 140 -362 365c0 200 148 361 366 361c165 0 249 -77 285 -122l-108 -112c-15 20 -75 76 -169 76c-125 0 -197 -87 -197 -200c0 -130 86 -210 197 -210c88 0 138 32 149 43v62h-121v143h280z" />
    <glyph glyph-name="H" unicode="H" horiz-adv-x="716" 
d="M654 700v-700h-171v274h-250v-274h-171v700h171v-272h250v272h171z" />
    <glyph glyph-name="I" unicode="I" horiz-adv-x="295" 
d="M233 700v-700h-171v700h171z" />
    <glyph glyph-name="J" unicode="J" horiz-adv-x="389" 
d="M327 700v-518c0 -141 -99 -188 -212 -188c-37 0 -58 2 -96 11l20 151c16 -3 30 -5 54 -5c44 0 63 28 63 63v486h171z" />
    <glyph glyph-name="K" unicode="K" horiz-adv-x="640" 
d="M233 700v-270l204 270h191l-262 -335l267 -365h-196l-204 282v-282h-171v700h171z" />
    <glyph glyph-name="L" unicode="L" horiz-adv-x="458" 
d="M443 0h-381v700h171v-547h210v-153z" />
    <glyph glyph-name="M" unicode="M" horiz-adv-x="913" 
d="M535 57h-157l-154 402v-459h-164v700h222l174 -443l175 443h222v-700h-164v459z" />
    <glyph glyph-name="N" unicode="N" horiz-adv-x="718" 
d="M488 0l-260 429v-429h-168v700h174l256 -434v434h168v-700h-170z" />
    <glyph glyph-name="O" unicode="O" horiz-adv-x="788" 
d="M394 -13c-221 0 -367 158 -367 364c0 203 146 362 367 362s367 -159 367 -362c0 -206 -146 -364 -367 -364zM394 553c-112 0 -189 -87 -189 -202c0 -118 78 -204 189 -204s189 86 189 204c0 115 -77 202 -189 202z" />
    <glyph glyph-name="P" unicode="P" horiz-adv-x="559" 
d="M540 474c0 -136 -89 -229 -225 -229h-82v-245h-171v700h252c142 0 226 -88 226 -226zM291 553h-58v-161h56c50 0 76 34 76 82c0 47 -27 79 -74 79z" />
    <glyph glyph-name="Q" unicode="Q" horiz-adv-x="788" 
d="M394 -13c-221 0 -367 158 -367 364c0 203 146 362 367 362s367 -159 367 -362c0 -73 -19 -140 -52 -196l62 -54l-101 -117l-68 60c-57 -36 -128 -57 -208 -57zM394 553c-112 0 -189 -87 -189 -202c0 -118 78 -204 189 -204c27 0 53 5 75 15l-58 51l99 116l61 -53
c7 23 12 48 12 75c0 115 -77 202 -189 202z" />
    <glyph glyph-name="R" unicode="R" horiz-adv-x="605" 
d="M535 485c0 -77 -33 -150 -97 -185c0 0 -1 2 161 -300h-189l-125 259h-52v-259h-171v700h228c165 0 245 -76 245 -215zM276 553h-43v-151h51c47 0 76 29 76 77c0 46 -22 74 -84 74z" />
    <glyph glyph-name="S" unicode="S" horiz-adv-x="529" 
d="M267 713c150 0 208 -109 226 -162l-142 -65c-14 31 -35 69 -88 69c-33 0 -55 -20 -55 -47c0 -95 292 -85 292 -299c0 -129 -92 -222 -245 -222c-157 0 -220 114 -238 167l143 71c19 -41 57 -78 105 -78c41 0 62 18 62 49c0 93 -290 85 -290 309c0 126 91 208 230 208z
" />
    <glyph glyph-name="T" unicode="T" horiz-adv-x="511" 
d="M492 547h-151v-547h-171v547h-151v153h473v-153z" />
    <glyph glyph-name="U" unicode="U" horiz-adv-x="704" 
d="M352 -12c-188 0 -292 114 -292 281v431h171v-431c0 -76 46 -123 122 -123c77 0 120 47 120 124v430h171v-430c0 -164 -107 -282 -292 -282z" />
    <glyph glyph-name="V" unicode="V" horiz-adv-x="702" 
d="M444 0h-186l-253 700h188l158 -498l158 498h188z" />
    <glyph glyph-name="W" unicode="W" horiz-adv-x="994" 
d="M610 0l-113 440l-113 -440h-194l-182 700h183l106 -493l123 493h154l123 -493l106 493h183l-182 -700h-194z" />
    <glyph glyph-name="X" unicode="X" horiz-adv-x="656" 
d="M208 700l118 -214l118 214h201l-219 -347l222 -353h-190l-132 225l-132 -225h-190l222 353l-219 347h201z" />
    <glyph glyph-name="Y" unicode="Y" horiz-adv-x="610" 
d="M390 0h-170v316l-214 384h192l107 -229l110 229h189l-214 -384v-316z" />
    <glyph glyph-name="Z" unicode="Z" horiz-adv-x="608" 
d="M574 0h-543v109l310 440h-302v151h532v-108l-313 -441h316v-151z" />
    <glyph glyph-name="bracketleft" unicode="[" horiz-adv-x="350" 
d="M35 -175v994h253v-144h-88v-706h88v-144h-253z" />
    <glyph glyph-name="backslash" unicode="\" horiz-adv-x="466" 
d="M310 -108l-299 858h145l299 -858h-145z" />
    <glyph glyph-name="bracketright" unicode="]" horiz-adv-x="350" 
d="M315 819v-994h-253v144h88v706h-88v144h253z" />
    <glyph glyph-name="asciicircum" unicode="^" horiz-adv-x="575" 
d="M355 700l183 -382h-154l-97 224l-97 -224h-154l184 382h135z" />
    <glyph glyph-name="underscore" unicode="_" horiz-adv-x="618" 
d="M20 -158v129h578v-129h-578z" />
    <glyph glyph-name="grave" unicode="`" horiz-adv-x="480" 
d="M121 725h173l66 -145h-139z" />
    <glyph glyph-name="a" unicode="a" horiz-adv-x="534" 
d="M20 163c0 105 80 174 204 174c46 0 82 -11 101 -19v19c0 32 -26 57 -80 57c-46 0 -91 -13 -132 -33l-62 112c56 37 127 65 214 65c181 0 227 -93 227 -213v-325h-149l-9 29c-27 -27 -65 -42 -119 -42c-103 0 -195 62 -195 176zM187 169c0 -35 32 -54 71 -54
c40 0 70 19 70 54c0 36 -31 56 -71 56s-70 -22 -70 -56z" />
    <glyph glyph-name="b" unicode="b" horiz-adv-x="625" 
d="M210 261c0 -70 41 -128 113 -128c67 0 113 50 113 128c0 77 -45 130 -113 130c-66 0 -113 -47 -113 -130zM204 41v-41h-156v723h167v-238c11 13 60 53 140 53c152 0 248 -113 248 -276c0 -161 -106 -275 -257 -275c-77 0 -127 37 -142 54z" />
    <glyph glyph-name="c" unicode="c" horiz-adv-x="479" 
d="M317 134c39 0 76 18 99 37l44 -137c-35 -24 -88 -47 -154 -47c-167 0 -285 114 -285 275s122 276 284 276c68 0 119 -22 156 -48l-45 -141c-29 24 -66 39 -105 39c-79 0 -123 -55 -123 -125c0 -77 52 -129 129 -129z" />
    <glyph glyph-name="d" unicode="d" horiz-adv-x="625" 
d="M415 261c0 83 -47 130 -113 130c-68 0 -113 -53 -113 -130c0 -78 46 -128 113 -128c72 0 113 58 113 128zM421 0v41c-15 -17 -65 -54 -142 -54c-151 0 -257 114 -257 275c0 163 96 276 248 276c80 0 129 -40 140 -53v238h167v-723h-156z" />
    <glyph glyph-name="e" unicode="e" horiz-adv-x="557" 
d="M537 219h-344c4 -47 49 -87 111 -87c63 0 100 41 110 56l110 -85c-15 -31 -87 -116 -223 -116c-173 0 -279 119 -279 274c0 154 104 277 258 277c167 0 258 -107 258 -286c0 -10 0 -21 -1 -33zM283 403c-55 0 -81 -41 -85 -78h170c-2 42 -33 78 -85 78z" />
    <glyph glyph-name="f" unicode="f" horiz-adv-x="342" 
d="M242 536v-11h82v-135h-82v-390h-167v390h-55v135h55v15c0 138 98 185 208 185c20 0 32 -1 51 -2v-140c-6 1 -15 2 -27 2c-43 0 -65 -17 -65 -49z" />
    <glyph glyph-name="g" unicode="g" horiz-adv-x="620" 
d="M409 27v13c-11 -13 -60 -53 -140 -53c-152 0 -248 113 -248 276c0 161 106 275 257 275c77 0 127 -37 142 -54v41h156v-462c0 -194 -135 -255 -291 -255c-74 0 -147 21 -194 45l49 128c15 -7 74 -32 145 -32c62 0 124 14 124 78zM414 264c0 70 -42 127 -114 127
c-67 0 -112 -49 -112 -127c0 -77 45 -130 113 -130c66 0 113 47 113 130z" />
    <glyph glyph-name="h" unicode="h" horiz-adv-x="569" 
d="M358 0v313c0 49 -29 75 -69 75c-46 0 -74 -33 -74 -75v-313h-167v723h167v-252c20 31 64 67 130 67c164 0 180 -140 180 -247v-291h-167z" />
    <glyph glyph-name="i" unicode="i" 
d="M215 525v-525h-167v525h167zM130 557c-53 0 -93 38 -93 90c0 53 40 91 93 91s94 -38 94 -91c0 -52 -41 -90 -94 -90z" />
    <glyph glyph-name="j" unicode="j" 
d="M215 525v-527c0 -141 -94 -190 -220 -190c-18 0 -37 3 -37 3v141s13 -2 24 -2c49 0 66 23 66 56v519h167zM130 557c-53 0 -93 38 -93 90c0 53 40 91 93 91s94 -38 94 -91c0 -52 -41 -90 -94 -90z" />
    <glyph glyph-name="k" unicode="k" horiz-adv-x="559" 
d="M544 525l-169 -240l183 -285h-196l-147 245v-245h-167v723h167v-409l142 211h187z" />
    <glyph glyph-name="l" unicode="l" 
d="M48 0v723h167v-723h-167z" />
    <glyph glyph-name="m" unicode="m" horiz-adv-x="848" 
d="M509 313v-313h-167v313c0 47 -23 75 -63 75c-39 0 -64 -27 -64 -75v-313h-167v525h163v-54c18 32 60 67 130 67c62 0 108 -26 136 -69c32 41 81 69 149 69c121 0 178 -78 178 -189v-349h-167v313c0 47 -24 75 -64 75c-39 0 -64 -30 -64 -75z" />
    <glyph glyph-name="n" unicode="n" horiz-adv-x="567" 
d="M356 0v313c0 49 -29 75 -69 75c-46 0 -72 -33 -72 -75v-313h-167v525h163v-54c20 31 66 67 132 67c164 0 180 -140 180 -247v-291h-167z" />
    <glyph glyph-name="o" unicode="o" horiz-adv-x="615" 
d="M21 261c0 159 123 277 285 277c169 0 288 -116 288 -275c0 -158 -122 -276 -288 -276c-167 0 -285 116 -285 274zM188 261c0 -76 50 -127 118 -127c69 0 121 54 121 129c0 77 -53 128 -121 128c-69 0 -118 -53 -118 -130z" />
    <glyph glyph-name="p" unicode="p" horiz-adv-x="625" 
d="M210 264c0 -83 47 -130 113 -130c68 0 113 53 113 130c0 78 -46 128 -113 128c-72 0 -113 -58 -113 -128zM204 525v-41c15 17 65 54 142 54c151 0 257 -114 257 -275c0 -163 -96 -276 -248 -276c-80 0 -129 40 -140 53v-227h-167v712h156z" />
    <glyph glyph-name="q" unicode="q" horiz-adv-x="625" 
d="M415 264c0 70 -41 128 -113 128c-67 0 -113 -50 -113 -128c0 -77 45 -130 113 -130c66 0 113 47 113 130zM421 484v41h156v-712h-167v227c-11 -13 -60 -53 -140 -53c-152 0 -248 113 -248 276c0 161 106 275 257 275c77 0 127 -37 142 -54z" />
    <glyph glyph-name="r" unicode="r" horiz-adv-x="369" 
d="M350 538v-170c-7 1 -15 2 -27 2c-81 0 -108 -59 -108 -138v-232h-167v525h163v-70c25 51 74 83 139 83z" />
    <glyph glyph-name="s" unicode="s" horiz-adv-x="444" 
d="M216 -13c-100 0 -171 48 -202 90l94 91c28 -25 63 -46 116 -46c32 0 47 10 47 29c0 60 -240 34 -240 225c0 101 88 162 202 162c100 0 157 -48 188 -90l-108 -85c-16 16 -46 41 -87 41c-24 0 -38 -10 -38 -26c0 -66 242 -28 242 -218c0 -107 -94 -173 -214 -173z" />
    <glyph glyph-name="t" unicode="t" horiz-adv-x="352" 
d="M229 636v-111h89v-135h-89v-193c0 -46 31 -57 65 -57c9 0 17 0 28 1v-143s-22 -6 -64 -6c-124 0 -196 57 -196 213v185h-51v135h51v111h167z" />
    <glyph glyph-name="u" unicode="u" horiz-adv-x="563" 
d="M211 525v-313c0 -49 29 -75 69 -75c46 0 72 33 72 75v313h167v-525h-163v54c-20 -31 -66 -67 -132 -67c-164 0 -180 140 -180 247v291h167z" />
    <glyph glyph-name="v" unicode="v" horiz-adv-x="558" 
d="M182 525l99 -348l99 348h174l-177 -525h-194l-180 525h179z" />
    <glyph glyph-name="w" unicode="w" horiz-adv-x="834" 
d="M492 0l-75 297l-75 -297h-188l-147 525h182l71 -343l79 343h156l79 -343l71 343h182l-147 -525h-188z" />
    <glyph glyph-name="x" unicode="x" horiz-adv-x="546" 
d="M365 0l-92 141l-92 -141h-179l179 266l-174 259h186l80 -141l80 141h186l-174 -259l179 -266h-179z" />
    <glyph glyph-name="y" unicode="y" horiz-adv-x="556" 
d="M549 525l-260 -704h-158l71 196l-196 508h179l93 -302l97 302h174z" />
    <glyph glyph-name="z" unicode="z" horiz-adv-x="471" 
d="M441 424l-205 -285h207v-139h-416v100l204 286h-199v139h409v-101z" />
    <glyph glyph-name="braceleft" unicode="{" horiz-adv-x="412" 
d="M176 322c20 -4 86 -39 86 -130v-139c0 -51 23 -84 88 -84v-144c-174 0 -253 86 -253 231v104c0 71 -45 83 -72 83v158c27 0 72 12 72 83v104c0 145 79 231 253 231v-144c-65 0 -88 -33 -88 -84v-139c0 -91 -66 -126 -86 -130z" />
    <glyph glyph-name="bar" unicode="|" horiz-adv-x="297" 
d="M227 845v-1095h-157v1095h157z" />
    <glyph glyph-name="braceright" unicode="}" horiz-adv-x="412" 
d="M236 322c-20 4 -86 39 -86 130v139c0 51 -23 84 -88 84v144c174 0 253 -86 253 -231v-104c0 -71 45 -83 72 -83v-158c-27 0 -72 -12 -72 -83v-104c0 -145 -79 -231 -253 -231v144c65 0 88 33 88 84v139c0 91 66 126 86 130z" />
    <glyph glyph-name="asciitilde" unicode="~" horiz-adv-x="551" 
d="M362 208c-62 0 -118 42 -163 42c-26 0 -41 -17 -41 -43h-128c0 117 62 195 158 195c67 0 115 -42 163 -42c26 0 41 17 41 43h128c0 -117 -62 -195 -158 -195z" />
    <glyph glyph-name="dagger" unicode="&#x2020;" horiz-adv-x="448" 
d="M425 396h-119v-396h-164v396h-118v145h118v159h164v-159h119v-145z" />
    <glyph glyph-name="degree" unicode="&#xb0;" horiz-adv-x="390" 
d="M195 379c-100 0 -172 73 -172 166s73 168 172 168s172 -75 172 -168s-72 -166 -172 -166zM195 602c-36 0 -56 -26 -56 -56c0 -31 20 -56 56 -56s56 25 56 56c0 30 -20 56 -56 56z" />
    <glyph glyph-name="sterling" unicode="&#xa3;" horiz-adv-x="582" 
d="M256 486v-79h149v-126h-149v-132h293v-149h-516v149h54v132h-48v126h48v88c0 127 86 218 233 218c137 0 194 -97 211 -155l-138 -59c-7 23 -26 56 -71 56c-41 0 -66 -29 -66 -69z" />
    <glyph glyph-name="bullet" unicode="&#x2022;" horiz-adv-x="406" 
d="M203 138c-99 0 -172 77 -172 172s73 172 172 172s172 -77 172 -172s-73 -172 -172 -172z" />
    <glyph glyph-name="paragraph" unicode="&#xb6;" horiz-adv-x="566" 
d="M348 -45h-127v365c-105 1 -188 82 -188 191s82 189 192 189h123v-745zM532 700v-745h-127v745h127z" />
    <glyph glyph-name="germandbls" unicode="&#xdf;" horiz-adv-x="571" 
d="M266 725c147 0 235 -59 235 -175c0 -56 -32 -97 -57 -112c58 -36 106 -91 106 -196c0 -150 -110 -242 -290 -242v134c76 1 124 43 124 110c0 66 -49 104 -124 104v130c56 0 80 21 80 57c0 23 -20 50 -64 50c-43 0 -61 -24 -61 -56v-529h-167v540c0 138 104 185 218 185z
" />
    <glyph glyph-name="registered" unicode="&#xae;" horiz-adv-x="452" 
d="M222 499h-17v-72h-65v216h98c49 0 76 -29 76 -71c0 -34 -15 -53 -34 -61l40 -84h-67zM228 589h-23v-39h23c11 0 19 8 19 20s-8 19 -19 19zM14 533c0 117 85 209 209 209c131 0 214 -91 214 -208c0 -115 -83 -209 -212 -209c-128 0 -211 90 -211 208zM74 533
c0 -87 58 -153 151 -153c95 0 151 65 151 154c0 90 -57 152 -153 152c-91 0 -149 -64 -149 -153z" />
    <glyph glyph-name="copyright" unicode="&#xa9;" horiz-adv-x="784" 
d="M392 82c152 0 254 113 254 269c0 153 -102 266 -254 266s-254 -113 -254 -266c0 -156 102 -269 254 -269zM213 350c0 108 75 192 182 192c85 0 129 -51 147 -79l-87 -68c-9 14 -26 35 -59 35c-37 0 -61 -33 -61 -80s24 -80 61 -80c33 0 50 21 59 35l87 -68
c-18 -28 -62 -79 -147 -79c-107 0 -182 84 -182 192zM392 713c208 0 360 -159 360 -365c0 -203 -152 -362 -360 -362s-360 159 -360 362c0 206 152 365 360 365z" />
    <glyph glyph-name="trademark" unicode="&#x2122;" horiz-adv-x="802" 
d="M315 700v-99h-84v-262h-112v262h-85v99h281zM607 379h-100l-53 145v-185h-108v361h143l67 -193l69 193h143v-361h-108v185z" />
    <glyph glyph-name="acute" unicode="&#xb4;" horiz-adv-x="480" 
d="M186 725h173l-100 -145h-139z" />
    <glyph glyph-name="dieresis" unicode="&#xa8;" horiz-adv-x="480" 
d="M139 576c-46 0 -77 35 -77 77s31 77 77 77c45 0 77 -35 77 -77s-32 -77 -77 -77zM340 576c-46 0 -77 35 -77 77s31 77 77 77c45 0 77 -35 77 -77s-32 -77 -77 -77z" />
    <glyph glyph-name="AE" unicode="&#xc6;" horiz-adv-x="881" 
d="M839 0h-381v157h-185l-79 -157h-186l370 700h453v-153h-202v-117h172v-152h-172v-125h210v-153zM335 297h123v244z" />
    <glyph glyph-name="yen" unicode="&#xa5;" horiz-adv-x="610" 
d="M390 0h-170v148h-146v107h146v62h-146v107h86l-154 276h192l107 -229l110 229h189l-154 -276h86v-107h-146v-62h146v-107h-146v-148z" />
    <glyph glyph-name="ordfeminine" unicode="&#xaa;" horiz-adv-x="413" 
d="M29 432c0 79 60 130 153 130c33 0 64 -9 76 -14v14c0 24 -20 43 -60 43c-35 0 -69 -10 -99 -25l-47 84c42 28 95 49 161 49c135 0 170 -70 170 -160v-243h-112l-7 21c-20 -20 -48 -31 -89 -31c-77 0 -146 46 -146 132zM154 436c0 -26 24 -40 53 -40c30 0 53 14 53 40
c0 27 -23 42 -53 42s-53 -16 -53 -42z" />
    <glyph glyph-name="ordmasculine" unicode="&#xba;" horiz-adv-x="487" 
d="M29 505c0 120 92 208 214 208c127 0 215 -87 215 -206s-91 -207 -215 -207c-126 0 -214 87 -214 205zM155 505c0 -56 37 -94 88 -94s90 40 90 96c0 57 -40 95 -90 95c-52 0 -88 -39 -88 -97z" />
    <glyph glyph-name="questiondown" unicode="&#xbf;" horiz-adv-x="490" 
d="M185 297v39h162v-50c0 -135 -153 -165 -153 -244c0 -31 20 -60 66 -60c48 0 65 36 75 57l131 -59c-19 -57 -75 -146 -217 -146c-131 0 -225 79 -225 197c0 143 161 175 161 266zM267 560c55 0 99 -45 99 -99c0 -55 -44 -100 -99 -100s-100 45 -100 100c0 54 45 99 100 99
z" />
    <glyph glyph-name="exclamdown" unicode="&#xa1;" horiz-adv-x="309" 
d="M154 560c55 0 100 -45 100 -99c0 -55 -45 -100 -100 -100s-99 45 -99 100c0 54 44 99 99 99zM230 336l13 -489h-177l13 489h151z" />
    <glyph glyph-name="florin" unicode="&#x192;" horiz-adv-x="487" 
d="M99 4l41 305h-55v135h73l11 87c18 145 119 182 218 182c28 0 61 -5 66 -6l-18 -138c-6 1 -18 3 -30 3c-37 0 -66 -13 -72 -55l-10 -73h77v-135h-95l-42 -319c-19 -145 -119 -182 -218 -182c-30 0 -59 4 -66 6l18 138c6 -1 18 -3 30 -3c37 0 66 13 72 55z" />
    <glyph glyph-name="guillemotleft" unicode="&#xab;" horiz-adv-x="521" 
d="M293 106h-147l-121 190l121 190h147l-122 -190zM496 106h-146l-122 190l122 190h146l-122 -190z" />
    <glyph glyph-name="guillemotright" unicode="&#xbb;" horiz-adv-x="521" 
d="M375 106h-147l122 190l-122 190h147l121 -190zM171 106h-146l122 190l-122 190h146l122 -190z" />
    <glyph glyph-name="endash" unicode="&#x2013;" horiz-adv-x="672" 
d="M625 243h-578v136h578v-136z" />
    <glyph glyph-name="emdash" unicode="&#x2014;" horiz-adv-x="945" 
d="M897 243h-850v136h850v-136z" />
    <glyph glyph-name="quotedblleft" unicode="&#x201c;" horiz-adv-x="471" 
d="M215 668c-27 -15 -65 -50 -71 -86c52 -12 79 -55 79 -97c0 -55 -44 -100 -99 -100s-102 37 -102 108c0 101 51 194 128 247zM441 668c-27 -15 -65 -50 -71 -86c52 -12 79 -55 79 -97c0 -55 -44 -100 -99 -100s-102 37 -102 108c0 101 51 194 128 247z" />
    <glyph glyph-name="quotedblright" unicode="&#x201d;" horiz-adv-x="471" 
d="M256 457c27 15 65 50 71 86c-52 12 -79 55 -79 97c0 55 44 100 99 100s102 -37 102 -108c0 -101 -51 -194 -128 -247zM30 457c27 15 65 50 71 86c-52 12 -79 55 -79 97c0 55 44 100 99 100s102 -37 102 -108c0 -101 -51 -194 -128 -247z" />
    <glyph glyph-name="quoteleft" unicode="&#x2018;" horiz-adv-x="245" 
d="M215 668c-27 -15 -65 -50 -71 -86c52 -12 79 -55 79 -97c0 -55 -44 -100 -99 -100s-102 37 -102 108c0 101 51 194 128 247z" />
    <glyph glyph-name="quoteright" unicode="&#x2019;" horiz-adv-x="245" 
d="M30 457c27 15 65 50 71 86c-52 12 -79 55 -79 97c0 55 44 100 99 100s102 -37 102 -108c0 -101 -51 -194 -128 -247z" />
    <glyph glyph-name="divide" unicode="&#xf7;" horiz-adv-x="552" 
d="M275 429c-45 0 -81 37 -81 81c0 46 36 83 81 83c46 0 83 -37 83 -83c0 -44 -37 -81 -83 -81zM275 31c-45 0 -81 37 -81 81c0 46 36 83 81 83c46 0 83 -37 83 -83c0 -44 -37 -81 -83 -81zM36 246v132h481v-132h-481z" />
    <glyph glyph-name="fraction" unicode="&#x2044;" horiz-adv-x="480" 
d="M495 741l-368 -782h-141l367 782h142z" />
    <glyph glyph-name="Euro" unicode="&#x20ac;" horiz-adv-x="654" 
d="M23 483h69c45 131 169 230 329 230c91 0 142 -20 183 -45l-70 -140c-23 13 -70 29 -112 29c-61 0 -116 -27 -143 -74h193l-10 -107h-213c-1 -8 -1 -16 -1 -25s1 -17 2 -22h207l-10 -107h-162c29 -48 85 -74 148 -74c50 0 93 18 113 31l64 -139c-26 -25 -93 -53 -177 -53
c-174 0 -296 97 -342 235h-68v107h48s-1 7 -1 21c0 9 0 17 1 26h-48v107z" />
    <glyph glyph-name="guilsinglleft" unicode="&#x2039;" horiz-adv-x="318" 
d="M293 106h-147l-121 190l121 190h147l-122 -190z" />
    <glyph glyph-name="guilsinglright" unicode="&#x203a;" horiz-adv-x="318" 
d="M172 106h-147l122 190l-122 190h147l121 -190z" />
    <glyph glyph-name="daggerdbl" unicode="&#x2021;" horiz-adv-x="449" 
d="M24 303h118v93h-118v145h118v159h164v-159h119v-145h-119v-93h119v-144h-119v-159h-164v159h-118v144z" />
    <glyph glyph-name="periodcentered" unicode="&#xb7;" horiz-adv-x="261" 
d="M130 215c-55 0 -99 45 -99 99c0 55 44 100 99 100s100 -45 100 -100c0 -54 -45 -99 -100 -99z" />
    <glyph glyph-name="quotesinglbase" unicode="&#x201a;" horiz-adv-x="261" 
d="M39 -97c27 15 65 50 71 86c-52 12 -79 55 -79 97c0 55 44 100 99 100s102 -37 102 -108c0 -101 -51 -194 -128 -247z" />
    <glyph glyph-name="quotedblbase" unicode="&#x201e;" horiz-adv-x="471" 
d="M256 -97c27 15 65 50 71 86c-52 12 -79 55 -79 97c0 55 44 100 99 100s102 -37 102 -108c0 -101 -51 -194 -128 -247zM30 -97c27 15 65 50 71 86c-52 12 -79 55 -79 97c0 55 44 100 99 100s102 -37 102 -108c0 -101 -51 -194 -128 -247z" />
    <glyph glyph-name="perthousand" unicode="&#x2030;" horiz-adv-x="1227" 
d="M758 700l-528 -700h-160l528 700h160zM572 160c0 -32 23 -56 54 -56c34 0 55 25 55 56c0 30 -23 54 -55 54c-33 0 -54 -25 -54 -54zM448 159c0 96 75 173 177 173c105 0 180 -77 180 -173c0 -97 -75 -172 -179 -172s-178 74 -178 172zM146 541c0 -32 23 -56 54 -56
c34 0 55 25 55 56c0 30 -23 54 -55 54c-33 0 -54 -25 -54 -54zM22 540c0 96 75 173 177 173c105 0 180 -77 180 -173c0 -97 -75 -172 -179 -172s-178 74 -178 172zM972 160c0 -32 23 -56 54 -56c34 0 55 25 55 56c0 30 -23 54 -55 54c-33 0 -54 -25 -54 -54zM848 159
c0 96 75 173 177 173c105 0 180 -77 180 -173c0 -97 -75 -172 -179 -172s-178 74 -178 172z" />
    <glyph glyph-name="dotlessi" unicode="&#x131;" 
d="M215 525v-525h-167v525h167z" />
    <glyph glyph-name="circumflex" unicode="&#x2c6;" horiz-adv-x="443" 
d="M137 725h168l96 -145h-138l-41 65l-42 -65h-139z" />
    <glyph glyph-name="tilde" unicode="&#x2dc;" horiz-adv-x="442" 
d="M291 580c-54 0 -93 33 -124 33c-19 0 -30 -12 -30 -34h-102c0 88 47 148 118 148c57 0 92 -33 123 -33c19 0 29 13 29 34h102c0 -91 -46 -148 -116 -148z" />
    <glyph glyph-name="macron" unicode="&#xaf;" horiz-adv-x="442" 
d="M80 591v119h281v-119h-281z" />
    <glyph glyph-name="breve" unicode="&#x2d8;" horiz-adv-x="442" 
d="M220 578c-103 0 -163 63 -163 152h117c0 -27 7 -57 46 -57s47 30 47 57h117c0 -89 -60 -152 -164 -152z" />
    <glyph glyph-name="dotaccent" unicode="&#x2d9;" horiz-adv-x="442" 
d="M221 565c-47 0 -86 40 -86 86c0 48 39 87 86 87c48 0 87 -39 87 -87c0 -46 -39 -86 -87 -86z" />
    <glyph glyph-name="ring" unicode="&#x2da;" horiz-adv-x="442" 
d="M220 559c-64 0 -115 43 -115 105c0 63 51 106 115 106c66 0 116 -43 116 -105c0 -63 -50 -106 -116 -106zM221 627c21 0 36 15 36 38c0 22 -15 37 -36 37c-22 0 -36 -15 -36 -37c0 -23 14 -38 36 -38z" />
    <glyph glyph-name="cedilla" unicode="&#xb8;" horiz-adv-x="442" 
d="M182 -237c-21 0 -52 7 -66 12l20 80c8 -2 21 -5 34 -5c21 0 37 11 37 28c0 20 -26 26 -45 26c-7 0 -18 -1 -18 -1l18 110h82l-7 -48c47 -11 74 -44 74 -95c0 -73 -56 -107 -129 -107z" />
    <glyph glyph-name="hungarumlaut" unicode="&#x2dd;" horiz-adv-x="469" 
d="M92 725h157l-100 -145h-123zM285 725h157l-100 -145h-123z" />
    <glyph glyph-name="ogonek" unicode="&#x2db;" horiz-adv-x="443" 
d="M208 0h105c-9 -4 -47 -20 -47 -55c0 -29 27 -38 45 -38v-110c-8 -3 -35 -8 -67 -8c-58 0 -114 29 -114 99c0 59 48 98 78 112z" />
    <glyph glyph-name="caron" unicode="&#x2c7;" horiz-adv-x="443" 
d="M305 580h-168l-96 145h139l42 -65l41 65h138z" />
    <glyph glyph-name="Eth" unicode="&#xd0;" horiz-adv-x="678" 
d="M76 700h206c225 0 369 -131 369 -350s-144 -350 -369 -350h-206v277h-54v149h54v274zM247 552v-126h92v-149h-92v-129h35c115 0 191 68 191 202s-76 202 -191 202h-35z" />
    <glyph glyph-name="eth" unicode="&#xf0;" horiz-adv-x="587" 
d="M93 667l93 84c49 -20 101 -50 141 -76l137 50l14 -105l-64 -23c84 -81 149 -186 149 -317c0 -150 -82 -293 -273 -293c-166 0 -270 119 -270 264c0 153 114 245 255 245c9 0 17 0 26 -1c-9 16 -25 35 -42 49c0 0 -107 -37 -158 -54l-14 102l78 27c-25 18 -50 34 -72 48z
M187 251c0 -64 36 -117 102 -117c73 0 107 51 107 117c0 61 -39 113 -102 113c-70 0 -107 -50 -107 -113z" />
    <glyph glyph-name="dollar" unicode="$" horiz-adv-x="529" 
d="M221 -86v75c-133 15 -188 116 -204 165l143 71c19 -41 57 -78 105 -78c41 0 62 18 62 49c0 93 -290 85 -290 309c0 111 71 188 184 204v57h99v-58c111 -22 157 -111 173 -157l-142 -65c-14 31 -35 69 -88 69c-33 0 -55 -20 -55 -47c0 -95 292 -85 292 -299
c0 -110 -67 -193 -180 -216v-79h-99z" />
    <glyph glyph-name="cent" unicode="&#xa2;" horiz-adv-x="479" 
d="M259 0v66c-142 19 -238 125 -238 271c0 145 99 253 238 272v91h99v-92c42 -8 76 -24 103 -43l-45 -141c-29 24 -66 39 -105 39c-79 0 -123 -55 -123 -125c0 -77 52 -129 129 -129c39 0 76 18 99 37l44 -137c-26 -18 -60 -34 -102 -42v-67h-99z" />
    <glyph glyph-name="ntilde" unicode="&#xf1;" horiz-adv-x="567" 
d="M356 0v313c0 49 -29 75 -69 75c-46 0 -72 -33 -72 -75v-313h-167v525h163v-54c20 31 66 67 132 67c164 0 180 -140 180 -247v-291h-167zM353 580c-54 0 -93 33 -124 33c-19 0 -30 -12 -30 -34h-102c0 88 47 148 118 148c57 0 92 -33 123 -33c19 0 29 13 29 34h102
c0 -91 -46 -148 -116 -148z" />
    <glyph glyph-name="Oslash" unicode="&#xd8;" horiz-adv-x="788" 
d="M394 -13c-71 0 -133 16 -186 44l-46 -57l-88 70l45 56c-59 65 -92 152 -92 251c0 203 146 362 367 362c68 0 129 -16 180 -42l45 56l88 -70l-43 -54c62 -65 97 -153 97 -252c0 -206 -146 -364 -367 -364zM394 147c111 0 189 86 189 204c0 42 -11 81 -30 113l-239 -300
c24 -11 51 -17 80 -17zM394 553c-112 0 -189 -87 -189 -202c0 -41 9 -79 26 -110l237 297c-22 10 -47 15 -74 15z" />
    <glyph glyph-name="oslash" unicode="&#xf8;" horiz-adv-x="615" 
d="M21 261c0 159 123 277 285 277c50 0 96 -11 136 -29l37 47l76 -59l-35 -44c47 -49 74 -114 74 -190c0 -158 -122 -276 -288 -276c-49 0 -93 10 -132 28l-40 -51l-75 59l37 46c-48 49 -75 115 -75 192zM188 261c0 -22 4 -42 12 -60l144 184c-12 4 -25 6 -38 6
c-69 0 -118 -53 -118 -130zM427 263c0 21 -4 40 -12 57l-143 -182c10 -3 22 -4 34 -4c69 0 121 54 121 129z" />
    <glyph glyph-name="ccedilla" unicode="&#xe7;" horiz-adv-x="479" 
d="M249 -237c-21 0 -52 7 -66 12l20 80c8 -2 21 -5 34 -5c21 0 37 11 37 28c0 20 -26 26 -45 26c-7 0 -18 -1 -18 -1l15 94c-123 29 -205 131 -205 265c0 161 122 276 284 276c68 0 119 -22 156 -48l-45 -141c-29 24 -66 39 -105 39c-79 0 -123 -55 -123 -125
c0 -77 52 -129 129 -129c39 0 76 18 99 37l44 -137c-35 -24 -88 -47 -153 -47l-3 -22c47 -11 74 -44 74 -95c0 -73 -56 -107 -129 -107z" />
    <glyph glyph-name="section" unicode="&#xa7;" horiz-adv-x="528" 
d="M495 237c0 -56 -29 -101 -84 -130c43 -35 76 -78 76 -143c0 -113 -84 -192 -219 -192c-148 0 -219 109 -237 162l140 61c14 -31 49 -69 97 -69c26 0 48 13 48 40c0 28 -22 45 -57 66l-117 70c-68 40 -110 89 -110 166c0 56 29 101 84 130c-43 35 -76 78 -76 143
c0 113 84 192 219 192c148 0 219 -109 237 -162l-140 -61c-14 31 -49 69 -97 69c-26 0 -48 -13 -48 -40c0 -28 22 -45 57 -66l117 -70c68 -40 110 -89 110 -166zM339 234c0 17 -9 30 -24 38l-77 41c-33 0 -50 -19 -50 -42c0 -17 9 -30 24 -38l77 -41c33 0 50 19 50 42z" />
    <glyph glyph-name="oe" unicode="&#x153;" horiz-adv-x="956" 
d="M936 219h-344c4 -47 49 -87 111 -87c63 0 100 41 110 56l110 -85c-15 -31 -87 -116 -223 -116c-83 0 -149 27 -195 72c-50 -45 -120 -72 -199 -72c-167 0 -285 116 -285 274c0 159 123 277 285 277c80 0 149 -26 199 -71c43 44 102 71 174 71c167 0 258 -107 258 -286
c0 -10 0 -21 -1 -33zM188 261c0 -76 50 -127 118 -127c69 0 121 54 121 129c0 77 -53 128 -121 128c-69 0 -118 -53 -118 -130zM682 403c-55 0 -81 -41 -85 -78h170c-2 42 -33 78 -85 78z" />
    <glyph glyph-name="ae" unicode="&#xe6;" horiz-adv-x="856" 
d="M836 219h-344c4 -47 49 -87 111 -87c63 0 100 41 110 56l110 -85c-15 -31 -87 -116 -223 -116c-85 0 -154 28 -202 75c-35 -45 -87 -75 -183 -75c-103 0 -195 62 -195 176c0 105 80 174 204 174c46 0 82 -11 101 -19v19c0 32 -26 57 -80 57c-46 0 -91 -13 -132 -33
l-62 112c56 37 127 65 214 65c76 0 127 -19 162 -49c41 31 93 49 152 49c167 0 258 -107 258 -286c0 -10 0 -21 -1 -33zM187 169c0 -35 32 -54 71 -54c40 0 70 19 70 54c0 36 -31 56 -71 56s-70 -22 -70 -56zM582 403c-55 0 -81 -41 -85 -78h170c-2 42 -33 78 -85 78z" />
    <glyph glyph-name="aacute" unicode="&#xe1;" horiz-adv-x="534" 
d="M20 163c0 105 80 174 204 174c46 0 82 -11 101 -19v19c0 32 -26 57 -80 57c-46 0 -91 -13 -132 -33l-62 112c56 37 127 65 214 65c181 0 227 -93 227 -213v-325h-149l-9 29c-27 -27 -65 -42 -119 -42c-103 0 -195 62 -195 176zM187 169c0 -35 32 -54 71 -54
c40 0 70 19 70 54c0 36 -31 56 -71 56s-70 -22 -70 -56zM255 725h173l-100 -145h-139z" />
    <glyph glyph-name="agrave" unicode="&#xe0;" horiz-adv-x="534" 
d="M20 163c0 105 80 174 204 174c46 0 82 -11 101 -19v19c0 32 -26 57 -80 57c-46 0 -91 -13 -132 -33l-62 112c56 37 127 65 214 65c181 0 227 -93 227 -213v-325h-149l-9 29c-27 -27 -65 -42 -119 -42c-103 0 -195 62 -195 176zM187 169c0 -35 32 -54 71 -54
c40 0 70 19 70 54c0 36 -31 56 -71 56s-70 -22 -70 -56zM119 725h173l66 -145h-139z" />
    <glyph glyph-name="aring" unicode="&#xe5;" horiz-adv-x="534" 
d="M20 163c0 105 80 174 204 174c46 0 82 -11 101 -19v19c0 32 -26 57 -80 57c-46 0 -91 -13 -132 -33l-62 112c56 37 127 65 214 65c181 0 227 -93 227 -213v-325h-149l-9 29c-27 -27 -65 -42 -119 -42c-103 0 -195 62 -195 176zM187 169c0 -35 32 -54 71 -54
c40 0 70 19 70 54c0 36 -31 56 -71 56s-70 -22 -70 -56zM274 559c-64 0 -115 43 -115 105c0 63 51 106 115 106c66 0 116 -43 116 -105c0 -63 -50 -106 -116 -106zM275 627c21 0 36 15 36 38c0 22 -15 37 -36 37c-22 0 -36 -15 -36 -37c0 -23 14 -38 36 -38z" />
    <glyph glyph-name="atilde" unicode="&#xe3;" horiz-adv-x="534" 
d="M20 163c0 105 80 174 204 174c46 0 82 -11 101 -19v19c0 32 -26 57 -80 57c-46 0 -91 -13 -132 -33l-62 112c56 37 127 65 214 65c181 0 227 -93 227 -213v-325h-149l-9 29c-27 -27 -65 -42 -119 -42c-103 0 -195 62 -195 176zM187 169c0 -35 32 -54 71 -54
c40 0 70 19 70 54c0 36 -31 56 -71 56s-70 -22 -70 -56zM331 580c-54 0 -93 33 -124 33c-19 0 -30 -12 -30 -34h-102c0 88 47 148 118 148c57 0 92 -33 123 -33c19 0 29 13 29 34h102c0 -91 -46 -148 -116 -148z" />
    <glyph glyph-name="ydieresis" unicode="&#xff;" horiz-adv-x="556" 
d="M549 525l-260 -704h-158l71 196l-196 508h179l93 -302l97 302h174zM181 576c-46 0 -77 35 -77 77s31 77 77 77c45 0 77 -35 77 -77s-32 -77 -77 -77zM382 576c-46 0 -77 35 -77 77s31 77 77 77c45 0 77 -35 77 -77s-32 -77 -77 -77z" />
    <glyph glyph-name="acircumflex" unicode="&#xe2;" horiz-adv-x="534" 
d="M20 163c0 105 80 174 204 174c46 0 82 -11 101 -19v19c0 32 -26 57 -80 57c-46 0 -91 -13 -132 -33l-62 112c56 37 127 65 214 65c181 0 227 -93 227 -213v-325h-149l-9 29c-27 -27 -65 -42 -119 -42c-103 0 -195 62 -195 176zM187 169c0 -35 32 -54 71 -54
c40 0 70 19 70 54c0 36 -31 56 -71 56s-70 -22 -70 -56zM183 725h168l96 -145h-138l-41 65l-42 -65h-139z" />
    <glyph glyph-name="adieresis" unicode="&#xe4;" horiz-adv-x="534" 
d="M20 163c0 105 80 174 204 174c46 0 82 -11 101 -19v19c0 32 -26 57 -80 57c-46 0 -91 -13 -132 -33l-62 112c56 37 127 65 214 65c181 0 227 -93 227 -213v-325h-149l-9 29c-27 -27 -65 -42 -119 -42c-103 0 -195 62 -195 176zM187 169c0 -35 32 -54 71 -54
c40 0 70 19 70 54c0 36 -31 56 -71 56s-70 -22 -70 -56zM170 576c-46 0 -77 35 -77 77s31 77 77 77c45 0 77 -35 77 -77s-32 -77 -77 -77zM371 576c-46 0 -77 35 -77 77s31 77 77 77c45 0 77 -35 77 -77s-32 -77 -77 -77z" />
    <glyph glyph-name="eacute" unicode="&#xe9;" horiz-adv-x="557" 
d="M537 219h-344c4 -47 49 -87 111 -87c63 0 100 41 110 56l110 -85c-15 -31 -87 -116 -223 -116c-173 0 -279 119 -279 274c0 154 104 277 258 277c167 0 258 -107 258 -286c0 -10 0 -21 -1 -33zM283 403c-55 0 -81 -41 -85 -78h170c-2 42 -33 78 -85 78zM265 725h173
l-100 -145h-139z" />
    <glyph glyph-name="edieresis" unicode="&#xeb;" horiz-adv-x="557" 
d="M537 219h-344c4 -47 49 -87 111 -87c63 0 100 41 110 56l110 -85c-15 -31 -87 -116 -223 -116c-173 0 -279 119 -279 274c0 154 104 277 258 277c167 0 258 -107 258 -286c0 -10 0 -21 -1 -33zM283 403c-55 0 -81 -41 -85 -78h170c-2 42 -33 78 -85 78zM185 576
c-46 0 -77 35 -77 77s31 77 77 77c45 0 77 -35 77 -77s-32 -77 -77 -77zM386 576c-46 0 -77 35 -77 77s31 77 77 77c45 0 77 -35 77 -77s-32 -77 -77 -77z" />
    <glyph glyph-name="ecircumflex" unicode="&#xea;" horiz-adv-x="557" 
d="M537 219h-344c4 -47 49 -87 111 -87c63 0 100 41 110 56l110 -85c-15 -31 -87 -116 -223 -116c-173 0 -279 119 -279 274c0 154 104 277 258 277c167 0 258 -107 258 -286c0 -10 0 -21 -1 -33zM283 403c-55 0 -81 -41 -85 -78h170c-2 42 -33 78 -85 78zM202 725h168
l96 -145h-138l-41 65l-42 -65h-139z" />
    <glyph glyph-name="egrave" unicode="&#xe8;" horiz-adv-x="557" 
d="M537 219h-344c4 -47 49 -87 111 -87c63 0 100 41 110 56l110 -85c-15 -31 -87 -116 -223 -116c-173 0 -279 119 -279 274c0 154 104 277 258 277c167 0 258 -107 258 -286c0 -10 0 -21 -1 -33zM283 403c-55 0 -81 -41 -85 -78h170c-2 42 -33 78 -85 78zM130 725h173
l66 -145h-139z" />
    <glyph glyph-name="iacute" unicode="&#xed;" 
d="M215 525v-525h-167v525h167zM106 725h173l-100 -145h-139z" />
    <glyph glyph-name="idieresis" unicode="&#xef;" 
d="M215 525v-525h-167v525h167zM35 576c-46 0 -77 35 -77 77s31 77 77 77c45 0 77 -35 77 -77s-32 -77 -77 -77zM236 576c-46 0 -77 35 -77 77s31 77 77 77c45 0 77 -35 77 -77s-32 -77 -77 -77z" />
    <glyph glyph-name="icircumflex" unicode="&#xee;" 
d="M215 525v-525h-167v525h167zM51 725h168l96 -145h-138l-41 65l-42 -65h-139z" />
    <glyph glyph-name="igrave" unicode="&#xec;" 
d="M215 525v-525h-167v525h167zM-16 725h173l66 -145h-139z" />
    <glyph glyph-name="udieresis" unicode="&#xfc;" horiz-adv-x="563" 
d="M211 525v-313c0 -49 29 -75 69 -75c46 0 72 33 72 75v313h167v-525h-163v54c-20 -31 -66 -67 -132 -67c-164 0 -180 140 -180 247v291h167zM186 576c-46 0 -77 35 -77 77s31 77 77 77c45 0 77 -35 77 -77s-32 -77 -77 -77zM387 576c-46 0 -77 35 -77 77s31 77 77 77
c45 0 77 -35 77 -77s-32 -77 -77 -77z" />
    <glyph glyph-name="ucircumflex" unicode="&#xfb;" horiz-adv-x="563" 
d="M211 525v-313c0 -49 29 -75 69 -75c46 0 72 33 72 75v313h167v-525h-163v54c-20 -31 -66 -67 -132 -67c-164 0 -180 140 -180 247v291h167zM200 725h168l96 -145h-138l-41 65l-42 -65h-139z" />
    <glyph glyph-name="ugrave" unicode="&#xf9;" horiz-adv-x="563" 
d="M211 525v-313c0 -49 29 -75 69 -75c46 0 72 33 72 75v313h167v-525h-163v54c-20 -31 -66 -67 -132 -67c-164 0 -180 140 -180 247v291h167zM132 725h173l66 -145h-139z" />
    <glyph glyph-name="odieresis" unicode="&#xf6;" horiz-adv-x="615" 
d="M21 261c0 159 123 277 285 277c169 0 288 -116 288 -275c0 -158 -122 -276 -288 -276c-167 0 -285 116 -285 274zM188 261c0 -76 50 -127 118 -127c69 0 121 54 121 129c0 77 -53 128 -121 128c-69 0 -118 -53 -118 -130zM209 576c-46 0 -77 35 -77 77s31 77 77 77
c45 0 77 -35 77 -77s-32 -77 -77 -77zM410 576c-46 0 -77 35 -77 77s31 77 77 77c45 0 77 -35 77 -77s-32 -77 -77 -77z" />
    <glyph glyph-name="otilde" unicode="&#xf5;" horiz-adv-x="615" 
d="M21 261c0 159 123 277 285 277c169 0 288 -116 288 -275c0 -158 -122 -276 -288 -276c-167 0 -285 116 -285 274zM188 261c0 -76 50 -127 118 -127c69 0 121 54 121 129c0 77 -53 128 -121 128c-69 0 -118 -53 -118 -130zM379 580c-54 0 -93 33 -124 33
c-19 0 -30 -12 -30 -34h-102c0 88 47 148 118 148c57 0 92 -33 123 -33c19 0 29 13 29 34h102c0 -91 -46 -148 -116 -148z" />
    <glyph glyph-name="uacute" unicode="&#xfa;" horiz-adv-x="563" 
d="M211 525v-313c0 -49 29 -75 69 -75c46 0 72 33 72 75v313h167v-525h-163v54c-20 -31 -66 -67 -132 -67c-164 0 -180 140 -180 247v291h167zM265 725h173l-100 -145h-139z" />
    <glyph glyph-name="oacute" unicode="&#xf3;" horiz-adv-x="615" 
d="M21 261c0 159 123 277 285 277c169 0 288 -116 288 -275c0 -158 -122 -276 -288 -276c-167 0 -285 116 -285 274zM188 261c0 -76 50 -127 118 -127c69 0 121 54 121 129c0 77 -53 128 -121 128c-69 0 -118 -53 -118 -130zM289 725h173l-100 -145h-139z" />
    <glyph glyph-name="ograve" unicode="&#xf2;" horiz-adv-x="615" 
d="M21 261c0 159 123 277 285 277c169 0 288 -116 288 -275c0 -158 -122 -276 -288 -276c-167 0 -285 116 -285 274zM188 261c0 -76 50 -127 118 -127c69 0 121 54 121 129c0 77 -53 128 -121 128c-69 0 -118 -53 -118 -130zM152 725h173l66 -145h-139z" />
    <glyph glyph-name="ocircumflex" unicode="&#xf4;" horiz-adv-x="615" 
d="M21 261c0 159 123 277 285 277c169 0 288 -116 288 -275c0 -158 -122 -276 -288 -276c-167 0 -285 116 -285 274zM188 261c0 -76 50 -127 118 -127c69 0 121 54 121 129c0 77 -53 128 -121 128c-69 0 -118 -53 -118 -130zM227 725h168l96 -145h-138l-41 65l-42 -65h-139z
" />
    <glyph glyph-name="Adieresis" unicode="&#xc4;" horiz-adv-x="676" 
d="M448 157h-220l-50 -157h-172l242 700h180l242 -700h-172zM404 297l-66 222l-66 -222h132zM237 736c-46 0 -77 35 -77 77s31 77 77 77c45 0 77 -35 77 -77s-32 -77 -77 -77zM438 736c-46 0 -77 35 -77 77s31 77 77 77c45 0 77 -35 77 -77s-32 -77 -77 -77z" />
    <glyph glyph-name="Aring" unicode="&#xc5;" horiz-adv-x="676" 
d="M448 157h-220l-50 -157h-172l242 700h180l242 -700h-172zM404 297l-66 222l-66 -222h132zM337 728c-64 0 -115 43 -115 105c0 63 51 106 115 106c66 0 116 -43 116 -105c0 -63 -50 -106 -116 -106zM338 796c21 0 36 15 36 38c0 22 -15 37 -36 37c-22 0 -36 -15 -36 -37
c0 -23 14 -38 36 -38z" />
    <glyph glyph-name="Eacute" unicode="&#xc9;" horiz-adv-x="485" 
d="M443 0h-381v700h373v-153h-202v-117h172v-152h-172v-125h210v-153zM231 880h173l-100 -145h-139z" />
    <glyph glyph-name="Ntilde" unicode="&#xd1;" horiz-adv-x="718" 
d="M488 0l-260 429v-429h-168v700h174l256 -434v434h168v-700h-170zM429 737c-54 0 -93 33 -124 33c-19 0 -30 -12 -30 -34h-102c0 88 47 148 118 148c57 0 92 -33 123 -33c19 0 29 13 29 34h102c0 -91 -46 -148 -116 -148z" />
    <glyph glyph-name="Odieresis" unicode="&#xd6;" horiz-adv-x="788" 
d="M394 -13c-221 0 -367 158 -367 364c0 203 146 362 367 362s367 -159 367 -362c0 -206 -146 -364 -367 -364zM394 553c-112 0 -189 -87 -189 -202c0 -118 78 -204 189 -204s189 86 189 204c0 115 -77 202 -189 202zM293 736c-46 0 -77 35 -77 77s31 77 77 77
c45 0 77 -35 77 -77s-32 -77 -77 -77zM494 736c-46 0 -77 35 -77 77s31 77 77 77c45 0 77 -35 77 -77s-32 -77 -77 -77z" />
    <glyph glyph-name="Udieresis" unicode="&#xdc;" horiz-adv-x="704" 
d="M352 -12c-188 0 -292 114 -292 281v431h171v-431c0 -76 46 -123 122 -123c77 0 120 47 120 124v430h171v-430c0 -164 -107 -282 -292 -282zM254 736c-46 0 -77 35 -77 77s31 77 77 77c45 0 77 -35 77 -77s-32 -77 -77 -77zM455 736c-46 0 -77 35 -77 77s31 77 77 77
c45 0 77 -35 77 -77s-32 -77 -77 -77z" />
    <glyph glyph-name="Ccedilla" unicode="&#xc7;" horiz-adv-x="630" 
d="M325 -237c-21 0 -52 7 -66 12l20 80c8 -2 21 -5 34 -5c21 0 37 11 37 28c0 20 -26 26 -45 26c-7 0 -18 -1 -18 -1l15 94c-171 37 -275 178 -275 354c0 205 152 362 370 362c87 0 154 -25 204 -59l-48 -150c-37 25 -90 49 -150 49c-128 0 -198 -93 -198 -202
s70 -204 198 -204c60 0 116 24 153 49l48 -150c-50 -34 -120 -59 -207 -59c-5 0 -14 1 -14 1l-3 -23c47 -11 74 -44 74 -95c0 -73 -56 -107 -129 -107z" />
    <glyph glyph-name="Agrave" unicode="&#xc0;" horiz-adv-x="676" 
d="M448 157h-220l-50 -157h-172l242 700h180l242 -700h-172zM404 297l-66 222l-66 -222h132zM175 880h173l66 -145h-139z" />
    <glyph glyph-name="Ydieresis" unicode="&#x178;" horiz-adv-x="610" 
d="M390 0h-170v316l-214 384h192l107 -229l110 229h189l-214 -384v-316zM205 736c-46 0 -77 35 -77 77s31 77 77 77c45 0 77 -35 77 -77s-32 -77 -77 -77zM406 736c-46 0 -77 35 -77 77s31 77 77 77c45 0 77 -35 77 -77s-32 -77 -77 -77z" />
    <glyph glyph-name="Atilde" unicode="&#xc3;" horiz-adv-x="676" 
d="M448 157h-220l-50 -157h-172l242 700h180l242 -700h-172zM404 297l-66 222l-66 -222h132zM408 737c-54 0 -93 33 -124 33c-19 0 -30 -12 -30 -34h-102c0 88 47 148 118 148c57 0 92 -33 123 -33c19 0 29 13 29 34h102c0 -91 -46 -148 -116 -148z" />
    <glyph glyph-name="Otilde" unicode="&#xd5;" horiz-adv-x="788" 
d="M394 -13c-221 0 -367 158 -367 364c0 203 146 362 367 362s367 -159 367 -362c0 -206 -146 -364 -367 -364zM394 553c-112 0 -189 -87 -189 -202c0 -118 78 -204 189 -204s189 86 189 204c0 115 -77 202 -189 202zM464 737c-54 0 -93 33 -124 33c-19 0 -30 -12 -30 -34
h-102c0 88 47 148 118 148c57 0 92 -33 123 -33c19 0 29 13 29 34h102c0 -91 -46 -148 -116 -148z" />
    <glyph glyph-name="Acircumflex" unicode="&#xc2;" horiz-adv-x="676" 
d="M448 157h-220l-50 -157h-172l242 700h180l242 -700h-172zM404 297l-66 222l-66 -222h132zM255 880h168l96 -145h-138l-41 65l-42 -65h-139z" />
    <glyph glyph-name="Ecircumflex" unicode="&#xca;" horiz-adv-x="485" 
d="M443 0h-381v700h373v-153h-202v-117h172v-152h-172v-125h210v-153zM166 880h168l96 -145h-138l-41 65l-42 -65h-139z" />
    <glyph glyph-name="Ucircumflex" unicode="&#xdb;" horiz-adv-x="704" 
d="M352 -12c-188 0 -292 114 -292 281v431h171v-431c0 -76 46 -123 122 -123c77 0 120 47 120 124v430h171v-430c0 -164 -107 -282 -292 -282zM268 880h168l96 -145h-138l-41 65l-42 -65h-139z" />
    <glyph glyph-name="Ocircumflex" unicode="&#xd4;" horiz-adv-x="788" 
d="M394 -13c-221 0 -367 158 -367 364c0 203 146 362 367 362s367 -159 367 -362c0 -206 -146 -364 -367 -364zM394 553c-112 0 -189 -87 -189 -202c0 -118 78 -204 189 -204s189 86 189 204c0 115 -77 202 -189 202zM308 880h168l96 -145h-138l-41 65l-42 -65h-139z" />
    <glyph glyph-name="Icircumflex" unicode="&#xce;" horiz-adv-x="295" 
d="M233 700v-700h-171v700h171zM64 880h168l96 -145h-138l-41 65l-42 -65h-139z" />
    <glyph glyph-name="Aacute" unicode="&#xc1;" horiz-adv-x="676" 
d="M448 157h-220l-50 -157h-172l242 700h180l242 -700h-172zM404 297l-66 222l-66 -222h132zM321 880h173l-100 -145h-139z" />
    <glyph glyph-name="Ugrave" unicode="&#xd9;" horiz-adv-x="704" 
d="M352 -12c-188 0 -292 114 -292 281v431h171v-431c0 -76 46 -123 122 -123c77 0 120 47 120 124v430h171v-430c0 -164 -107 -282 -292 -282zM195 880h173l66 -145h-139z" />
    <glyph glyph-name="Uacute" unicode="&#xda;" horiz-adv-x="704" 
d="M352 -12c-188 0 -292 114 -292 281v431h171v-431c0 -76 46 -123 122 -123c77 0 120 47 120 124v430h171v-430c0 -164 -107 -282 -292 -282zM340 880h173l-100 -145h-139z" />
    <glyph glyph-name="Ograve" unicode="&#xd2;" horiz-adv-x="788" 
d="M394 -13c-221 0 -367 158 -367 364c0 203 146 362 367 362s367 -159 367 -362c0 -206 -146 -364 -367 -364zM394 553c-112 0 -189 -87 -189 -202c0 -118 78 -204 189 -204s189 86 189 204c0 115 -77 202 -189 202zM237 880h173l66 -145h-139z" />
    <glyph glyph-name="Oacute" unicode="&#xd3;" horiz-adv-x="788" 
d="M394 -13c-221 0 -367 158 -367 364c0 203 146 362 367 362s367 -159 367 -362c0 -206 -146 -364 -367 -364zM394 553c-112 0 -189 -87 -189 -202c0 -118 78 -204 189 -204s189 86 189 204c0 115 -77 202 -189 202zM378 880h173l-100 -145h-139z" />
    <glyph glyph-name="Idieresis" unicode="&#xcf;" horiz-adv-x="295" 
d="M233 700v-700h-171v700h171zM52 736c-46 0 -77 35 -77 77s31 77 77 77c45 0 77 -35 77 -77s-32 -77 -77 -77zM253 736c-46 0 -77 35 -77 77s31 77 77 77c45 0 77 -35 77 -77s-32 -77 -77 -77z" />
    <glyph glyph-name="Igrave" unicode="&#xcc;" horiz-adv-x="295" 
d="M233 700v-700h-171v700h171zM1 880h173l66 -145h-139z" />
    <glyph glyph-name="Egrave" unicode="&#xc8;" horiz-adv-x="485" 
d="M443 0h-381v700h373v-153h-202v-117h172v-152h-172v-125h210v-153zM104 880h173l66 -145h-139z" />
    <glyph glyph-name="Edieresis" unicode="&#xcb;" horiz-adv-x="485" 
d="M443 0h-381v700h373v-153h-202v-117h172v-152h-172v-125h210v-153zM147 736c-46 0 -77 35 -77 77s31 77 77 77c45 0 77 -35 77 -77s-32 -77 -77 -77zM348 736c-46 0 -77 35 -77 77s31 77 77 77c45 0 77 -35 77 -77s-32 -77 -77 -77z" />
    <glyph glyph-name="Iacute" unicode="&#xcd;" horiz-adv-x="295" 
d="M233 700v-700h-171v700h171zM131 880h173l-100 -145h-139z" />
    <glyph glyph-name="Yacute" unicode="&#xdd;" horiz-adv-x="610" 
d="M390 0h-170v316l-214 384h192l107 -229l110 229h189l-214 -384v-316zM296 880h173l-100 -145h-139z" />
    <glyph glyph-name="yacute" unicode="&#xfd;" horiz-adv-x="556" 
d="M549 525l-260 -704h-158l71 196l-196 508h179l93 -302l97 302h174zM266 725h173l-100 -145h-139z" />
    <glyph glyph-name="Amacron" unicode="&#x100;" horiz-adv-x="676" 
d="M448 157h-220l-50 -157h-172l242 700h180l242 -700h-172zM404 297l-66 222l-66 -222h132zM197 746v119h281v-119h-281z" />
    <glyph glyph-name="amacron" unicode="&#x101;" horiz-adv-x="534" 
d="M20 163c0 105 80 174 204 174c46 0 82 -11 101 -19v19c0 32 -26 57 -80 57c-46 0 -91 -13 -132 -33l-62 112c56 37 127 65 214 65c181 0 227 -93 227 -213v-325h-149l-9 29c-27 -27 -65 -42 -119 -42c-103 0 -195 62 -195 176zM187 169c0 -35 32 -54 71 -54
c40 0 70 19 70 54c0 36 -31 56 -71 56s-70 -22 -70 -56zM132 591v119h281v-119h-281z" />
    <glyph glyph-name="Abreve" unicode="&#x102;" horiz-adv-x="676" 
d="M448 157h-220l-50 -157h-172l242 700h180l242 -700h-172zM404 297l-66 222l-66 -222h132zM337 739c-103 0 -163 63 -163 152h117c0 -27 7 -57 46 -57s47 30 47 57h117c0 -89 -60 -152 -164 -152z" />
    <glyph glyph-name="abreve" unicode="&#x103;" horiz-adv-x="534" 
d="M20 163c0 105 80 174 204 174c46 0 82 -11 101 -19v19c0 32 -26 57 -80 57c-46 0 -91 -13 -132 -33l-62 112c56 37 127 65 214 65c181 0 227 -93 227 -213v-325h-149l-9 29c-27 -27 -65 -42 -119 -42c-103 0 -195 62 -195 176zM187 169c0 -35 32 -54 71 -54
c40 0 70 19 70 54c0 36 -31 56 -71 56s-70 -22 -70 -56zM266 578c-103 0 -163 63 -163 152h117c0 -27 7 -57 46 -57s47 30 47 57h117c0 -89 -60 -152 -164 -152z" />
    <glyph glyph-name="Aogonek" unicode="&#x104;" horiz-adv-x="676" 
d="M428 700l242 -700c-9 -4 -47 -20 -47 -55c0 -29 27 -38 45 -38v-110c-8 -3 -35 -8 -67 -8c-58 0 -114 29 -114 99c0 59 48 98 78 112h-67l-50 157h-220l-50 -157h-172l242 700h180zM404 297l-66 222l-66 -222h132z" />
    <glyph glyph-name="aogonek" unicode="&#x105;" horiz-adv-x="534" 
d="M387 0h-44l-9 29c-27 -27 -65 -42 -119 -42c-103 0 -195 62 -195 176c0 105 80 174 204 174c50 0 85 -10 101 -19v19c0 32 -26 57 -80 57c-46 0 -91 -13 -132 -33l-62 112c56 37 127 65 214 65c181 0 227 -93 227 -213v-325c-9 -4 -47 -20 -47 -55c0 -29 27 -38 45 -38
v-110c-8 -3 -35 -8 -67 -8c-58 0 -114 29 -114 99c0 59 48 98 78 112zM187 169c0 -35 32 -54 71 -54c40 0 70 19 70 54c0 36 -31 56 -71 56s-70 -22 -70 -56z" />
    <glyph glyph-name="Cacute" unicode="&#x106;" horiz-adv-x="630" 
d="M397 -13c-226 0 -370 158 -370 364c0 205 152 362 370 362c87 0 154 -25 204 -59l-48 -150c-37 25 -90 49 -150 49c-128 0 -198 -93 -198 -202s70 -204 198 -204c60 0 116 24 153 49l48 -150c-50 -34 -120 -59 -207 -59zM359 880h173l-100 -145h-139z" />
    <glyph glyph-name="cacute" unicode="&#x107;" horiz-adv-x="479" 
d="M317 134c39 0 76 18 99 37l44 -137c-35 -24 -88 -47 -154 -47c-167 0 -285 114 -285 275s122 276 284 276c68 0 119 -22 156 -48l-45 -141c-29 24 -66 39 -105 39c-79 0 -123 -55 -123 -125c0 -77 52 -129 129 -129zM264 725h173l-100 -145h-139z" />
    <glyph glyph-name="commaaccent" unicode="&#xf6c3;" horiz-adv-x="323" 
d="M87 -257c20 14 43 37 51 64c-44 10 -65 47 -65 82c0 47 39 84 86 84c52 0 90 -39 90 -99c0 -76 -45 -151 -107 -192z" />
    <glyph glyph-name="Ccircumflex" unicode="&#x108;" horiz-adv-x="630" 
d="M397 -13c-226 0 -370 158 -370 364c0 205 152 362 370 362c87 0 154 -25 204 -59l-48 -150c-37 25 -90 49 -150 49c-128 0 -198 -93 -198 -202s70 -204 198 -204c60 0 116 24 153 49l48 -150c-50 -34 -120 -59 -207 -59zM306 880h168l96 -145h-138l-41 65l-42 -65h-139z
" />
    <glyph glyph-name="ccircumflex" unicode="&#x109;" horiz-adv-x="479" 
d="M317 134c39 0 76 18 99 37l44 -137c-35 -24 -88 -47 -154 -47c-167 0 -285 114 -285 275s122 276 284 276c68 0 119 -22 156 -48l-45 -141c-29 24 -66 39 -105 39c-79 0 -123 -55 -123 -125c0 -77 52 -129 129 -129zM212 725h168l96 -145h-138l-41 65l-42 -65h-139z" />
    <glyph glyph-name="Tcommaaccent" unicode="&#x162;" horiz-adv-x="511" 
d="M492 547h-151v-547h-67l-5 -35c47 -11 74 -44 74 -95c0 -73 -56 -107 -129 -107c-21 0 -52 7 -66 12l20 80c8 -2 21 -5 34 -5c21 0 37 11 37 28c0 20 -26 26 -45 26c-7 0 -18 -1 -18 -1l16 97h-22v547h-151v153h473v-153z" />
    <glyph glyph-name="tcommaaccent" unicode="&#x163;" horiz-adv-x="352" 
d="M229 636v-111h89v-135h-89v-193c0 -46 31 -57 65 -57c9 0 17 0 28 1v-143s-22 -6 -64 -6c-11 0 -21 1 -30 2l-4 -29c47 -11 74 -44 74 -95c0 -73 -56 -107 -129 -107c-21 0 -52 7 -66 12l20 80c8 -2 21 -5 34 -5c21 0 37 11 37 28c0 20 -26 26 -45 26c-7 0 -18 -1 -18 -1
l18 111c-56 29 -87 88 -87 191v185h-51v135h51v111h167z" />
    <glyph glyph-name="Cdotaccent" unicode="&#x10a;" horiz-adv-x="630" 
d="M397 -13c-226 0 -370 158 -370 364c0 205 152 362 370 362c87 0 154 -25 204 -59l-48 -150c-37 25 -90 49 -150 49c-128 0 -198 -93 -198 -202s70 -204 198 -204c60 0 116 24 153 49l48 -150c-50 -34 -120 -59 -207 -59zM397 727c-47 0 -86 40 -86 86c0 48 39 87 86 87
c48 0 87 -39 87 -87c0 -46 -39 -86 -87 -86z" />
    <glyph glyph-name="cdotaccent" unicode="&#x10b;" horiz-adv-x="479" 
d="M315 134c39 0 76 18 99 37l44 -137c-35 -24 -88 -47 -154 -47c-167 0 -285 114 -285 275s122 276 284 276c68 0 119 -22 156 -48l-45 -141c-29 24 -66 39 -105 39c-79 0 -123 -55 -123 -125c0 -77 52 -129 129 -129zM302 565c-47 0 -86 40 -86 86c0 48 39 87 86 87
c48 0 87 -39 87 -87c0 -46 -39 -86 -87 -86z" />
    <glyph glyph-name="Ccaron" unicode="&#x10c;" horiz-adv-x="630" 
d="M397 -13c-226 0 -370 158 -370 364c0 205 152 362 370 362c87 0 154 -25 204 -59l-48 -150c-37 25 -90 49 -150 49c-128 0 -198 -93 -198 -202s70 -204 198 -204c60 0 116 24 153 49l48 -150c-50 -34 -120 -59 -207 -59zM477 735h-168l-96 145h139l42 -65l41 65h138z" />
    <glyph glyph-name="ccaron" unicode="&#x10d;" horiz-adv-x="479" 
d="M317 134c39 0 76 18 99 37l44 -137c-35 -24 -88 -47 -154 -47c-167 0 -285 114 -285 275s122 276 284 276c68 0 119 -22 156 -48l-45 -141c-29 24 -66 39 -105 39c-79 0 -123 -55 -123 -125c0 -77 52 -129 129 -129zM380 580h-168l-96 145h139l42 -65l41 65h138z" />
    <glyph glyph-name="Dcaron" unicode="&#x10e;" horiz-adv-x="664" 
d="M62 700h206c225 0 369 -131 369 -350s-144 -350 -369 -350h-206v700zM268 552h-35v-404h35c115 0 191 68 191 202s-76 202 -191 202zM370 735h-168l-96 145h139l42 -65l41 65h138z" />
    <glyph glyph-name="dcaron" unicode="&#x10f;" horiz-adv-x="626" 
d="M610 549l7 174h138l-46 -174h-99zM415 261c0 83 -47 130 -113 130c-68 0 -113 -53 -113 -130c0 -78 46 -128 113 -128c72 0 113 58 113 128zM421 0v41c-15 -17 -65 -54 -142 -54c-151 0 -257 114 -257 275c0 163 96 276 248 276c80 0 129 -40 140 -53v238h167v-723h-156z
" />
    <glyph glyph-name="Dcroat" unicode="&#x110;" horiz-adv-x="664" 
d="M76 700h206c225 0 369 -131 369 -350s-144 -350 -369 -350h-206v277h-54v149h54v274zM247 552v-126h92v-149h-92v-129h35c115 0 191 68 191 202s-76 202 -191 202h-35z" />
    <glyph glyph-name="dcroat" unicode="&#x111;" horiz-adv-x="625" 
d="M421 0v41c-15 -17 -65 -54 -142 -54c-151 0 -257 114 -257 275c0 163 96 276 248 276c80 0 129 -40 140 -53v77h-126v103h126v58h167v-58h55v-103h-55v-562h-156zM415 261c0 83 -47 130 -113 130c-68 0 -113 -53 -113 -130c0 -78 46 -128 113 -128c72 0 113 58 113 128z
" />
    <glyph glyph-name="Emacron" unicode="&#x112;" horiz-adv-x="485" 
d="M443 0h-381v700h373v-153h-202v-117h172v-152h-172v-125h210v-153zM114 746v119h281v-119h-281z" />
    <glyph glyph-name="scommaaccent" unicode="&#x219;" horiz-adv-x="444" 
d="M216 -13c-100 0 -171 48 -202 90l94 91c28 -25 63 -46 116 -46c32 0 47 10 47 29c0 60 -240 34 -240 225c0 101 88 162 202 162c100 0 157 -48 188 -90l-108 -85c-16 16 -46 41 -87 41c-24 0 -38 -10 -38 -26c0 -66 242 -28 242 -218c0 -107 -94 -173 -214 -173z
M151 -257c20 14 43 37 51 64c-44 10 -65 47 -65 82c0 47 39 84 86 84c52 0 90 -39 90 -99c0 -76 -45 -151 -107 -192z" />
    <glyph glyph-name="Scommaaccent" unicode="&#x218;" horiz-adv-x="529" 
d="M267 713c150 0 208 -109 226 -162l-142 -65c-14 31 -35 69 -88 69c-33 0 -55 -20 -55 -47c0 -95 292 -85 292 -299c0 -129 -92 -222 -245 -222c-157 0 -220 114 -238 167l143 71c19 -41 57 -78 105 -78c41 0 62 18 62 49c0 93 -290 85 -290 309c0 126 91 208 230 208z
M181 -257c20 14 43 37 51 64c-44 10 -65 47 -65 82c0 47 39 84 86 84c52 0 90 -39 90 -99c0 -76 -45 -151 -107 -192z" />
    <glyph glyph-name="zcaron" unicode="&#x17e;" horiz-adv-x="471" 
d="M441 424l-205 -285h207v-139h-416v100l204 286h-199v139h409v-101zM325 580h-168l-96 145h139l42 -65l41 65h138z" />
    <glyph glyph-name="Zcaron" unicode="&#x17d;" horiz-adv-x="608" 
d="M574 0h-543v109l310 440h-302v151h532v-108l-313 -441h316v-151zM387 735h-168l-96 145h139l42 -65l41 65h138z" />
    <glyph glyph-name="zdotaccent" unicode="&#x17c;" horiz-adv-x="471" 
d="M441 424l-205 -285h207v-139h-416v100l204 286h-199v139h409v-101zM242 565c-47 0 -86 40 -86 86c0 48 39 87 86 87c48 0 87 -39 87 -87c0 -46 -39 -86 -87 -86z" />
    <glyph glyph-name="Zdotaccent" unicode="&#x17b;" horiz-adv-x="608" 
d="M574 0h-543v109l310 440h-302v151h532v-108l-313 -441h316v-151zM304 727c-47 0 -86 40 -86 86c0 48 39 87 86 87c48 0 87 -39 87 -87c0 -46 -39 -86 -87 -86z" />
    <glyph glyph-name="emacron" unicode="&#x113;" horiz-adv-x="557" 
d="M537 219h-344c4 -47 49 -87 111 -87c63 0 100 41 110 56l110 -85c-15 -31 -87 -116 -223 -116c-173 0 -279 119 -279 274c0 154 104 277 258 277c167 0 258 -107 258 -286c0 -10 0 -21 -1 -33zM283 403c-55 0 -81 -41 -85 -78h170c-2 42 -33 78 -85 78zM148 591v119h281
v-119h-281z" />
    <glyph glyph-name="zacute" unicode="&#x17a;" horiz-adv-x="471" 
d="M441 424l-205 -285h207v-139h-416v100l204 286h-199v139h409v-101zM216 725h173l-100 -145h-139z" />
    <glyph glyph-name="Zacute" unicode="&#x179;" horiz-adv-x="608" 
d="M574 0h-543v109l310 440h-302v151h532v-108l-313 -441h316v-151zM278 880h173l-100 -145h-139z" />
    <glyph glyph-name="Ebreve" unicode="&#x114;" horiz-adv-x="485" 
d="M443 0h-381v700h373v-153h-202v-117h172v-152h-172v-125h210v-153zM252 739c-103 0 -163 63 -163 152h117c0 -27 7 -57 46 -57s47 30 47 57h117c0 -89 -60 -152 -164 -152z" />
    <glyph glyph-name="ebreve" unicode="&#x115;" horiz-adv-x="557" 
d="M537 219h-344c4 -47 49 -87 111 -87c63 0 100 41 110 56l110 -85c-15 -31 -87 -116 -223 -116c-173 0 -279 119 -279 274c0 154 104 277 258 277c167 0 258 -107 258 -286c0 -10 0 -21 -1 -33zM283 403c-55 0 -81 -41 -85 -78h170c-2 42 -33 78 -85 78zM282 578
c-103 0 -163 63 -163 152h117c0 -27 7 -57 46 -57s47 30 47 57h117c0 -89 -60 -152 -164 -152z" />
    <glyph glyph-name="Edotaccent" unicode="&#x116;" horiz-adv-x="485" 
d="M443 0h-381v700h373v-153h-202v-117h172v-152h-172v-125h210v-153zM256 727c-47 0 -86 40 -86 86c0 48 39 87 86 87c48 0 87 -39 87 -87c0 -46 -39 -86 -87 -86z" />
    <glyph glyph-name="edotaccent" unicode="&#x117;" horiz-adv-x="557" 
d="M537 219h-344c4 -47 49 -87 111 -87c63 0 100 41 110 56l110 -85c-15 -31 -87 -116 -223 -116c-173 0 -279 119 -279 274c0 154 104 277 258 277c167 0 258 -107 258 -286c0 -10 0 -21 -1 -33zM283 403c-55 0 -81 -41 -85 -78h170c-2 42 -33 78 -85 78zM285 565
c-47 0 -86 40 -86 86c0 48 39 87 86 87c48 0 87 -39 87 -87c0 -46 -39 -86 -87 -86z" />
    <glyph glyph-name="Eogonek" unicode="&#x118;" horiz-adv-x="485" 
d="M338 0h-276v700h373v-153h-202v-117h172v-152h-172v-125h210v-153c-9 -4 -47 -20 -47 -55c0 -29 27 -38 45 -38v-110c-8 -3 -35 -8 -67 -8c-58 0 -114 29 -114 99c0 59 48 98 78 112z" />
    <glyph glyph-name="eogonek" unicode="&#x119;" horiz-adv-x="557" 
d="M537 219h-344c4 -47 49 -87 111 -87c63 0 100 41 110 56l110 -85c-12 -24 -56 -78 -136 -103c-9 -4 -47 -20 -47 -55c0 -29 27 -38 45 -38v-110c-8 -3 -35 -8 -67 -8c-58 0 -114 29 -114 99c0 48 31 82 58 101c-151 16 -241 128 -241 272c0 154 104 277 258 277
c167 0 258 -107 258 -286c0 -10 0 -21 -1 -33zM283 403c-55 0 -81 -41 -85 -78h170c-2 42 -33 78 -85 78z" />
    <glyph glyph-name="Ecaron" unicode="&#x11a;" horiz-adv-x="485" 
d="M443 0h-381v700h373v-153h-202v-117h172v-152h-172v-125h210v-153zM343 735h-168l-96 145h139l42 -65l41 65h138z" />
    <glyph glyph-name="ecaron" unicode="&#x11b;" horiz-adv-x="557" 
d="M537 219h-344c4 -47 49 -87 111 -87c63 0 100 41 110 56l110 -85c-15 -31 -87 -116 -223 -116c-173 0 -279 119 -279 274c0 154 104 277 258 277c167 0 258 -107 258 -286c0 -10 0 -21 -1 -33zM283 403c-55 0 -81 -41 -85 -78h170c-2 42 -33 78 -85 78zM367 580h-168
l-96 145h139l42 -65l41 65h138z" />
    <glyph glyph-name="ycircumflex" unicode="&#x177;" horiz-adv-x="556" 
d="M549 525l-260 -704h-158l71 196l-196 508h179l93 -302l97 302h174zM196 725h168l96 -145h-138l-41 65l-42 -65h-139z" />
    <glyph glyph-name="Ycircumflex" unicode="&#x176;" horiz-adv-x="610" 
d="M390 0h-170v316l-214 384h192l107 -229l110 229h189l-214 -384v-316zM221 880h168l96 -145h-138l-41 65l-42 -65h-139z" />
    <glyph glyph-name="wcircumflex" unicode="&#x175;" horiz-adv-x="834" 
d="M492 0l-75 297l-75 -297h-188l-147 525h182l71 -343l79 343h156l79 -343l71 343h182l-147 -525h-188zM333 725h168l96 -145h-138l-41 65l-42 -65h-139z" />
    <glyph glyph-name="Wcircumflex" unicode="&#x174;" horiz-adv-x="994" 
d="M610 0l-113 440l-113 -440h-194l-182 700h183l106 -493l123 493h154l123 -493l106 493h183l-182 -700h-194zM413 880h168l96 -145h-138l-41 65l-42 -65h-139z" />
    <glyph glyph-name="uogonek" unicode="&#x173;" horiz-adv-x="563" 
d="M414 0h-58v54c-20 -31 -66 -67 -132 -67c-164 0 -180 140 -180 247v291h167v-313c0 -49 29 -75 69 -75c46 0 72 33 72 75v313h167v-525c-9 -4 -47 -20 -47 -55c0 -29 27 -38 45 -38v-110c-8 -3 -35 -8 -67 -8c-58 0 -114 29 -114 99c0 59 48 98 78 112z" />
    <glyph glyph-name="Uogonek" unicode="&#x172;" horiz-adv-x="704" 
d="M644 270c0 -134 -71 -237 -197 -270c-9 -4 -47 -20 -47 -55c0 -29 27 -38 45 -38v-110c-8 -3 -35 -8 -67 -8c-58 0 -114 29 -114 99c0 48 31 82 59 101c-170 11 -263 122 -263 280v431h171v-431c0 -76 46 -123 122 -123c77 0 120 47 120 124v430h171v-430z" />
    <glyph glyph-name="uhungarumlaut" unicode="&#x171;" horiz-adv-x="563" 
d="M211 525v-313c0 -49 29 -75 69 -75c46 0 72 33 72 75v313h167v-525h-163v54c-20 -31 -66 -67 -132 -67c-164 0 -180 140 -180 247v291h167zM167 725h157l-100 -145h-123zM360 725h157l-100 -145h-123z" />
    <glyph glyph-name="Uhungarumlaut" unicode="&#x170;" horiz-adv-x="704" 
d="M352 -12c-188 0 -292 114 -292 281v431h171v-431c0 -76 46 -123 122 -123c77 0 120 47 120 124v430h171v-430c0 -164 -107 -282 -292 -282zM255 880h157l-100 -145h-123zM448 880h157l-100 -145h-123z" />
    <glyph glyph-name="uring" unicode="&#x16f;" horiz-adv-x="563" 
d="M211 525v-313c0 -49 29 -75 69 -75c46 0 72 33 72 75v313h167v-525h-163v54c-20 -31 -66 -67 -132 -67c-164 0 -180 140 -180 247v291h167zM286 559c-64 0 -115 43 -115 105c0 63 51 106 115 106c66 0 116 -43 116 -105c0 -63 -50 -106 -116 -106zM287 627
c21 0 36 15 36 38c0 22 -15 37 -36 37c-22 0 -36 -15 -36 -37c0 -23 14 -38 36 -38z" />
    <glyph glyph-name="Uring" unicode="&#x16e;" horiz-adv-x="704" 
d="M352 -12c-188 0 -292 114 -292 281v431h171v-431c0 -76 46 -123 122 -123c77 0 120 47 120 124v430h171v-430c0 -164 -107 -282 -292 -282zM353 728c-64 0 -115 43 -115 105c0 63 51 106 115 106c66 0 116 -43 116 -105c0 -63 -50 -106 -116 -106zM354 796
c21 0 36 15 36 38c0 22 -15 37 -36 37c-22 0 -36 -15 -36 -37c0 -23 14 -38 36 -38z" />
    <glyph glyph-name="ubreve" unicode="&#x16d;" horiz-adv-x="563" 
d="M211 525v-313c0 -49 29 -75 69 -75c46 0 72 33 72 75v313h167v-525h-163v54c-20 -31 -66 -67 -132 -67c-164 0 -180 140 -180 247v291h167zM284 578c-103 0 -163 63 -163 152h117c0 -27 7 -57 46 -57s47 30 47 57h117c0 -89 -60 -152 -164 -152z" />
    <glyph glyph-name="Ubreve" unicode="&#x16c;" horiz-adv-x="704" 
d="M352 -12c-188 0 -292 114 -292 281v431h171v-431c0 -76 46 -123 122 -123c77 0 120 47 120 124v430h171v-430c0 -164 -107 -282 -292 -282zM359 739c-103 0 -163 63 -163 152h117c0 -27 7 -57 46 -57s47 30 47 57h117c0 -89 -60 -152 -164 -152z" />
    <glyph glyph-name="Tcaron" unicode="&#x164;" horiz-adv-x="511" 
d="M492 547h-151v-547h-171v547h-151v153h473v-153zM342 735h-168l-96 145h139l42 -65l41 65h138z" />
    <glyph glyph-name="umacron" unicode="&#x16b;" horiz-adv-x="563" 
d="M211 525v-313c0 -49 29 -75 69 -75c46 0 72 33 72 75v313h167v-525h-163v54c-20 -31 -66 -67 -132 -67c-164 0 -180 140 -180 247v291h167zM145 591v119h281v-119h-281z" />
    <glyph glyph-name="Gcircumflex" unicode="&#x11c;" horiz-adv-x="753" 
d="M710 393v-296c-74 -57 -159 -110 -320 -110c-198 0 -362 140 -362 365c0 200 148 361 366 361c165 0 249 -77 285 -122l-108 -112c-15 20 -75 76 -169 76c-125 0 -197 -87 -197 -200c0 -130 86 -210 197 -210c88 0 138 32 149 43v62h-121v143h280zM313 880h168l96 -145
h-138l-41 65l-42 -65h-139z" />
    <glyph glyph-name="gcircumflex" unicode="&#x11d;" horiz-adv-x="620" 
d="M409 27v13c-11 -13 -60 -53 -140 -53c-152 0 -248 113 -248 276c0 161 106 275 257 275c77 0 127 -37 142 -54v41h156v-462c0 -194 -135 -255 -291 -255c-74 0 -147 21 -194 45l49 128c15 -7 74 -32 145 -32c62 0 124 14 124 78zM414 264c0 70 -42 127 -114 127
c-67 0 -112 -49 -112 -127c0 -77 45 -130 113 -130c66 0 113 47 113 130zM226 725h168l96 -145h-138l-41 65l-42 -65h-139z" />
    <glyph glyph-name="Umacron" unicode="&#x16a;" horiz-adv-x="704" 
d="M352 -12c-188 0 -292 114 -292 281v431h171v-431c0 -76 46 -123 122 -123c77 0 120 47 120 124v430h171v-430c0 -164 -107 -282 -292 -282zM211 746v119h281v-119h-281z" />
    <glyph glyph-name="utilde" unicode="&#x169;" horiz-adv-x="563" 
d="M211 525v-313c0 -49 29 -75 69 -75c46 0 72 33 72 75v313h167v-525h-163v54c-20 -31 -66 -67 -132 -67c-164 0 -180 140 -180 247v291h167zM354 580c-54 0 -93 33 -124 33c-19 0 -30 -12 -30 -34h-102c0 88 47 148 118 148c57 0 92 -33 123 -33c19 0 29 13 29 34h102
c0 -91 -46 -148 -116 -148z" />
    <glyph glyph-name="Utilde" unicode="&#x168;" horiz-adv-x="704" 
d="M352 -12c-188 0 -292 114 -292 281v431h171v-431c0 -76 46 -123 122 -123c77 0 120 47 120 124v430h171v-430c0 -164 -107 -282 -292 -282zM429 737c-54 0 -93 33 -124 33c-19 0 -30 -12 -30 -34h-102c0 88 47 148 118 148c57 0 92 -33 123 -33c19 0 29 13 29 34h102
c0 -91 -46 -148 -116 -148z" />
    <glyph glyph-name="Gbreve" unicode="&#x11e;" horiz-adv-x="753" 
d="M710 393v-296c-74 -57 -159 -110 -320 -110c-198 0 -362 140 -362 365c0 200 148 361 366 361c165 0 249 -77 285 -122l-108 -112c-15 20 -75 76 -169 76c-125 0 -197 -87 -197 -200c0 -130 86 -210 197 -210c88 0 138 32 149 43v62h-121v143h280zM399 739
c-103 0 -163 63 -163 152h117c0 -27 7 -57 46 -57s47 30 47 57h117c0 -89 -60 -152 -164 -152z" />
    <glyph glyph-name="gbreve" unicode="&#x11f;" horiz-adv-x="620" 
d="M409 27v13c-11 -13 -60 -53 -140 -53c-152 0 -248 113 -248 276c0 161 106 275 257 275c77 0 127 -37 142 -54v41h156v-462c0 -194 -135 -255 -291 -255c-74 0 -147 21 -194 45l49 128c15 -7 74 -32 145 -32c62 0 124 14 124 78zM414 264c0 70 -42 127 -114 127
c-67 0 -112 -49 -112 -127c0 -77 45 -130 113 -130c66 0 113 47 113 130zM309 578c-103 0 -163 63 -163 152h117c0 -27 7 -57 46 -57s47 30 47 57h117c0 -89 -60 -152 -164 -152z" />
    <glyph glyph-name="tbar" unicode="&#x167;" horiz-adv-x="352" 
d="M229 636v-111h89v-135h-89v-62h79v-107h-79v-24c0 -50 36 -57 74 -57h19v-142s-22 -6 -64 -6c-124 0 -196 57 -196 213v16h-56v107h56v62h-51v135h51v111h167z" />
    <glyph glyph-name="Tbar" unicode="&#x166;" horiz-adv-x="511" 
d="M492 547h-151v-130h114v-123h-114v-294h-171v294h-111v123h111v130h-151v153h473v-153z" />
    <glyph glyph-name="tcaron" unicode="&#x165;" horiz-adv-x="353" 
d="M281 549l7 174h138l-46 -174h-99zM229 636v-111h89v-135h-89v-193c0 -46 31 -57 65 -57c9 0 17 0 28 1v-143s-22 -6 -64 -6c-124 0 -196 57 -196 213v185h-51v135h51v111h167z" />
    <glyph glyph-name="scaron" unicode="&#x161;" horiz-adv-x="444" 
d="M216 -13c-100 0 -171 48 -202 90l94 91c28 -25 63 -46 116 -46c32 0 47 10 47 29c0 60 -240 34 -240 225c0 101 88 162 202 162c100 0 157 -48 188 -90l-108 -85c-16 16 -46 41 -87 41c-24 0 -38 -10 -38 -26c0 -66 242 -28 242 -218c0 -107 -94 -173 -214 -173zM314 580
h-168l-96 145h139l42 -65l41 65h138z" />
    <glyph glyph-name="Gdotaccent" unicode="&#x120;" horiz-adv-x="753" 
d="M710 393v-296c-74 -57 -159 -110 -320 -110c-198 0 -362 140 -362 365c0 200 148 361 366 361c165 0 249 -77 285 -122l-108 -112c-15 20 -75 76 -169 76c-125 0 -197 -87 -197 -200c0 -130 86 -210 197 -210c88 0 138 32 149 43v62h-121v143h280zM402 727
c-47 0 -86 40 -86 86c0 48 39 87 86 87c48 0 87 -39 87 -87c0 -46 -39 -86 -87 -86z" />
    <glyph glyph-name="gdotaccent" unicode="&#x121;" horiz-adv-x="620" 
d="M409 27v13c-11 -13 -60 -53 -140 -53c-152 0 -248 113 -248 276c0 161 106 275 257 275c77 0 127 -37 142 -54v41h156v-462c0 -194 -135 -255 -291 -255c-74 0 -147 21 -194 45l49 128c15 -7 74 -32 145 -32c62 0 124 14 124 78zM414 264c0 70 -42 127 -114 127
c-67 0 -112 -49 -112 -127c0 -77 45 -130 113 -130c66 0 113 47 113 130zM310 565c-47 0 -86 40 -86 86c0 48 39 87 86 87c48 0 87 -39 87 -87c0 -46 -39 -86 -87 -86z" />
    <glyph glyph-name="Gcommaaccent" unicode="&#x122;" horiz-adv-x="753" 
d="M710 393v-296c-74 -57 -159 -110 -320 -110c-198 0 -362 140 -362 365c0 200 148 361 366 361c165 0 249 -77 285 -122l-108 -112c-15 20 -75 76 -169 76c-125 0 -197 -87 -197 -200c0 -130 86 -210 197 -210c88 0 138 32 149 43v62h-121v143h280zM335 -257
c20 14 43 37 51 64c-44 10 -65 47 -65 82c0 47 39 84 86 84c52 0 90 -39 90 -99c0 -76 -45 -151 -107 -192z" />
    <glyph glyph-name="gcommaaccent" unicode="&#x123;" horiz-adv-x="620" 
d="M409 27v13c-11 -13 -60 -53 -140 -53c-152 0 -248 113 -248 276c0 161 106 275 257 275c77 0 127 -37 142 -54v41h156v-462c0 -194 -135 -255 -291 -255c-74 0 -147 21 -194 45l49 128c15 -7 74 -32 145 -32c62 0 124 14 124 78zM414 264c0 70 -42 127 -114 127
c-67 0 -112 -49 -112 -127c0 -77 45 -130 113 -130c66 0 113 47 113 130zM380 798c-20 -14 -43 -37 -51 -64c44 -10 65 -47 65 -82c0 -47 -39 -84 -86 -84c-52 0 -90 39 -90 99c0 76 45 151 107 192z" />
    <glyph glyph-name="Hcircumflex" unicode="&#x124;" horiz-adv-x="716" 
d="M654 700v-700h-171v274h-250v-274h-171v700h171v-272h250v272h171zM278 880h168l96 -145h-138l-41 65l-42 -65h-139z" />
    <glyph glyph-name="Scaron" unicode="&#x160;" horiz-adv-x="529" 
d="M267 713c150 0 208 -109 226 -162l-142 -65c-14 31 -35 69 -88 69c-33 0 -55 -20 -55 -47c0 -95 292 -85 292 -299c0 -129 -92 -222 -245 -222c-157 0 -220 114 -238 167l143 71c19 -41 57 -78 105 -78c41 0 62 18 62 49c0 93 -290 85 -290 309c0 126 91 208 230 208z
M348 735h-168l-96 145h139l42 -65l41 65h138z" />
    <glyph glyph-name="scedilla" unicode="&#x15f;" horiz-adv-x="444" 
d="M201 -237c-21 0 -52 7 -66 12l20 80c8 -2 21 -5 34 -5c21 0 37 11 37 28c0 20 -26 26 -45 26c-7 0 -18 -1 -18 -1l14 87c-80 10 -136 50 -163 87l94 91c28 -25 63 -46 116 -46c32 0 47 10 47 29c0 60 -240 34 -240 225c0 101 88 162 202 162c100 0 157 -48 188 -90
l-108 -85c-16 16 -46 41 -87 41c-24 0 -38 -10 -38 -26c0 -66 242 -28 242 -218c0 -94 -73 -156 -171 -170l-3 -25c47 -11 74 -44 74 -95c0 -73 -56 -107 -129 -107z" />
    <glyph glyph-name="Scedilla" unicode="&#x15e;" horiz-adv-x="529" 
d="M267 713c150 0 208 -109 226 -162l-142 -65c-14 31 -35 69 -88 69c-33 0 -55 -20 -55 -47c0 -95 292 -85 292 -299c0 -116 -75 -204 -201 -219l-3 -25c47 -11 74 -44 74 -95c0 -73 -56 -107 -129 -107c-21 0 -52 7 -66 12l20 80c8 -2 21 -5 34 -5c21 0 37 11 37 28
c0 20 -26 26 -45 26c-7 0 -18 -1 -18 -1l14 87c-130 16 -184 115 -200 164l143 71c19 -41 57 -78 105 -78c41 0 62 18 62 49c0 93 -290 85 -290 309c0 126 91 208 230 208z" />
    <glyph glyph-name="scircumflex" unicode="&#x15d;" horiz-adv-x="444" 
d="M216 -13c-100 0 -171 48 -202 90l94 91c28 -25 63 -46 116 -46c32 0 47 10 47 29c0 60 -240 34 -240 225c0 101 88 162 202 162c100 0 157 -48 188 -90l-108 -85c-16 16 -46 41 -87 41c-24 0 -38 -10 -38 -26c0 -66 242 -28 242 -218c0 -107 -94 -173 -214 -173zM151 725
h168l96 -145h-138l-41 65l-42 -65h-139z" />
    <glyph glyph-name="Scircumflex" unicode="&#x15c;" horiz-adv-x="529" 
d="M267 713c150 0 208 -109 226 -162l-142 -65c-14 31 -35 69 -88 69c-33 0 -55 -20 -55 -47c0 -95 292 -85 292 -299c0 -129 -92 -222 -245 -222c-157 0 -220 114 -238 167l143 71c19 -41 57 -78 105 -78c41 0 62 18 62 49c0 93 -290 85 -290 309c0 126 91 208 230 208z
M185 880h168l96 -145h-138l-41 65l-42 -65h-139z" />
    <glyph glyph-name="sacute" unicode="&#x15b;" horiz-adv-x="444" 
d="M216 -13c-100 0 -171 48 -202 90l94 91c28 -25 63 -46 116 -46c32 0 47 10 47 29c0 60 -240 34 -240 225c0 101 88 162 202 162c100 0 157 -48 188 -90l-108 -85c-16 16 -46 41 -87 41c-24 0 -38 -10 -38 -26c0 -66 242 -28 242 -218c0 -107 -94 -173 -214 -173zM208 725
h173l-100 -145h-139z" />
    <glyph glyph-name="hcircumflex" unicode="&#x125;" horiz-adv-x="569" 
d="M358 0v313c0 49 -29 75 -69 75c-46 0 -74 -33 -74 -75v-313h-167v723h167v-252c20 31 64 67 130 67c164 0 180 -140 180 -247v-291h-167zM215 895h168l96 -145h-138l-41 65l-42 -65h-139z" />
    <glyph glyph-name="Hbar" unicode="&#x126;" horiz-adv-x="716" 
d="M654 700v-78h56v-113h-56v-509h-171v274h-250v-274h-171v509h-56v113h56v78h171v-78h250v78h171zM233 428h250v81h-250v-81z" />
    <glyph glyph-name="Sacute" unicode="&#x15a;" horiz-adv-x="529" 
d="M267 713c150 0 208 -109 226 -162l-142 -65c-14 31 -35 69 -88 69c-33 0 -55 -20 -55 -47c0 -95 292 -85 292 -299c0 -129 -92 -222 -245 -222c-157 0 -220 114 -238 167l143 71c19 -41 57 -78 105 -78c41 0 62 18 62 49c0 93 -290 85 -290 309c0 126 91 208 230 208z
M247 880h173l-100 -145h-139z" />
    <glyph glyph-name="rcaron" unicode="&#x159;" horiz-adv-x="369" 
d="M350 538v-170c-7 1 -15 2 -27 2c-81 0 -108 -59 -108 -138v-232h-167v525h163v-70c25 51 74 83 139 83zM269 580h-168l-96 145h139l42 -65l41 65h138z" />
    <glyph glyph-name="Rcaron" unicode="&#x158;" horiz-adv-x="605" 
d="M535 485c0 -77 -33 -150 -97 -185c0 0 -1 2 161 -300h-189l-125 259h-52v-259h-171v700h228c165 0 245 -76 245 -215zM276 553h-43v-151h51c47 0 76 29 76 77c0 46 -22 74 -84 74zM359 735h-168l-96 145h139l42 -65l41 65h138z" />
    <glyph glyph-name="rcommaaccent" unicode="&#x157;" horiz-adv-x="369" 
d="M350 538v-170c-7 1 -15 2 -27 2c-81 0 -108 -59 -108 -138v-232h-167v525h163v-70c25 51 74 83 139 83zM85 -257c20 14 43 37 51 64c-44 10 -65 47 -65 82c0 47 39 84 86 84c52 0 90 -39 90 -99c0 -76 -45 -151 -107 -192z" />
    <glyph glyph-name="Rcommaaccent" unicode="&#x156;" horiz-adv-x="605" 
d="M535 485c0 -77 -33 -150 -97 -185c0 0 -1 2 161 -300h-189l-125 259h-52v-259h-171v700h228c165 0 245 -76 245 -215zM276 553h-43v-151h51c47 0 76 29 76 77c0 46 -22 74 -84 74zM228 -257c20 14 43 37 51 64c-44 10 -65 47 -65 82c0 47 39 84 86 84c52 0 90 -39 90 -99
c0 -76 -45 -151 -107 -192z" />
    <glyph glyph-name="racute" unicode="&#x155;" horiz-adv-x="369" 
d="M350 538v-170c-7 1 -15 2 -27 2c-81 0 -108 -59 -108 -138v-232h-167v525h163v-70c25 51 74 83 139 83zM187 725h173l-100 -145h-139z" />
    <glyph glyph-name="dotlessj" unicode="&#x237;" 
d="M215 525v-527c0 -141 -94 -190 -220 -190c-18 0 -37 3 -37 3v141s13 -2 24 -2c49 0 66 23 66 56v519h167z" />
    <glyph glyph-name="Racute" unicode="&#x154;" horiz-adv-x="605" 
d="M535 485c0 -77 -33 -150 -97 -185c0 0 -1 2 161 -300h-189l-125 259h-52v-259h-171v700h228c165 0 245 -76 245 -215zM276 553h-43v-151h51c47 0 76 29 76 77c0 46 -22 74 -84 74zM256 880h173l-100 -145h-139z" />
    <glyph glyph-name="ohungarumlaut" unicode="&#x151;" horiz-adv-x="615" 
d="M21 261c0 159 123 277 285 277c169 0 288 -116 288 -275c0 -158 -122 -276 -288 -276c-167 0 -285 116 -285 274zM188 261c0 -76 50 -127 118 -127c69 0 121 54 121 129c0 77 -53 128 -121 128c-69 0 -118 -53 -118 -130zM211 725h157l-100 -145h-123zM404 725h157
l-100 -145h-123z" />
    <glyph glyph-name="kgreenlandic" unicode="&#x138;" horiz-adv-x="559" 
d="M544 525l-169 -246l183 -279h-196l-147 239v-239h-167v525h167v-217l142 217h187z" />
    <glyph glyph-name="hbar" unicode="&#x127;" horiz-adv-x="569" 
d="M3 569v103h45v51h167v-51h131v-103h-131v-98c20 31 64 67 130 67c164 0 180 -140 180 -247v-291h-167v313c0 49 -29 75 -69 75c-46 0 -74 -33 -74 -75v-313h-167v569h-45z" />
    <glyph glyph-name="Itilde" unicode="&#x128;" horiz-adv-x="295" 
d="M233 700v-700h-171v700h171zM218 737c-54 0 -93 33 -124 33c-19 0 -30 -12 -30 -34h-102c0 88 47 148 118 148c57 0 92 -33 123 -33c19 0 29 13 29 34h102c0 -91 -46 -148 -116 -148z" />
    <glyph glyph-name="itilde" unicode="&#x129;" 
d="M215 525v-525h-167v525h167zM204 580c-54 0 -93 33 -124 33c-19 0 -30 -12 -30 -34h-102c0 88 47 148 118 148c57 0 92 -33 123 -33c19 0 29 13 29 34h102c0 -91 -46 -148 -116 -148z" />
    <glyph glyph-name="Ohungarumlaut" unicode="&#x150;" horiz-adv-x="788" 
d="M394 -13c-221 0 -367 158 -367 364c0 203 146 362 367 362s367 -159 367 -362c0 -206 -146 -364 -367 -364zM394 553c-112 0 -189 -87 -189 -202c0 -118 78 -204 189 -204s189 86 189 204c0 115 -77 202 -189 202zM293 880h157l-100 -145h-123zM486 880h157l-100 -145
h-123z" />
    <glyph glyph-name="obreve" unicode="&#x14f;" horiz-adv-x="615" 
d="M21 261c0 159 123 277 285 277c169 0 288 -116 288 -275c0 -158 -122 -276 -288 -276c-167 0 -285 116 -285 274zM188 261c0 -76 50 -127 118 -127c69 0 121 54 121 129c0 77 -53 128 -121 128c-69 0 -118 -53 -118 -130zM307 578c-103 0 -163 63 -163 152h117
c0 -27 7 -57 46 -57s47 30 47 57h117c0 -89 -60 -152 -164 -152z" />
    <glyph glyph-name="Imacron" unicode="&#x12a;" horiz-adv-x="295" 
d="M233 700v-700h-171v700h171zM6 746v119h281v-119h-281z" />
    <glyph glyph-name="kcommaaccent" unicode="&#x137;" horiz-adv-x="559" 
d="M544 525l-169 -240l183 -285h-196l-147 245v-245h-167v723h167v-409l142 211h187zM205 -257c20 14 43 37 51 64c-44 10 -65 47 -65 82c0 47 39 84 86 84c52 0 90 -39 90 -99c0 -76 -45 -151 -107 -192z" />
    <glyph glyph-name="imacron" unicode="&#x12b;" 
d="M215 525v-525h-167v525h167zM-8 591v119h281v-119h-281z" />
    <glyph glyph-name="Ibreve" unicode="&#x12c;" horiz-adv-x="295" 
d="M233 700v-700h-171v700h171zM148 739c-103 0 -163 63 -163 152h117c0 -27 7 -57 46 -57s47 30 47 57h117c0 -89 -60 -152 -164 -152z" />
    <glyph glyph-name="ibreve" unicode="&#x12d;" 
d="M215 525v-525h-167v525h167zM133 578c-103 0 -163 63 -163 152h117c0 -27 7 -57 46 -57s47 30 47 57h117c0 -89 -60 -152 -164 -152z" />
    <glyph glyph-name="Iogonek" unicode="&#x12e;" horiz-adv-x="295" 
d="M128 0h-66v700h171v-700c-9 -4 -47 -20 -47 -55c0 -29 27 -38 45 -38v-110c-8 -3 -35 -8 -67 -8c-58 0 -114 29 -114 99c0 59 48 98 78 112z" />
    <glyph glyph-name="iogonek" unicode="&#x12f;" 
d="M110 0h-62v525h167v-525c-9 -4 -47 -20 -47 -55c0 -29 27 -38 45 -38v-110c-8 -3 -35 -8 -67 -8c-58 0 -114 29 -114 99c0 59 48 98 78 112zM130 550c-53 0 -95 43 -95 95c0 53 42 96 95 96s96 -43 96 -96c0 -52 -43 -95 -96 -95z" />
    <glyph glyph-name="Idotaccent" unicode="&#x130;" horiz-adv-x="295" 
d="M233 700v-700h-171v700h171zM150 727c-47 0 -86 40 -86 86c0 48 39 87 86 87c48 0 87 -39 87 -87c0 -46 -39 -86 -87 -86z" />
    <glyph glyph-name="IJ" unicode="&#x132;" horiz-adv-x="684" 
d="M233 700v-700h-171v700h171zM622 700v-518c0 -141 -99 -188 -212 -188c-37 0 -58 2 -96 11l20 151c16 -3 30 -5 54 -5c44 0 63 28 63 63v486h171z" />
    <glyph glyph-name="ij" unicode="&#x133;" horiz-adv-x="526" 
d="M215 525v-525h-167v525h167zM130 557c-53 0 -93 38 -93 90c0 53 40 91 93 91s94 -38 94 -91c0 -52 -41 -90 -94 -90zM478 525v-527c0 -141 -94 -190 -220 -190c-18 0 -37 3 -37 3v141s13 -2 24 -2c49 0 66 23 66 56v519h167zM393 557c-53 0 -93 38 -93 90
c0 53 40 91 93 91s94 -38 94 -91c0 -52 -41 -90 -94 -90z" />
    <glyph glyph-name="Jcircumflex" unicode="&#x134;" horiz-adv-x="389" 
d="M327 700v-518c0 -141 -99 -188 -212 -188c-37 0 -58 2 -96 11l20 151c16 -3 30 -5 54 -5c44 0 63 28 63 63v486h171zM142 880h168l96 -145h-138l-41 65l-42 -65h-139z" />
    <glyph glyph-name="jcircumflex" unicode="&#x135;" 
d="M215 525v-527c0 -141 -94 -190 -220 -190c-18 0 -37 3 -37 3v141s13 -2 24 -2c49 0 66 23 66 56v519h167zM48 725h168l96 -145h-138l-41 65l-42 -65h-139z" />
    <glyph glyph-name="Kcommaaccent" unicode="&#x136;" horiz-adv-x="640" 
d="M233 700v-270l204 270h191l-262 -335l267 -365h-196l-204 282v-282h-171v700h171zM246 -257c20 14 43 37 51 64c-44 10 -65 47 -65 82c0 47 39 84 86 84c52 0 90 -39 90 -99c0 -76 -45 -151 -107 -192z" />
    <glyph glyph-name="Lacute" unicode="&#x139;" horiz-adv-x="458" 
d="M443 0h-381v700h171v-547h210v-153zM143 880h173l-100 -145h-139z" />
    <glyph glyph-name="lacute" unicode="&#x13a;" 
d="M48 0v723h167v-723h-167zM128 895h173l-100 -145h-139z" />
    <glyph glyph-name="Lcommaaccent" unicode="&#x13b;" horiz-adv-x="458" 
d="M443 0h-381v700h171v-547h210v-153zM166 -257c20 14 43 37 51 64c-44 10 -65 47 -65 82c0 47 39 84 86 84c52 0 90 -39 90 -99c0 -76 -45 -151 -107 -192z" />
    <glyph glyph-name="Obreve" unicode="&#x14e;" horiz-adv-x="788" 
d="M394 -13c-221 0 -367 158 -367 364c0 203 146 362 367 362s367 -159 367 -362c0 -206 -146 -364 -367 -364zM394 553c-112 0 -189 -87 -189 -202c0 -118 78 -204 189 -204s189 86 189 204c0 115 -77 202 -189 202zM393 739c-103 0 -163 63 -163 152h117
c0 -27 7 -57 46 -57s47 30 47 57h117c0 -89 -60 -152 -164 -152z" />
    <glyph glyph-name="omacron" unicode="&#x14d;" horiz-adv-x="615" 
d="M21 261c0 159 123 277 285 277c169 0 288 -116 288 -275c0 -158 -122 -276 -288 -276c-167 0 -285 116 -285 274zM188 261c0 -76 50 -127 118 -127c69 0 121 54 121 129c0 77 -53 128 -121 128c-69 0 -118 -53 -118 -130zM167 591v119h281v-119h-281z" />
    <glyph glyph-name="lcommaaccent" unicode="&#x13c;" 
d="M48 0v723h167v-723h-167zM58 -257c20 14 43 37 51 64c-44 10 -65 47 -65 82c0 47 39 84 86 84c52 0 90 -39 90 -99c0 -76 -45 -151 -107 -192z" />
    <glyph glyph-name="Omacron" unicode="&#x14c;" horiz-adv-x="788" 
d="M394 -13c-221 0 -367 158 -367 364c0 203 146 362 367 362s367 -159 367 -362c0 -206 -146 -364 -367 -364zM394 553c-112 0 -189 -87 -189 -202c0 -118 78 -204 189 -204s189 86 189 204c0 115 -77 202 -189 202zM253 746v119h281v-119h-281z" />
    <glyph glyph-name="Lcaron" unicode="&#x13d;" horiz-adv-x="459" 
d="M291 526l7 174h138l-46 -174h-99zM443 0h-381v700h171v-547h210v-153z" />
    <glyph glyph-name="lcaron" unicode="&#x13e;" horiz-adv-x="266" 
d="M251 549l7 174h138l-46 -174h-99zM48 0v723h167v-723h-167z" />
    <glyph glyph-name="eng" unicode="&#x14b;" horiz-adv-x="567" 
d="M356 0v313c0 49 -29 75 -69 75c-46 0 -72 -33 -72 -75v-313h-167v525h163v-54c20 31 66 67 132 67c164 0 180 -140 180 -247v-293c0 -141 -94 -190 -220 -190c-18 0 -32 2 -37 2v140h24c41 0 63 17 66 50z" />
    <glyph glyph-name="Eng" unicode="&#x14a;" horiz-adv-x="718" 
d="M658 700v-704c0 -141 -99 -188 -212 -188c-37 0 -58 2 -96 11l20 151c13 -2 35 -5 54 -5c36 0 57 12 64 35l-260 429v-429h-168v700h174l256 -434v434h168z" />
    <glyph glyph-name="Ldot" unicode="&#x13f;" horiz-adv-x="458" 
d="M443 0h-381v700h171v-547h210v-153zM380 269c-55 0 -99 45 -99 99c0 55 44 100 99 100s100 -45 100 -100c0 -54 -45 -99 -100 -99z" />
    <glyph glyph-name="ldot" unicode="&#x140;" horiz-adv-x="442" 
d="M48 0v723h167v-723h-167zM361 269c-55 0 -99 45 -99 99c0 55 44 100 99 100s100 -45 100 -100c0 -54 -45 -99 -100 -99z" />
    <glyph glyph-name="Lslash" unicode="&#x141;" horiz-adv-x="458" 
d="M443 0h-381v199l-55 -29v156l55 30v344h171v-250l99 55v-161l-99 -53v-138h210v-153z" />
    <glyph glyph-name="lslash" unicode="&#x142;" horiz-adv-x="321" 
d="M73 393v330h167v-233l57 33v-161l-57 -33v-329h-167v235l-48 -27v158z" />
    <glyph glyph-name="Nacute" unicode="&#x143;" horiz-adv-x="718" 
d="M488 0l-260 429v-429h-168v700h174l256 -434v434h168v-700h-170zM353 880h173l-100 -145h-139z" />
    <glyph glyph-name="napostrophe" unicode="&#x149;" horiz-adv-x="668" 
d="M457 0v313c0 49 -29 75 -69 75c-46 0 -72 -33 -72 -75v-313h-167v525h163v-54c20 31 66 67 132 67c164 0 180 -140 180 -247v-291h-167zM-28 504c20 14 43 37 51 64c-44 10 -65 47 -65 82c0 47 39 84 86 84c52 0 90 -39 90 -99c0 -76 -45 -151 -107 -192z" />
    <glyph glyph-name="ncaron" unicode="&#x148;" horiz-adv-x="567" 
d="M356 0v313c0 49 -29 75 -69 75c-46 0 -72 -33 -72 -75v-313h-167v525h163v-54c20 31 66 67 132 67c164 0 180 -140 180 -247v-291h-167zM367 580h-168l-96 145h139l42 -65l41 65h138z" />
    <glyph glyph-name="Ncaron" unicode="&#x147;" horiz-adv-x="718" 
d="M488 0l-260 429v-429h-168v700h174l256 -434v434h168v-700h-170zM451 735h-168l-96 145h139l42 -65l41 65h138z" />
    <glyph glyph-name="ncommaaccent" unicode="&#x146;" horiz-adv-x="567" 
d="M356 0v313c0 49 -29 75 -69 75c-46 0 -72 -33 -72 -75v-313h-167v525h163v-54c20 31 66 67 132 67c164 0 180 -140 180 -247v-291h-167zM210 -257c20 14 43 37 51 64c-44 10 -65 47 -65 82c0 47 39 84 86 84c52 0 90 -39 90 -99c0 -76 -45 -151 -107 -192z" />
    <glyph glyph-name="Ncommaaccent" unicode="&#x145;" horiz-adv-x="718" 
d="M488 0l-260 429v-429h-168v700h174l256 -434v434h168v-700h-170zM285 -257c20 14 43 37 51 64c-44 10 -65 47 -65 82c0 47 39 84 86 84c52 0 90 -39 90 -99c0 -76 -45 -151 -107 -192z" />
    <glyph glyph-name="nacute" unicode="&#x144;" horiz-adv-x="567" 
d="M356 0v313c0 49 -29 75 -69 75c-46 0 -72 -33 -72 -75v-313h-167v525h163v-54c20 31 66 67 132 67c164 0 180 -140 180 -247v-291h-167zM275 725h173l-100 -145h-139z" />
    <glyph glyph-name="thorn" unicode="&#xfe;" horiz-adv-x="625" 
d="M48 -187v910h167v-229c22 19 67 44 131 44c151 0 257 -114 257 -275c0 -163 -96 -276 -248 -276c-80 0 -129 40 -140 53v-227h-167zM210 264c0 -83 47 -130 113 -130c68 0 113 53 113 130c0 78 -46 128 -113 128c-72 0 -113 -58 -113 -128z" />
    <glyph glyph-name="Thorn" unicode="&#xde;" horiz-adv-x="582" 
d="M555 358c0 -138 -90 -231 -226 -231h-96v-127h-171v700h171v-116h96c142 0 226 -89 226 -226zM306 437h-73v-161h71c50 0 76 33 76 81s-27 80 -74 80z" />
    <glyph glyph-name="OE" unicode="&#x152;" horiz-adv-x="1008" 
d="M394 -13c-221 0 -367 158 -367 364c0 203 146 362 367 362c37 0 72 -5 104 -13h460v-153h-250c21 -35 37 -75 45 -117h175v-152h-173c-8 -46 -25 -88 -47 -125h258v-153h-468c-32 -8 -67 -13 -104 -13zM394 553c-112 0 -189 -87 -189 -202c0 -118 78 -204 189 -204
s189 86 189 204c0 115 -77 202 -189 202z" />
    <glyph glyph-name="numero" unicode="&#x2116;" horiz-adv-x="1153" 
d="M842 527c0 -39 27 -72 74 -72c45 0 73 33 73 72s-26 75 -73 75s-74 -36 -74 -75zM725 527c0 97 76 186 191 186s191 -89 191 -186s-76 -183 -191 -183s-191 86 -191 183zM488 0l-260 429v-429h-168v700h174l256 -434v434h168v-700h-170zM744 170v129h342v-129h-342z" />
    <glyph glyph-name="hyphen.caps" horiz-adv-x="385" 
d="M47 278v150h290v-150h-290z" />
    <glyph glyph-name="endash.caps" horiz-adv-x="672" 
d="M625 287h-578v136h578v-136z" />
    <glyph glyph-name="emdash.caps" horiz-adv-x="945" 
d="M897 287h-850v136h850v-136z" />
    <glyph glyph-name="guillemotleft.caps" horiz-adv-x="521" 
d="M293 167h-147l-121 190l121 190h147l-122 -190zM496 167h-146l-122 190l122 190h146l-122 -190z" />
    <glyph glyph-name="guillemotright.caps" horiz-adv-x="521" 
d="M375 167h-147l122 190l-122 190h147l121 -190zM171 167h-146l122 190l-122 190h146l122 -190z" />
    <glyph glyph-name="guilsinglleft.caps" horiz-adv-x="318" 
d="M293 167h-147l-121 190l121 190h147l-122 -190z" />
    <glyph glyph-name="guilsinglright.caps" horiz-adv-x="318" 
d="M171 167h-146l122 190l-122 190h146l122 -190z" />
    <glyph glyph-name="parenleft.caps" horiz-adv-x="350" 
d="M35 79v532c0 145 79 231 253 231v-144c-65 0 -88 -33 -88 -84v-538c0 -51 23 -84 88 -84v-144c-174 0 -253 85 -253 231z" />
    <glyph glyph-name="parenright.caps" horiz-adv-x="350" 
d="M315 611v-532c0 -146 -79 -231 -253 -231v144c65 0 88 33 88 84v538c0 51 -23 84 -88 84v144c174 0 253 -86 253 -231z" />
    <glyph glyph-name="bracketleft.caps" horiz-adv-x="350" 
d="M35 -152v994h253v-144h-88v-706h88v-144h-253z" />
    <glyph glyph-name="bracketright.caps" horiz-adv-x="350" 
d="M315 842v-994h-253v144h88v706h-88v144h253z" />
    <glyph glyph-name="braceleft.caps" horiz-adv-x="412" 
d="M176 345c20 -4 86 -39 86 -130v-139c0 -51 23 -84 88 -84v-144c-174 0 -253 86 -253 231v104c0 71 -45 83 -72 83v158c27 0 72 12 72 83v104c0 145 79 231 253 231v-144c-65 0 -88 -33 -88 -84v-139c0 -91 -66 -126 -86 -130z" />
    <glyph glyph-name="bar.caps" horiz-adv-x="297" 
d="M227 871v-1095h-157v1095h157z" />
    <glyph glyph-name="braceright.caps" horiz-adv-x="412" 
d="M236 345c-20 4 -86 39 -86 130v139c0 51 -23 84 -88 84v144c174 0 253 -86 253 -231v-104c0 -71 45 -83 72 -83v-158c-27 0 -72 -12 -72 -83v-104c0 -145 -79 -231 -253 -231v144c65 0 88 33 88 84v139c0 91 66 126 86 130z" />
    <glyph glyph-name="slash.caps" horiz-adv-x="466" 
d="M455 777l-299 -858h-145l299 858h145z" />
    <glyph glyph-name="backslash.caps" horiz-adv-x="466" 
d="M310 -81l-299 858h145l299 -858h-145z" />
    <glyph glyph-name="exclamdown.caps" horiz-adv-x="309" 
d="M154 713c55 0 100 -45 100 -99c0 -55 -45 -100 -100 -100s-99 45 -99 100c0 54 44 99 99 99zM230 489l13 -489h-177l13 489h151z" />
    <glyph glyph-name="questiondown.caps" horiz-adv-x="490" 
d="M185 450v39h162v-50c0 -135 -153 -165 -153 -244c0 -31 20 -60 66 -60c48 0 65 36 75 57l131 -59c-19 -57 -75 -146 -217 -146c-131 0 -225 79 -225 197c0 143 161 175 161 266zM267 713c55 0 99 -45 99 -99c0 -55 -44 -100 -99 -100s-100 45 -100 100c0 54 45 99 100 99
z" />
    <glyph glyph-name="periodcentered.caps" horiz-adv-x="261" 
d="M130 253c-55 0 -99 45 -99 99c0 55 44 100 99 100s100 -45 100 -100c0 -54 -45 -99 -100 -99z" />
    <glyph glyph-name="bullet.caps" horiz-adv-x="406" 
d="M203 182c-99 0 -172 77 -172 172s73 172 172 172s172 -77 172 -172s-73 -172 -172 -172z" />
    <glyph glyph-name="zero.tab" horiz-adv-x="602" 
d="M550 350c0 -243 -73 -363 -249 -363s-249 120 -249 363s73 363 249 363s249 -120 249 -363zM225 350c0 -141 14 -203 76 -203s76 62 76 203s-14 203 -76 203s-76 -62 -76 -203z" />
    <glyph glyph-name="one.tab" horiz-adv-x="602" 
d="M545 0h-473v149h172v384l-126 -58l-61 130l216 95h140v-551h132v-149z" />
    <glyph glyph-name="two.tab" horiz-adv-x="602" 
d="M543 0h-479v61c0 202 298 324 298 429c0 42 -28 66 -71 66c-46 0 -72 -31 -84 -69l-148 44c18 76 81 182 239 182c137 0 238 -80 238 -216c0 -178 -235 -255 -268 -348h275v-149z" />
    <glyph glyph-name="three.tab" horiz-adv-x="602" 
d="M297 -13c-158 0 -221 106 -239 182l148 44c12 -38 41 -69 87 -69c47 0 77 29 77 75c0 39 -28 72 -82 72h-97v131l125 129h-229v149h425v-148l-127 -121c83 -17 158 -69 158 -205c0 -143 -104 -239 -246 -239z" />
    <glyph glyph-name="four.tab" horiz-adv-x="602" 
d="M576 156h-78v-156h-167v156h-306v121l272 423h201v-400h78v-144zM331 517l-132 -217h132v217z" />
    <glyph glyph-name="five.tab" horiz-adv-x="602" 
d="M283 320c-36 0 -59 -20 -68 -32l-140 22l14 390h414v-149h-262l-5 -105c32 15 61 18 90 18c113 0 222 -82 222 -218c0 -152 -106 -259 -248 -259c-158 0 -229 106 -247 182l148 44c11 -43 44 -69 90 -69c47 0 84 35 84 88c0 39 -25 88 -92 88z" />
    <glyph glyph-name="six.tab" horiz-adv-x="602" 
d="M519 669l-65 -139c-17 10 -47 23 -91 23c-109 0 -128 -81 -128 -109c18 13 52 29 109 29c116 0 206 -78 206 -235c0 -146 -98 -251 -243 -251c-199 0 -255 131 -255 324c0 200 63 402 299 402c85 0 140 -27 168 -44zM304 321c-28 0 -56 -13 -79 -35c0 -72 5 -139 83 -139
c50 0 74 34 74 85c0 52 -27 89 -78 89z" />
    <glyph glyph-name="seven.tab" horiz-adv-x="602" 
d="M545 580l-230 -580h-185l225 551h-298v149h488v-120z" />
    <glyph glyph-name="eight.tab" horiz-adv-x="602" 
d="M300 -13c-156 0 -253 86 -253 224c0 77 41 133 85 160c-33 24 -68 72 -68 138c0 116 90 204 237 204c146 0 237 -87 237 -204c0 -66 -35 -114 -69 -138c47 -28 86 -83 86 -160c0 -137 -100 -224 -255 -224zM301 287c-51 0 -80 -33 -80 -73c0 -42 28 -72 80 -72
c53 0 80 30 80 72c0 40 -28 73 -80 73zM301 560c-45 0 -68 -27 -68 -62c0 -40 27 -63 68 -63s68 23 68 63c0 35 -24 62 -68 62z" />
    <glyph glyph-name="nine.tab" horiz-adv-x="602" 
d="M83 31l65 139c17 -10 47 -23 91 -23c109 0 128 81 128 109c-18 -13 -52 -29 -109 -29c-116 0 -206 78 -206 235c0 146 98 251 243 251c199 0 255 -131 255 -324c0 -200 -63 -402 -299 -402c-85 0 -140 27 -168 44zM298 379c28 0 56 13 79 35c0 72 -5 139 -83 139
c-50 0 -74 -34 -74 -85c0 -52 27 -89 78 -89z" />
    <glyph glyph-name="Aringacute" unicode="&#x1fa;" horiz-adv-x="676" 
d="M448 157h-220l-50 -157h-172l236 682c-12 17 -19 37 -19 60c0 63 51 106 115 106c66 0 116 -43 116 -105c0 -24 -7 -45 -20 -62l236 -681h-172zM323 1017h173l-100 -145h-139zM404 297l-66 222l-66 -222h132zM339 705c21 0 36 15 36 38c0 22 -15 37 -36 37
c-22 0 -36 -15 -36 -37c0 -23 14 -38 36 -38z" />
    <glyph glyph-name="aringacute" unicode="&#x1fb;" horiz-adv-x="533" 
d="M20 163c0 105 80 174 204 174c46 0 82 -11 101 -19v19c0 32 -26 57 -80 57c-46 0 -91 -13 -132 -33l-62 112c56 37 127 65 214 65c181 0 227 -93 227 -213v-325h-149l-9 29c-27 -27 -65 -42 -119 -42c-103 0 -195 62 -195 176zM187 169c0 -35 32 -54 71 -54
c40 0 70 19 70 54c0 36 -31 56 -71 56s-70 -22 -70 -56zM272 559c-64 0 -115 43 -115 105c0 63 51 106 115 106c66 0 116 -43 116 -105c0 -63 -50 -106 -116 -106zM273 627c21 0 36 15 36 38c0 22 -15 37 -36 37c-22 0 -36 -15 -36 -37c0 -23 14 -38 36 -38zM273 932h173
l-100 -145h-139z" />
    <glyph glyph-name="AEacute" unicode="&#x1fc;" horiz-adv-x="881" 
d="M839 0h-381v157h-185l-79 -157h-186l370 700h453v-153h-202v-117h172v-152h-172v-125h210v-153zM335 297h123v244zM524 880h173l-100 -145h-139z" />
    <glyph glyph-name="aeacute" unicode="&#x1fd;" horiz-adv-x="856" 
d="M836 219h-344c4 -47 49 -87 111 -87c63 0 100 41 110 56l110 -85c-15 -31 -87 -116 -223 -116c-85 0 -154 28 -202 75c-35 -45 -87 -75 -183 -75c-103 0 -195 62 -195 176c0 105 80 174 204 174c46 0 82 -11 101 -19v19c0 32 -26 57 -80 57c-46 0 -91 -13 -132 -33
l-62 112c56 37 127 65 214 65c76 0 127 -19 162 -49c41 31 93 49 152 49c167 0 258 -107 258 -286c0 -10 0 -21 -1 -33zM187 169c0 -35 32 -54 71 -54c40 0 70 19 70 54c0 36 -31 56 -71 56s-70 -22 -70 -56zM582 403c-55 0 -81 -41 -85 -78h170c-2 42 -33 78 -85 78z
M406 725h173l-100 -145h-139z" />
    <glyph glyph-name="Oslashacute" unicode="&#x1fe;" horiz-adv-x="788" 
d="M394 -13c-71 0 -133 16 -186 44l-46 -57l-88 70l45 56c-59 65 -92 152 -92 251c0 203 146 362 367 362c68 0 129 -16 180 -42l45 56l88 -70l-43 -54c62 -65 97 -153 97 -252c0 -206 -146 -364 -367 -364zM394 147c111 0 189 86 189 204c0 42 -11 81 -30 113l-239 -300
c24 -11 51 -17 80 -17zM394 553c-112 0 -189 -87 -189 -202c0 -41 9 -79 26 -110l237 297c-22 10 -47 15 -74 15zM378 880h173l-100 -145h-139z" />
    <glyph glyph-name="oslashacute" unicode="&#x1ff;" horiz-adv-x="616" 
d="M21 261c0 159 123 277 285 277c50 0 96 -11 136 -29l37 47l76 -59l-35 -44c47 -49 74 -114 74 -190c0 -158 -122 -276 -288 -276c-49 0 -93 10 -132 28l-40 -51l-75 59l37 46c-48 49 -75 115 -75 192zM188 261c0 -22 4 -42 12 -60l144 184c-12 4 -25 6 -38 6
c-69 0 -118 -53 -118 -130zM427 263c0 21 -4 40 -12 57l-143 -182c10 -3 22 -4 34 -4c69 0 121 54 121 129zM289 725h173l-100 -145h-139z" />
    <glyph glyph-name="Wgrave" unicode="&#x1e80;" horiz-adv-x="994" 
d="M610 0l-113 440l-113 -440h-194l-182 700h183l106 -493l123 493h154l123 -493l106 493h183l-182 -700h-194zM323 880h173l66 -145h-139z" />
    <glyph glyph-name="wgrave" unicode="&#x1e81;" horiz-adv-x="834" 
d="M492 0l-75 297l-75 -297h-188l-147 525h182l71 -343l79 343h156l79 -343l71 343h182l-147 -525h-188zM248 725h173l66 -145h-139z" />
    <glyph glyph-name="Wacute" unicode="&#x1e82;" horiz-adv-x="994" 
d="M610 0l-113 440l-113 -440h-194l-182 700h183l106 -493l123 493h154l123 -493l106 493h183l-182 -700h-194zM479 880h173l-100 -145h-139z" />
    <glyph glyph-name="wacute" unicode="&#x1e83;" horiz-adv-x="834" 
d="M492 0l-75 297l-75 -297h-188l-147 525h182l71 -343l79 343h156l79 -343l71 343h182l-147 -525h-188zM409 725h173l-100 -145h-139z" />
    <glyph glyph-name="Wdieresis" unicode="&#x1e84;" horiz-adv-x="994" 
d="M610 0l-113 440l-113 -440h-194l-182 700h183l106 -493l123 493h154l123 -493l106 493h183l-182 -700h-194zM397 735c-46 0 -77 35 -77 77s31 77 77 77c45 0 77 -35 77 -77s-32 -77 -77 -77zM598 735c-46 0 -77 35 -77 77s31 77 77 77c45 0 77 -35 77 -77
s-32 -77 -77 -77z" />
    <glyph glyph-name="wdieresis" unicode="&#x1e85;" horiz-adv-x="834" 
d="M492 0l-75 297l-75 -297h-188l-147 525h182l71 -343l79 343h156l79 -343l71 343h182l-147 -525h-188zM317 576c-46 0 -77 35 -77 77s31 77 77 77c45 0 77 -35 77 -77s-32 -77 -77 -77zM518 576c-46 0 -77 35 -77 77s31 77 77 77c45 0 77 -35 77 -77s-32 -77 -77 -77z" />
    <glyph glyph-name="Ygrave" unicode="&#x1ef2;" horiz-adv-x="610" 
d="M390 0h-170v316l-214 384h192l107 -229l110 229h189l-214 -384v-316zM148 880h173l66 -145h-139z" />
    <glyph glyph-name="ygrave" unicode="&#x1ef3;" horiz-adv-x="556" 
d="M549 525l-260 -704h-158l71 196l-196 508h179l93 -302l97 302h174zM121 725h173l66 -145h-139z" />
    <glyph glyph-name="uni021A" unicode="&#x21a;" horiz-adv-x="511" 
d="M492 547h-151v-547h-171v547h-151v153h473v-153zM176 -257c20 14 43 37 51 64c-44 10 -65 47 -65 82c0 47 39 84 86 84c52 0 90 -39 90 -99c0 -76 -45 -151 -107 -192z" />
    <glyph glyph-name="uni021B" unicode="&#x21b;" horiz-adv-x="352" 
d="M229 636v-111h89v-135h-89v-193c0 -46 31 -57 65 -57c9 0 17 0 28 1v-143s-22 -6 -64 -6c-124 0 -196 57 -196 213v185h-51v135h51v111h167zM125 -257c20 14 43 37 51 64c-44 10 -65 47 -65 82c0 47 39 84 86 84c52 0 90 -39 90 -99c0 -76 -45 -151 -107 -192z" />
    </font>
</defs>
</svg>
