<?xml version="1.0" standalone="no"?>
<!DOCTYPE svg PUBLIC "-//W3C//DTD SVG 1.1//EN" "http://www.w3.org/Graphics/SVG/1.1/DTD/svg11.dtd" >
<svg xmlns="http://www.w3.org/2000/svg" xmlns:xlink="http://www.w3.org/1999/xlink" version="1.1">
<metadata>
Created by FontForge 20190801 at Fri Oct 14 21:23:42 2016
 By Jimmy Wärting
Copyright (c) 2015 by atipo. All rights reserved.
</metadata>
<defs>
<font id="Geomanist-BlackItalic" horiz-adv-x="282" >
  <font-face 
    font-family="Geomanist"
    font-weight="900"
    font-style="italic"
    font-stretch="normal"
    units-per-em="1000"
    panose-1="2 0 5 3 4 0 0 9 0 4"
    ascent="750"
    descent="-250"
    x-height="528"
    cap-height="700"
    bbox="-74 -340 1294 1029"
    underline-thickness="50"
    underline-position="-100"
    stemh="167"
    stemv="195"
    unicode-range="U+0020-F6C3"
  />
<missing-glyph horiz-adv-x="508" 
d="M4 0l117 700h500l-117 -700h-500zM320 395l213 255h-340zM343 350l127 -255l85 510zM70 95l213 255l-128 255zM92 50h340l-127 255z" />
    <glyph glyph-name="ellipsis" unicode="&#x2e;&#x2e;&#x2e;" horiz-adv-x="898" 
d="M41 82c0 68 61 127 133 127c58 0 96 -42 96 -96c0 -68 -61 -126 -133 -126c-58 0 -96 43 -96 95zM351 82c0 68 61 127 133 127c58 0 96 -42 96 -96c0 -68 -61 -126 -133 -126c-58 0 -96 43 -96 95zM661 82c0 68 61 127 133 127c58 0 96 -42 96 -96
c0 -68 -61 -126 -133 -126c-58 0 -96 43 -96 95z" />
    <glyph glyph-name=".notdef" horiz-adv-x="508" 
d="M4 0l117 700h500l-117 -700h-500zM320 395l213 255h-340zM343 350l127 -255l85 510zM70 95l213 255l-128 255zM92 50h340l-127 255z" />
    <glyph glyph-name="space" unicode=" " horiz-adv-x="200" 
 />
    <glyph glyph-name="numbersign" unicode="#" horiz-adv-x="682" 
d="M70 0l63 165h-83l52 140h84l33 89h-83l53 140h84l63 166h159l-63 -166h81l64 166h159l-64 -166h78l-53 -140h-78l-34 -89h78l-52 -140h-78l-63 -165h-159l63 165h-82l-63 -165h-159zM345 305h81l34 89h-83z" />
    <glyph glyph-name="percent" unicode="%" horiz-adv-x="864" 
d="M71 0l654 700h185l-654 -700h-185zM265 358c-98 0 -161 64 -161 151c0 112 101 204 219 204c100 0 163 -67 163 -153c0 -113 -99 -202 -221 -202zM287 489c34 0 55 25 55 53c0 21 -15 38 -39 38c-32 0 -55 -25 -55 -51c0 -23 17 -40 39 -40zM493 139
c0 111 101 203 220 203c99 0 163 -67 163 -154c0 -111 -101 -201 -221 -201c-99 0 -162 65 -162 152zM638 158c0 -22 15 -39 38 -39c32 0 56 25 56 52c0 22 -16 39 -40 39c-32 0 -54 -25 -54 -52z" />
    <glyph glyph-name="quotesingle" unicode="'" horiz-adv-x="233" 
d="M116 427l41 273h153l-51 -273h-143z" />
    <glyph glyph-name="parenleft" unicode="(" horiz-adv-x="368" 
d="M35 50l90 537c27 164 154 247 325 247l-28 -164c-67 0 -97 -32 -106 -83l-90 -537c-8 -51 12 -83 79 -83l-28 -164c-166 0 -269 83 -242 247z" />
    <glyph glyph-name="parenright" unicode=")" horiz-adv-x="369" 
d="M439 587l-90 -537c-27 -164 -158 -247 -324 -247l27 164c67 0 98 32 106 83l90 537c9 51 -11 83 -78 83l28 164c166 0 268 -83 241 -247z" />
    <glyph glyph-name="asterisk" unicode="*" horiz-adv-x="448" 
d="M116 551l81 104l68 -38l14 83h126l-14 -83l79 38l45 -104l-79 -39l67 -37l-80 -105l-67 40l-14 -85h-126l14 84l-80 -39l-47 104l82 39z" />
    <glyph glyph-name="plus" unicode="+" horiz-adv-x="562" 
d="M74 237l25 150h166l29 173h160l-29 -173h167l-25 -150h-167l-29 -174h-160l29 174h-166z" />
    <glyph glyph-name="comma" unicode="," horiz-adv-x="279" 
d="M40 82c0 69 63 127 134 127c55 0 97 -34 97 -99c0 -105 -79 -226 -192 -292l-60 82c34 20 79 59 93 89c-49 12 -72 53 -72 93z" />
    <glyph glyph-name="hyphen" unicode="-" horiz-adv-x="405" 
d="M86 222l28 170h306l-28 -170h-306z" />
    <glyph glyph-name="period" unicode="." horiz-adv-x="279" 
d="M41 82c0 68 61 127 133 127c58 0 96 -42 96 -96c0 -68 -61 -126 -133 -126c-58 0 -96 43 -96 95z" />
    <glyph glyph-name="slash" unicode="/" horiz-adv-x="487" 
d="M-8 -108l444 858h167l-444 -858h-167z" />
    <glyph glyph-name="zero" unicode="0" horiz-adv-x="608" 
d="M622 350c-40 -247 -139 -363 -318 -363c-180 0 -242 116 -202 363c38 246 137 363 317 363c179 0 241 -117 203 -363zM303 350c-22 -135 -14 -181 30 -181c45 0 66 46 88 181c21 135 14 181 -31 181c-44 0 -66 -46 -87 -181z" />
    <glyph glyph-name="one" unicode="1" horiz-adv-x="375" 
d="M133 492l-18 162l153 46h163l-117 -700h-197l85 510z" />
    <glyph glyph-name="two" unicode="2" horiz-adv-x="580" 
d="M41 0l11 64c41 241 366 325 366 428c0 25 -21 42 -51 42c-37 0 -65 -25 -81 -58l-164 50c28 78 114 187 277 187c126 0 225 -71 225 -187c0 -191 -259 -268 -317 -359h265l-28 -167h-503z" />
    <glyph glyph-name="three" unicode="3" horiz-adv-x="566" 
d="M624 700l-28 -167l-130 -102c64 -15 117 -72 117 -161c0 -170 -127 -283 -294 -283s-222 112 -227 190l180 49c6 -34 28 -60 65 -60c44 0 70 31 70 65c0 25 -17 49 -58 49h-106l25 147l128 104h-214l29 169h443z" />
    <glyph glyph-name="four" unicode="4" horiz-adv-x="625" 
d="M48 150l23 137l335 413h235l-65 -386h77l-27 -164h-77l-25 -150h-194l25 150h-307zM276 314h106l31 182z" />
    <glyph glyph-name="five" unicode="5" horiz-adv-x="569" 
d="M308 166c41 0 84 31 84 81c0 31 -22 59 -62 59c-34 0 -56 -17 -71 -34l-155 30l81 398h438l-29 -169h-261l-17 -78c34 13 62 16 87 16c110 0 193 -84 193 -198c0 -159 -133 -284 -297 -284c-168 0 -232 112 -237 190l180 49c3 -40 30 -60 66 -60z" />
    <glyph glyph-name="six" unicode="6" horiz-adv-x="588" 
d="M329 169c53 0 72 38 72 79c0 34 -18 57 -53 57c-19 0 -46 -6 -69 -18c-12 -59 -15 -118 50 -118zM468 713c90 0 143 -27 167 -42l-100 -160c-15 8 -46 19 -88 19c-77 0 -117 -47 -132 -86c19 10 61 26 109 26c99 0 177 -59 177 -181c0 -173 -125 -302 -293 -302
c-164 0 -233 92 -233 235c0 175 67 491 393 491z" />
    <glyph glyph-name="seven" unicode="7" horiz-adv-x="546" 
d="M138 700h501l-23 -136l-311 -564h-217l300 531h-278z" />
    <glyph glyph-name="eight" unicode="8" horiz-adv-x="590" 
d="M292 -13c-147 0 -231 72 -231 191c0 90 48 158 107 192c-24 21 -41 61 -41 108c0 127 111 235 286 235c142 0 217 -78 217 -180c0 -76 -42 -132 -86 -163c33 -24 54 -71 54 -126c0 -153 -120 -257 -306 -257zM384 539c-41 0 -62 -25 -62 -58c0 -27 16 -39 46 -39
c40 0 62 19 62 57c0 24 -15 40 -46 40zM321 164c45 0 72 25 72 63c0 24 -14 48 -53 48c-50 0 -72 -35 -72 -66c0 -28 19 -45 53 -45z" />
    <glyph glyph-name="nine" unicode="9" horiz-adv-x="588" 
d="M376 531c-53 0 -72 -38 -72 -79c0 -34 18 -57 53 -57c19 0 46 6 69 18c12 59 15 118 -50 118zM237 -13c-90 0 -143 27 -167 42l100 160c15 -8 46 -19 88 -19c77 0 117 47 132 86c-19 -10 -61 -26 -109 -26c-99 0 -177 59 -177 181c0 173 125 302 293 302
c164 0 233 -92 233 -235c0 -175 -67 -491 -393 -491z" />
    <glyph glyph-name="colon" unicode=":" horiz-adv-x="279" 
d="M41 82c0 68 61 127 133 127c58 0 96 -42 96 -96c0 -68 -61 -126 -133 -126c-58 0 -96 43 -96 95zM95 408c0 68 62 127 134 127c58 0 95 -42 95 -96c0 -68 -61 -126 -133 -126c-58 0 -96 43 -96 95z" />
    <glyph glyph-name="semicolon" unicode=";" horiz-adv-x="279" 
d="M95 408c0 68 61 127 133 127c58 0 96 -42 96 -96c0 -68 -61 -126 -133 -126c-58 0 -96 43 -96 95zM40 82c0 69 63 127 134 127c55 0 97 -34 97 -99c0 -105 -79 -226 -192 -292l-60 82c34 20 79 59 93 89c-49 12 -72 53 -72 93z" />
    <glyph glyph-name="less" unicode="&#x3c;" horiz-adv-x="532" 
d="M89 246l22 133l468 192l-30 -167l-275 -96l243 -96l-24 -158z" />
    <glyph glyph-name="equal" unicode="=" horiz-adv-x="562" 
d="M91 338l25 149h493l-25 -149h-493zM56 128l25 149h493l-25 -149h-493z" />
    <glyph glyph-name="greater" unicode="&#x3e;" horiz-adv-x="532" 
d="M547 379l-22 -133l-468 -192l28 169l275 96l-243 96l27 156z" />
    <glyph glyph-name="question" unicode="?" horiz-adv-x="506" 
d="M177 227l7 44c22 140 189 166 189 235c0 19 -12 39 -46 39c-42 0 -62 -33 -72 -50l-146 67c30 58 105 151 258 151c122 0 208 -74 208 -172c0 -162 -191 -190 -206 -283l-5 -31h-187zM133 82c0 68 61 127 133 127c58 0 96 -42 96 -96c0 -68 -61 -126 -133 -126
c-58 0 -96 43 -96 95z" />
    <glyph glyph-name="at" unicode="@" horiz-adv-x="936" 
d="M298 225c0 126 89 231 215 231c48 0 78 -21 86 -31l4 25h140l-37 -221c-6 -34 8 -49 34 -49c52 0 87 79 87 166c0 133 -94 213 -258 213c-208 0 -358 -150 -358 -345c0 -149 99 -241 269 -241c74 0 154 18 209 52l50 -96c-72 -43 -173 -74 -279 -74
c-244 0 -390 138 -390 342c0 286 243 479 516 479c237 0 376 -137 376 -314c0 -170 -105 -299 -253 -299c-55 0 -100 23 -118 60c-20 -25 -66 -61 -137 -61c-100 0 -156 69 -156 163zM449 248c0 -33 19 -58 52 -58c41 0 75 34 75 80c0 29 -18 58 -51 58
c-39 0 -76 -34 -76 -80z" />
    <glyph glyph-name="A" unicode="A" horiz-adv-x="702" 
d="M481 134h-210l-64 -134h-203l359 700h210l125 -700h-197zM461 293l-24 201l-92 -201h116z" />
    <glyph glyph-name="B" unicode="B" horiz-adv-x="610" 
d="M58 0l117 700h271c132 0 209 -62 209 -160c0 -77 -35 -132 -103 -173c52 -25 74 -73 74 -127c0 -163 -136 -240 -292 -240h-276zM329 435h58c37 0 58 27 58 59c0 24 -14 40 -44 40h-56zM284 167h71c40 0 67 35 67 65c0 25 -14 48 -45 48h-74z" />
    <glyph glyph-name="C" unicode="C" horiz-adv-x="635" 
d="M76 297c0 225 188 416 441 416c84 0 157 -25 202 -60l-84 -174c-28 27 -72 52 -138 52c-119 0 -210 -93 -210 -209c0 -88 56 -153 149 -153c66 0 118 25 156 52l26 -174c-57 -35 -138 -60 -222 -60c-202 0 -320 135 -320 310z" />
    <glyph glyph-name="D" unicode="D" horiz-adv-x="684" 
d="M58 0l117 700h228c199 0 322 -109 322 -291c0 -247 -182 -409 -439 -409h-228zM285 168h25c119 0 206 77 206 220c0 96 -57 144 -145 144h-25z" />
    <glyph glyph-name="E" unicode="E" horiz-adv-x="498" 
d="M58 0l117 700h392l-29 -174h-193l-14 -86h163l-29 -173h-163l-16 -93h201l-29 -174h-400z" />
    <glyph glyph-name="F" unicode="F" horiz-adv-x="482" 
d="M58 0l117 700h389l-29 -174h-190l-16 -98h165l-29 -173h-165l-43 -255h-199z" />
    <glyph glyph-name="G" unicode="G" horiz-adv-x="767" 
d="M404 -13c-202 0 -328 135 -328 310c0 225 188 416 441 416c163 0 242 -81 272 -127l-147 -128c-21 30 -58 73 -145 73c-119 0 -210 -93 -210 -208c0 -89 58 -154 156 -154c78 0 123 21 140 33l6 39h-113l28 163h295l-52 -308c-81 -53 -172 -109 -343 -109z" />
    <glyph glyph-name="H" unicode="H" horiz-adv-x="736" 
d="M58 0l117 700h199l-44 -263h222l44 263h199l-117 -700h-199l44 262h-222l-44 -262h-199z" />
    <glyph glyph-name="I" unicode="I" horiz-adv-x="315" 
d="M58 0l117 700h199l-117 -700h-199z" />
    <glyph glyph-name="J" unicode="J" horiz-adv-x="409" 
d="M19 5l53 172c13 -2 33 -4 51 -4c42 0 62 28 66 53l79 474h200l-86 -512c-25 -149 -134 -194 -254 -194c-35 0 -79 3 -109 11z" />
    <glyph glyph-name="K" unicode="K" horiz-adv-x="673" 
d="M58 0l117 700h199l-47 -280l224 280h226l-289 -353l180 -347h-225l-138 286l-48 -286h-199z" />
    <glyph glyph-name="L" unicode="L" horiz-adv-x="469" 
d="M58 0l117 700h199l-88 -526h201l-29 -174h-400z" />
    <glyph glyph-name="M" unicode="M" horiz-adv-x="947" 
d="M434 700l87 -416l227 416h258l-117 -700h-190l71 426l-197 -371h-181l-72 371l-71 -426h-191l117 700h259z" />
    <glyph glyph-name="N" unicode="N" horiz-adv-x="740" 
d="M58 0l117 700h203l159 -397l66 397h196l-117 -700h-198l-166 391l-65 -391h-195z" />
    <glyph glyph-name="O" unicode="O" horiz-adv-x="802" 
d="M399 -13c-205 0 -323 133 -323 309c0 227 186 417 444 417c206 0 323 -134 323 -308c0 -229 -186 -418 -444 -418zM490 531c-115 0 -203 -94 -203 -211c0 -88 53 -151 142 -151c116 0 204 94 204 211c0 86 -53 151 -143 151z" />
    <glyph glyph-name="P" unicode="P" horiz-adv-x="584" 
d="M58 0l117 700h270c130 0 205 -86 205 -191c0 -160 -118 -277 -277 -277h-77l-39 -232h-199zM324 399h42c49 0 77 37 77 80c0 32 -20 54 -53 54h-44z" />
    <glyph glyph-name="Q" unicode="Q" horiz-adv-x="803" 
d="M399 -13c-205 0 -323 133 -323 309c0 227 186 417 444 417c206 0 323 -134 323 -308c0 -90 -29 -174 -80 -243l50 -47l-138 -132l-57 56c-64 -33 -138 -52 -219 -52zM490 531c-115 0 -203 -94 -203 -211c0 -88 53 -151 142 -151c18 0 36 2 52 6l-46 48l134 130l50 -51
c9 24 14 50 14 78c0 86 -53 151 -143 151z" />
    <glyph glyph-name="R" unicode="R" horiz-adv-x="632" 
d="M58 0l117 700h247c153 0 224 -69 224 -181c0 -93 -48 -180 -127 -225l111 -294h-219l-77 247h-36l-41 -247h-199zM325 409h33c51 0 81 33 81 74c0 32 -20 50 -60 50h-33z" />
    <glyph glyph-name="S" unicode="S" horiz-adv-x="546" 
d="M38 157l180 82c14 -37 48 -69 84 -69c35 0 50 16 50 35c0 63 -239 73 -239 260c0 149 118 248 281 248c161 0 201 -115 211 -170l-178 -74c-9 29 -20 64 -68 64c-27 0 -44 -16 -44 -36c0 -70 243 -74 243 -253c0 -141 -109 -257 -292 -257c-165 0 -218 121 -228 170z" />
    <glyph glyph-name="T" unicode="T" horiz-adv-x="521" 
d="M161 0l88 526h-143l29 174h487l-29 -174h-145l-88 -526h-199z" />
    <glyph glyph-name="U" unicode="U" horiz-adv-x="726" 
d="M371 -13c-197 0 -295 118 -267 287l71 426h199l-71 -427c-11 -65 23 -106 88 -106s113 41 124 106l71 427h199l-71 -426c-28 -169 -135 -287 -343 -287z" />
    <glyph glyph-name="V" unicode="V" horiz-adv-x="733" 
d="M475 0h-217l-137 700h218l66 -470l223 470h218z" />
    <glyph glyph-name="W" unicode="W" horiz-adv-x="1028" 
d="M614 0l-33 402l-167 -402h-226l-64 700h213l15 -465l190 465h178l34 -465l171 465h213l-299 -700h-225z" />
    <glyph glyph-name="X" unicode="X" horiz-adv-x="683" 
d="M4 0l276 361l-160 339h234l72 -198l130 198h241l-276 -356l158 -344h-221l-82 205l-142 -205h-230z" />
    <glyph glyph-name="Y" unicode="Y" horiz-adv-x="644" 
d="M223 0l52 313l-152 387h218l58 -211l132 211h224l-282 -387l-52 -313h-198z" />
    <glyph glyph-name="Z" unicode="Z" horiz-adv-x="624" 
d="M31 0l20 122l356 406h-281l29 172h550l-20 -121l-360 -407h295l-29 -172h-560z" />
    <glyph glyph-name="bracketleft" unicode="[" horiz-adv-x="368" 
d="M-6 -197l173 1031h283l-28 -164h-92l-118 -703h92l-27 -164h-283z" />
    <glyph glyph-name="backslash" unicode="\" horiz-adv-x="487" 
d="M303 750l156 -858h-167l-156 858h167z" />
    <glyph glyph-name="bracketright" unicode="]" horiz-adv-x="367" 
d="M481 834l-173 -1031h-283l27 164h92l118 703h-92l28 164h283z" />
    <glyph glyph-name="asciicircum" unicode="^" horiz-adv-x="601" 
d="M88 318l251 382h156l123 -382h-173l-54 203l-122 -203h-181z" />
    <glyph glyph-name="underscore" unicode="_" horiz-adv-x="633" 
d="M11 -29h601l-24 -146h-601z" />
    <glyph glyph-name="grave" unicode="`" horiz-adv-x="488" 
d="M432 725l40 -151h-147l-90 151h197z" />
    <glyph glyph-name="a" unicode="a" horiz-adv-x="551" 
d="M40 136c0 121 99 204 242 204c36 0 71 -9 90 -20l3 16c4 21 -16 42 -64 42c-43 0 -85 -11 -131 -30l-56 126c64 39 161 67 240 67c177 0 223 -104 202 -227l-53 -314h-174l-6 29c-34 -30 -81 -42 -132 -42c-86 0 -161 50 -161 149zM238 166c0 -24 24 -35 50 -35
c30 0 63 16 63 45c0 24 -22 37 -50 37c-32 0 -63 -17 -63 -47z" />
    <glyph glyph-name="b" unicode="b" horiz-adv-x="640" 
d="M44 0l121 723h194l-38 -228c22 16 74 46 142 46c132 0 208 -92 208 -226c0 -189 -136 -328 -310 -328c-69 0 -115 27 -131 47l-6 -34h-180zM274 243c0 -49 28 -89 81 -89c71 0 118 55 118 131c0 52 -28 90 -81 90c-67 0 -118 -55 -118 -132z" />
    <glyph glyph-name="c" unicode="c" horiz-adv-x="486" 
d="M548 499l-78 -158c-27 22 -58 30 -87 30c-82 0 -129 -61 -129 -126c0 -56 40 -91 99 -91c28 0 66 10 93 28l24 -155c-46 -27 -104 -40 -162 -40c-155 0 -250 96 -250 234c0 185 160 320 345 320c62 0 115 -20 145 -42z" />
    <glyph glyph-name="d" unicode="d" horiz-adv-x="639" 
d="M717 723l-121 -723h-180l5 34c-23 -20 -74 -47 -143 -47c-135 0 -220 95 -220 231c0 181 124 323 300 323c68 0 110 -30 126 -46l39 228h194zM454 286c0 56 -31 89 -81 89c-72 0 -118 -58 -118 -133c0 -53 28 -88 81 -88c74 0 118 63 118 132z" />
    <glyph glyph-name="e" unicode="e" horiz-adv-x="566" 
d="M60 228c0 169 133 313 315 313c148 0 223 -85 223 -230c0 -46 -10 -83 -14 -98h-330c3 -41 33 -64 81 -64c49 0 90 32 103 47l116 -92c-16 -26 -105 -117 -249 -117c-160 0 -245 108 -245 241zM278 331h130c2 24 -12 57 -55 57c-46 0 -69 -37 -75 -57z" />
    <glyph glyph-name="f" unicode="f" horiz-adv-x="362" 
d="M73 0l63 375h-55l25 153h55l2 10c26 139 139 190 257 190c22 0 43 -2 56 -4l-26 -158c-5 1 -16 3 -30 3c-39 0 -59 -13 -62 -34l-1 -7h75l-25 -153h-76l-63 -375h-195z" />
    <glyph glyph-name="g" unicode="g" horiz-adv-x="633" 
d="M71 -149l74 146c13 -6 74 -33 139 -33c58 0 115 13 123 56l2 11c-32 -24 -72 -40 -129 -40c-136 0 -221 94 -221 229c0 182 124 321 300 321c68 0 109 -28 126 -46l6 33h194l-77 -461c-33 -198 -179 -259 -333 -259c-91 0 -159 20 -204 43zM455 287c0 55 -31 88 -81 88
c-72 0 -118 -58 -118 -130c0 -52 29 -87 82 -87c74 0 117 62 117 129z" />
    <glyph glyph-name="h" unicode="h" horiz-adv-x="585" 
d="M453 541c127 0 170 -78 150 -200l-57 -341h-194l52 311c7 40 -15 59 -47 59c-38 0 -61 -26 -66 -56l-53 -314h-194l121 723h194l-40 -239c25 26 74 57 134 57z" />
    <glyph glyph-name="i" unicode="i" 
d="M44 0l88 528h194l-88 -528h-194zM146 642c0 62 58 110 121 110c51 0 89 -35 89 -84c0 -62 -59 -109 -121 -109c-52 0 -89 35 -89 83z" />
    <glyph glyph-name="j" unicode="j" 
d="M47 18l86 510h194l-88 -526c-24 -144 -135 -194 -273 -194c-17 0 -35 3 -40 4l26 158s13 -1 25 -1c41 0 65 19 70 49zM147 642c0 62 57 110 120 110c52 0 89 -35 89 -84c0 -62 -58 -109 -121 -109c-51 0 -88 35 -88 83z" />
    <glyph glyph-name="k" unicode="k" horiz-adv-x="591" 
d="M44 0l121 723h194l-67 -400l156 205h219l-206 -258l132 -270h-214l-102 233l-39 -233h-194z" />
    <glyph glyph-name="l" unicode="l" 
d="M44 0l121 723h194l-121 -723h-194z" />
    <glyph glyph-name="m" unicode="m" horiz-adv-x="862" 
d="M879 340l-57 -340h-194l53 315c5 33 -11 55 -42 55c-30 0 -52 -24 -57 -55l-53 -315h-193l52 311c6 37 -8 59 -40 59c-30 0 -51 -18 -57 -56l-53 -314h-194l88 528h189c-5 -31 -8 -50 -8 -50c23 28 68 63 139 63c58 0 99 -23 122 -62c38 36 90 62 158 62
c120 0 165 -91 147 -201z" />
    <glyph glyph-name="n" unicode="n" horiz-adv-x="583" 
d="M456 541c125 0 165 -79 145 -201l-57 -340h-194l52 311c7 40 -14 59 -46 59c-38 0 -60 -26 -65 -56l-53 -314h-194l88 528h189l-8 -50c24 27 78 63 143 63z" />
    <glyph glyph-name="o" unicode="o" horiz-adv-x="624" 
d="M654 303c0 -179 -159 -316 -344 -316c-150 0 -252 100 -252 238c0 179 159 316 344 316c150 0 252 -100 252 -238zM254 244c0 -55 33 -90 84 -90c66 0 120 53 120 130c0 55 -33 91 -83 91c-66 0 -121 -54 -121 -131z" />
    <glyph glyph-name="p" unicode="p" horiz-adv-x="640" 
d="M13 -187l120 715h180l-6 -34c23 20 74 47 143 47c135 0 220 -95 220 -231c0 -181 -124 -323 -300 -323c-68 0 -110 30 -126 46l-37 -220h-194zM274 242c0 -56 31 -89 81 -89c72 0 119 58 119 133c0 53 -30 88 -82 88c-74 0 -118 -63 -118 -132z" />
    <glyph glyph-name="q" unicode="q" horiz-adv-x="639" 
d="M685 528l-120 -715h-194l37 220c-22 -16 -74 -46 -142 -46c-133 0 -208 92 -208 226c0 189 140 328 314 328c69 0 110 -27 127 -47l6 34h180zM455 285c0 49 -26 89 -81 89c-71 0 -119 -55 -119 -131c0 -53 29 -90 82 -90c67 0 118 52 118 132z" />
    <glyph glyph-name="r" unicode="r" horiz-adv-x="390" 
d="M461 541l-32 -189c-7 2 -17 4 -30 4c-65 0 -108 -41 -120 -110l-41 -246h-194l88 528h189l-11 -67c35 50 94 80 151 80z" />
    <glyph glyph-name="s" unicode="s" horiz-adv-x="460" 
d="M22 71l124 106c27 -21 64 -37 107 -37c28 0 39 10 39 21c0 39 -206 27 -206 183c0 120 110 197 244 197c98 0 158 -44 188 -87l-141 -99c-17 17 -39 34 -73 34c-23 0 -33 -10 -33 -20c0 -47 209 -40 209 -188c0 -128 -108 -194 -252 -194c-92 0 -171 44 -206 84z" />
    <glyph glyph-name="t" unicode="t" horiz-adv-x="379" 
d="M159 528l18 111h189l-18 -111h85l-26 -153h-85l-29 -173c-6 -37 32 -42 62 -42c7 0 19 1 19 1l-27 -163s-23 -6 -71 -6c-136 0 -201 66 -177 208l29 175h-50l26 153h55z" />
    <glyph glyph-name="u" unicode="u" horiz-adv-x="579" 
d="M217 -13c-125 0 -166 79 -146 201l57 340h194l-52 -311c-7 -40 14 -59 46 -59c38 0 61 26 66 56l53 314h193l-88 -528h-189l8 50c-23 -27 -77 -63 -142 -63z" />
    <glyph glyph-name="v" unicode="v" horiz-adv-x="585" 
d="M407 0h-226l-91 528h206l31 -328l138 328h204z" />
    <glyph glyph-name="w" unicode="w" horiz-adv-x="855" 
d="M487 0l-16 266l-103 -266h-219l-54 528h209l3 -322s2 4 119 322h180c10 -318 10 -322 10 -322l108 322h213l-231 -528h-219z" />
    <glyph glyph-name="x" unicode="x" horiz-adv-x="569" 
d="M362 0l-56 137l-96 -137h-210l220 270l-130 258h215l46 -133l85 133h218l-215 -265l130 -263h-207z" />
    <glyph glyph-name="y" unicode="y" horiz-adv-x="579" 
d="M283 -179h-182l104 199l-111 508h205l31 -273l126 273h205z" />
    <glyph glyph-name="z" unicode="z" horiz-adv-x="482" 
d="M27 0l19 112l222 258h-176l26 158h425l-19 -113l-225 -257h183l-26 -158h-429z" />
    <glyph glyph-name="braceleft" unicode="{" horiz-adv-x="438" 
d="M60 227l30 182c41 0 77 11 91 93l14 85c27 164 159 247 325 247l-28 -164c-67 0 -97 -32 -106 -83l-22 -131c-15 -90 -91 -130 -130 -138c36 -8 99 -48 84 -138l-22 -130c-9 -51 11 -83 78 -83l-27 -164c-166 0 -269 83 -242 247l14 84c14 82 -18 93 -59 93z" />
    <glyph glyph-name="bar" unicode="|" horiz-adv-x="315" 
d="M22 -262l188 1123h183l-188 -1123h-183z" />
    <glyph glyph-name="braceright" unicode="}" horiz-adv-x="438" 
d="M484 409l-30 -182c-41 0 -77 -11 -91 -93l-14 -84c-27 -164 -158 -247 -324 -247l27 164c67 0 97 32 106 83l22 130c15 90 92 130 130 138c-35 8 -99 48 -84 138l22 131c9 51 -11 83 -78 83l28 164c166 0 268 -83 241 -247l-14 -85c-14 -82 18 -93 59 -93z" />
    <glyph glyph-name="asciitilde" unicode="~" horiz-adv-x="566" 
d="M417 374c21 0 38 13 42 36h148c-15 -94 -86 -210 -199 -210c-65 0 -117 36 -159 36c-22 0 -39 -13 -42 -37h-147c21 128 102 210 204 210c65 0 106 -35 153 -35z" />
    <glyph glyph-name="exclamdown" unicode="&#xa1;" horiz-adv-x="328" 
d="M124 434c0 68 61 126 133 126c58 0 96 -43 96 -95c0 -68 -61 -127 -133 -127c-58 0 -96 42 -96 96zM35 -153l94 473h176l-64 -473h-206z" />
    <glyph glyph-name="sterling" unicode="&#xa3;" horiz-adv-x="601" 
d="M83 272l23 142h47l13 77c22 129 126 222 276 222c146 0 194 -103 202 -162l-171 -67c-3 20 -13 49 -53 49c-30 0 -56 -23 -61 -53l-11 -66h147l-23 -142h-147l-18 -103h292l-28 -169h-539l28 169h52l18 103h-47z" />
    <glyph glyph-name="yen" unicode="&#xa5;" horiz-adv-x="644" 
d="M223 0l23 140h-146l20 120h146l9 54h-146l20 120h78l-104 266h220l58 -211l132 211h222l-194 -266h77l-20 -120h-145l-9 -54h145l-20 -120h-145l-23 -140h-198z" />
    <glyph glyph-name="dieresis" unicode="&#xa8;" horiz-adv-x="488" 
d="M379 640c0 52 42 97 100 97c45 0 73 -32 73 -72c0 -52 -45 -96 -101 -96c-46 0 -72 32 -72 71zM153 641c0 51 44 96 101 96c46 0 74 -32 74 -72c0 -52 -45 -96 -102 -96c-45 0 -73 32 -73 72z" />
    <glyph glyph-name="copyright" unicode="&#xa9;" horiz-adv-x="795" 
d="M83 298c0 230 197 415 434 415c190 0 312 -135 312 -313c0 -229 -199 -414 -434 -414c-192 0 -312 136 -312 312zM203 308c0 -127 79 -216 209 -216c169 0 297 131 297 301c0 124 -79 214 -209 214c-170 0 -297 -130 -297 -299zM271 322c0 121 100 220 220 220
c85 0 122 -51 132 -81l-109 -75c-5 13 -15 31 -41 31c-31 0 -62 -34 -62 -80c0 -31 16 -53 40 -53c26 0 42 18 51 31l88 -76c-23 -27 -74 -80 -163 -80c-95 0 -156 70 -156 163z" />
    <glyph glyph-name="ordfeminine" unicode="&#xaa;" horiz-adv-x="422" 
d="M95 412c0 91 74 150 181 150c31 0 59 -9 69 -14l2 12c3 15 -11 32 -48 32c-33 0 -66 -8 -100 -23l-38 94c44 28 109 50 176 50c136 0 167 -72 152 -164l-40 -239h-130l-4 20c-22 -18 -54 -30 -92 -30c-68 0 -128 38 -128 112zM242 433c0 -18 19 -26 38 -26
c26 0 49 10 49 35c0 18 -17 27 -39 27c-25 0 -48 -13 -48 -36z" />
    <glyph glyph-name="guillemotleft" unicode="&#xab;" horiz-adv-x="557" 
d="M292 292l152 196h171l-158 -201l94 -183h-165zM166 104l-93 192l151 192h172l-158 -201l94 -183h-166z" />
    <glyph glyph-name="registered" unicode="&#xae;" horiz-adv-x="461" 
d="M307 496h-14l-12 -69h-70l37 216h101c44 0 71 -25 71 -60c0 -40 -21 -64 -46 -74l26 -82h-73zM331 586h-23l-6 -36h23c11 0 21 8 21 21c0 9 -6 15 -15 15zM99 500c0 133 112 242 252 242c120 0 188 -76 188 -177c0 -132 -109 -243 -256 -243c-116 0 -184 76 -184 178z
M165 508c0 -73 47 -127 128 -127c108 0 180 78 180 177c0 73 -47 124 -132 124c-101 0 -176 -76 -176 -174z" />
    <glyph glyph-name="macron" unicode="&#xaf;" horiz-adv-x="449" 
d="M173 581l22 134h297l-22 -134h-297z" />
    <glyph glyph-name="degree" unicode="&#xb0;" horiz-adv-x="407" 
d="M109 515c0 107 99 198 214 198c94 0 156 -67 156 -150c0 -108 -97 -196 -214 -196c-95 0 -156 64 -156 148zM244 532c0 -22 13 -40 42 -40c38 0 58 27 58 56c0 21 -13 40 -42 40c-38 0 -58 -28 -58 -56z" />
    <glyph glyph-name="twosuperior" unicode="&#xb2;" horiz-adv-x="385" 
d="M79 300l9 54c21 127 219 159 219 211c0 12 -10 21 -26 21c-26 0 -40 -20 -53 -40l-108 39c18 42 76 123 186 123c81 0 148 -42 148 -114c0 -110 -144 -152 -181 -181h157l-19 -113h-332z" />
    <glyph glyph-name="threesuperior" unicode="&#xb3;" horiz-adv-x="380" 
d="M456 700l-15 -86l-89 -69c46 -10 76 -51 76 -96c0 -103 -89 -157 -187 -157c-110 0 -145 81 -148 123l118 39c3 -19 14 -39 40 -39c22 0 35 14 35 31c0 15 -12 26 -31 26h-55l13 80l46 38h-118l19 110h296z" />
    <glyph glyph-name="acute" unicode="&#xb4;" horiz-adv-x="488" 
d="M207 574l90 151h200l-135 -151h-155z" />
    <glyph glyph-name="paragraph" unicode="&#xb6;" horiz-adv-x="594" 
d="M215 -45l61 362c-96 2 -162 70 -162 165c0 123 105 218 231 218h140l-125 -745h-145zM416 -45l125 745h146l-125 -745h-146z" />
    <glyph glyph-name="periodcentered" unicode="&#xb7;" horiz-adv-x="278" 
d="M77 299c0 68 61 127 133 127c58 0 96 -42 96 -96c0 -68 -61 -126 -133 -126c-58 0 -96 43 -96 95z" />
    <glyph glyph-name="cedilla" unicode="&#xb8;" horiz-adv-x="449" 
d="M162 14h93l-15 -46c38 -11 64 -40 64 -82c0 -84 -68 -126 -154 -126c-30 0 -65 8 -78 14l39 87c7 -2 20 -5 34 -5c24 0 37 11 37 24c0 16 -21 23 -38 23c-11 0 -20 -2 -20 -2z" />
    <glyph glyph-name="onesuperior" unicode="&#xb9;" horiz-adv-x="321" 
d="M160 553l-13 117l103 30h117l-67 -400h-141l44 264z" />
    <glyph glyph-name="ordmasculine" unicode="&#xba;" horiz-adv-x="502" 
d="M258 491c0 -39 25 -66 64 -66c48 0 92 41 92 95c0 42 -27 68 -65 68c-51 0 -91 -40 -91 -97zM111 475c0 135 116 238 255 238c118 0 194 -74 194 -176c0 -134 -113 -237 -254 -237c-117 0 -195 74 -195 175z" />
    <glyph glyph-name="guillemotright" unicode="&#xbb;" horiz-adv-x="557" 
d="M364 300l-152 -196h-171l158 201l-94 183h165zM490 488l93 -192l-151 -192h-172l158 201l-94 183h166z" />
    <glyph glyph-name="onequarter" unicode="&#xbc;" horiz-adv-x="887" 
d="M316 -41h-162l499 782h164zM681 0l11 67h-184l17 103l206 230h154l-36 -216h44l-20 -117h-44l-11 -67h-137zM654 184h58l14 87c-72 -86 -72 -87 -72 -87zM153 553l-13 117l103 30h117l-67 -400h-141l44 264z" />
    <glyph glyph-name="onehalf" unicode="&#xbd;" horiz-adv-x="901" 
d="M306 -41h-162l499 782h163zM533 0l9 54c20 120 216 159 216 211c0 13 -8 21 -24 21c-26 0 -43 -20 -55 -40l-105 39c18 42 76 123 186 123c80 0 148 -37 148 -114c0 -110 -144 -152 -181 -181h157l-19 -113h-332zM153 553l-13 117l103 30h117l-67 -400h-141l44 264z" />
    <glyph glyph-name="threequarters" unicode="&#xbe;" horiz-adv-x="924" 
d="M355 -41h-162l499 782h163zM717 0l11 67h-185l17 103l206 230h154l-36 -216h44l-19 -117h-44l-11 -67h-137zM689 184h58l15 87zM452 700l-15 -86l-89 -69c46 -10 76 -51 76 -96c0 -103 -89 -157 -187 -157c-110 0 -145 81 -148 123l118 39c3 -19 14 -39 40 -39
c22 0 35 14 35 31c0 15 -12 26 -31 26h-55l13 80l46 38h-118l19 110h296z" />
    <glyph glyph-name="questiondown" unicode="&#xbf;" horiz-adv-x="506" 
d="M421 320l-7 -44c-22 -140 -189 -166 -189 -235c0 -19 12 -39 46 -39c42 0 62 33 72 50l146 -67c-30 -58 -105 -151 -258 -151c-122 0 -208 74 -208 172c0 162 191 190 206 283l5 31h187zM465 465c0 -68 -61 -127 -133 -127c-58 0 -96 42 -96 96c0 68 61 126 133 126
c58 0 96 -43 96 -95z" />
    <glyph glyph-name="AE" unicode="&#xc6;" horiz-adv-x="918" 
d="M8 0l494 700h485l-29 -174h-193l-14 -86h163l-29 -173h-163l-16 -93h200l-29 -174h-399l22 134h-184l-92 -134h-216zM565 519l-151 -226h113z" />
    <glyph glyph-name="Eth" unicode="&#xd0;" horiz-adv-x="702" 
d="M66 266l28 170h54l45 264h228c199 0 321 -109 321 -291c0 -247 -183 -409 -439 -409h-228l45 266h-54zM303 168h25c120 0 205 78 205 220c0 96 -55 144 -144 144h-25l-17 -96h85l-28 -170h-85z" />
    <glyph glyph-name="multiply" unicode="&#xd7;" horiz-adv-x="538" 
d="M47 174l172 149l-113 138l118 99l111 -137l159 137l92 -111l-160 -139l122 -149l-115 -98l-122 148l-171 -148z" />
    <glyph glyph-name="Thorn" unicode="&#xde;" horiz-adv-x="602" 
d="M58 0l117 700h199l-18 -111h93c123 0 200 -76 200 -191c0 -161 -117 -279 -279 -279h-93l-20 -119h-199zM305 289h63c50 0 74 37 74 80c0 31 -17 53 -49 53h-65z" />
    <glyph glyph-name="germandbls" unicode="&#xdf;" horiz-adv-x="592" 
d="M388 569c-42 0 -59 -24 -62 -44l-88 -525h-194l90 538c24 142 145 190 263 190c143 0 227 -70 227 -159c0 -76 -41 -112 -82 -137c40 -27 76 -74 76 -153c0 -165 -134 -279 -347 -279l26 155c82 0 125 50 125 106c0 43 -32 73 -95 73l24 146c61 0 89 17 89 52
c0 20 -18 37 -52 37z" />
    <glyph glyph-name="eth" unicode="&#xf0;" horiz-adv-x="598" 
d="M54 213c0 178 153 281 299 281c5 0 11 0 19 -1c-2 8 -13 32 -24 43l-170 -54l2 114l77 24c-20 19 -43 31 -60 41l122 95c43 -16 95 -44 132 -73l151 48l-3 -117l-64 -21c49 -59 94 -157 94 -263c0 -158 -104 -343 -335 -343c-155 0 -240 101 -240 226zM250 234
c0 -45 25 -80 73 -80c64 0 105 55 105 116c0 42 -23 75 -73 75c-69 0 -105 -52 -105 -111z" />
    <glyph glyph-name="divide" unicode="&#xf7;" horiz-adv-x="563" 
d="M352 427c-47 0 -77 35 -77 78c0 55 49 103 107 103c46 0 77 -35 77 -78c0 -55 -50 -103 -107 -103zM75 237l25 150h493l-25 -150h-493zM283 16c-47 0 -77 35 -77 78c0 55 50 103 107 103c47 0 77 -35 77 -78c0 -55 -50 -103 -107 -103z" />
    <glyph glyph-name="thorn" unicode="&#xfe;" horiz-adv-x="640" 
d="M13 -187l152 910h194l-38 -228c20 15 71 46 139 46c125 0 211 -93 211 -226c0 -186 -125 -328 -301 -328c-68 0 -110 30 -126 46l-37 -220h-194zM274 242c0 -56 31 -89 81 -89c72 0 119 58 119 133c0 53 -30 88 -82 88c-74 0 -118 -63 -118 -132z" />
    <glyph glyph-name="Dcroat" unicode="&#x110;" horiz-adv-x="702" 
d="M66 266l28 170h54l45 264h228c199 0 321 -109 321 -291c0 -247 -183 -409 -439 -409h-228l45 266h-54zM303 168h25c120 0 205 78 205 220c0 96 -55 144 -144 144h-25l-17 -96h85l-28 -170h-85z" />
    <glyph glyph-name="dotlessi" unicode="&#x131;" 
d="M44 0l88 528h194l-88 -528h-194z" />
    <glyph glyph-name="florin" unicode="&#x192;" horiz-adv-x="505" 
d="M339 298l-52 -313c-22 -131 -119 -177 -241 -177c-31 0 -61 4 -69 6l27 157s14 -3 27 -3c52 0 63 18 74 82l42 248h-50l7 153h72l14 79c26 146 135 186 241 186c27 0 63 -5 69 -6l-28 -156c-7 1 -20 2 -30 2c-32 0 -56 -14 -62 -44l-11 -61h69l-7 -153h-92z" />
    <glyph glyph-name="circumflex" unicode="&#x2c6;" horiz-adv-x="450" 
d="M358 574l-27 61l-47 -61h-159l123 151h196l73 -151h-159z" />
    <glyph glyph-name="caron" unicode="&#x2c7;" horiz-adv-x="450" 
d="M333 664l47 61h162l-123 -151h-196l-73 151h156z" />
    <glyph glyph-name="breve" unicode="&#x2d8;" horiz-adv-x="448" 
d="M319 576c-111 0 -165 64 -149 158h130c-4 -23 0 -52 33 -52c34 0 48 29 52 52h138c-16 -94 -92 -158 -204 -158z" />
    <glyph glyph-name="dotaccent" unicode="&#x2d9;" horiz-adv-x="448" 
d="M247 643c0 53 49 97 101 97c42 0 72 -32 72 -73c0 -53 -49 -97 -101 -97c-42 0 -72 32 -72 73z" />
    <glyph glyph-name="ring" unicode="&#x2da;" horiz-adv-x="448" 
d="M209 649c0 74 68 126 144 126c64 0 108 -39 108 -95c0 -73 -67 -126 -145 -126c-63 0 -107 39 -107 95zM300 659c0 -19 11 -31 29 -31c24 0 42 18 42 43c0 18 -11 30 -30 30c-23 0 -41 -18 -41 -42z" />
    <glyph glyph-name="ogonek" unicode="&#x2db;" horiz-adv-x="450" 
d="M103 -131c0 72 67 114 107 131h112c-15 -4 -49 -25 -49 -56c0 -22 20 -28 38 -28l-21 -126c-17 -5 -43 -9 -72 -9c-56 0 -115 22 -115 88z" />
    <glyph glyph-name="tilde" unicode="&#x2dc;" horiz-adv-x="449" 
d="M391 574c-55 0 -89 30 -119 30c-18 0 -30 -11 -33 -31h-119c16 97 79 159 157 159c55 0 89 -30 119 -30c18 0 29 11 33 31h116c-16 -101 -76 -159 -154 -159z" />
    <glyph glyph-name="hungarumlaut" unicode="&#x2dd;" horiz-adv-x="509" 
d="M113 574l90 151h190l-135 -151h-145zM332 574l90 151h190l-135 -151h-145z" />
    <glyph glyph-name="endash" unicode="&#x2013;" horiz-adv-x="705" 
d="M88 236l26 155h607l-26 -155h-607z" />
    <glyph glyph-name="emdash" unicode="&#x2014;" horiz-adv-x="985" 
d="M89 236l26 155h885l-26 -155h-885z" />
    <glyph glyph-name="quoteleft" unicode="&#x2018;" horiz-adv-x="266" 
d="M326 482c0 -69 -62 -127 -133 -127c-55 0 -97 34 -97 99c0 105 79 226 192 292l60 -82c-35 -20 -79 -59 -93 -89c49 -12 71 -53 71 -93z" />
    <glyph glyph-name="quoteright" unicode="&#x2019;" horiz-adv-x="266" 
d="M124 619c0 69 62 127 133 127c55 0 97 -34 97 -99c0 -105 -79 -226 -192 -292l-60 82c34 20 79 59 93 89c-49 12 -71 53 -71 93z" />
    <glyph glyph-name="quotesinglbase" unicode="&#x201a;" horiz-adv-x="279" 
d="M40 82c0 69 63 127 134 127c55 0 97 -34 97 -99c0 -105 -79 -226 -192 -292l-60 82c34 20 79 59 93 89c-49 12 -72 53 -72 93z" />
    <glyph glyph-name="quotedblleft" unicode="&#x201c;" horiz-adv-x="518" 
d="M326 482c0 -69 -62 -127 -133 -127c-55 0 -97 34 -97 99c0 105 79 226 192 292l60 -82c-35 -20 -79 -59 -93 -89c49 -12 71 -53 71 -93zM577 482c0 -69 -62 -127 -133 -127c-55 0 -97 34 -97 99c0 105 79 226 192 292l60 -82c-35 -20 -79 -59 -93 -89
c49 -12 71 -53 71 -93z" />
    <glyph glyph-name="quotedblright" unicode="&#x201d;" horiz-adv-x="518" 
d="M375 619c0 69 62 127 133 127c55 0 97 -34 97 -99c0 -105 -79 -226 -192 -292l-60 82c34 20 79 59 93 89c-49 12 -71 53 -71 93zM124 619c0 69 62 127 133 127c55 0 97 -34 97 -99c0 -105 -79 -226 -192 -292l-60 82c34 20 79 59 93 89c-49 12 -71 53 -71 93z" />
    <glyph glyph-name="quotedblbase" unicode="&#x201e;" horiz-adv-x="530" 
d="M291 82c0 69 63 127 134 127c54 0 97 -34 97 -99c0 -105 -79 -226 -192 -292l-60 82c34 20 79 59 93 89c-49 12 -72 53 -72 93zM40 82c0 69 63 127 134 127c55 0 97 -34 97 -99c0 -105 -79 -226 -192 -292l-60 82c34 20 79 59 93 89c-49 12 -72 53 -72 93z" />
    <glyph glyph-name="dagger" unicode="&#x2020;" horiz-adv-x="477" 
d="M143 0l64 380h-122l28 165h122l26 155h191l-26 -155h121l-28 -165h-121l-64 -380h-191z" />
    <glyph glyph-name="daggerdbl" unicode="&#x2021;" horiz-adv-x="476" 
d="M47 155l27 164h122l11 61h-122l27 165h122l26 155h191l-26 -155h121l-27 -165h-121l-11 -61h121l-27 -164h-121l-26 -155h-191l26 155h-122z" />
    <glyph glyph-name="bullet" unicode="&#x2022;" horiz-adv-x="406" 
d="M226 138c-89 0 -146 65 -146 147c0 107 93 197 203 197c88 0 146 -65 146 -147c0 -107 -93 -197 -203 -197z" />
    <glyph glyph-name="perthousand" unicode="&#x2030;" horiz-adv-x="1281" 
d="M71 0l654 700h185l-654 -700h-185zM265 358c-98 0 -161 64 -161 151c0 112 101 204 219 204c100 0 163 -67 163 -153c0 -113 -99 -202 -221 -202zM287 489c34 0 55 25 55 53c0 21 -15 38 -39 38c-32 0 -55 -25 -55 -51c0 -23 17 -40 39 -40zM493 139
c0 111 101 203 220 203c99 0 163 -67 163 -154c0 -111 -101 -201 -221 -201c-99 0 -162 65 -162 152zM638 158c0 -22 15 -39 38 -39c32 0 56 25 56 52c0 22 -16 39 -40 39c-32 0 -54 -25 -54 -52zM911 139c0 111 101 203 220 203c99 0 163 -67 163 -154
c0 -111 -101 -201 -221 -201c-99 0 -162 65 -162 152zM1056 158c0 -22 16 -39 38 -39c34 0 56 25 56 52c0 22 -16 39 -40 39c-31 0 -54 -25 -54 -52z" />
    <glyph glyph-name="guilsinglleft" unicode="&#x2039;" horiz-adv-x="338" 
d="M166 104l-93 192l151 192h172l-158 -201l94 -183h-166z" />
    <glyph glyph-name="guilsinglright" unicode="&#x203a;" horiz-adv-x="338" 
d="M364 300l-152 -196h-171l158 201l-94 183h165z" />
    <glyph glyph-name="fraction" unicode="&#x2044;" horiz-adv-x="506" 
d="M143 -41h-162l499 782h163z" />
    <glyph glyph-name="Euro" unicode="&#x20ac;" horiz-adv-x="674" 
d="M58 215l20 119h47l6 36h-47l20 119h72c68 127 202 224 365 224c91 0 156 -23 192 -46l-107 -159c-20 12 -66 27 -105 27c-47 0 -95 -15 -128 -46h175l-32 -119h-198c-4 -14 -5 -29 -5 -36h192l-31 -119h-139c18 -31 74 -47 119 -47c47 0 90 17 112 29l47 -157
c-31 -26 -104 -53 -190 -53c-178 0 -288 91 -314 228h-71z" />
    <glyph glyph-name="trademark" unicode="&#x2122;" horiz-adv-x="837" 
d="M176 339l42 250h-84l19 111h297l-19 -111h-84l-42 -250h-129zM702 378h-114l-18 126l-28 -165h-124l61 361h165l24 -178l86 178h165l-61 -361h-124l28 165z" />
    <glyph glyph-name="minus" unicode="&#x2212;" horiz-adv-x="562" 
d="M74 237l25 150h493l-25 -150h-493z" />
    <glyph glyph-name="quotedbl" unicode="&#x22;" horiz-adv-x="445" 
d="M116 427l41 273h153l-51 -273h-143zM329 427l41 273h153l-51 -273h-143z" />
    <glyph glyph-name="exclam" unicode="!" horiz-adv-x="328" 
d="M66 82c0 68 61 127 133 127c58 0 96 -42 96 -96c0 -68 -61 -126 -133 -126c-58 0 -96 43 -96 95zM114 227l64 473h206l-94 -473h-176z" />
    <glyph glyph-name="dollar" unicode="$" horiz-adv-x="546" 
d="M38 157l180 82c14 -37 48 -69 84 -69c35 0 50 16 50 35c0 63 -239 73 -239 260c0 131 93 224 229 244l10 57h112l-10 -59c111 -24 142 -117 151 -164l-178 -74c-9 29 -20 64 -68 64c-27 0 -44 -16 -44 -36c0 -70 243 -74 243 -253c0 -120 -83 -223 -223 -250l-14 -80
h-112l13 75c-130 24 -174 119 -184 168z" />
    <glyph glyph-name="ampersand" unicode="&#x26;" horiz-adv-x="694" 
d="M543 -31l-59 73c-44 -29 -107 -55 -189 -55c-155 0 -244 84 -244 197c0 96 55 172 152 225c-13 24 -26 57 -26 95c0 121 106 209 253 209c129 0 194 -70 194 -163c0 -97 -67 -163 -137 -205l40 -47c6 11 10 24 12 38h180c-10 -60 -39 -121 -86 -175l57 -75zM321 157
c29 0 51 10 61 17l-89 113c-32 -21 -41 -48 -41 -69c0 -40 33 -61 69 -61zM352 509c0 -25 16 -46 39 -66c39 26 59 51 59 80c0 22 -15 39 -44 39s-54 -24 -54 -53z" />
    <glyph glyph-name="cent" unicode="&#xa2;" horiz-adv-x="478" 
d="M260 0l11 66c-125 18 -202 107 -202 230c0 165 129 289 293 313l15 91h111l-15 -92c29 -3 67 -20 87 -36l-78 -161c-29 22 -59 32 -89 32c-82 0 -128 -58 -128 -125c0 -56 37 -90 99 -90c29 0 65 10 92 29l24 -156c-31 -18 -65 -28 -98 -34l-11 -67h-111z" />
    <glyph glyph-name="Oslash" unicode="&#xd8;" horiz-adv-x="803" 
d="M399 -13c-69 0 -127 14 -175 41l-55 -56l-87 78l53 54c-39 52 -59 118 -59 192c0 227 186 417 444 417c68 0 127 -15 175 -41l56 57l87 -78l-55 -55c39 -52 60 -118 60 -191c0 -229 -186 -418 -444 -418zM633 380c0 19 -3 38 -8 55l-253 -256c17 -7 36 -10 57 -10
c116 0 204 94 204 211zM490 531c-115 0 -203 -94 -203 -211c0 -20 2 -38 7 -54l252 255c-17 6 -36 10 -56 10z" />
    <glyph glyph-name="oslash" unicode="&#xf8;" horiz-adv-x="628" 
d="M654 303c0 -179 -159 -316 -344 -316c-47 0 -88 10 -124 27l-51 -53l-74 65l47 49c-32 40 -50 91 -50 150c0 179 159 316 344 316c50 0 94 -11 131 -31l49 50l74 -65l-48 -49c29 -39 46 -88 46 -143zM254 244c0 -7 0 -13 1 -19l143 147c-7 2 -15 3 -23 3
c-66 0 -121 -54 -121 -131zM458 284v8l-134 -137c4 -1 9 -1 14 -1c66 0 120 53 120 130z" />
    <glyph glyph-name="section" unicode="&#xa7;" horiz-adv-x="552" 
d="M562 266c0 -68 -34 -119 -108 -156c32 -30 57 -68 57 -120c0 -125 -104 -222 -262 -222c-159 0 -221 117 -230 172l175 70c8 -30 38 -66 80 -66c15 0 36 7 36 30c0 19 -16 32 -43 49l-101 66c-59 38 -93 83 -93 147c0 67 34 118 107 155c-32 30 -55 71 -55 121
c0 124 102 221 262 221c157 0 220 -117 229 -172l-175 -70c-8 30 -38 66 -79 66c-17 0 -36 -9 -36 -30c0 -19 16 -32 42 -49l108 -71c54 -35 86 -79 86 -141zM275 242l63 -42c28 0 42 15 42 34c0 9 -4 18 -15 25l-63 42c-28 0 -42 -15 -42 -34c0 -9 4 -18 15 -25z" />
    <glyph glyph-name="ae" unicode="&#xe6;" horiz-adv-x="861" 
d="M518 493c38 25 93 48 152 48c148 0 224 -85 224 -230c0 -42 -11 -83 -15 -98h-330c3 -41 33 -64 81 -64c49 0 91 32 103 47l117 -92c-17 -26 -106 -117 -250 -117c-82 0 -144 29 -182 73c-39 -41 -96 -73 -196 -73c-98 0 -181 54 -181 151c0 119 99 202 241 202
c36 0 72 -9 91 -20l3 16c4 21 -13 42 -62 42c-42 0 -88 -11 -134 -30l-51 126c61 39 156 67 235 67c73 0 123 -20 154 -48zM238 166c0 -24 24 -35 50 -35c30 0 63 14 63 45c0 24 -22 37 -50 37c-32 0 -63 -17 -63 -47zM574 331h130c2 24 -13 57 -56 57
c-46 0 -69 -37 -74 -57z" />
    <glyph glyph-name="commaaccent" unicode="&#xf6c3;" horiz-adv-x="355" 
d="M57 -131c0 58 55 106 113 106c52 0 85 -35 85 -90c0 -82 -69 -177 -155 -225l-50 69c23 14 51 38 65 63c-41 10 -58 44 -58 77z" />
    <glyph glyph-name="aacute" unicode="&#xe1;" horiz-adv-x="551" 
d="M40 136c0 121 99 204 242 204c36 0 71 -9 90 -20l3 16c4 21 -16 42 -64 42c-43 0 -85 -11 -131 -30l-56 126c64 39 161 67 240 67c177 0 223 -104 202 -227l-53 -314h-174l-6 29c-34 -30 -81 -42 -132 -42c-86 0 -161 50 -161 149zM238 166c0 -24 24 -35 50 -35
c30 0 63 16 63 45c0 24 -22 37 -50 37c-32 0 -63 -17 -63 -47zM284 574l90 151h200l-135 -151h-155z" />
    <glyph glyph-name="aring" unicode="&#xe5;" horiz-adv-x="551" 
d="M40 136c0 121 99 204 242 204c36 0 71 -9 90 -20l3 16c4 21 -16 42 -64 42c-43 0 -85 -11 -131 -30l-56 126c64 39 161 67 240 67c177 0 223 -104 202 -227l-53 -314h-174l-6 29c-34 -30 -81 -42 -132 -42c-86 0 -161 50 -161 149zM238 166c0 -24 24 -35 50 -35
c30 0 63 16 63 45c0 24 -22 37 -50 37c-32 0 -63 -17 -63 -47zM263 649c0 74 68 126 144 126c64 0 108 -39 108 -95c0 -73 -67 -126 -145 -126c-63 0 -107 39 -107 95zM354 659c0 -19 11 -31 29 -31c24 0 42 18 42 43c0 18 -11 30 -30 30c-23 0 -41 -18 -41 -42z" />
    <glyph glyph-name="atilde" unicode="&#xe3;" horiz-adv-x="551" 
d="M40 136c0 121 99 204 242 204c36 0 71 -9 90 -20l3 16c4 21 -16 42 -64 42c-43 0 -85 -11 -131 -30l-56 126c64 39 161 67 240 67c177 0 223 -104 202 -227l-53 -314h-174l-6 29c-34 -30 -81 -42 -132 -42c-86 0 -161 50 -161 149zM238 166c0 -24 24 -35 50 -35
c30 0 63 16 63 45c0 24 -22 37 -50 37c-32 0 -63 -17 -63 -47zM441 574c-55 0 -89 30 -119 30c-18 0 -30 -11 -33 -31h-119c16 97 79 159 157 159c55 0 89 -30 119 -30c18 0 29 11 33 31h116c-16 -101 -76 -159 -154 -159z" />
    <glyph glyph-name="adieresis" unicode="&#xe4;" horiz-adv-x="551" 
d="M40 136c0 121 99 204 242 204c36 0 71 -9 90 -20l3 16c4 21 -16 42 -64 42c-43 0 -85 -11 -131 -30l-56 126c64 39 161 67 240 67c177 0 223 -104 202 -227l-53 -314h-174l-6 29c-34 -30 -81 -42 -132 -42c-86 0 -161 50 -161 149zM238 166c0 -24 24 -35 50 -35
c30 0 63 16 63 45c0 24 -22 37 -50 37c-32 0 -63 -17 -63 -47zM410 640c0 52 42 97 100 97c45 0 73 -32 73 -72c0 -52 -45 -96 -101 -96c-46 0 -72 32 -72 71zM184 641c0 51 44 96 101 96c46 0 74 -32 74 -72c0 -52 -45 -96 -102 -96c-45 0 -73 32 -73 72z" />
    <glyph glyph-name="acircumflex" unicode="&#xe2;" horiz-adv-x="551" 
d="M40 136c0 121 99 204 242 204c36 0 71 -9 90 -20l3 16c4 21 -16 42 -64 42c-43 0 -85 -11 -131 -30l-56 126c64 39 161 67 240 67c177 0 223 -104 202 -227l-53 -314h-174l-6 29c-34 -30 -81 -42 -132 -42c-86 0 -161 50 -161 149zM238 166c0 -24 24 -35 50 -35
c30 0 63 16 63 45c0 24 -22 37 -50 37c-32 0 -63 -17 -63 -47zM406 574l-27 61l-47 -61h-159l123 151h196l73 -151h-159z" />
    <glyph glyph-name="agrave" unicode="&#xe0;" horiz-adv-x="551" 
d="M40 136c0 121 99 204 242 204c36 0 71 -9 90 -20l3 16c4 21 -16 42 -64 42c-43 0 -85 -11 -131 -30l-56 126c64 39 161 67 240 67c177 0 223 -104 202 -227l-53 -314h-174l-6 29c-34 -30 -81 -42 -132 -42c-86 0 -161 50 -161 149zM238 166c0 -24 24 -35 50 -35
c30 0 63 16 63 45c0 24 -22 37 -50 37c-32 0 -63 -17 -63 -47zM435 725l40 -151h-147l-90 151h197z" />
    <glyph glyph-name="eacute" unicode="&#xe9;" horiz-adv-x="566" 
d="M60 228c0 169 133 313 315 313c148 0 223 -85 223 -230c0 -46 -10 -83 -14 -98h-330c3 -41 33 -64 81 -64c49 0 90 32 103 47l116 -92c-16 -26 -105 -117 -249 -117c-160 0 -245 108 -245 241zM278 331h130c2 24 -12 57 -55 57c-46 0 -69 -37 -75 -57zM289 574l90 151
h200l-135 -151h-155z" />
    <glyph glyph-name="egrave" unicode="&#xe8;" horiz-adv-x="566" 
d="M60 228c0 169 133 313 315 313c148 0 223 -85 223 -230c0 -46 -10 -83 -14 -98h-330c3 -41 33 -64 81 -64c49 0 90 32 103 47l116 -92c-16 -26 -105 -117 -249 -117c-160 0 -245 108 -245 241zM278 331h130c2 24 -12 57 -55 57c-46 0 -69 -37 -75 -57zM440 725l40 -151
h-147l-90 151h197z" />
    <glyph glyph-name="ecircumflex" unicode="&#xea;" horiz-adv-x="566" 
d="M60 228c0 169 133 313 315 313c148 0 223 -85 223 -230c0 -46 -10 -83 -14 -98h-330c3 -41 33 -64 81 -64c49 0 90 32 103 47l116 -92c-16 -26 -105 -117 -249 -117c-160 0 -245 108 -245 241zM278 331h130c2 24 -12 57 -55 57c-46 0 -69 -37 -75 -57zM425 574l-27 61
l-47 -61h-159l123 151h196l73 -151h-159z" />
    <glyph glyph-name="edieresis" unicode="&#xeb;" horiz-adv-x="566" 
d="M60 228c0 169 133 313 315 313c148 0 223 -85 223 -230c0 -46 -10 -83 -14 -98h-330c3 -41 33 -64 81 -64c49 0 90 32 103 47l116 -92c-16 -26 -105 -117 -249 -117c-160 0 -245 108 -245 241zM278 331h130c2 24 -12 57 -55 57c-46 0 -69 -37 -75 -57zM422 640
c0 52 42 97 100 97c45 0 73 -32 73 -72c0 -52 -45 -96 -101 -96c-46 0 -72 32 -72 71zM196 641c0 51 44 96 101 96c46 0 74 -32 74 -72c0 -52 -45 -96 -102 -96c-45 0 -73 32 -73 72z" />
    <glyph glyph-name="ntilde" unicode="&#xf1;" horiz-adv-x="583" 
d="M456 541c125 0 165 -79 145 -201l-57 -340h-194l52 311c7 40 -14 59 -46 59c-38 0 -60 -26 -65 -56l-53 -314h-194l88 528h189l-8 -50c24 27 78 63 143 63zM466 574c-55 0 -89 30 -119 30c-18 0 -30 -11 -33 -31h-119c16 97 79 159 157 159c55 0 89 -30 119 -30
c18 0 29 11 33 31h116c-16 -101 -76 -159 -154 -159z" />
    <glyph glyph-name="oacute" unicode="&#xf3;" horiz-adv-x="624" 
d="M654 303c0 -179 -159 -316 -344 -316c-150 0 -252 100 -252 238c0 179 159 316 344 316c150 0 252 -100 252 -238zM254 244c0 -55 33 -90 84 -90c66 0 120 53 120 130c0 55 -33 91 -83 91c-66 0 -121 -54 -121 -131zM314 574l90 151h200l-135 -151h-155z" />
    <glyph glyph-name="otilde" unicode="&#xf5;" horiz-adv-x="624" 
d="M654 303c0 -179 -159 -316 -344 -316c-150 0 -252 100 -252 238c0 179 159 316 344 316c150 0 252 -100 252 -238zM254 244c0 -55 33 -90 84 -90c66 0 120 53 120 130c0 55 -33 91 -83 91c-66 0 -121 -54 -121 -131zM479 574c-55 0 -89 30 -119 30c-18 0 -30 -11 -33 -31
h-119c16 97 79 159 157 159c55 0 89 -30 119 -30c18 0 29 11 33 31h116c-16 -101 -76 -159 -154 -159z" />
    <glyph glyph-name="odieresis" unicode="&#xf6;" horiz-adv-x="624" 
d="M654 303c0 -179 -159 -316 -344 -316c-150 0 -252 100 -252 238c0 179 159 316 344 316c150 0 252 -100 252 -238zM254 244c0 -55 33 -90 84 -90c66 0 120 53 120 130c0 55 -33 91 -83 91c-66 0 -121 -54 -121 -131zM452 640c0 52 42 97 100 97c45 0 73 -32 73 -72
c0 -52 -45 -96 -101 -96c-46 0 -72 32 -72 71zM226 641c0 51 44 96 101 96c46 0 74 -32 74 -72c0 -52 -45 -96 -102 -96c-45 0 -73 32 -73 72z" />
    <glyph glyph-name="ocircumflex" unicode="&#xf4;" horiz-adv-x="624" 
d="M654 303c0 -179 -159 -316 -344 -316c-150 0 -252 100 -252 238c0 179 159 316 344 316c150 0 252 -100 252 -238zM254 244c0 -55 33 -90 84 -90c66 0 120 53 120 130c0 55 -33 91 -83 91c-66 0 -121 -54 -121 -131zM447 574l-27 61l-47 -61h-159l123 151h196l73 -151
h-159z" />
    <glyph glyph-name="ograve" unicode="&#xf2;" horiz-adv-x="624" 
d="M654 303c0 -179 -159 -316 -344 -316c-150 0 -252 100 -252 238c0 179 159 316 344 316c150 0 252 -100 252 -238zM254 244c0 -55 33 -90 84 -90c66 0 120 53 120 130c0 55 -33 91 -83 91c-66 0 -121 -54 -121 -131zM469 725l40 -151h-147l-90 151h197z" />
    <glyph glyph-name="uacute" unicode="&#xfa;" horiz-adv-x="579" 
d="M217 -13c-125 0 -166 79 -146 201l57 340h194l-52 -311c-7 -40 14 -59 46 -59c38 0 61 26 66 56l53 314h193l-88 -528h-189l8 50c-23 -27 -77 -63 -142 -63zM292 574l90 151h200l-135 -151h-155z" />
    <glyph glyph-name="udieresis" unicode="&#xfc;" horiz-adv-x="579" 
d="M217 -13c-125 0 -166 79 -146 201l57 340h194l-52 -311c-7 -40 14 -59 46 -59c38 0 61 26 66 56l53 314h193l-88 -528h-189l8 50c-23 -27 -77 -63 -142 -63zM426 640c0 52 42 97 100 97c45 0 73 -32 73 -72c0 -52 -45 -96 -101 -96c-46 0 -72 32 -72 71zM200 641
c0 51 44 96 101 96c46 0 74 -32 74 -72c0 -52 -45 -96 -102 -96c-45 0 -73 32 -73 72z" />
    <glyph glyph-name="ucircumflex" unicode="&#xfb;" horiz-adv-x="579" 
d="M217 -13c-125 0 -166 79 -146 201l57 340h194l-52 -311c-7 -40 14 -59 46 -59c38 0 61 26 66 56l53 314h193l-88 -528h-189l8 50c-23 -27 -77 -63 -142 -63zM426 574l-27 61l-47 -61h-159l123 151h196l73 -151h-159z" />
    <glyph glyph-name="ugrave" unicode="&#xf9;" horiz-adv-x="579" 
d="M217 -13c-125 0 -166 79 -146 201l57 340h194l-52 -311c-7 -40 14 -59 46 -59c38 0 61 26 66 56l53 314h193l-88 -528h-189l8 50c-23 -27 -77 -63 -142 -63zM445 725l40 -151h-147l-90 151h197z" />
    <glyph glyph-name="Adieresis" unicode="&#xc4;" horiz-adv-x="702" 
d="M481 134h-210l-64 -134h-203l359 700h210l125 -700h-197zM461 293l-24 201l-92 -201h116zM508 800c0 52 42 97 100 97c45 0 73 -32 73 -72c0 -52 -45 -96 -101 -96c-46 0 -72 32 -72 71zM282 801c0 51 44 96 101 96c46 0 74 -32 74 -72c0 -52 -45 -96 -102 -96
c-45 0 -73 32 -73 72z" />
    <glyph glyph-name="Odieresis" unicode="&#xd6;" horiz-adv-x="802" 
d="M399 -13c-205 0 -323 133 -323 309c0 227 186 417 444 417c206 0 323 -134 323 -308c0 -229 -186 -418 -444 -418zM490 531c-115 0 -203 -94 -203 -211c0 -88 53 -151 142 -151c116 0 204 94 204 211c0 86 -53 151 -143 151zM564 800c0 52 42 97 100 97
c45 0 73 -32 73 -72c0 -52 -45 -96 -101 -96c-46 0 -72 32 -72 71zM338 801c0 51 44 96 101 96c46 0 74 -32 74 -72c0 -52 -45 -96 -102 -96c-45 0 -73 32 -73 72z" />
    <glyph glyph-name="Udieresis" unicode="&#xdc;" horiz-adv-x="726" 
d="M371 -13c-197 0 -295 118 -267 287l71 426h199l-71 -427c-11 -65 23 -106 88 -106s113 41 124 106l71 427h199l-71 -426c-28 -169 -135 -287 -343 -287zM529 800c0 52 42 97 100 97c45 0 73 -32 73 -72c0 -52 -45 -96 -101 -96c-46 0 -72 32 -72 71zM303 801
c0 51 44 96 101 96c46 0 74 -32 74 -72c0 -52 -45 -96 -102 -96c-45 0 -73 32 -73 72z" />
    <glyph glyph-name="Edieresis" unicode="&#xcb;" horiz-adv-x="498" 
d="M58 0l117 700h392l-29 -174h-193l-14 -86h163l-29 -173h-163l-16 -93h201l-29 -174h-400zM408 800c0 52 42 97 100 97c45 0 73 -32 73 -72c0 -52 -45 -96 -101 -96c-46 0 -72 32 -72 71zM182 801c0 51 44 96 101 96c46 0 74 -32 74 -72c0 -52 -45 -96 -102 -96
c-45 0 -73 32 -73 72z" />
    <glyph glyph-name="Idieresis" unicode="&#xcf;" horiz-adv-x="316" 
d="M58 0l117 700h199l-117 -700h-199zM321 800c0 52 42 97 100 97c45 0 73 -32 73 -72c0 -52 -45 -96 -101 -96c-46 0 -72 32 -72 71zM95 801c0 51 44 96 101 96c46 0 74 -32 74 -72c0 -52 -45 -96 -102 -96c-45 0 -73 32 -73 72z" />
    <glyph glyph-name="Aring" unicode="&#xc5;" horiz-adv-x="702" 
d="M481 134h-210l-64 -134h-203l359 700h210l125 -700h-197zM461 293l-24 201l-92 -201h116zM363 820c0 74 68 126 144 126c64 0 108 -39 108 -95c0 -73 -67 -126 -145 -126c-63 0 -107 39 -107 95zM454 830c0 -19 11 -31 29 -31c24 0 42 18 42 43c0 18 -11 30 -30 30
c-23 0 -41 -18 -41 -42z" />
    <glyph glyph-name="Eacute" unicode="&#xc9;" horiz-adv-x="498" 
d="M58 0l117 700h392l-29 -174h-193l-14 -86h163l-29 -173h-163l-16 -93h201l-29 -174h-400zM280 727l90 151h200l-135 -151h-155z" />
    <glyph glyph-name="Aacute" unicode="&#xc1;" horiz-adv-x="702" 
d="M481 134h-210l-64 -134h-203l359 700h210l125 -700h-197zM461 293l-24 201l-92 -201h116zM376 727l90 151h200l-135 -151h-155z" />
    <glyph glyph-name="Uacute" unicode="&#xda;" horiz-adv-x="725" 
d="M371 -13c-197 0 -295 118 -267 287l71 426h199l-71 -427c-11 -65 23 -106 88 -106s113 41 124 106l71 427h199l-71 -426c-28 -169 -135 -287 -343 -287zM396 727l90 151h200l-135 -151h-155z" />
    <glyph glyph-name="Iacute" unicode="&#xcd;" horiz-adv-x="316" 
d="M58 0l117 700h199l-117 -700h-199zM185 727l90 151h200l-135 -151h-155z" />
    <glyph glyph-name="Oacute" unicode="&#xd3;" horiz-adv-x="803" 
d="M399 -13c-205 0 -323 133 -323 309c0 227 186 417 444 417c206 0 323 -134 323 -308c0 -229 -186 -418 -444 -418zM490 531c-115 0 -203 -94 -203 -211c0 -88 53 -151 142 -151c116 0 204 94 204 211c0 86 -53 151 -143 151zM431 727l90 151h200l-135 -151h-155z" />
    <glyph glyph-name="ydieresis" unicode="&#xff;" horiz-adv-x="579" 
d="M283 -179h-182l104 199l-111 508h205l31 -273l126 273h205zM426 640c0 52 42 97 100 97c45 0 73 -32 73 -72c0 -52 -45 -96 -101 -96c-46 0 -72 32 -72 71zM200 641c0 51 44 96 101 96c46 0 74 -32 74 -72c0 -52 -45 -96 -102 -96c-45 0 -73 32 -73 72z" />
    <glyph glyph-name="Ydieresis" unicode="&#x178;" horiz-adv-x="644" 
d="M223 0l52 313l-152 387h218l58 -211l132 211h224l-282 -387l-52 -313h-198zM484 796c0 52 42 97 100 97c45 0 73 -32 73 -72c0 -52 -45 -96 -101 -96c-46 0 -72 32 -72 71zM258 797c0 51 44 96 101 96c46 0 74 -32 74 -72c0 -52 -45 -96 -102 -96c-45 0 -73 32 -73 72z
" />
    <glyph glyph-name="Agrave" unicode="&#xc0;" horiz-adv-x="702" 
d="M481 134h-210l-64 -134h-203l359 700h210l125 -700h-197zM461 293l-24 201l-92 -201h116zM520 878l40 -151h-147l-90 151h197z" />
    <glyph glyph-name="Ograve" unicode="&#xd2;" horiz-adv-x="803" 
d="M399 -13c-205 0 -323 133 -323 309c0 227 186 417 444 417c206 0 323 -134 323 -308c0 -229 -186 -418 -444 -418zM490 531c-115 0 -203 -94 -203 -211c0 -88 53 -151 142 -151c116 0 204 94 204 211c0 86 -53 151 -143 151zM577 878l40 -151h-147l-90 151h197z" />
    <glyph glyph-name="Igrave" unicode="&#xcc;" horiz-adv-x="316" 
d="M58 0l117 700h199l-117 -700h-199zM347 878l40 -151h-147l-90 151h197z" />
    <glyph glyph-name="Egrave" unicode="&#xc8;" horiz-adv-x="498" 
d="M58 0l117 700h392l-29 -174h-193l-14 -86h163l-29 -173h-163l-16 -93h201l-29 -174h-400zM442 878l40 -151h-147l-90 151h197z" />
    <glyph glyph-name="Ugrave" unicode="&#xd9;" horiz-adv-x="725" 
d="M371 -13c-197 0 -295 118 -267 287l71 426h199l-71 -427c-11 -65 23 -106 88 -106s113 41 124 106l71 427h199l-71 -426c-28 -169 -135 -287 -343 -287zM537 878l40 -151h-147l-90 151h197z" />
    <glyph glyph-name="Ntilde" unicode="&#xd1;" horiz-adv-x="740" 
d="M58 0l117 700h203l159 -397l66 397h196l-117 -700h-198l-166 391l-65 -391h-195zM569 731c-55 0 -89 30 -119 30c-18 0 -30 -11 -33 -31h-119c16 97 79 159 157 159c55 0 89 -30 119 -30c18 0 29 11 33 31h116c-16 -101 -76 -159 -154 -159z" />
    <glyph glyph-name="Atilde" unicode="&#xc3;" horiz-adv-x="702" 
d="M481 134h-210l-64 -134h-203l359 700h210l125 -700h-197zM461 293l-24 201l-92 -201h116zM544 731c-55 0 -89 30 -119 30c-18 0 -30 -11 -33 -31h-119c16 97 79 159 157 159c55 0 89 -30 119 -30c18 0 29 11 33 31h116c-16 -101 -76 -159 -154 -159z" />
    <glyph glyph-name="Otilde" unicode="&#xd5;" horiz-adv-x="802" 
d="M399 -13c-205 0 -323 133 -323 309c0 227 186 417 444 417c206 0 323 -134 323 -308c0 -229 -186 -418 -444 -418zM490 531c-115 0 -203 -94 -203 -211c0 -88 53 -151 142 -151c116 0 204 94 204 211c0 86 -53 151 -143 151zM596 731c-55 0 -89 30 -119 30
c-18 0 -30 -11 -33 -31h-119c16 97 79 159 157 159c55 0 89 -30 119 -30c18 0 29 11 33 31h116c-16 -101 -76 -159 -154 -159z" />
    <glyph glyph-name="Acircumflex" unicode="&#xc2;" horiz-adv-x="702" 
d="M481 134h-210l-64 -134h-203l359 700h210l125 -700h-197zM461 293l-24 201l-92 -201h116zM511 729l-27 61l-47 -61h-159l123 151h196l73 -151h-159z" />
    <glyph glyph-name="Ecircumflex" unicode="&#xca;" horiz-adv-x="498" 
d="M58 0l117 700h392l-29 -174h-193l-14 -86h163l-29 -173h-163l-16 -93h201l-29 -174h-400zM415 729l-27 61l-47 -61h-159l123 151h196l73 -151h-159z" />
    <glyph glyph-name="Icircumflex" unicode="&#xce;" horiz-adv-x="316" 
d="M58 0l117 700h199l-117 -700h-199zM318 729l-27 61l-47 -61h-159l123 151h196l73 -151h-159z" />
    <glyph glyph-name="Ocircumflex" unicode="&#xd4;" horiz-adv-x="803" 
d="M399 -13c-205 0 -323 133 -323 309c0 227 186 417 444 417c206 0 323 -134 323 -308c0 -229 -186 -418 -444 -418zM490 531c-115 0 -203 -94 -203 -211c0 -88 53 -151 142 -151c116 0 204 94 204 211c0 86 -53 151 -143 151zM558 729l-27 61l-47 -61h-159l123 151h196
l73 -151h-159z" />
    <glyph glyph-name="Ucircumflex" unicode="&#xdb;" horiz-adv-x="725" 
d="M371 -13c-197 0 -295 118 -267 287l71 426h199l-71 -427c-11 -65 23 -106 88 -106s113 41 124 106l71 427h199l-71 -426c-28 -169 -135 -287 -343 -287zM522 729l-27 61l-47 -61h-159l123 151h196l73 -151h-159z" />
    <glyph glyph-name="Yacute" unicode="&#xdd;" horiz-adv-x="644" 
d="M223 0l52 313l-152 387h218l58 -211l132 211h224l-282 -387l-52 -313h-198zM358 727l90 151h200l-135 -151h-155z" />
    <glyph glyph-name="Tcommaaccent" unicode="&#x162;" horiz-adv-x="521" 
d="M161 0l88 526h-143l29 174h487l-29 -174h-145l-88 -526h-74l-10 -32c38 -11 64 -40 64 -82c0 -84 -68 -126 -154 -126c-30 0 -65 8 -78 14l39 87c7 -2 20 -5 34 -5c24 0 37 11 37 24c0 16 -21 23 -38 23c-11 0 -20 -2 -20 -2l33 99h-32z" />
    <glyph glyph-name="tcommaaccent" unicode="&#x163;" horiz-adv-x="379" 
d="M159 528l18 111h189l-18 -111h85l-26 -153h-85l-29 -173c-6 -37 32 -42 62 -42c7 0 19 1 19 1l-27 -163s-23 -6 -71 -6c-13 0 -26 1 -38 2l-8 -26c38 -11 64 -40 64 -82c0 -84 -68 -126 -154 -126c-30 0 -65 8 -78 14l39 87c7 -2 20 -5 34 -5c24 0 37 11 37 24
c0 16 -21 23 -38 23c-11 0 -20 -2 -20 -2l39 120c-50 32 -69 91 -54 179l29 175h-50l26 153h55z" />
    <glyph glyph-name="yacute" unicode="&#xfd;" horiz-adv-x="579" 
d="M283 -179h-182l104 199l-111 508h205l31 -273l126 273h205zM297 574l90 151h200l-135 -151h-155z" />
    <glyph glyph-name="Amacron" unicode="&#x100;" horiz-adv-x="702" 
d="M481 134h-210l-64 -134h-203l359 700h210l125 -700h-197zM461 293l-24 201l-92 -201h116zM325 741l22 134h297l-22 -134h-297z" />
    <glyph glyph-name="amacron" unicode="&#x101;" horiz-adv-x="551" 
d="M40 136c0 121 99 204 242 204c36 0 71 -9 90 -20l3 16c4 21 -16 42 -64 42c-43 0 -85 -11 -131 -30l-56 126c64 39 161 67 240 67c177 0 223 -104 202 -227l-53 -314h-174l-6 29c-34 -30 -81 -42 -132 -42c-86 0 -161 50 -161 149zM238 166c0 -24 24 -35 50 -35
c30 0 63 16 63 45c0 24 -22 37 -50 37c-32 0 -63 -17 -63 -47zM230 581l22 134h297l-22 -134h-297z" />
    <glyph glyph-name="Abreve" unicode="&#x102;" horiz-adv-x="702" 
d="M481 134h-210l-64 -134h-203l359 700h210l125 -700h-197zM461 293l-24 201l-92 -201h116zM472 737c-111 0 -165 64 -149 158h130c-4 -23 0 -52 33 -52c34 0 48 29 52 52h138c-16 -94 -92 -158 -204 -158z" />
    <glyph glyph-name="abreve" unicode="&#x103;" horiz-adv-x="551" 
d="M40 136c0 121 99 204 242 204c36 0 71 -9 90 -20l3 16c4 21 -16 42 -64 42c-43 0 -85 -11 -131 -30l-56 126c64 39 161 67 240 67c177 0 223 -104 202 -227l-53 -314h-174l-6 29c-34 -30 -81 -42 -132 -42c-86 0 -161 50 -161 149zM238 166c0 -24 24 -35 50 -35
c30 0 63 16 63 45c0 24 -22 37 -50 37c-32 0 -63 -17 -63 -47zM375 576c-111 0 -165 64 -149 158h130c-4 -23 0 -52 33 -52c34 0 48 29 52 52h138c-16 -94 -92 -158 -204 -158z" />
    <glyph glyph-name="scommaaccent" unicode="&#x219;" horiz-adv-x="460" 
d="M22 71l124 106c27 -21 64 -37 107 -37c28 0 39 10 39 21c0 39 -206 27 -206 183c0 120 110 197 244 197c98 0 158 -44 188 -87l-141 -99c-17 17 -39 34 -73 34c-23 0 -33 -10 -33 -20c0 -47 209 -40 209 -188c0 -128 -108 -194 -252 -194c-92 0 -171 44 -206 84z
M119 -131c0 58 55 106 113 106c52 0 85 -35 85 -90c0 -82 -69 -177 -155 -225l-50 69c23 14 51 38 65 63c-41 10 -58 44 -58 77z" />
    <glyph glyph-name="Scommaaccent" unicode="&#x218;" horiz-adv-x="546" 
d="M38 157l180 82c14 -37 48 -69 84 -69c35 0 50 16 50 35c0 63 -239 73 -239 260c0 149 118 248 281 248c161 0 201 -115 211 -170l-178 -74c-9 29 -20 64 -68 64c-27 0 -44 -16 -44 -36c0 -70 243 -74 243 -253c0 -141 -109 -257 -292 -257c-165 0 -218 121 -228 170z
M151 -131c0 58 55 106 113 106c52 0 85 -35 85 -90c0 -82 -69 -177 -155 -225l-50 69c23 14 51 38 65 63c-41 10 -58 44 -58 77z" />
    <glyph glyph-name="Cacute" unicode="&#x106;" horiz-adv-x="635" 
d="M76 297c0 225 188 416 441 416c84 0 157 -25 202 -60l-84 -174c-28 27 -72 52 -138 52c-119 0 -210 -93 -210 -209c0 -88 56 -153 149 -153c66 0 118 25 156 52l26 -174c-57 -35 -138 -60 -222 -60c-202 0 -320 135 -320 310zM412 727l90 151h200l-135 -151h-155z" />
    <glyph glyph-name="zcaron" unicode="&#x17e;" horiz-adv-x="482" 
d="M27 0l19 112l222 258h-176l26 158h425l-19 -113l-225 -257h183l-26 -158h-429zM356 664l47 61h162l-123 -151h-196l-73 151h156z" />
    <glyph glyph-name="Zcaron" unicode="&#x17d;" horiz-adv-x="624" 
d="M31 0l20 122l356 406h-281l29 172h550l-20 -121l-360 -407h295l-29 -172h-560zM446 819l47 61h162l-123 -151h-196l-73 151h156z" />
    <glyph glyph-name="cacute" unicode="&#x107;" horiz-adv-x="486" 
d="M548 499l-78 -158c-27 22 -58 30 -87 30c-82 0 -129 -61 -129 -126c0 -56 40 -91 99 -91c28 0 66 10 93 28l24 -155c-46 -27 -104 -40 -162 -40c-155 0 -250 96 -250 234c0 185 160 320 345 320c62 0 115 -20 145 -42zM301 574l90 151h200l-135 -151h-155z" />
    <glyph glyph-name="Ccircumflex" unicode="&#x108;" horiz-adv-x="635" 
d="M76 297c0 225 188 416 441 416c84 0 157 -25 202 -60l-84 -174c-28 27 -72 52 -138 52c-119 0 -210 -93 -210 -209c0 -88 56 -153 149 -153c66 0 118 25 156 52l26 -174c-57 -35 -138 -60 -222 -60c-202 0 -320 135 -320 310zM556 729l-27 61l-47 -61h-159l123 151h196
l73 -151h-159z" />
    <glyph glyph-name="ccircumflex" unicode="&#x109;" horiz-adv-x="486" 
d="M548 499l-78 -158c-27 22 -58 30 -87 30c-82 0 -129 -61 -129 -126c0 -56 40 -91 99 -91c28 0 66 10 93 28l24 -155c-46 -27 -104 -40 -162 -40c-155 0 -250 96 -250 234c0 185 160 320 345 320c62 0 115 -20 145 -42zM434 574l-27 61l-47 -61h-159l123 151h196l73 -151
h-159z" />
    <glyph glyph-name="dcaron" unicode="&#x10f;" horiz-adv-x="641" 
d="M733 549l36 174h139l-79 -174h-96zM717 723l-121 -723h-180l5 34c-23 -20 -74 -47 -143 -47c-135 0 -220 95 -220 231c0 181 124 323 300 323c68 0 110 -30 126 -46l39 228h194zM454 286c0 56 -31 89 -81 89c-72 0 -118 -58 -118 -133c0 -53 28 -88 81 -88
c74 0 118 63 118 132z" />
    <glyph glyph-name="Cdotaccent" unicode="&#x10a;" horiz-adv-x="635" 
d="M76 297c0 225 188 416 441 416c84 0 157 -25 202 -60l-84 -174c-28 27 -72 52 -138 52c-119 0 -210 -93 -210 -209c0 -88 56 -153 149 -153c66 0 118 25 156 52l26 -174c-57 -35 -138 -60 -222 -60c-202 0 -320 135 -320 310zM447 806c0 53 49 97 101 97
c42 0 72 -32 72 -73c0 -53 -49 -97 -101 -97c-42 0 -72 32 -72 73z" />
    <glyph glyph-name="cdotaccent" unicode="&#x10b;" horiz-adv-x="486" 
d="M548 499l-78 -158c-27 22 -58 30 -87 30c-82 0 -129 -61 -129 -126c0 -56 40 -91 99 -91c28 0 66 10 93 28l24 -155c-46 -27 -104 -40 -162 -40c-155 0 -250 96 -250 234c0 185 160 320 345 320c62 0 115 -20 145 -42zM333 643c0 53 49 97 101 97c42 0 72 -32 72 -73
c0 -53 -49 -97 -101 -97c-42 0 -72 32 -72 73z" />
    <glyph glyph-name="zdotaccent" unicode="&#x17c;" horiz-adv-x="482" 
d="M27 0l19 112l222 258h-176l26 158h425l-19 -113l-225 -257h183l-26 -158h-429zM272 643c0 53 49 97 101 97c42 0 72 -32 72 -73c0 -53 -49 -97 -101 -97c-42 0 -72 32 -72 73z" />
    <glyph glyph-name="Ccaron" unicode="&#x10c;" horiz-adv-x="635" 
d="M76 297c0 225 188 416 441 416c84 0 157 -25 202 -60l-84 -174c-28 27 -72 52 -138 52c-119 0 -210 -93 -210 -209c0 -88 56 -153 149 -153c66 0 118 25 156 52l26 -174c-57 -35 -138 -60 -222 -60c-202 0 -320 135 -320 310zM536 819l47 61h162l-123 -151h-196l-73 151
h156z" />
    <glyph glyph-name="ccaron" unicode="&#x10d;" horiz-adv-x="486" 
d="M548 499l-78 -158c-27 22 -58 30 -87 30c-82 0 -129 -61 -129 -126c0 -56 40 -91 99 -91c28 0 66 10 93 28l24 -155c-46 -27 -104 -40 -162 -40c-155 0 -250 96 -250 234c0 185 160 320 345 320c62 0 115 -20 145 -42zM412 664l47 61h162l-123 -151h-196l-73 151h156z
" />
    <glyph glyph-name="Dcaron" unicode="&#x10e;" horiz-adv-x="684" 
d="M58 0l117 700h228c199 0 322 -109 322 -291c0 -247 -182 -409 -439 -409h-228zM285 168h25c119 0 206 77 206 220c0 96 -57 144 -145 144h-25zM430 819l47 61h162l-123 -151h-196l-73 151h156z" />
    <glyph glyph-name="Emacron" unicode="&#x112;" horiz-adv-x="498" 
d="M58 0l117 700h392l-29 -174h-193l-14 -86h163l-29 -173h-163l-16 -93h201l-29 -174h-400zM236 741l22 134h297l-22 -134h-297z" />
    <glyph glyph-name="emacron" unicode="&#x113;" horiz-adv-x="566" 
d="M60 228c0 169 133 313 315 313c148 0 223 -85 223 -230c0 -46 -10 -83 -14 -98h-330c3 -41 33 -64 81 -64c49 0 90 32 103 47l116 -92c-16 -26 -105 -117 -249 -117c-160 0 -245 108 -245 241zM278 331h130c2 24 -12 57 -55 57c-46 0 -69 -37 -75 -57zM239 581l22 134
h297l-22 -134h-297z" />
    <glyph glyph-name="Ebreve" unicode="&#x114;" horiz-adv-x="498" 
d="M58 0l117 700h392l-29 -174h-193l-14 -86h163l-29 -173h-163l-16 -93h201l-29 -174h-400zM381 737c-111 0 -165 64 -149 158h130c-4 -23 0 -52 33 -52c34 0 48 29 52 52h138c-16 -94 -92 -158 -204 -158z" />
    <glyph glyph-name="ebreve" unicode="&#x115;" horiz-adv-x="566" 
d="M60 228c0 169 133 313 315 313c148 0 223 -85 223 -230c0 -46 -10 -83 -14 -98h-330c3 -41 33 -64 81 -64c49 0 90 32 103 47l116 -92c-16 -26 -105 -117 -249 -117c-160 0 -245 108 -245 241zM278 331h130c2 24 -12 57 -55 57c-46 0 -69 -37 -75 -57zM389 576
c-111 0 -165 64 -149 158h130c-4 -23 0 -52 33 -52c34 0 48 29 52 52h138c-16 -94 -92 -158 -204 -158z" />
    <glyph glyph-name="Edotaccent" unicode="&#x116;" horiz-adv-x="498" 
d="M58 0l117 700h392l-29 -174h-193l-14 -86h163l-29 -173h-163l-16 -93h201l-29 -174h-400zM310 806c0 53 49 97 101 97c42 0 72 -32 72 -73c0 -53 -49 -97 -101 -97c-42 0 -72 32 -72 73z" />
    <glyph glyph-name="edotaccent" unicode="&#x117;" horiz-adv-x="566" 
d="M60 228c0 169 133 313 315 313c148 0 223 -85 223 -230c0 -46 -10 -83 -14 -98h-330c3 -41 33 -64 81 -64c49 0 90 32 103 47l116 -92c-16 -26 -105 -117 -249 -117c-160 0 -245 108 -245 241zM278 331h130c2 24 -12 57 -55 57c-46 0 -69 -37 -75 -57zM312 643
c0 53 49 97 101 97c42 0 72 -32 72 -73c0 -53 -49 -97 -101 -97c-42 0 -72 32 -72 73z" />
    <glyph glyph-name="Ecaron" unicode="&#x11a;" horiz-adv-x="498" 
d="M58 0l117 700h392l-29 -174h-193l-14 -86h163l-29 -173h-163l-16 -93h201l-29 -174h-400zM390 819l47 61h162l-123 -151h-196l-73 151h156z" />
    <glyph glyph-name="ecaron" unicode="&#x11b;" horiz-adv-x="566" 
d="M60 228c0 169 133 313 315 313c148 0 223 -85 223 -230c0 -46 -10 -83 -14 -98h-330c3 -41 33 -64 81 -64c49 0 90 32 103 47l116 -92c-16 -26 -105 -117 -249 -117c-160 0 -245 108 -245 241zM278 331h130c2 24 -12 57 -55 57c-46 0 -69 -37 -75 -57zM397 664l47 61h162
l-123 -151h-196l-73 151h156z" />
    <glyph glyph-name="Gcircumflex" unicode="&#x11c;" horiz-adv-x="767" 
d="M404 -13c-202 0 -328 135 -328 310c0 225 188 416 441 416c163 0 242 -81 272 -127l-147 -128c-21 30 -58 73 -145 73c-119 0 -210 -93 -210 -208c0 -89 58 -154 156 -154c78 0 123 21 140 33l6 39h-113l28 163h295l-52 -308c-81 -53 -172 -109 -343 -109zM565 729
l-27 61l-47 -61h-159l123 151h196l73 -151h-159z" />
    <glyph glyph-name="gcircumflex" unicode="&#x11d;" horiz-adv-x="635" 
d="M71 -149l74 146c13 -6 74 -33 139 -33c58 0 115 13 123 56l2 11c-32 -24 -72 -40 -129 -40c-136 0 -221 94 -221 229c0 182 124 321 300 321c68 0 109 -28 126 -46l6 33h194l-77 -461c-33 -198 -179 -259 -333 -259c-91 0 -159 20 -204 43zM455 287c0 55 -31 88 -81 88
c-72 0 -118 -58 -118 -130c0 -52 29 -87 82 -87c74 0 117 62 117 129zM452 574l-27 61l-47 -61h-159l123 151h196l73 -151h-159z" />
    <glyph glyph-name="Zdotaccent" unicode="&#x17b;" horiz-adv-x="624" 
d="M31 0l20 122l356 406h-281l29 172h550l-20 -121l-360 -407h295l-29 -172h-560zM362 806c0 53 49 97 101 97c42 0 72 -32 72 -73c0 -53 -49 -97 -101 -97c-42 0 -72 32 -72 73z" />
    <glyph glyph-name="zacute" unicode="&#x17a;" horiz-adv-x="482" 
d="M27 0l19 112l222 258h-176l26 158h425l-19 -113l-225 -257h183l-26 -158h-429zM242 574l90 151h200l-135 -151h-155z" />
    <glyph glyph-name="Gbreve" unicode="&#x11e;" horiz-adv-x="767" 
d="M404 -13c-202 0 -328 135 -328 310c0 225 188 416 441 416c163 0 242 -81 272 -127l-147 -128c-21 30 -58 73 -145 73c-119 0 -210 -93 -210 -208c0 -89 58 -154 156 -154c78 0 123 21 140 33l6 39h-113l28 163h295l-52 -308c-81 -53 -172 -109 -343 -109zM528 737
c-111 0 -165 64 -149 158h130c-4 -23 0 -52 33 -52c34 0 48 29 52 52h138c-16 -94 -92 -158 -204 -158z" />
    <glyph glyph-name="gbreve" unicode="&#x11f;" horiz-adv-x="635" 
d="M71 -149l74 146c13 -6 74 -33 139 -33c58 0 115 13 123 56l2 11c-32 -24 -72 -40 -129 -40c-136 0 -221 94 -221 229c0 182 124 321 300 321c68 0 109 -28 126 -46l6 33h194l-77 -461c-33 -198 -179 -259 -333 -259c-91 0 -159 20 -204 43zM455 287c0 55 -31 88 -81 88
c-72 0 -118 -58 -118 -130c0 -52 29 -87 82 -87c74 0 117 62 117 129zM413 576c-111 0 -165 64 -149 158h130c-4 -23 0 -52 33 -52c34 0 48 29 52 52h138c-16 -94 -92 -158 -204 -158z" />
    <glyph glyph-name="Zacute" unicode="&#x179;" horiz-adv-x="624" 
d="M31 0l20 122l356 406h-281l29 172h550l-20 -121l-360 -407h295l-29 -172h-560zM327 727l90 151h200l-135 -151h-155z" />
    <glyph glyph-name="ycircumflex" unicode="&#x177;" horiz-adv-x="579" 
d="M283 -179h-182l104 199l-111 508h205l31 -273l126 273h205zM425 574l-27 61l-47 -61h-159l123 151h196l73 -151h-159z" />
    <glyph glyph-name="Ycircumflex" unicode="&#x176;" horiz-adv-x="644" 
d="M223 0l52 313l-152 387h218l58 -211l132 211h224l-282 -387l-52 -313h-198zM482 729l-27 61l-47 -61h-159l123 151h196l73 -151h-159z" />
    <glyph glyph-name="wcircumflex" unicode="&#x175;" horiz-adv-x="855" 
d="M487 0l-16 266l-103 -266h-219l-54 528h209l3 -322s2 4 119 322h180c10 -318 10 -322 10 -322l108 322h213l-231 -528h-219zM561 574l-27 61l-47 -61h-159l123 151h196l73 -151h-159z" />
    <glyph glyph-name="Gdotaccent" unicode="&#x120;" horiz-adv-x="767" 
d="M404 -13c-202 0 -328 135 -328 310c0 225 188 416 441 416c163 0 242 -81 272 -127l-147 -128c-21 30 -58 73 -145 73c-119 0 -210 -93 -210 -208c0 -89 58 -154 156 -154c78 0 123 21 140 33l6 39h-113l28 163h295l-52 -308c-81 -53 -172 -109 -343 -109zM462 806
c0 53 49 97 101 97c42 0 72 -32 72 -73c0 -53 -49 -97 -101 -97c-42 0 -72 32 -72 73z" />
    <glyph glyph-name="gdotaccent" unicode="&#x121;" horiz-adv-x="635" 
d="M71 -149l74 146c13 -6 74 -33 139 -33c58 0 115 13 123 56l2 11c-32 -24 -72 -40 -129 -40c-136 0 -221 94 -221 229c0 182 124 321 300 321c68 0 109 -28 126 -46l6 33h194l-77 -461c-33 -198 -179 -259 -333 -259c-91 0 -159 20 -204 43zM455 287c0 55 -31 88 -81 88
c-72 0 -118 -58 -118 -130c0 -52 29 -87 82 -87c74 0 117 62 117 129zM341 643c0 53 49 97 101 97c42 0 72 -32 72 -73c0 -53 -49 -97 -101 -97c-42 0 -72 32 -72 73z" />
    <glyph glyph-name="Gcommaaccent" unicode="&#x122;" horiz-adv-x="767" 
d="M404 -13c-202 0 -328 135 -328 310c0 225 188 416 441 416c163 0 242 -81 272 -127l-147 -128c-21 30 -58 73 -145 73c-119 0 -210 -93 -210 -208c0 -89 58 -154 156 -154c78 0 123 21 140 33l6 39h-113l28 163h295l-52 -308c-81 -53 -172 -109 -343 -109zM284 -131
c0 58 55 106 113 106c52 0 85 -35 85 -90c0 -82 -69 -177 -155 -225l-50 69c23 14 51 38 65 63c-41 10 -58 44 -58 77z" />
    <glyph glyph-name="Hcircumflex" unicode="&#x124;" horiz-adv-x="736" 
d="M58 0l117 700h199l-44 -263h222l44 263h199l-117 -700h-199l44 262h-222l-44 -262h-199zM532 729l-27 61l-47 -61h-159l123 151h196l73 -151h-159z" />
    <glyph glyph-name="hcircumflex" unicode="&#x125;" horiz-adv-x="585" 
d="M453 541c127 0 170 -78 150 -200l-57 -341h-194l52 311c7 40 -15 59 -47 59c-38 0 -61 -26 -66 -56l-53 -314h-194l121 723h194l-40 -239c25 26 74 57 134 57zM470 748l-27 61l-47 -61h-159l123 151h196l73 -151h-159z" />
    <glyph glyph-name="Hbar" unicode="&#x126;" horiz-adv-x="736" 
d="M58 0l85 507h-55l21 127h55l11 66h199l-11 -66h222l11 66h199l-11 -66h55l-21 -127h-55l-85 -507h-199l44 262h-222l-44 -262h-199zM330 437h222l12 70h-222z" />
    <glyph glyph-name="Wcircumflex" unicode="&#x174;" horiz-adv-x="1028" 
d="M614 0l-33 402l-167 -402h-226l-64 700h213l15 -465l190 465h178l34 -465l171 465h213l-299 -700h-225zM674 729l-27 61l-47 -61h-159l123 151h196l73 -151h-159z" />
    <glyph glyph-name="uhungarumlaut" unicode="&#x171;" horiz-adv-x="579" 
d="M217 -13c-125 0 -166 79 -146 201l57 340h194l-52 -311c-7 -40 14 -59 46 -59c38 0 61 26 66 56l53 314h193l-88 -528h-189l8 50c-23 -27 -77 -63 -142 -63zM187 574l90 151h190l-135 -151h-145zM406 574l90 151h190l-135 -151h-145z" />
    <glyph glyph-name="Uhungarumlaut" unicode="&#x170;" horiz-adv-x="726" 
d="M371 -13c-197 0 -295 118 -267 287l71 426h199l-71 -427c-11 -65 23 -106 88 -106s113 41 124 106l71 427h199l-71 -426c-28 -169 -135 -287 -343 -287zM287 727l90 151h190l-135 -151h-145zM506 727l90 151h190l-135 -151h-145z" />
    <glyph glyph-name="Tcaron" unicode="&#x164;" horiz-adv-x="521" 
d="M161 0l88 526h-143l29 174h487l-29 -174h-145l-88 -526h-199zM399 819l47 61h162l-123 -151h-196l-73 151h156z" />
    <glyph glyph-name="uring" unicode="&#x16f;" horiz-adv-x="579" 
d="M217 -13c-125 0 -166 79 -146 201l57 340h194l-52 -311c-7 -40 14 -59 46 -59c38 0 61 26 66 56l53 314h193l-88 -528h-189l8 50c-23 -27 -77 -63 -142 -63zM281 649c0 74 68 126 144 126c64 0 108 -39 108 -95c0 -73 -67 -126 -145 -126c-63 0 -107 39 -107 95zM372 659
c0 -19 11 -31 29 -31c24 0 42 18 42 43c0 18 -11 30 -30 30c-23 0 -41 -18 -41 -42z" />
    <glyph glyph-name="tcaron" unicode="&#x165;" horiz-adv-x="379" 
d="M377 549l36 174h139l-79 -174h-96zM159 528l18 111h189l-18 -111h85l-26 -153h-85l-29 -173c-6 -37 32 -42 62 -42c7 0 19 1 19 1l-27 -163s-23 -6 -71 -6c-136 0 -201 66 -177 208l29 175h-50l26 153h55z" />
    <glyph glyph-name="Uring" unicode="&#x16e;" horiz-adv-x="726" 
d="M371 -13c-197 0 -295 118 -267 287l71 426h199l-71 -427c-11 -65 23 -106 88 -106s113 41 124 106l71 427h199l-71 -426c-28 -169 -135 -287 -343 -287zM380 820c0 74 68 126 144 126c64 0 108 -39 108 -95c0 -73 -67 -126 -145 -126c-63 0 -107 39 -107 95zM471 830
c0 -19 11 -31 29 -31c24 0 42 18 42 43c0 18 -11 30 -30 30c-23 0 -41 -18 -41 -42z" />
    <glyph glyph-name="ubreve" unicode="&#x16d;" horiz-adv-x="579" 
d="M217 -13c-125 0 -166 79 -146 201l57 340h194l-52 -311c-7 -40 14 -59 46 -59c38 0 61 26 66 56l53 314h193l-88 -528h-189l8 50c-23 -27 -77 -63 -142 -63zM390 576c-111 0 -165 64 -149 158h130c-4 -23 0 -52 33 -52c34 0 48 29 52 52h138c-16 -94 -92 -158 -204 -158z
" />
    <glyph glyph-name="Ubreve" unicode="&#x16c;" horiz-adv-x="726" 
d="M371 -13c-197 0 -295 118 -267 287l71 426h199l-71 -427c-11 -65 23 -106 88 -106s113 41 124 106l71 427h199l-71 -426c-28 -169 -135 -287 -343 -287zM494 737c-111 0 -165 64 -149 158h130c-4 -23 0 -52 33 -52c34 0 48 29 52 52h138c-16 -94 -92 -158 -204 -158z" />
    <glyph glyph-name="umacron" unicode="&#x16b;" horiz-adv-x="579" 
d="M217 -13c-125 0 -166 79 -146 201l57 340h194l-52 -311c-7 -40 14 -59 46 -59c38 0 61 26 66 56l53 314h193l-88 -528h-189l8 50c-23 -27 -77 -63 -142 -63zM243 581l22 134h297l-22 -134h-297z" />
    <glyph glyph-name="Umacron" unicode="&#x16a;" horiz-adv-x="726" 
d="M371 -13c-197 0 -295 118 -267 287l71 426h199l-71 -427c-11 -65 23 -106 88 -106s113 41 124 106l71 427h199l-71 -426c-28 -169 -135 -287 -343 -287zM341 741l22 134h297l-22 -134h-297z" />
    <glyph glyph-name="utilde" unicode="&#x169;" horiz-adv-x="579" 
d="M217 -13c-125 0 -166 79 -146 201l57 340h194l-52 -311c-7 -40 14 -59 46 -59c38 0 61 26 66 56l53 314h193l-88 -528h-189l8 50c-23 -27 -77 -63 -142 -63zM459 574c-55 0 -89 30 -119 30c-18 0 -30 -11 -33 -31h-119c16 97 79 159 157 159c55 0 89 -30 119 -30
c18 0 29 11 33 31h116c-16 -101 -76 -159 -154 -159z" />
    <glyph glyph-name="Utilde" unicode="&#x168;" horiz-adv-x="726" 
d="M371 -13c-197 0 -295 118 -267 287l71 426h199l-71 -427c-11 -65 23 -106 88 -106s113 41 124 106l71 427h199l-71 -426c-28 -169 -135 -287 -343 -287zM562 731c-55 0 -89 30 -119 30c-18 0 -30 -11 -33 -31h-119c16 97 79 159 157 159c55 0 89 -30 119 -30
c18 0 29 11 33 31h116c-16 -101 -76 -159 -154 -159z" />
    <glyph glyph-name="Tbar" unicode="&#x166;" horiz-adv-x="521" 
d="M100 281l23 139h108l18 106h-143l29 174h487l-29 -174h-145l-18 -106h108l-23 -139h-108l-47 -281h-199l47 281h-108z" />
    <glyph glyph-name="scaron" unicode="&#x161;" horiz-adv-x="460" 
d="M22 71l124 106c27 -21 64 -37 107 -37c28 0 39 10 39 21c0 39 -206 27 -206 183c0 120 110 197 244 197c98 0 158 -44 188 -87l-141 -99c-17 17 -39 34 -73 34c-23 0 -33 -10 -33 -20c0 -47 209 -40 209 -188c0 -128 -108 -194 -252 -194c-92 0 -171 44 -206 84zM355 664
l47 61h162l-123 -151h-196l-73 151h156z" />
    <glyph glyph-name="Scaron" unicode="&#x160;" horiz-adv-x="546" 
d="M38 157l180 82c14 -37 48 -69 84 -69c35 0 50 16 50 35c0 63 -239 73 -239 260c0 149 118 248 281 248c161 0 201 -115 211 -170l-178 -74c-9 29 -20 64 -68 64c-27 0 -44 -16 -44 -36c0 -70 243 -74 243 -253c0 -141 -109 -257 -292 -257c-165 0 -218 121 -228 170z
M411 819l47 61h162l-123 -151h-196l-73 151h156z" />
    <glyph glyph-name="Itilde" unicode="&#x128;" horiz-adv-x="315" 
d="M58 0l117 700h199l-117 -700h-199zM351 731c-55 0 -89 30 -119 30c-18 0 -30 -11 -33 -31h-119c16 97 79 159 157 159c55 0 89 -30 119 -30c18 0 29 11 33 31h116c-16 -101 -76 -159 -154 -159z" />
    <glyph glyph-name="Imacron" unicode="&#x12a;" horiz-adv-x="315" 
d="M58 0l117 700h199l-117 -700h-199zM135 741l22 134h297l-22 -134h-297z" />
    <glyph glyph-name="Kcommaaccent" unicode="&#x136;" horiz-adv-x="673" 
d="M58 0l117 700h199l-47 -280l224 280h226l-289 -353l180 -347h-225l-138 286l-48 -286h-199zM226 -131c0 58 55 106 113 106c52 0 85 -35 85 -90c0 -82 -69 -177 -155 -225l-50 69c23 14 51 38 65 63c-41 10 -58 44 -58 77z" />
    <glyph glyph-name="kgreenlandic" unicode="&#x138;" horiz-adv-x="593" 
d="M44 0l88 528h194l-34 -205l156 205h219l-206 -258l132 -270h-214l-102 233l-39 -233h-194z" />
    <glyph glyph-name="kcommaaccent" unicode="&#x137;" horiz-adv-x="591" 
d="M44 0l121 723h194l-67 -400l156 205h219l-206 -258l132 -270h-214l-102 233l-39 -233h-194zM177 -131c0 58 55 106 113 106c52 0 85 -35 85 -90c0 -82 -69 -177 -155 -225l-50 69c23 14 51 38 65 63c-41 10 -58 44 -58 77z" />
    <glyph glyph-name="Ibreve" unicode="&#x12c;" horiz-adv-x="315" 
d="M58 0l117 700h199l-117 -700h-199zM284 737c-111 0 -165 64 -149 158h130c-4 -23 0 -52 33 -52c34 0 48 29 52 52h138c-16 -94 -92 -158 -204 -158z" />
    <glyph glyph-name="dotlessj" unicode="&#x237;" 
d="M47 18l86 510h194l-88 -526c-24 -144 -135 -194 -273 -194c-17 0 -35 3 -40 4l26 158s13 -1 25 -1c41 0 65 19 70 49z" />
    <glyph glyph-name="jcircumflex" unicode="&#x135;" 
d="M47 18l86 510h194l-88 -526c-24 -144 -135 -194 -273 -194c-17 0 -35 3 -40 4l26 158s13 -1 25 -1c41 0 65 19 70 49zM275 574l-27 61l-47 -61h-159l123 151h196l73 -151h-159z" />
    <glyph glyph-name="Jcircumflex" unicode="&#x134;" horiz-adv-x="409" 
d="M19 5l53 172c13 -2 33 -4 51 -4c42 0 62 28 66 53l79 474h200l-86 -512c-25 -149 -134 -194 -254 -194c-35 0 -79 3 -109 11zM402 729l-27 61l-47 -61h-159l123 151h196l73 -151h-159z" />
    <glyph glyph-name="ij" unicode="&#x133;" horiz-adv-x="564" 
d="M44 0l88 528h194l-88 -528h-194zM146 642c0 62 58 110 121 110c51 0 89 -35 89 -84c0 -62 -59 -109 -121 -109c-52 0 -89 35 -89 83zM329 18l86 510h194l-88 -526c-24 -144 -135 -194 -273 -194c-17 0 -35 3 -40 4l26 158s13 -1 25 -1c41 0 65 19 70 49zM429 642
c0 62 57 110 120 110c52 0 89 -35 89 -84c0 -62 -58 -109 -121 -109c-51 0 -88 35 -88 83z" />
    <glyph glyph-name="IJ" unicode="&#x132;" horiz-adv-x="724" 
d="M58 0l117 700h199l-117 -700h-199zM335 5l53 172c13 -2 33 -4 51 -4c42 0 62 28 66 53l79 474h200l-86 -512c-25 -149 -134 -194 -254 -194c-35 0 -79 3 -109 11z" />
    <glyph glyph-name="Idotaccent" unicode="&#x130;" horiz-adv-x="315" 
d="M58 0l117 700h199l-117 -700h-199zM212 806c0 53 49 97 101 97c42 0 72 -32 72 -73c0 -53 -49 -97 -101 -97c-42 0 -72 32 -72 73z" />
    <glyph glyph-name="Rcommaaccent" unicode="&#x156;" horiz-adv-x="632" 
d="M58 0l117 700h247c153 0 224 -69 224 -181c0 -93 -48 -180 -127 -225l111 -294h-219l-77 247h-36l-41 -247h-199zM325 409h33c51 0 81 33 81 74c0 32 -20 50 -60 50h-33zM206 -131c0 58 55 106 113 106c52 0 85 -35 85 -90c0 -82 -69 -177 -155 -225l-50 69
c23 14 51 38 65 63c-41 10 -58 44 -58 77z" />
    <glyph glyph-name="rcommaaccent" unicode="&#x157;" horiz-adv-x="390" 
d="M461 541l-32 -189c-7 2 -17 4 -30 4c-65 0 -108 -41 -120 -110l-41 -246h-194l88 528h189l-11 -67c35 50 94 80 151 80zM34 -131c0 58 55 106 113 106c52 0 85 -35 85 -90c0 -82 -69 -177 -155 -225l-50 69c23 14 51 38 65 63c-41 10 -58 44 -58 77z" />
    <glyph glyph-name="scircumflex" unicode="&#x15d;" horiz-adv-x="460" 
d="M22 71l124 106c27 -21 64 -37 107 -37c28 0 39 10 39 21c0 39 -206 27 -206 183c0 120 110 197 244 197c98 0 158 -44 188 -87l-141 -99c-17 17 -39 34 -73 34c-23 0 -33 -10 -33 -20c0 -47 209 -40 209 -188c0 -128 -108 -194 -252 -194c-92 0 -171 44 -206 84zM379 574
l-27 61l-47 -61h-159l123 151h196l73 -151h-159z" />
    <glyph glyph-name="Scircumflex" unicode="&#x15c;" horiz-adv-x="546" 
d="M38 157l180 82c14 -37 48 -69 84 -69c35 0 50 16 50 35c0 63 -239 73 -239 260c0 149 118 248 281 248c161 0 201 -115 211 -170l-178 -74c-9 29 -20 64 -68 64c-27 0 -44 -16 -44 -36c0 -70 243 -74 243 -253c0 -141 -109 -257 -292 -257c-165 0 -218 121 -228 170z
M438 729l-27 61l-47 -61h-159l123 151h196l73 -151h-159z" />
    <glyph glyph-name="sacute" unicode="&#x15b;" horiz-adv-x="460" 
d="M22 71l124 106c27 -21 64 -37 107 -37c28 0 39 10 39 21c0 39 -206 27 -206 183c0 120 110 197 244 197c98 0 158 -44 188 -87l-141 -99c-17 17 -39 34 -73 34c-23 0 -33 -10 -33 -20c0 -47 209 -40 209 -188c0 -128 -108 -194 -252 -194c-92 0 -171 44 -206 84zM245 574
l90 151h200l-135 -151h-155z" />
    <glyph glyph-name="Sacute" unicode="&#x15a;" horiz-adv-x="546" 
d="M38 157l180 82c14 -37 48 -69 84 -69c35 0 50 16 50 35c0 63 -239 73 -239 260c0 149 118 248 281 248c161 0 201 -115 211 -170l-178 -74c-9 29 -20 64 -68 64c-27 0 -44 -16 -44 -36c0 -70 243 -74 243 -253c0 -141 -109 -257 -292 -257c-165 0 -218 121 -228 170z
M310 727l90 151h200l-135 -151h-155z" />
    <glyph glyph-name="rcaron" unicode="&#x159;" horiz-adv-x="390" 
d="M461 541l-32 -189c-7 2 -17 4 -30 4c-65 0 -108 -41 -120 -110l-41 -246h-194l88 528h189l-11 -67c35 50 94 80 151 80zM306 664l47 61h162l-123 -151h-196l-73 151h156z" />
    <glyph glyph-name="Rcaron" unicode="&#x158;" horiz-adv-x="632" 
d="M58 0l117 700h247c153 0 224 -69 224 -181c0 -93 -48 -180 -127 -225l111 -294h-219l-77 247h-36l-41 -247h-199zM325 409h33c51 0 81 33 81 74c0 32 -20 50 -60 50h-33zM420 819l47 61h162l-123 -151h-196l-73 151h156z" />
    <glyph glyph-name="racute" unicode="&#x155;" horiz-adv-x="390" 
d="M461 541l-32 -189c-7 2 -17 4 -30 4c-65 0 -108 -41 -120 -110l-41 -246h-194l88 528h189l-11 -67c35 50 94 80 151 80zM199 574l90 151h200l-135 -151h-155z" />
    <glyph glyph-name="Racute" unicode="&#x154;" horiz-adv-x="632" 
d="M58 0l117 700h247c153 0 224 -69 224 -181c0 -93 -48 -180 -127 -225l111 -294h-219l-77 247h-36l-41 -247h-199zM325 409h33c51 0 81 33 81 74c0 32 -20 50 -60 50h-33zM310 727l90 151h200l-135 -151h-155z" />
    <glyph glyph-name="ohungarumlaut" unicode="&#x151;" horiz-adv-x="624" 
d="M654 303c0 -179 -159 -316 -344 -316c-150 0 -252 100 -252 238c0 179 159 316 344 316c150 0 252 -100 252 -238zM254 244c0 -55 33 -90 84 -90c66 0 120 53 120 130c0 55 -33 91 -83 91c-66 0 -121 -54 -121 -131zM214 574l90 151h190l-135 -151h-145zM433 574l90 151
h190l-135 -151h-145z" />
    <glyph glyph-name="Ohungarumlaut" unicode="&#x150;" horiz-adv-x="802" 
d="M399 -13c-205 0 -323 133 -323 309c0 227 186 417 444 417c206 0 323 -134 323 -308c0 -229 -186 -418 -444 -418zM490 531c-115 0 -203 -94 -203 -211c0 -88 53 -151 142 -151c116 0 204 94 204 211c0 86 -53 151 -143 151zM320 727l90 151h190l-135 -151h-145zM539 727
l90 151h190l-135 -151h-145z" />
    <glyph glyph-name="Obreve" unicode="&#x14e;" horiz-adv-x="802" 
d="M399 -13c-205 0 -323 133 -323 309c0 227 186 417 444 417c206 0 323 -134 323 -308c0 -229 -186 -418 -444 -418zM490 531c-115 0 -203 -94 -203 -211c0 -88 53 -151 142 -151c116 0 204 94 204 211c0 86 -53 151 -143 151zM525 737c-111 0 -165 64 -149 158h130
c-4 -23 0 -52 33 -52c34 0 48 29 52 52h138c-16 -94 -92 -158 -204 -158z" />
    <glyph glyph-name="omacron" unicode="&#x14d;" horiz-adv-x="624" 
d="M654 303c0 -179 -159 -316 -344 -316c-150 0 -252 100 -252 238c0 179 159 316 344 316c150 0 252 -100 252 -238zM254 244c0 -55 33 -90 84 -90c66 0 120 53 120 130c0 55 -33 91 -83 91c-66 0 -121 -54 -121 -131zM264 581l22 134h297l-22 -134h-297z" />
    <glyph glyph-name="Lacute" unicode="&#x139;" horiz-adv-x="469" 
d="M58 0l117 700h199l-88 -526h201l-29 -174h-400zM198 727l90 151h200l-135 -151h-155z" />
    <glyph glyph-name="lacute" unicode="&#x13a;" 
d="M44 0l121 723h194l-121 -723h-194zM186 745l90 151h200l-135 -151h-155z" />
    <glyph glyph-name="lcommaaccent" unicode="&#x13c;" 
d="M44 0l121 723h194l-121 -723h-194zM23 -131c0 58 55 106 113 106c52 0 85 -35 85 -90c0 -82 -69 -177 -155 -225l-50 69c23 14 51 38 65 63c-41 10 -58 44 -58 77z" />
    <glyph glyph-name="Lcommaaccent" unicode="&#x13b;" horiz-adv-x="469" 
d="M58 0l117 700h199l-88 -526h201l-29 -174h-400zM133 -131c0 58 55 106 113 106c52 0 85 -35 85 -90c0 -82 -69 -177 -155 -225l-50 69c23 14 51 38 65 63c-41 10 -58 44 -58 77z" />
    <glyph glyph-name="Lcaron" unicode="&#x13d;" horiz-adv-x="469" 
d="M406 526l36 174h139l-79 -174h-96zM58 0l117 700h199l-88 -526h201l-29 -174h-400z" />
    <glyph glyph-name="lcaron" unicode="&#x13e;" 
d="M371 549l36 174h139l-79 -174h-96zM44 0l121 723h194l-121 -723h-194z" />
    <glyph glyph-name="ldot" unicode="&#x140;" horiz-adv-x="504" 
d="M44 0l121 723h194l-121 -723h-194zM350 364c0 68 61 127 133 127c58 0 96 -42 96 -96c0 -68 -61 -126 -133 -126c-58 0 -96 43 -96 95z" />
    <glyph glyph-name="Ldot" unicode="&#x13f;" horiz-adv-x="497" 
d="M58 0l117 700h199l-88 -526h201l-29 -174h-400zM353 353c0 68 61 127 133 127c58 0 96 -42 96 -96c0 -68 -61 -126 -133 -126c-58 0 -96 43 -96 95z" />
    <glyph glyph-name="Lslash" unicode="&#x141;" horiz-adv-x="481" 
d="M40 151l30 177l60 35l57 337h199l-40 -237l104 50l-31 -183l-103 -50l-18 -106h201l-29 -174h-400l30 183z" />
    <glyph glyph-name="lslash" unicode="&#x142;" horiz-adv-x="325" 
d="M50 190l30 179l54 26l55 328h194l-36 -219l60 30l-31 -182l-60 -30l-54 -322h-194l36 216z" />
    <glyph glyph-name="Omacron" unicode="&#x14c;" horiz-adv-x="802" 
d="M399 -13c-205 0 -323 133 -323 309c0 227 186 417 444 417c206 0 323 -134 323 -308c0 -229 -186 -418 -444 -418zM490 531c-115 0 -203 -94 -203 -211c0 -88 53 -151 142 -151c116 0 204 94 204 211c0 86 -53 151 -143 151zM376 741l22 134h297l-22 -134h-297z" />
    <glyph glyph-name="Nacute" unicode="&#x143;" horiz-adv-x="740" 
d="M58 0l117 700h203l159 -397l66 397h196l-117 -700h-198l-166 391l-65 -391h-195zM406 727l90 151h200l-135 -151h-155z" />
    <glyph glyph-name="nacute" unicode="&#x144;" horiz-adv-x="583" 
d="M456 541c125 0 165 -79 145 -201l-57 -340h-194l52 311c7 40 -14 59 -46 59c-38 0 -60 -26 -65 -56l-53 -314h-194l88 528h189l-8 -50c24 27 78 63 143 63zM303 574l90 151h200l-135 -151h-155z" />
    <glyph glyph-name="Ncommaaccent" unicode="&#x145;" horiz-adv-x="736" 
d="M58 0l117 700h203l159 -397l66 397h196l-117 -700h-198l-166 391l-65 -391h-195zM255 -131c0 58 55 106 113 106c52 0 85 -35 85 -90c0 -82 -69 -177 -155 -225l-50 69c23 14 51 38 65 63c-41 10 -58 44 -58 77z" />
    <glyph glyph-name="ncommaaccent" unicode="&#x146;" horiz-adv-x="583" 
d="M456 541c125 0 165 -79 145 -201l-57 -340h-194l52 311c7 40 -14 59 -46 59c-38 0 -60 -26 -65 -56l-53 -314h-194l88 528h189l-8 -50c24 27 78 63 143 63zM178 -131c0 58 55 106 113 106c52 0 85 -35 85 -90c0 -82 -69 -177 -155 -225l-50 69c23 14 51 38 65 63
c-41 10 -58 44 -58 77z" />
    <glyph glyph-name="Ncaron" unicode="&#x147;" horiz-adv-x="740" 
d="M58 0l117 700h203l159 -397l66 397h196l-117 -700h-198l-166 391l-65 -391h-195zM513 819l47 61h162l-123 -151h-196l-73 151h156z" />
    <glyph glyph-name="ncaron" unicode="&#x148;" horiz-adv-x="583" 
d="M456 541c125 0 165 -79 145 -201l-57 -340h-194l52 311c7 40 -14 59 -46 59c-38 0 -60 -26 -65 -56l-53 -314h-194l88 528h189l-8 -50c24 27 78 63 143 63zM396 664l47 61h162l-123 -151h-196l-73 151h156z" />
    <glyph glyph-name="napostrophe" unicode="&#x149;" horiz-adv-x="700" 
d="M572 541c125 0 165 -79 145 -201l-57 -340h-194l52 311c7 40 -14 59 -46 59c-38 0 -60 -26 -65 -56l-53 -314h-194l88 528h189l-8 -50c24 27 78 63 143 63zM57 633c0 58 55 106 113 106c52 0 85 -35 85 -90c0 -82 -69 -177 -155 -225l-50 69c23 14 51 38 65 63
c-41 10 -58 44 -58 77z" />
    <glyph glyph-name="eng" unicode="&#x14b;" horiz-adv-x="583" 
d="M353 18l49 293c7 40 -14 59 -46 59c-38 0 -60 -26 -65 -56l-53 -314h-194l88 528h189l-8 -50c24 27 78 63 143 63c125 0 165 -79 145 -201l-57 -340c-23 -140 -135 -192 -272 -192c-17 0 -36 3 -40 4l26 158s13 -1 25 -1c41 0 65 19 70 49z" />
    <glyph glyph-name="Eng" unicode="&#x14a;" horiz-adv-x="736" 
d="M324 -192l52 167c12 -2 33 -5 57 -5c32 0 49 9 54 34l-169 387l-65 -391h-195l117 700h203l159 -397l66 397h196l-119 -709c-25 -149 -130 -194 -250 -194c-35 0 -76 3 -106 11z" />
    <glyph glyph-name="gcommaaccent" unicode="&#x123;" horiz-adv-x="635" 
d="M71 -149l74 146c13 -6 74 -33 139 -33c58 0 115 13 123 56l2 11c-32 -24 -72 -40 -129 -40c-136 0 -221 94 -221 229c0 182 124 321 300 321c68 0 109 -28 126 -46l6 33h194l-77 -461c-33 -198 -179 -259 -333 -259c-91 0 -159 20 -204 43zM455 287c0 55 -31 88 -81 88
c-72 0 -118 -58 -118 -130c0 -52 29 -87 82 -87c74 0 117 62 117 129zM517 671c0 -58 -55 -106 -113 -106c-52 0 -85 35 -85 90c0 82 69 177 155 225l50 -69c-23 -14 -51 -38 -65 -63c41 -10 58 -44 58 -77z" />
    <glyph glyph-name="iacute" unicode="&#xed;" 
d="M44 0l88 528h194l-88 -528h-194zM134 574l90 151h200l-135 -151h-155z" />
    <glyph glyph-name="igrave" unicode="&#xec;" 
d="M44 0l88 528h194l-88 -528h-194zM295 725l40 -151h-147l-90 151h197z" />
    <glyph glyph-name="icircumflex" unicode="&#xee;" 
d="M44 0l88 528h194l-88 -528h-194zM276 574l-27 61l-47 -61h-159l123 151h196l73 -151h-159z" />
    <glyph glyph-name="idieresis" unicode="&#xef;" 
d="M44 0l88 528h194l-88 -528h-194zM279 640c0 52 42 97 100 97c45 0 73 -32 73 -72c0 -52 -45 -96 -101 -96c-46 0 -72 32 -72 71zM53 641c0 51 44 96 101 96c46 0 74 -32 74 -72c0 -52 -45 -96 -102 -96c-45 0 -73 32 -73 72z" />
    <glyph glyph-name="oe" unicode="&#x153;" horiz-adv-x="959" 
d="M402 541c73 0 136 -23 180 -62c51 39 113 62 185 62c149 0 224 -85 224 -230c0 -46 -10 -83 -14 -98h-330c3 -41 33 -64 81 -64c49 0 90 32 103 47l116 -92c-16 -26 -105 -117 -249 -117c-80 0 -138 29 -179 70c-51 -41 -122 -70 -209 -70c-150 0 -252 100 -252 238
c0 179 159 316 344 316zM254 244c0 -55 33 -90 84 -90c66 0 120 53 120 130c0 55 -33 91 -83 91c-66 0 -121 -54 -121 -131zM671 331h130c2 24 -12 57 -55 57c-46 0 -69 -37 -75 -57z" />
    <glyph glyph-name="dcroat" unicode="&#x111;" horiz-adv-x="656" 
d="M717 723l-8 -44h44l-19 -115h-44l-94 -564h-180l5 34c-23 -20 -74 -47 -143 -47c-135 0 -220 95 -220 231c0 181 124 323 300 323c68 0 110 -30 126 -46l12 69h-125l19 115h125l8 44h194zM454 286c0 56 -31 89 -81 89c-72 0 -118 -58 -118 -133c0 -53 28 -88 81 -88
c74 0 118 63 118 132z" />
    <glyph glyph-name="Eogonek" unicode="&#x118;" horiz-adv-x="498" 
d="M58 0l117 700h392l-29 -174h-193l-14 -86h163l-29 -173h-163l-16 -93h201l-29 -174c-15 -4 -49 -25 -49 -56c0 -22 20 -28 38 -28l-21 -127c-17 -4 -45 -8 -72 -8c-56 0 -115 22 -115 88c0 72 67 114 107 131h-288z" />
    <glyph glyph-name="tbar" unicode="&#x167;" horiz-adv-x="379" 
d="M158 528l18 111h190l-18 -111h85l-26 -153h-85l-8 -48h72l-20 -120h-72l-1 -5c-7 -37 32 -42 62 -42c7 0 19 1 19 1l-27 -163s-23 -6 -71 -6c-136 0 -198 66 -177 208l1 7h-50l20 120h50l8 48h-50l26 153h54z" />
    <glyph glyph-name="Iogonek" unicode="&#x12e;" horiz-adv-x="315" 
d="M58 0l117 700h199l-117 -700c-15 -4 -49 -25 -49 -56c0 -22 20 -28 38 -28l-21 -127c-17 -4 -45 -8 -72 -8c-56 0 -115 22 -115 88c0 72 67 114 107 131h-87z" />
    <glyph glyph-name="iogonek" unicode="&#x12f;" 
d="M44 0l88 528h194l-88 -528c-14 -4 -48 -25 -48 -56c0 -22 20 -28 38 -28l-21 -127c-17 -4 -45 -8 -72 -8c-56 0 -115 22 -115 88c0 72 67 114 107 131h-83zM139 638c0 65 61 121 127 121c54 0 93 -41 93 -93c0 -64 -63 -120 -129 -120c-54 0 -91 41 -91 92z" />
    <glyph glyph-name="ibreve" unicode="&#x12d;" 
d="M44 0l88 528h194l-88 -528h-194zM239 576c-111 0 -165 64 -149 158h130c-4 -23 0 -52 33 -52c34 0 48 29 52 52h138c-16 -94 -92 -158 -204 -158z" />
    <glyph glyph-name="itilde" unicode="&#x129;" 
d="M44 0l88 528h194l-88 -528h-194zM308 574c-55 0 -89 30 -119 30c-18 0 -30 -11 -33 -31h-119c16 97 79 159 157 159c55 0 89 -30 119 -30c18 0 29 11 33 31h116c-16 -101 -76 -159 -154 -159z" />
    <glyph glyph-name="imacron" unicode="&#x12b;" 
d="M44 0l88 528h194l-88 -528h-194zM90 581l22 134h297l-22 -134h-297z" />
    <glyph glyph-name="hbar" unicode="&#x127;" horiz-adv-x="593" 
d="M461 541c127 0 170 -78 150 -200l-57 -341h-194l52 311c7 40 -15 59 -47 59c-38 0 -61 -26 -66 -56l-53 -314h-194l94 564h-42l20 115h41l8 44h194l-8 -44h135l-20 -115h-134l-13 -80c25 26 74 57 134 57z" />
    <glyph glyph-name="OE" unicode="&#x152;" horiz-adv-x="1019" 
d="M399 -13c-205 0 -323 133 -323 309c0 227 186 417 444 417c38 0 75 -5 106 -13h462l-29 -174h-234c10 -27 16 -56 18 -86h172l-29 -173h-171c-13 -33 -29 -65 -49 -93h242l-29 -174h-470c-34 -8 -72 -13 -110 -13zM490 531c-115 0 -203 -94 -203 -211
c0 -88 53 -151 142 -151c116 0 204 94 204 211c0 86 -53 151 -143 151z" />
    <glyph glyph-name="obreve" unicode="&#x14f;" horiz-adv-x="624" 
d="M654 303c0 -179 -159 -316 -344 -316c-150 0 -252 100 -252 238c0 179 159 316 344 316c150 0 252 -100 252 -238zM254 244c0 -55 33 -90 84 -90c66 0 120 53 120 130c0 55 -33 91 -83 91c-66 0 -121 -54 -121 -131zM407 576c-111 0 -165 64 -149 158h130
c-4 -23 0 -52 33 -52c34 0 48 29 52 52h138c-16 -94 -92 -158 -204 -158z" />
    <glyph glyph-name="hyphen.caps" horiz-adv-x="405" 
d="M93 262l28 170h306l-28 -170h-306z" />
    <glyph glyph-name="endash.caps" horiz-adv-x="705" 
d="M94 268l26 155h607l-26 -155h-607z" />
    <glyph glyph-name="emdash.caps" horiz-adv-x="985" 
d="M95 268l26 155h885l-26 -155h-885z" />
    <glyph glyph-name="guillemotleft.caps" horiz-adv-x="557" 
d="M302 353l152 196h171l-158 -201l94 -183h-165zM176 165l-93 192l151 192h172l-158 -201l94 -183h-166z" />
    <glyph glyph-name="guillemotright.caps" horiz-adv-x="557" 
d="M374 361l-152 -196h-171l158 201l-94 183h165zM500 549l93 -192l-151 -192h-172l158 201l-94 183h166z" />
    <glyph glyph-name="guilsinglleft.caps" horiz-adv-x="338" 
d="M176 165l-93 192l151 192h172l-158 -201l94 -183h-166z" />
    <glyph glyph-name="guilsinglright.caps" horiz-adv-x="338" 
d="M374 361l-152 -196h-171l158 201l-94 183h165z" />
    <glyph glyph-name="parenleft.caps" horiz-adv-x="368" 
d="M40 79l90 537c27 164 154 247 325 247l-28 -164c-67 0 -97 -32 -106 -83l-90 -537c-8 -51 12 -83 79 -83l-28 -164c-166 0 -269 83 -242 247z" />
    <glyph glyph-name="parenright.caps" horiz-adv-x="369" 
d="M444 616l-90 -537c-27 -164 -158 -247 -324 -247l27 164c67 0 98 32 106 83l90 537c9 51 -11 83 -78 83l28 164c166 0 268 -83 241 -247z" />
    <glyph glyph-name="bracketleft.caps" horiz-adv-x="368" 
d="M-1 -168l173 1031h283l-28 -164h-92l-118 -703h92l-27 -164h-283z" />
    <glyph glyph-name="bracketright.caps" horiz-adv-x="367" 
d="M486 863l-173 -1031h-283l27 164h92l118 703h-92l28 164h283z" />
    <glyph glyph-name="braceleft.caps" horiz-adv-x="438" 
d="M65 256l30 182c41 0 77 11 91 93l14 85c27 164 159 247 325 247l-28 -164c-67 0 -97 -32 -106 -83l-22 -131c-15 -90 -91 -130 -130 -138c36 -8 99 -48 84 -138l-22 -130c-9 -51 11 -83 78 -83l-27 -164c-166 0 -269 83 -242 247l14 84c14 82 -18 93 -59 93z" />
    <glyph glyph-name="bar.caps" horiz-adv-x="315" 
d="M30 -213l188 1123h183l-188 -1123h-183z" />
    <glyph glyph-name="braceright.caps" horiz-adv-x="438" 
d="M489 438l-30 -182c-41 0 -77 -11 -91 -93l-14 -84c-27 -164 -158 -247 -324 -247l27 164c67 0 97 32 106 83l22 130c15 90 92 130 130 138c-35 8 -99 48 -84 138l22 131c9 51 -11 83 -78 83l28 164c166 0 268 -83 241 -247l-14 -85c-14 -82 18 -93 59 -93z" />
    <glyph glyph-name="slash.caps" horiz-adv-x="487" 
d="M-4 -81l444 858h167l-444 -858h-167z" />
    <glyph glyph-name="backslash.caps" horiz-adv-x="487" 
d="M307 777l156 -858h-167l-156 858h167z" />
    <glyph glyph-name="exclamdown.caps" horiz-adv-x="328" 
d="M150 587c0 68 62 126 133 126c59 0 96 -43 96 -95c0 -68 -61 -127 -133 -127c-58 0 -96 42 -96 96zM61 0l94 473h176l-64 -473h-206z" />
    <glyph glyph-name="questiondown.caps" horiz-adv-x="506" 
d="M446 473l-7 -44c-22 -140 -189 -166 -189 -235c0 -19 12 -39 46 -39c42 0 62 33 72 50l146 -67c-30 -58 -105 -151 -258 -151c-122 0 -208 74 -208 172c0 162 191 190 206 283l5 31h187zM490 618c0 -68 -61 -127 -133 -127c-58 0 -96 42 -96 96c0 68 61 126 133 126
c58 0 96 -43 96 -95z" />
    <glyph glyph-name="periodcentered.caps" horiz-adv-x="278" 
d="M83 333c0 68 61 127 133 127c58 0 96 -42 96 -96c0 -68 -61 -126 -133 -126c-58 0 -96 43 -96 95z" />
    <glyph glyph-name="bullet.caps" horiz-adv-x="406" 
d="M234 182c-89 0 -146 65 -146 147c0 107 94 197 203 197c89 0 146 -65 146 -147c0 -107 -93 -197 -203 -197z" />
    <glyph glyph-name="zero.tab" horiz-adv-x="608" 
d="M622 350c-40 -247 -139 -363 -318 -363c-180 0 -242 116 -202 363c38 246 137 363 317 363c179 0 241 -117 203 -363zM303 350c-22 -135 -14 -181 30 -181c45 0 66 46 88 181c21 135 14 181 -31 181c-44 0 -66 -46 -87 -181z" />
    <glyph glyph-name="one.tab" horiz-adv-x="608" 
d="M555 0h-487l28 169h162l57 341l-139 -37l-18 162l223 65h163l-89 -531h128z" />
    <glyph glyph-name="two.tab" horiz-adv-x="608" 
d="M56 0l11 64c41 241 366 325 366 428c0 25 -21 42 -51 42c-37 0 -65 -25 -81 -58l-164 50c28 78 114 187 277 187c126 0 225 -71 225 -187c0 -191 -259 -268 -317 -359h265l-28 -167h-503z" />
    <glyph glyph-name="three.tab" horiz-adv-x="608" 
d="M642 700l-28 -167l-130 -102c64 -15 117 -72 117 -161c0 -170 -127 -283 -294 -283s-222 112 -227 190l180 49c6 -34 28 -60 65 -60c44 0 70 31 70 65c0 25 -17 49 -58 49h-106l25 147l128 104h-214l29 169h443z" />
    <glyph glyph-name="four.tab" horiz-adv-x="608" 
d="M50 150l23 137l322 413h238l-65 -386h67l-27 -164h-67l-25 -150h-194l25 150h-297zM278 314h96l31 182z" />
    <glyph glyph-name="five.tab" horiz-adv-x="608" 
d="M320 166c41 0 84 31 84 81c0 31 -22 59 -62 59c-34 0 -56 -17 -71 -34l-155 30l81 398h438l-29 -169h-261l-17 -78c34 13 62 16 87 16c110 0 193 -84 193 -198c0 -159 -133 -284 -297 -284c-168 0 -232 112 -237 190l180 49c3 -40 30 -60 66 -60z" />
    <glyph glyph-name="six.tab" horiz-adv-x="608" 
d="M339 169c53 0 72 38 72 79c0 34 -18 57 -53 57c-19 0 -46 -6 -69 -18c-12 -59 -15 -118 50 -118zM478 713c90 0 143 -27 167 -42l-100 -160c-15 8 -46 19 -88 19c-77 0 -117 -47 -132 -86c19 10 61 26 109 26c99 0 177 -59 177 -181c0 -173 -125 -302 -293 -302
c-164 0 -233 92 -233 235c0 175 67 491 393 491z" />
    <glyph glyph-name="seven.tab" horiz-adv-x="608" 
d="M165 700h511l-23 -136l-321 -564h-217l310 531h-288z" />
    <glyph glyph-name="eight.tab" horiz-adv-x="608" 
d="M302 -13c-147 0 -231 72 -231 191c0 90 48 158 107 192c-24 21 -41 61 -41 108c0 127 111 235 286 235c142 0 217 -78 217 -180c0 -76 -42 -132 -86 -163c33 -24 54 -71 54 -126c0 -153 -120 -257 -306 -257zM394 539c-41 0 -62 -25 -62 -58c0 -27 16 -39 46 -39
c40 0 62 19 62 57c0 24 -15 40 -46 40zM331 164c45 0 72 25 72 63c0 24 -14 48 -53 48c-50 0 -72 -35 -72 -66c0 -28 19 -45 53 -45z" />
    <glyph glyph-name="nine.tab" horiz-adv-x="608" 
d="M386 531c-53 0 -72 -38 -72 -79c0 -34 18 -57 53 -57c19 0 46 6 69 18c12 59 15 118 -50 118zM247 -13c-90 0 -143 27 -167 42l100 160c15 -8 46 -19 88 -19c77 0 117 47 132 86c-19 -10 -61 -26 -109 -26c-99 0 -177 59 -177 181c0 173 125 302 293 302
c164 0 233 -92 233 -235c0 -175 -67 -491 -393 -491z" />
    <glyph glyph-name="numero" unicode="&#x2116;" horiz-adv-x="1132" 
d="M58 0l117 700h203l159 -397l66 397h196l-117 -700h-198l-166 391l-65 -391h-195zM762 167l24 146h342l-24 -146h-342zM807 505c0 112 99 208 217 208c97 0 158 -69 158 -156c0 -112 -97 -205 -218 -205c-96 0 -157 67 -157 153zM948 525c0 -21 13 -39 38 -39
c36 0 55 27 55 54c0 20 -12 39 -39 39c-34 0 -54 -28 -54 -54z" />
    <glyph glyph-name="Aringacute" unicode="&#x1fa;" horiz-adv-x="702" 
d="M481 134h-210l-64 -134h-203l353 688c-5 11 -7 25 -7 39c0 75 68 127 144 127c64 0 108 -39 108 -95c0 -27 -11 -51 -27 -72l123 -687h-197zM410 878l90 151h200l-135 -151h-155zM461 293l-24 201l-92 -201h116zM441 738c0 -19 11 -31 29 -31c24 0 42 18 42 43
c0 18 -11 30 -29 30c-24 0 -42 -18 -42 -42z" />
    <glyph glyph-name="aringacute" unicode="&#x1fb;" horiz-adv-x="551" 
d="M40 136c0 121 99 204 242 204c36 0 71 -9 90 -20l3 16c4 21 -16 42 -64 42c-43 0 -85 -11 -131 -30l-56 126c64 39 161 67 240 67c177 0 223 -104 202 -227l-53 -314h-174l-6 29c-34 -30 -81 -42 -132 -42c-86 0 -161 50 -161 149zM238 166c0 -24 24 -35 50 -35
c30 0 63 16 63 45c0 24 -22 37 -50 37c-32 0 -63 -17 -63 -47zM269 649c0 74 68 126 144 126c64 0 108 -39 108 -95c0 -73 -67 -126 -145 -126c-63 0 -107 39 -107 95zM360 659c0 -19 11 -31 29 -31c24 0 42 18 42 43c0 18 -11 30 -30 30c-23 0 -41 -18 -41 -42zM321 796
l90 151h200l-135 -151h-155z" />
    <glyph glyph-name="AEacute" unicode="&#x1fc;" horiz-adv-x="918" 
d="M8 0l494 700h485l-29 -174h-193l-14 -86h163l-29 -173h-163l-16 -93h200l-29 -174h-399l22 134h-184l-92 -134h-216zM565 519l-151 -226h113zM603 727l90 151h200l-135 -151h-155z" />
    <glyph glyph-name="aeacute" unicode="&#x1fd;" horiz-adv-x="861" 
d="M518 493c38 25 93 48 152 48c148 0 224 -85 224 -230c0 -42 -11 -83 -15 -98h-330c3 -41 33 -64 81 -64c49 0 91 32 103 47l117 -92c-17 -26 -106 -117 -250 -117c-82 0 -144 29 -182 73c-39 -41 -96 -73 -196 -73c-98 0 -181 54 -181 151c0 119 99 202 241 202
c36 0 72 -9 91 -20l3 16c4 21 -13 42 -62 42c-42 0 -88 -11 -134 -30l-51 126c61 39 156 67 235 67c73 0 123 -20 154 -48zM238 166c0 -24 24 -35 50 -35c30 0 63 14 63 45c0 24 -22 37 -50 37c-32 0 -63 -17 -63 -47zM574 331h130c2 24 -13 57 -56 57
c-46 0 -69 -37 -74 -57zM427 574l90 151h200l-135 -151h-155z" />
    <glyph glyph-name="Oslashacute" unicode="&#x1fe;" horiz-adv-x="790" 
d="M399 -13c-69 0 -128 14 -177 39l-53 -54l-87 78l51 51c-37 49 -57 121 -57 194c0 228 186 418 444 418c69 0 128 -14 176 -40l55 56l87 -78l-52 -53c38 -49 58 -121 58 -193c0 -229 -187 -418 -445 -418zM429 169c116 0 204 94 204 210c0 19 -3 41 -7 57l-254 -258
c17 -6 36 -9 57 -9zM490 531c-115 0 -204 -94 -204 -212c0 -18 3 -40 7 -55l253 257c-17 6 -35 10 -56 10zM431 727l90 151h200l-135 -151h-155z" />
    <glyph glyph-name="oslashacute" unicode="&#x1ff;" horiz-adv-x="629" 
d="M656 303c0 -179 -159 -316 -344 -316c-47 0 -90 10 -126 26l-51 -52l-74 65l46 48c-30 37 -47 93 -47 150c0 180 160 317 345 317c49 0 93 -11 130 -29l47 48l74 -65l-45 -46c29 -37 45 -91 45 -146zM256 245c0 -6 0 -14 1 -19l142 146c-7 2 -14 3 -22 3
c-66 0 -121 -54 -121 -130zM458 264c2 11 3 21 2 30l-136 -139c5 -1 10 -1 16 -1c58 0 107 43 118 110zM314 574l90 151h200l-135 -151h-155z" />
    <glyph glyph-name="Wgrave" unicode="&#x1e80;" horiz-adv-x="1026" 
d="M614 0l-33 402l-167 -402h-226l-64 700h213l15 -465l190 465h178l34 -465l171 465h213l-299 -700h-225zM676 878l40 -151h-147l-90 151h197z" />
    <glyph glyph-name="wgrave" unicode="&#x1e81;" horiz-adv-x="855" 
d="M487 0l-16 266l-103 -266h-219l-54 528h209l3 -322s2 4 119 322h180c10 -318 10 -322 10 -322l108 322h213l-231 -528h-219zM568 725l40 -151h-147l-90 151h197z" />
    <glyph glyph-name="Wacute" unicode="&#x1e82;" horiz-adv-x="1024" 
d="M614 0l-33 402l-167 -402h-226l-64 700h213l15 -465l190 465h178l34 -465l171 465h213l-299 -700h-225zM548 727l90 151h200l-135 -151h-155z" />
    <glyph glyph-name="wacute" unicode="&#x1e83;" horiz-adv-x="855" 
d="M487 0l-16 266l-103 -266h-219l-54 528h209l3 -322s2 4 119 322h180c10 -318 10 -322 10 -322l108 322h213l-231 -528h-219zM431 574l90 151h200l-135 -151h-155z" />
    <glyph glyph-name="Wdieresis" unicode="&#x1e84;" horiz-adv-x="1027" 
d="M614 0l-33 402l-167 -402h-226l-64 700h213l15 -465l190 465h178l34 -465l171 465h213l-299 -700h-225zM676 799c0 52 42 97 100 97c45 0 73 -32 73 -72c0 -52 -45 -96 -101 -96c-46 0 -72 32 -72 71zM450 800c0 51 44 96 101 96c46 0 74 -32 74 -72
c0 -52 -45 -96 -102 -96c-45 0 -73 32 -73 72z" />
    <glyph glyph-name="wdieresis" unicode="&#x1e85;" horiz-adv-x="855" 
d="M487 0l-16 266l-103 -266h-219l-54 528h209l3 -322s2 4 119 322h180c10 -318 10 -322 10 -322l108 322h213l-231 -528h-219zM563 640c0 52 42 97 100 97c45 0 73 -32 73 -72c0 -52 -45 -96 -101 -96c-46 0 -72 32 -72 71zM337 641c0 51 44 96 101 96c46 0 74 -32 74 -72
c0 -52 -45 -96 -102 -96c-45 0 -73 32 -73 72z" />
    <glyph glyph-name="Ygrave" unicode="&#x1ef2;" horiz-adv-x="644" 
d="M223 0l52 313l-152 387h218l58 -211l132 211h224l-282 -387l-52 -313h-198zM487 878l40 -151h-147l-90 151h197z" />
    <glyph glyph-name="ygrave" unicode="&#x1ef3;" horiz-adv-x="579" 
d="M283 -179h-182l104 199l-111 508h205l31 -273l126 273h205zM439 725l40 -151h-147l-90 151h197z" />
    <glyph glyph-name="Ccedilla" unicode="&#xc7;" horiz-adv-x="635" 
d="M76 297c0 225 188 416 441 416c84 0 157 -25 202 -60l-84 -174c-28 27 -72 52 -138 52c-119 0 -210 -93 -210 -209c0 -88 56 -153 149 -153c66 0 118 25 156 52l26 -174c-57 -35 -138 -60 -222 -60h-4l-6 -19c38 -11 64 -40 64 -82c0 -84 -68 -126 -154 -126
c-30 0 -65 8 -78 14l39 87c7 -2 20 -5 34 -5c24 0 37 11 37 24c0 16 -21 23 -38 23c-11 0 -20 -2 -20 -2l32 97c-144 35 -226 153 -226 299z" />
    <glyph glyph-name="ccedilla" unicode="&#xe7;" horiz-adv-x="486" 
d="M548 499l-78 -158c-27 22 -58 30 -87 30c-82 0 -129 -61 -129 -126c0 -56 40 -91 99 -91c28 0 66 10 93 28l24 -155c-45 -27 -102 -39 -158 -40l-6 -19c38 -11 64 -40 64 -82c0 -84 -68 -126 -154 -126c-30 0 -65 8 -78 14l39 87c7 -2 20 -5 34 -5c26 0 37 11 37 24
c0 16 -18 23 -38 23c-11 0 -20 -2 -20 -2l32 97c-103 29 -164 112 -164 223c0 185 160 320 345 320c62 0 115 -20 145 -42z" />
    <glyph glyph-name="Aogonek" unicode="&#x104;" horiz-adv-x="702" 
d="M479 -131c0 72 67 114 107 131h-85l-20 134h-210l-64 -134h-203l359 700h210l125 -700c-15 -4 -49 -25 -49 -56c0 -22 20 -28 38 -28l-21 -126c-17 -5 -43 -9 -72 -9c-56 0 -115 22 -115 88zM461 293l-24 201l-92 -201h116z" />
    <glyph glyph-name="aogonek" unicode="&#x105;" horiz-adv-x="551" 
d="M294 -131c0 72 67 114 107 131h-62l-6 29c-34 -30 -81 -42 -132 -42c-86 0 -161 50 -161 149c0 121 99 204 242 204c36 0 71 -9 90 -20l3 16c4 21 -16 42 -64 42c-43 0 -85 -11 -131 -30l-56 126c64 39 161 67 240 67c177 0 223 -104 202 -227l-53 -314
c-15 -4 -49 -25 -49 -56c0 -22 20 -28 38 -28l-21 -126c-17 -5 -43 -9 -72 -9c-56 0 -115 22 -115 88zM238 166c0 -24 24 -35 50 -35c30 0 63 16 63 45c0 24 -22 37 -50 37c-32 0 -63 -17 -63 -47z" />
    <glyph glyph-name="eogonek" unicode="&#x119;" horiz-adv-x="566" 
d="M178 -131c0 60 47 100 85 121c-133 16 -203 117 -203 238c0 169 133 313 315 313c148 0 223 -85 223 -230c0 -46 -10 -83 -14 -98h-330c3 -41 33 -64 81 -64c49 0 90 32 103 47l116 -92c-13 -20 -69 -80 -161 -105c-17 -6 -45 -26 -45 -55c0 -22 20 -28 38 -28l-21 -126
c-17 -5 -43 -9 -72 -9c-56 0 -115 22 -115 88zM278 331h130c2 24 -12 57 -55 57c-46 0 -69 -37 -75 -57z" />
    <glyph glyph-name="Scedilla" unicode="&#x15e;" horiz-adv-x="546" 
d="M38 157l180 82c14 -37 48 -69 84 -69c35 0 50 16 50 35c0 63 -239 73 -239 260c0 149 118 248 281 248c161 0 201 -115 211 -170l-178 -74c-9 29 -20 64 -68 64c-27 0 -44 -16 -44 -36c0 -70 243 -74 243 -253c0 -130 -92 -238 -248 -254l-7 -22c38 -11 64 -40 64 -82
c0 -84 -68 -126 -154 -126c-30 0 -65 8 -78 14l39 87c7 -2 20 -5 34 -5c24 0 37 11 37 24c0 16 -21 23 -38 23c-11 0 -20 -2 -20 -2l30 90c-127 21 -170 122 -179 166z" />
    <glyph glyph-name="scedilla" unicode="&#x15f;" horiz-adv-x="460" 
d="M22 71l124 106c27 -21 64 -37 107 -37c28 0 39 10 39 21c0 39 -206 27 -206 183c0 120 110 197 244 197c98 0 158 -44 188 -87l-141 -99c-17 17 -39 34 -73 34c-23 0 -33 -10 -33 -20c0 -47 209 -40 209 -188c0 -128 -108 -194 -252 -194c-92 0 -171 44 -206 84zM187 14
h93l-15 -46c38 -11 64 -40 64 -82c0 -84 -68 -126 -154 -126c-30 0 -65 8 -78 14l39 87c7 -2 20 -5 34 -5c24 0 37 11 37 24c0 16 -21 23 -38 23c-11 0 -20 -2 -20 -2z" />
    <glyph glyph-name="Uogonek" unicode="&#x172;" horiz-adv-x="726" 
d="M263 -131c0 59 44 98 82 119c-180 10 -268 124 -241 286l71 426h199l-71 -427c-11 -65 23 -106 88 -106s113 41 124 106l71 427h199l-71 -426c-23 -136 -96 -239 -232 -274c-15 -4 -49 -25 -49 -56c0 -22 20 -28 38 -28l-21 -126c-17 -5 -43 -9 -72 -9
c-56 0 -115 22 -115 88z" />
    <glyph glyph-name="uogonek" unicode="&#x173;" horiz-adv-x="579" 
d="M321 -131c0 72 67 114 107 131h-77l8 50c-23 -27 -77 -63 -142 -63c-125 0 -166 79 -146 201l57 340h194l-52 -311c-7 -40 14 -59 46 -59c38 0 61 26 66 56l53 314h193l-88 -528c-15 -4 -49 -25 -49 -56c0 -22 20 -28 38 -28l-21 -126c-17 -5 -43 -9 -72 -9
c-56 0 -115 22 -115 88z" />
    <glyph glyph-name="uni021B" unicode="&#x21b;" horiz-adv-x="379" 
d="M159 528l18 111h189l-18 -111h85l-26 -153h-85l-29 -173c-6 -37 32 -42 62 -42c7 0 19 1 19 1l-27 -163s-23 -6 -71 -6c-136 0 -201 66 -177 208l29 175h-50l26 153h55zM94 -131c0 58 55 106 113 106c52 0 85 -35 85 -90c0 -82 -69 -177 -155 -225l-50 69
c23 14 51 38 65 63c-41 10 -58 44 -58 77z" />
    <glyph glyph-name="uni021A" unicode="&#x21a;" horiz-adv-x="521" 
d="M161 0l88 526h-143l29 174h487l-29 -174h-145l-88 -526h-199zM132 -131c0 58 55 106 113 106c52 0 85 -35 85 -90c0 -82 -69 -177 -155 -225l-50 69c23 14 51 38 65 63c-41 10 -58 44 -58 77z" />
    </font>
</defs>
</svg>
