<?xml version="1.0" standalone="no"?>
<!DOCTYPE svg PUBLIC "-//W3C//DTD SVG 1.1//EN" "http://www.w3.org/Graphics/SVG/1.1/DTD/svg11.dtd" >
<svg xmlns="http://www.w3.org/2000/svg" xmlns:xlink="http://www.w3.org/1999/xlink" version="1.1">
<metadata>
Created by FontForge 20190801 at Fri Oct 14 21:15:33 2016
 By Jimmy Wärting
Copyright (c) 2014 by atipo. All rights reserved.
</metadata>
<defs>
<font id="Geomanist-ExtraLight" horiz-adv-x="495" >
  <font-face 
    font-family="Geomanist"
    font-weight="250"
    font-stretch="normal"
    units-per-em="1000"
    panose-1="2 0 5 3 0 0 0 2 0 4"
    ascent="750"
    descent="-250"
    x-height="516"
    cap-height="700"
    bbox="-50 -219 1050 983"
    underline-thickness="50"
    underline-position="-100"
    unicode-range="U+0020-F6C3"
  />
<missing-glyph horiz-adv-x="508" 
d="M4 0v700h500v-700h-500zM254 395l170 255h-340zM284 350l170 -255v510zM54 95l170 255l-170 255v-510zM84 50h340l-170 255z" />
    <glyph glyph-name="ellipsis" unicode="&#x2e;&#x2e;&#x2e;" horiz-adv-x="600" 
d="M62 17c0 16 12 30 30 30s30 -14 30 -30s-12 -30 -30 -30s-30 14 -30 30zM270 17c0 16 12 30 30 30s30 -14 30 -30s-12 -30 -30 -30s-30 14 -30 30zM478 17c0 16 12 30 30 30s30 -14 30 -30s-12 -30 -30 -30s-30 14 -30 30z" />
    <glyph glyph-name=".notdef" horiz-adv-x="508" 
d="M4 0v700h500v-700h-500zM254 395l170 255h-340zM284 350l170 -255v510zM54 95l170 255l-170 255v-510zM84 50h340l-170 255z" />
    <glyph glyph-name="exclam" unicode="!" horiz-adv-x="228" 
d="M103 155l-2 545h25l-2 -545h-21zM84 17c0 16 12 30 30 30s30 -14 30 -30s-12 -30 -30 -30s-30 14 -30 30z" />
    <glyph glyph-name="quotedbl" unicode="&#x22;" horiz-adv-x="232" 
d="M59 539l-6 161h31l-6 -161h-19zM153 539l-6 161h31l-6 -161h-19z" />
    <glyph glyph-name="numbersign" unicode="#" horiz-adv-x="638" 
d="M337 0l44 211h-183l-44 -211h-23l44 211h-134l5 23h134l49 235h-136l5 23h136l43 208h23l-44 -208h184l43 208h23l-44 -208h134l-4 -23h-135l-48 -235h135l-4 -23h-136l-44 -211h-23zM251 469l-48 -235h183l49 235h-184z" />
    <glyph glyph-name="dollar" unicode="$" horiz-adv-x="493" 
d="M233 -86v74c-113 6 -165 73 -188 145l24 5c19 -59 68 -127 183 -127c93 0 166 63 166 156c0 219 -351 164 -351 383c0 81 58 156 166 162v54h25v-53c105 -4 151 -75 171 -116l-23 -9c-18 39 -61 101 -158 101c-99 0 -155 -62 -155 -139c0 -196 351 -145 351 -382
c0 -98 -73 -178 -186 -181v-73h-25z" />
    <glyph glyph-name="percent" unicode="%" horiz-adv-x="714" 
d="M72 0l537 700h33l-537 -700h-33zM80 571c0 -65 46 -117 112 -117s112 52 112 117s-46 117 -112 117s-112 -52 -112 -117zM54 571c0 78 57 142 138 142s138 -64 138 -142s-57 -142 -138 -142s-138 64 -138 142zM410 129c0 -65 46 -117 112 -117s112 52 112 117
s-46 117 -112 117s-112 -52 -112 -117zM384 129c0 78 57 142 138 142s138 -64 138 -142s-57 -142 -138 -142s-138 64 -138 142z" />
    <glyph glyph-name="ampersand" unicode="&#x26;" horiz-adv-x="602" 
d="M573 1l-84 79c-47 -52 -113 -93 -213 -93c-136 0 -230 83 -230 200c0 88 54 151 130 185c-48 48 -93 98 -93 175c0 80 57 166 179 166c111 0 180 -65 180 -166c0 -91 -67 -155 -187 -214l231 -216c35 53 45 117 45 200h24c0 -85 -10 -149 -50 -215l86 -81zM276 11
c89 0 152 37 196 86l-275 257c-64 -24 -125 -78 -125 -167c0 -107 95 -176 204 -176zM109 547c0 -80 64 -141 128 -196c95 44 179 103 179 196c0 83 -62 142 -154 142s-153 -59 -153 -142z" />
    <glyph glyph-name="quotesingle" unicode="'" horiz-adv-x="138" 
d="M59 539l-6 161h31l-6 -161h-19z" />
    <glyph glyph-name="parenleft" unicode="(" horiz-adv-x="268" 
d="M87 -30v654c0 84 45 113 94 113h13v-25h-14c-45 0 -67 -34 -67 -90v-650c0 -56 22 -90 67 -90h14v-25h-13c-49 0 -94 29 -94 113z" />
    <glyph glyph-name="parenright" unicode=")" horiz-adv-x="268" 
d="M181 624v-654c0 -84 -45 -113 -94 -113h-13v25h14c45 0 67 34 67 90v650c0 56 -22 90 -67 90h-14v25h13c49 0 94 -29 94 -113z" />
    <glyph glyph-name="asterisk" unicode="*" horiz-adv-x="422" 
d="M199 557v140h24v-140l117 71l13 -21l-121 -72l121 -76l-13 -21l-117 77v-146h-24v146l-117 -77l-13 21l121 76l-121 72l13 21z" />
    <glyph glyph-name="plus" unicode="+" horiz-adv-x="550" 
d="M506 300h-218v-235h-25v235h-220v23h220v235h25v-235h218v-23z" />
    <glyph glyph-name="comma" unicode="," horiz-adv-x="182" 
d="M62 17c0 16 13 30 29 30c20 0 31 -16 31 -33c0 -48 -23 -80 -47 -104l-17 16c11 11 31 34 35 61c-16 0 -31 12 -31 30z" />
    <glyph glyph-name="hyphen" unicode="-" horiz-adv-x="310" 
d="M271 287h-233v23h233v-23z" />
    <glyph glyph-name="period" unicode="." horiz-adv-x="184" 
d="M62 17c0 16 12 30 30 30s30 -14 30 -30s-12 -30 -30 -30s-30 14 -30 30z" />
    <glyph glyph-name="slash" unicode="/" horiz-adv-x="402" 
d="M35 -108l305 858h27l-305 -858h-27z" />
    <glyph glyph-name="zero" unicode="0" horiz-adv-x="535" 
d="M267 12c172 0 186 161 186 338c0 179 -14 338 -186 338s-186 -161 -186 -338c0 -179 14 -338 186 -338zM267 -13c-175 0 -212 142 -212 363c0 222 37 363 212 363s212 -142 212 -363c0 -222 -37 -363 -212 -363z" />
    <glyph glyph-name="one" unicode="1" horiz-adv-x="283" 
d="M66 629l-10 23l112 48h19v-700h-25v671z" />
    <glyph glyph-name="two" unicode="2" horiz-adv-x="482" 
d="M46 0v14c0 188 355 291 355 512c0 89 -59 162 -163 162c-99 0 -145 -68 -161 -135l-23 7c7 48 56 153 183 153c130 0 190 -90 190 -187c0 -226 -355 -347 -355 -502h367v-24h-393z" />
    <glyph glyph-name="three" unicode="3" horiz-adv-x="511" 
d="M435 700v-26l-217 -277h19c122 0 218 -67 218 -206c0 -110 -88 -204 -206 -204c-128 0 -186 74 -207 139l22 8c26 -66 77 -122 185 -122c100 0 180 75 180 179c0 108 -69 181 -192 181h-51v22l218 281h-341v25h372z" />
    <glyph glyph-name="four" unicode="4" horiz-adv-x="534" 
d="M35 190v23l343 487h19v-486h100v-24h-100v-190h-25v190h-337zM64 214h308v436z" />
    <glyph glyph-name="five" unicode="5" horiz-adv-x="506" 
d="M242 13c113 0 181 90 181 197c0 112 -71 199 -181 199c-67 0 -113 -27 -147 -61l-20 7l13 345h322v-23h-300l-12 -296c21 18 70 52 144 52c126 0 207 -99 207 -223c0 -120 -81 -222 -207 -222c-116 0 -175 71 -199 140l22 8c24 -67 73 -123 177 -123z" />
    <glyph glyph-name="six" unicode="6" horiz-adv-x="532" 
d="M269 12c101 0 179 71 179 212c0 106 -62 194 -179 194c-89 0 -152 -59 -186 -133c0 -138 34 -273 186 -273zM289 713c70 0 123 -30 154 -54l-16 -18c-29 21 -75 47 -138 47c-162 0 -206 -181 -206 -358c29 51 92 113 186 113c143 0 205 -107 205 -221
c0 -145 -76 -235 -205 -235c-171 0 -212 153 -212 301c0 284 75 425 232 425z" />
    <glyph glyph-name="seven" unicode="7" horiz-adv-x="459" 
d="M33 700h400v-25l-263 -675h-26l264 675h-375v25z" />
    <glyph glyph-name="eight" unicode="8" horiz-adv-x="536" 
d="M268 -13c-122 0 -214 84 -214 200c0 124 89 177 145 190c-39 14 -115 66 -115 162c0 107 83 174 184 174s184 -67 184 -174c0 -96 -76 -148 -115 -162c56 -13 145 -66 145 -190c0 -116 -92 -200 -214 -200zM268 363c-102 0 -188 -62 -188 -176c0 -89 67 -175 188 -175
s188 86 188 175c0 114 -86 176 -188 176zM268 388c89 0 159 70 159 151c0 80 -56 150 -159 150s-159 -70 -159 -150c0 -81 70 -151 159 -151z" />
    <glyph glyph-name="nine" unicode="9" horiz-adv-x="532" 
d="M262 688c-101 0 -179 -71 -179 -212c0 -106 62 -194 179 -194c89 0 152 59 186 133c0 138 -34 273 -186 273zM242 -13c-70 0 -123 30 -154 54l14 20c29 -21 77 -49 140 -49c168 0 206 181 206 358c-29 -51 -92 -113 -186 -113c-143 0 -205 107 -205 221
c0 151 87 235 205 235c171 0 212 -153 212 -301c0 -284 -69 -425 -232 -425z" />
    <glyph glyph-name="colon" unicode=":" horiz-adv-x="182" 
d="M62 17c0 16 12 30 30 30s30 -14 30 -30s-12 -30 -30 -30s-30 14 -30 30zM62 434c0 16 12 30 30 30s30 -14 30 -30s-12 -30 -30 -30s-30 14 -30 30z" />
    <glyph glyph-name="semicolon" unicode=";" horiz-adv-x="182" 
d="M62 434c0 16 12 30 30 30s30 -14 30 -30s-12 -30 -30 -30s-30 14 -30 30zM62 17c0 16 13 30 29 30c20 0 31 -16 31 -33c0 -48 -23 -80 -47 -104l-17 16c11 11 31 34 35 61c-16 0 -31 12 -31 30z" />
    <glyph glyph-name="less" unicode="&#x3c;" horiz-adv-x="480" 
d="M42 299v28l396 183v-25l-376 -172l376 -172v-25z" />
    <glyph glyph-name="equal" unicode="=" horiz-adv-x="550" 
d="M506 370h-463v23h463v-23zM506 222h-463v23h463v-23z" />
    <glyph glyph-name="greater" unicode="&#x3e;" horiz-adv-x="480" 
d="M438 327v-28l-396 -183v25l376 172l-376 172v25z" />
    <glyph glyph-name="question" unicode="?" horiz-adv-x="454" 
d="M188 155v45c0 132 190 170 190 333c0 89 -62 155 -156 155c-88 0 -132 -58 -152 -101l-21 10c23 50 77 116 173 116c115 0 182 -82 182 -180c0 -176 -191 -211 -191 -333v-45h-25zM174 17c0 16 12 30 30 30s30 -14 30 -30s-12 -30 -30 -30s-30 14 -30 30z" />
    <glyph glyph-name="at" unicode="@" horiz-adv-x="878" 
d="M258 262c0 116 81 194 183 194c86 0 132 -49 152 -85v79h25v-272c0 -56 28 -92 79 -92c56 0 106 50 106 211c0 185 -137 349 -362 349c-214 0 -366 -166 -366 -382c0 -221 162 -381 366 -381c66 0 135 11 191 39l11 -19c-33 -19 -107 -45 -202 -45
c-218 0 -391 172 -391 407c0 236 165 406 391 406c248 0 386 -177 386 -374c0 -173 -57 -235 -131 -235c-64 0 -97 49 -101 99c-10 -35 -63 -99 -154 -99c-100 0 -183 79 -183 200zM283 262c0 -103 72 -175 158 -175c88 0 154 60 154 175c0 102 -60 169 -154 169
c-84 0 -158 -64 -158 -169z" />
    <glyph glyph-name="A" unicode="A" horiz-adv-x="604" 
d="M457 265h-310l-102 -265h-28l273 700h24l273 -700h-28zM448 289l-146 376l-146 -376h292z" />
    <glyph glyph-name="B" unicode="B" horiz-adv-x="518" 
d="M90 0v700h180c107 0 175 -81 175 -170c0 -76 -48 -141 -112 -163c75 -20 136 -83 136 -176c0 -96 -74 -191 -200 -191h-179zM116 378h154c80 0 148 60 148 152c0 83 -66 145 -148 145h-154v-297zM116 25h158c95 0 168 68 168 166c0 94 -77 163 -180 163h-146v-329z" />
    <glyph glyph-name="C" unicode="C" horiz-adv-x="672" 
d="M618 104l13 -23c-25 -22 -109 -94 -240 -94c-193 0 -346 156 -346 363s159 363 346 363c117 0 190 -53 222 -81l-11 -24c-22 20 -96 79 -211 79c-170 0 -319 -141 -319 -337s146 -337 319 -337c118 0 202 68 227 91z" />
    <glyph glyph-name="D" unicode="D" horiz-adv-x="620" 
d="M90 0v700h124c222 0 361 -131 361 -350c0 -231 -139 -350 -361 -350h-124zM116 25h98c200 0 334 108 334 325c0 206 -134 325 -334 325h-98v-650z" />
    <glyph glyph-name="E" unicode="E" horiz-adv-x="468" 
d="M90 0v700h307v-25h-281v-304h248v-25h-248v-321h293v-25h-319z" />
    <glyph glyph-name="F" unicode="F" horiz-adv-x="465" 
d="M90 0v700h308v-25h-282v-308h247v-25h-247v-342h-26z" />
    <glyph glyph-name="G" unicode="G" horiz-adv-x="726" 
d="M392 713c128 0 203 -56 239 -89l-17 -20c-39 37 -109 83 -222 83c-183 0 -320 -143 -320 -337c0 -193 138 -337 320 -337c132 0 214 70 238 97v193h-179v25h204v-229c-70 -76 -154 -112 -263 -112c-203 0 -347 159 -347 363c0 209 151 363 347 363z" />
    <glyph glyph-name="H" unicode="H" horiz-adv-x="679" 
d="M90 0v700h26v-329h447v329h26v-700h-26v347h-447v-347h-26z" />
    <glyph glyph-name="I" unicode="I" horiz-adv-x="206" 
d="M90 0v700h26v-700h-26z" />
    <glyph glyph-name="J" unicode="J" horiz-adv-x="319" 
d="M24 4l3 22c21 -5 46 -9 73 -9c62 0 103 31 103 124v559h26v-559c0 -89 -37 -147 -129 -147c-34 0 -67 7 -76 10z" />
    <glyph glyph-name="K" unicode="K" horiz-adv-x="520" 
d="M90 0v700h26v-330l330 330h35l-334 -335l349 -365h-33l-347 359v-359h-26z" />
    <glyph glyph-name="L" unicode="L" horiz-adv-x="443" 
d="M90 0v700h26v-675h293v-25h-319z" />
    <glyph glyph-name="M" unicode="M" horiz-adv-x="840" 
d="M437 69h-34l-288 589v-658h-25v700h31l299 -605l299 605h31v-700h-25v658z" />
    <glyph glyph-name="N" unicode="N" horiz-adv-x="696" 
d="M90 0v700h24l467 -653v653h25v-700h-25l-466 656v-656h-25z" />
    <glyph glyph-name="O" unicode="O" horiz-adv-x="790" 
d="M395 -13c-192 0 -350 153 -350 363c0 208 157 363 350 363s350 -155 350 -363c0 -210 -158 -363 -350 -363zM395 687c-182 0 -323 -144 -323 -337c0 -196 141 -337 323 -337s323 141 323 337c0 193 -141 337 -323 337z" />
    <glyph glyph-name="P" unicode="P" horiz-adv-x="477" 
d="M90 0v700h161c109 0 192 -68 192 -188s-82 -188 -192 -188h-135v-324h-26zM116 349h133c97 0 167 61 167 163c0 101 -65 163 -167 163h-133v-326z" />
    <glyph glyph-name="Q" unicode="Q" horiz-adv-x="791" 
d="M395 -13c-192 0 -350 153 -350 363c0 208 157 363 350 363s350 -155 350 -363c0 -109 -42 -201 -109 -266l80 -82l-16 -17l-81 83c-61 -52 -139 -81 -224 -81zM395 687c-182 0 -323 -144 -323 -337c0 -196 141 -337 323 -337c80 0 151 26 206 73l-82 85l17 17l83 -86
c61 60 99 146 99 248c0 193 -141 337 -323 337z" />
    <glyph glyph-name="R" unicode="R" horiz-adv-x="512" 
d="M90 0v700h155c113 0 193 -73 193 -180c0 -103 -66 -159 -141 -179l186 -341h-29l-182 336s-27 -3 -53 -3h-103v-333h-26zM116 358h114c115 0 181 69 181 162c0 84 -60 155 -166 155h-129v-317z" />
    <glyph glyph-name="S" unicode="S" horiz-adv-x="493" 
d="M45 132l26 7c19 -59 66 -126 181 -126c93 0 165 61 165 154c0 219 -350 164 -350 383c0 85 64 163 181 163c112 0 161 -73 181 -116l-24 -10c-18 39 -62 100 -157 100c-99 0 -155 -60 -155 -137c0 -195 351 -143 351 -382c0 -99 -75 -181 -192 -181
c-126 0 -182 69 -207 145z" />
    <glyph glyph-name="T" unicode="T" 
d="M235 0v675h-212v25h448v-25h-211v-675h-25z" />
    <glyph glyph-name="U" unicode="U" horiz-adv-x="664" 
d="M332 -13c-156 0 -248 99 -248 254v459h26v-458c0 -141 77 -229 222 -229s222 88 222 229v458h26v-459c0 -155 -92 -254 -248 -254z" />
    <glyph glyph-name="V" unicode="V" horiz-adv-x="598" 
d="M312 0h-26l-274 700h29l258 -669l258 669h29z" />
    <glyph glyph-name="W" unicode="W" horiz-adv-x="912" 
d="M661 0l-205 667l-205 -667h-27l-210 700h27l196 -660l201 660h36l201 -660l196 660h27l-210 -700h-27z" />
    <glyph glyph-name="X" unicode="X" horiz-adv-x="566" 
d="M518 0l-235 348l-235 -348h-30l248 368l-222 332h29l210 -313l210 313h29l-222 -332l248 -368h-30z" />
    <glyph glyph-name="Y" unicode="Y" horiz-adv-x="486" 
d="M230 0v337l-218 363h29l202 -338l202 338h29l-218 -363v-337h-26z" />
    <glyph glyph-name="Z" unicode="Z" horiz-adv-x="586" 
d="M38 0v25l473 650h-457v25h487v-25l-472 -650h474v-25h-505z" />
    <glyph glyph-name="bracketleft" unicode="[" horiz-adv-x="268" 
d="M87 -143v880h107v-25h-81v-830h81v-25h-107z" />
    <glyph glyph-name="backslash" unicode="\" horiz-adv-x="402" 
d="M62 750l305 -858h-27l-305 858h27z" />
    <glyph glyph-name="bracketright" unicode="]" horiz-adv-x="262" 
d="M181 737v-880h-107v25h81v830h-81v25h107z" />
    <glyph glyph-name="asciicircum" unicode="^" horiz-adv-x="492" 
d="M416 318l-170 355l-170 -355h-25l185 382h20l185 -382h-25z" />
    <glyph glyph-name="underscore" unicode="_" horiz-adv-x="600" 
d="M558 -53h-516v23h516v-23z" />
    <glyph glyph-name="grave" unicode="`" 
d="M227 723l74 -140h-26l-82 140h34z" />
    <glyph glyph-name="a" unicode="a" 
d="M43 158c0 93 81 165 193 165c84 0 138 -40 164 -79v111c0 99 -63 149 -155 149c-73 0 -126 -26 -165 -50l-13 22c29 17 98 53 177 53c119 0 181 -69 181 -175v-354h-20l-5 72c-24 -40 -77 -85 -164 -85c-117 0 -193 75 -193 171zM69 157c0 -76 63 -145 167 -145
c99 0 167 65 167 145c0 82 -73 141 -167 141c-102 0 -167 -64 -167 -141z" />
    <glyph glyph-name="b" unicode="b" horiz-adv-x="606" 
d="M106 125v-125h-25v723h25v-332c22 54 92 138 215 138c143 0 243 -111 243 -271s-100 -271 -243 -271c-123 0 -193 84 -215 138zM105 258c0 -165 107 -246 216 -246c122 0 217 101 217 246s-95 246 -217 246c-109 0 -216 -81 -216 -246z" />
    <glyph glyph-name="c" unicode="c" horiz-adv-x="533" 
d="M495 443l-15 -22c-24 27 -78 82 -177 82c-127 0 -234 -106 -234 -245c0 -134 109 -245 234 -245c108 0 162 64 181 89l12 -24c-13 -20 -76 -91 -193 -91c-147 0 -261 120 -261 271c0 150 115 271 261 271c109 0 170 -60 192 -86z" />
    <glyph glyph-name="d" unicode="d" horiz-adv-x="606" 
d="M500 0v125c-22 -54 -92 -138 -215 -138c-143 0 -243 111 -243 271s100 271 243 271c123 0 193 -84 215 -138v332h25v-723h-25zM501 258c0 165 -107 246 -216 246c-122 0 -217 -101 -217 -246s95 -246 217 -246c109 0 216 81 216 246z" />
    <glyph glyph-name="e" unicode="e" horiz-adv-x="570" 
d="M41 257c0 174 119 272 247 272c149 0 243 -110 243 -253v-18h-464c0 -157 98 -246 235 -246c100 0 156 51 191 99l19 -13c-37 -57 -103 -111 -210 -111c-157 0 -261 107 -261 270zM68 282h437c-7 148 -110 222 -217 222c-106 0 -209 -80 -220 -222z" />
    <glyph glyph-name="f" unicode="f" horiz-adv-x="265" 
d="M91 0v493h-61v23h61v36c0 127 64 164 133 164c13 0 24 -2 24 -2v-25s-13 2 -26 2c-67 0 -106 -40 -106 -137v-38h129v-23h-129v-493h-25z" />
    <glyph glyph-name="g" unicode="g" horiz-adv-x="599" 
d="M499 391v125h25v-456c0 -177 -93 -251 -240 -251c-67 0 -137 25 -185 56l14 22c27 -17 94 -52 171 -52c132 0 215 73 215 222v68c-22 -54 -92 -138 -215 -138c-143 0 -243 111 -243 271s100 271 243 271c123 0 193 -84 215 -138zM500 258c0 165 -107 246 -216 246
c-122 0 -217 -101 -217 -246s95 -246 217 -246c109 0 216 81 216 246z" />
    <glyph glyph-name="h" unicode="h" horiz-adv-x="542" 
d="M278 529c95 0 189 -62 189 -182v-347h-25v337c0 105 -73 167 -164 167c-98 0 -172 -73 -172 -186v-318h-25v723h25v-300c28 64 95 106 172 106z" />
    <glyph glyph-name="i" unicode="i" horiz-adv-x="187" 
d="M81 0v516h25v-516h-25zM64 660c0 16 13 29 30 29s30 -13 30 -29c0 -17 -13 -30 -30 -30s-30 13 -30 30z" />
    <glyph glyph-name="j" unicode="j" horiz-adv-x="187" 
d="M81 -28v544h25v-541c0 -126 -56 -165 -127 -165c-9 0 -21 1 -21 1v25s12 -1 22 -1c66 0 101 41 101 137zM64 660c0 16 13 29 30 29s30 -13 30 -29c0 -17 -13 -30 -30 -30s-30 13 -30 30z" />
    <glyph glyph-name="k" unicode="k" horiz-adv-x="428" 
d="M81 0v723h25v-431l263 224h38l-272 -229l285 -287h-38l-276 281v-281h-25z" />
    <glyph glyph-name="l" unicode="l" horiz-adv-x="187" 
d="M81 0v723h25v-723h-25z" />
    <glyph glyph-name="m" unicode="m" horiz-adv-x="866" 
d="M790 344v-344h-25v334c0 105 -54 170 -155 170c-91 0 -162 -59 -162 -187v-317h-25v342c0 106 -64 162 -156 162c-90 0 -161 -74 -161 -187v-317h-25v516h25v-93c22 56 87 106 161 106c94 0 152 -56 172 -118c23 69 89 118 171 118c114 0 180 -76 180 -185z" />
    <glyph glyph-name="n" unicode="n" horiz-adv-x="537" 
d="M275 529c95 0 186 -62 186 -182v-347h-25v337c0 105 -70 167 -161 167c-98 0 -169 -73 -169 -186v-318h-25v516h25v-93c28 64 92 106 169 106z" />
    <glyph glyph-name="o" unicode="o" horiz-adv-x="608" 
d="M304 12c138 0 236 109 236 246s-98 246 -236 246s-236 -109 -236 -246s98 -246 236 -246zM304 529c150 0 262 -117 262 -271s-112 -271 -262 -271s-262 117 -262 271s112 271 262 271z" />
    <glyph glyph-name="p" unicode="p" horiz-adv-x="606" 
d="M106 516v-125c22 54 92 138 215 138c143 0 243 -111 243 -271s-100 -271 -243 -271c-123 0 -193 84 -215 138v-312h-25v703h25zM105 258c0 -165 107 -246 216 -246c122 0 217 101 217 246s-95 246 -217 246c-109 0 -216 -81 -216 -246z" />
    <glyph glyph-name="q" unicode="q" horiz-adv-x="606" 
d="M500 391v125h25v-703h-25v312c-22 -54 -92 -138 -215 -138c-143 0 -243 111 -243 271s100 271 243 271c123 0 193 -84 215 -138zM501 258c0 165 -107 246 -216 246c-122 0 -217 -101 -217 -246s95 -246 217 -246c109 0 216 81 216 246z" />
    <glyph glyph-name="r" unicode="r" horiz-adv-x="301" 
d="M271 529v-26c-127 0 -165 -108 -165 -230v-273h-25v516h25v-109c17 69 77 122 165 122z" />
    <glyph glyph-name="s" unicode="s" horiz-adv-x="402" 
d="M39 110l25 6c13 -51 53 -104 144 -104c65 0 127 44 127 117c0 156 -274 108 -274 275c0 77 61 125 141 125c93 0 138 -61 148 -101l-23 -7c-12 36 -44 83 -125 83c-64 0 -115 -37 -115 -100c0 -143 274 -96 274 -275c0 -83 -65 -142 -153 -142c-109 0 -155 68 -169 123z
" />
    <glyph glyph-name="t" unicode="t" horiz-adv-x="271" 
d="M85 516v108h26v-108h129v-23h-129v-317c0 -109 23 -157 110 -157c7 0 17 1 24 2v-24s-10 -3 -35 -3c-82 0 -125 56 -125 160v339h-66v23h66z" />
    <glyph glyph-name="u" unicode="u" horiz-adv-x="530" 
d="M261 -13c-95 0 -186 62 -186 182v347h25v-337c0 -105 70 -167 161 -167c98 0 169 73 169 186v318h25v-516h-25v93c-28 -64 -92 -106 -169 -106z" />
    <glyph glyph-name="v" unicode="v" horiz-adv-x="460" 
d="M36 516l196 -478l196 478h28l-213 -516h-22l-213 516h28z" />
    <glyph glyph-name="w" unicode="w" horiz-adv-x="805" 
d="M580 0l-177 485l-178 -485h-25l-193 516h28l176 -479s0 1 176 479h31c176 -478 176 -479 176 -479l176 479h28l-193 -516h-25z" />
    <glyph glyph-name="x" unicode="x" horiz-adv-x="452" 
d="M410 0l-184 250l-184 -250h-31l200 271l-181 245h31l165 -224l165 224h31l-181 -245l200 -271h-31z" />
    <glyph glyph-name="y" unicode="y" horiz-adv-x="480" 
d="M181 -179h-29l77 177l-222 518h28l208 -488l202 488h28z" />
    <glyph glyph-name="z" unicode="z" horiz-adv-x="458" 
d="M35 0v24l346 468h-333v24h365v-24l-346 -468h352v-24h-384z" />
    <glyph glyph-name="braceleft" unicode="{" horiz-adv-x="297" 
d="M86 297c16 -8 56 -28 56 -117v-208c0 -56 22 -90 67 -90h14v-25h-13c-49 0 -94 29 -94 113v210c0 72 -23 105 -73 105v24c50 0 73 33 73 105v210c0 84 45 113 94 113h13v-25h-14c-45 0 -67 -34 -67 -90v-208c0 -89 -40 -109 -56 -117z" />
    <glyph glyph-name="bar" unicode="|" horiz-adv-x="224" 
d="M99 -185v942h26v-942h-26z" />
    <glyph glyph-name="braceright" unicode="}" horiz-adv-x="297" 
d="M211 297c-16 8 -56 28 -56 117v208c0 56 -22 90 -67 90h-14v25h13c49 0 94 -29 94 -113v-210c0 -72 23 -105 73 -105v-24c-50 0 -73 -33 -73 -105v-210c0 -84 -45 -113 -94 -113h-13v25h14c45 0 67 34 67 90v208c0 89 40 109 56 117z" />
    <glyph glyph-name="asciitilde" unicode="~" horiz-adv-x="528" 
d="M369 274c55 0 79 41 80 83h25c0 -55 -37 -107 -105 -107c-86 0 -131 86 -210 86c-55 0 -79 -41 -80 -83h-25c0 55 37 107 105 107c91 0 129 -86 210 -86z" />
    <glyph glyph-name="Adieresis" unicode="&#xc4;" horiz-adv-x="604" 
d="M457 265h-310l-102 -265h-28l273 700h24l273 -700h-28zM448 289l-146 376l-146 -376h292zM191 812c0 19 15 33 33 33s33 -14 33 -33s-15 -33 -33 -33s-33 14 -33 33zM349 812c0 19 15 33 33 33s33 -14 33 -33s-15 -33 -33 -33s-33 14 -33 33z" />
    <glyph glyph-name="Aring" unicode="&#xc5;" horiz-adv-x="604" 
d="M457 265h-310l-102 -265h-28l273 700h24l273 -700h-28zM448 289l-146 376l-146 -376h292zM256 823c0 -27 17 -49 47 -49s47 22 47 49s-17 49 -47 49s-47 -22 -47 -49zM231 823c0 44 31 73 72 73s72 -29 72 -73s-31 -73 -72 -73s-72 29 -72 73z" />
    <glyph glyph-name="Ccedilla" unicode="&#xc7;" horiz-adv-x="672" 
d="M618 104l13 -23c-25 -22 -109 -94 -240 -94c-6 0 -11 1 -16 1l-8 -54c53 -4 85 -30 85 -71c0 -63 -49 -82 -100 -82c-14 0 -28 2 -28 2l3 23c8 -1 18 -2 28 -2c37 0 71 14 71 56c0 34 -27 52 -71 52h-12l8 77c-174 19 -306 168 -306 361c0 207 159 363 346 363
c117 0 190 -53 222 -81l-11 -24c-22 20 -96 79 -211 79c-170 0 -319 -141 -319 -337s146 -337 319 -337c118 0 202 68 227 91z" />
    <glyph glyph-name="Eacute" unicode="&#xc9;" horiz-adv-x="468" 
d="M90 0v700h307v-25h-281v-304h248v-25h-248v-321h293v-25h-319zM228 748l74 140h34l-82 -140h-26z" />
    <glyph glyph-name="Ntilde" unicode="&#xd1;" horiz-adv-x="696" 
d="M90 0v700h24l467 -653v653h25v-700h-25l-466 656v-656h-25zM420 798c26 0 47 21 47 52h25c0 -48 -32 -77 -75 -77c-53 0 -82 53 -130 53c-26 0 -47 -21 -47 -52h-25c0 48 32 77 75 77c53 0 82 -53 130 -53z" />
    <glyph glyph-name="Odieresis" unicode="&#xd6;" horiz-adv-x="790" 
d="M395 -13c-192 0 -350 153 -350 363c0 208 157 363 350 363s350 -155 350 -363c0 -210 -158 -363 -350 -363zM395 687c-182 0 -323 -144 -323 -337c0 -196 141 -337 323 -337s323 141 323 337c0 193 -141 337 -323 337zM285 812c0 19 15 33 33 33s33 -14 33 -33
s-15 -33 -33 -33s-33 14 -33 33zM443 812c0 19 15 33 33 33s33 -14 33 -33s-15 -33 -33 -33s-33 14 -33 33z" />
    <glyph glyph-name="Udieresis" unicode="&#xdc;" horiz-adv-x="664" 
d="M332 -13c-156 0 -248 99 -248 254v459h26v-458c0 -141 77 -229 222 -229s222 88 222 229v458h26v-459c0 -155 -92 -254 -248 -254zM221 812c0 19 15 33 33 33s33 -14 33 -33s-15 -33 -33 -33s-33 14 -33 33zM379 812c0 19 15 33 33 33s33 -14 33 -33s-15 -33 -33 -33
s-33 14 -33 33z" />
    <glyph glyph-name="aacute" unicode="&#xe1;" 
d="M43 158c0 93 81 165 193 165c84 0 138 -40 164 -79v111c0 99 -63 149 -155 149c-73 0 -126 -26 -165 -50l-13 22c29 17 98 53 177 53c119 0 181 -69 181 -175v-354h-20l-5 72c-24 -40 -77 -85 -164 -85c-117 0 -193 75 -193 171zM69 157c0 -76 63 -145 167 -145
c99 0 167 65 167 145c0 82 -73 141 -167 141c-102 0 -167 -64 -167 -141zM218 583l74 140h34l-82 -140h-26z" />
    <glyph glyph-name="agrave" unicode="&#xe0;" 
d="M43 158c0 93 81 165 193 165c84 0 138 -40 164 -79v111c0 99 -63 149 -155 149c-73 0 -126 -26 -165 -50l-13 22c29 17 98 53 177 53c119 0 181 -69 181 -175v-354h-20l-5 72c-24 -40 -77 -85 -164 -85c-117 0 -193 75 -193 171zM69 157c0 -76 63 -145 167 -145
c99 0 167 65 167 145c0 82 -73 141 -167 141c-102 0 -167 -64 -167 -141zM202 723l74 -140h-26l-82 140h34z" />
    <glyph glyph-name="acircumflex" unicode="&#xe2;" 
d="M43 158c0 93 81 165 193 165c84 0 138 -40 164 -79v111c0 99 -63 149 -155 149c-73 0 -126 -26 -165 -50l-13 22c29 17 98 53 177 53c119 0 181 -69 181 -175v-354h-20l-5 72c-24 -40 -77 -85 -164 -85c-117 0 -193 75 -193 171zM69 157c0 -76 63 -145 167 -145
c99 0 167 65 167 145c0 82 -73 141 -167 141c-102 0 -167 -64 -167 -141zM250 699l-81 -96h-27l94 121h28l94 -121h-27z" />
    <glyph glyph-name="adieresis" unicode="&#xe4;" 
d="M43 158c0 93 81 165 193 165c84 0 138 -40 164 -79v111c0 99 -63 149 -155 149c-73 0 -126 -26 -165 -50l-13 22c29 17 98 53 177 53c119 0 181 -69 181 -175v-354h-20l-5 72c-24 -40 -77 -85 -164 -85c-117 0 -193 75 -193 171zM69 157c0 -76 63 -145 167 -145
c99 0 167 65 167 145c0 82 -73 141 -167 141c-102 0 -167 -64 -167 -141zM138 653c0 19 15 33 33 33s33 -14 33 -33s-15 -33 -33 -33s-33 14 -33 33zM296 653c0 19 15 33 33 33s33 -14 33 -33s-15 -33 -33 -33s-33 14 -33 33z" />
    <glyph glyph-name="atilde" unicode="&#xe3;" 
d="M43 158c0 93 81 165 193 165c84 0 138 -40 164 -79v111c0 99 -63 149 -155 149c-73 0 -126 -26 -165 -50l-13 22c29 17 98 53 177 53c119 0 181 -69 181 -175v-354h-20l-5 72c-24 -40 -77 -85 -164 -85c-117 0 -193 75 -193 171zM69 157c0 -76 63 -145 167 -145
c99 0 167 65 167 145c0 82 -73 141 -167 141c-102 0 -167 -64 -167 -141zM315 641c26 0 47 21 47 52h25c0 -48 -32 -77 -75 -77c-53 0 -82 53 -130 53c-26 0 -47 -21 -47 -52h-25c0 48 32 77 75 77c53 0 82 -53 130 -53z" />
    <glyph glyph-name="aring" unicode="&#xe5;" 
d="M43 158c0 93 81 165 193 165c84 0 138 -40 164 -79v111c0 99 -63 149 -155 149c-73 0 -126 -26 -165 -50l-13 22c29 17 98 53 177 53c119 0 181 -69 181 -175v-354h-20l-5 72c-24 -40 -77 -85 -164 -85c-117 0 -193 75 -193 171zM69 157c0 -76 63 -145 167 -145
c99 0 167 65 167 145c0 82 -73 141 -167 141c-102 0 -167 -64 -167 -141zM206 664c0 -27 17 -49 47 -49s47 22 47 49s-17 49 -47 49s-47 -22 -47 -49zM181 664c0 44 31 73 72 73s72 -29 72 -73s-31 -73 -72 -73s-72 29 -72 73z" />
    <glyph glyph-name="ccedilla" unicode="&#xe7;" horiz-adv-x="533" 
d="M495 443l-15 -22c-24 27 -78 82 -177 82c-127 0 -234 -106 -234 -245c0 -134 109 -245 234 -245c108 0 162 64 181 89l12 -24c-13 -20 -76 -91 -193 -91h-11l-8 -53c53 -4 85 -30 85 -71c0 -63 -49 -82 -100 -82c-14 0 -28 2 -28 2l3 23c8 -1 18 -2 28 -2
c37 0 71 14 71 56c0 34 -27 52 -71 52h-12l9 77c-130 17 -227 130 -227 269c0 150 115 271 261 271c109 0 170 -60 192 -86z" />
    <glyph glyph-name="eacute" unicode="&#xe9;" horiz-adv-x="570" 
d="M41 257c0 174 119 272 247 272c149 0 243 -110 243 -253v-18h-464c0 -157 98 -246 235 -246c100 0 156 51 191 99l19 -13c-37 -57 -103 -111 -210 -111c-157 0 -261 107 -261 270zM68 282h437c-7 148 -110 222 -217 222c-106 0 -209 -80 -220 -222zM260 583l74 140h34
l-82 -140h-26z" />
    <glyph glyph-name="egrave" unicode="&#xe8;" horiz-adv-x="570" 
d="M41 257c0 174 119 272 247 272c149 0 243 -110 243 -253v-18h-464c0 -157 98 -246 235 -246c100 0 156 51 191 99l19 -13c-37 -57 -103 -111 -210 -111c-157 0 -261 107 -261 270zM68 282h437c-7 148 -110 222 -217 222c-106 0 -209 -80 -220 -222zM242 723l74 -140h-26
l-82 140h34z" />
    <glyph glyph-name="ecircumflex" unicode="&#xea;" horiz-adv-x="570" 
d="M41 257c0 174 119 272 247 272c149 0 243 -110 243 -253v-18h-464c0 -157 98 -246 235 -246c100 0 156 51 191 99l19 -13c-37 -57 -103 -111 -210 -111c-157 0 -261 107 -261 270zM68 282h437c-7 148 -110 222 -217 222c-106 0 -209 -80 -220 -222zM289 699l-81 -96h-27
l94 121h28l94 -121h-27z" />
    <glyph glyph-name="edieresis" unicode="&#xeb;" horiz-adv-x="570" 
d="M41 257c0 174 119 272 247 272c149 0 243 -110 243 -253v-18h-464c0 -157 98 -246 235 -246c100 0 156 51 191 99l19 -13c-37 -57 -103 -111 -210 -111c-157 0 -261 107 -261 270zM68 282h437c-7 148 -110 222 -217 222c-106 0 -209 -80 -220 -222zM176 653
c0 19 15 33 33 33s33 -14 33 -33s-15 -33 -33 -33s-33 14 -33 33zM334 653c0 19 15 33 33 33s33 -14 33 -33s-15 -33 -33 -33s-33 14 -33 33z" />
    <glyph glyph-name="iacute" unicode="&#xed;" horiz-adv-x="187" 
d="M81 0v516h25v-516h-25zM70 583l74 140h34l-82 -140h-26z" />
    <glyph glyph-name="igrave" unicode="&#xec;" horiz-adv-x="187" 
d="M81 0v516h25v-516h-25zM43 723l74 -140h-26l-82 140h34z" />
    <glyph glyph-name="icircumflex" unicode="&#xee;" horiz-adv-x="187" 
d="M81 0v516h25v-516h-25zM94 699l-81 -96h-27l94 121h28l94 -121h-27z" />
    <glyph glyph-name="idieresis" unicode="&#xef;" horiz-adv-x="187" 
d="M81 0v516h25v-516h-25zM-18 653c0 19 15 33 33 33s33 -14 33 -33s-15 -33 -33 -33s-33 14 -33 33zM140 653c0 19 15 33 33 33s33 -14 33 -33s-15 -33 -33 -33s-33 14 -33 33z" />
    <glyph glyph-name="ntilde" unicode="&#xf1;" horiz-adv-x="537" 
d="M275 529c95 0 186 -62 186 -182v-347h-25v337c0 105 -70 167 -161 167c-98 0 -169 -73 -169 -186v-318h-25v516h25v-93c28 64 92 106 169 106zM337 641c26 0 47 21 47 52h25c0 -48 -32 -77 -75 -77c-53 0 -82 53 -130 53c-26 0 -47 -21 -47 -52h-25c0 48 32 77 75 77
c53 0 82 -53 130 -53z" />
    <glyph glyph-name="oacute" unicode="&#xf3;" horiz-adv-x="608" 
d="M304 12c138 0 236 109 236 246s-98 246 -236 246s-236 -109 -236 -246s98 -246 236 -246zM304 529c150 0 262 -117 262 -271s-112 -271 -262 -271s-262 117 -262 271s112 271 262 271zM269 583l74 140h34l-82 -140h-26z" />
    <glyph glyph-name="ograve" unicode="&#xf2;" horiz-adv-x="608" 
d="M304 12c138 0 236 109 236 246s-98 246 -236 246s-236 -109 -236 -246s98 -246 236 -246zM304 529c150 0 262 -117 262 -271s-112 -271 -262 -271s-262 117 -262 271s112 271 262 271zM257 723l74 -140h-26l-82 140h34z" />
    <glyph glyph-name="ocircumflex" unicode="&#xf4;" horiz-adv-x="608" 
d="M304 12c138 0 236 109 236 246s-98 246 -236 246s-236 -109 -236 -246s98 -246 236 -246zM304 529c150 0 262 -117 262 -271s-112 -271 -262 -271s-262 117 -262 271s112 271 262 271zM306 699l-81 -96h-27l94 121h28l94 -121h-27z" />
    <glyph glyph-name="odieresis" unicode="&#xf6;" horiz-adv-x="608" 
d="M304 12c138 0 236 109 236 246s-98 246 -236 246s-236 -109 -236 -246s98 -246 236 -246zM304 529c150 0 262 -117 262 -271s-112 -271 -262 -271s-262 117 -262 271s112 271 262 271zM192 653c0 19 15 33 33 33s33 -14 33 -33s-15 -33 -33 -33s-33 14 -33 33zM350 653
c0 19 15 33 33 33s33 -14 33 -33s-15 -33 -33 -33s-33 14 -33 33z" />
    <glyph glyph-name="otilde" unicode="&#xf5;" horiz-adv-x="608" 
d="M304 12c138 0 236 109 236 246s-98 246 -236 246s-236 -109 -236 -246s98 -246 236 -246zM304 529c150 0 262 -117 262 -271s-112 -271 -262 -271s-262 117 -262 271s112 271 262 271zM375 641c26 0 47 21 47 52h25c0 -48 -32 -77 -75 -77c-53 0 -82 53 -130 53
c-26 0 -47 -21 -47 -52h-25c0 48 32 77 75 77c53 0 82 -53 130 -53z" />
    <glyph glyph-name="uacute" unicode="&#xfa;" horiz-adv-x="530" 
d="M261 -13c-95 0 -186 62 -186 182v347h25v-337c0 -105 70 -167 161 -167c98 0 169 73 169 186v318h25v-516h-25v93c-28 -64 -92 -106 -169 -106zM242 583l74 140h34l-82 -140h-26z" />
    <glyph glyph-name="ugrave" unicode="&#xf9;" horiz-adv-x="530" 
d="M261 -13c-95 0 -186 62 -186 182v347h25v-337c0 -105 70 -167 161 -167c98 0 169 73 169 186v318h25v-516h-25v93c-28 -64 -92 -106 -169 -106zM227 723l74 -140h-26l-82 140h34z" />
    <glyph glyph-name="ucircumflex" unicode="&#xfb;" horiz-adv-x="530" 
d="M261 -13c-95 0 -186 62 -186 182v347h25v-337c0 -105 70 -167 161 -167c98 0 169 73 169 186v318h25v-516h-25v93c-28 -64 -92 -106 -169 -106zM267 699l-81 -96h-27l94 121h28l94 -121h-27z" />
    <glyph glyph-name="udieresis" unicode="&#xfc;" horiz-adv-x="530" 
d="M261 -13c-95 0 -186 62 -186 182v347h25v-337c0 -105 70 -167 161 -167c98 0 169 73 169 186v318h25v-516h-25v93c-28 -64 -92 -106 -169 -106zM158 653c0 19 15 33 33 33s33 -14 33 -33s-15 -33 -33 -33s-33 14 -33 33zM316 653c0 19 15 33 33 33s33 -14 33 -33
s-15 -33 -33 -33s-33 14 -33 33z" />
    <glyph glyph-name="dagger" unicode="&#x2020;" horiz-adv-x="329" 
d="M152 0v494h-113v23h113v183h25v-183h117v-23h-117v-494h-25z" />
    <glyph glyph-name="degree" unicode="&#xb0;" horiz-adv-x="336" 
d="M298 583c0 -72 -54 -130 -130 -130s-130 58 -130 130s54 130 130 130s130 -58 130 -130zM62 583c0 -58 41 -107 106 -107s106 49 106 107s-41 107 -106 107s-106 -49 -106 -107z" />
    <glyph glyph-name="cent" unicode="&#xa2;" horiz-adv-x="542" 
d="M287 610v91h24v-92c105 -4 164 -65 185 -89l-15 -19c-29 33 -80 83 -183 83c-128 0 -228 -108 -228 -246s100 -246 228 -246c103 0 156 50 185 83l15 -19c-21 -24 -79 -85 -187 -90v-66h-24v66c-137 6 -244 124 -244 272s107 266 244 272z" />
    <glyph glyph-name="sterling" unicode="&#xa3;" horiz-adv-x="538" 
d="M57 341v24h63v156c0 113 68 192 181 192c99 0 151 -70 170 -110l-21 -11c-17 41 -65 97 -149 97c-98 0 -156 -66 -156 -168v-156h180v-24h-180v-317h339v-24h-438v24h74v317h-63z" />
    <glyph glyph-name="section" unicode="&#xa7;" horiz-adv-x="447" 
d="M409 227c0 -72 -50 -119 -111 -136c42 -31 87 -72 87 -144c0 -88 -65 -151 -169 -151c-103 0 -151 57 -168 101l20 8c20 -42 59 -86 148 -86c95 0 145 57 145 129c0 64 -47 107 -101 139l-106 63c-67 40 -117 83 -117 152c0 72 50 119 111 136c-42 31 -87 72 -87 144
c0 88 65 151 169 151c101 0 151 -57 168 -101l-20 -8c-20 42 -59 86 -148 86c-95 0 -145 -57 -145 -129c0 -64 47 -107 101 -139l106 -63c67 -40 117 -83 117 -152zM61 302c0 -60 45 -99 107 -135l103 -59c71 10 114 56 114 119c0 60 -45 99 -107 135l-103 59
c-71 -10 -114 -56 -114 -119z" />
    <glyph glyph-name="bullet" unicode="&#x2022;" horiz-adv-x="406" 
d="M203 138c-99 0 -172 77 -172 172s73 172 172 172s172 -77 172 -172s-73 -172 -172 -172z" />
    <glyph glyph-name="paragraph" unicode="&#xb6;" horiz-adv-x="461" 
d="M242 -45v381h-7c-107 0 -188 83 -188 182c0 100 82 182 181 182h40v-745h-26zM345 -45v745h26v-745h-26z" />
    <glyph glyph-name="germandbls" unicode="&#xdf;" horiz-adv-x="518" 
d="M103 554v-554h-25v552c0 113 61 164 157 164c84 0 158 -47 158 -138c0 -73 -41 -113 -90 -132c59 -8 179 -65 179 -213c0 -165 -128 -233 -258 -233v25c104 0 231 49 231 208c0 144 -120 197 -220 197h-12v24h12c73 0 133 44 133 124c0 81 -65 113 -136 113
c-74 0 -129 -36 -129 -137z" />
    <glyph glyph-name="registered" unicode="&#xae;" horiz-adv-x="452" 
d="M234 528h-39v-95h-22v216h59c35 0 64 -20 64 -60c0 -30 -18 -51 -41 -58l45 -98h-23zM232 628h-37v-79h37c29 0 41 22 41 40c0 26 -17 39 -41 39zM226 365c109 0 176 74 176 176s-67 176 -176 176s-176 -74 -176 -176s67 -176 176 -176zM226 739c122 0 199 -87 199 -198
s-77 -198 -199 -198s-199 87 -199 198s77 198 199 198z" />
    <glyph glyph-name="copyright" unicode="&#xa9;" horiz-adv-x="817" 
d="M762 350c0 -200 -145 -363 -354 -363s-354 163 -354 363s145 363 354 363s354 -163 354 -363zM229 350c0 107 67 191 179 191c76 0 120 -37 148 -68l-19 -17c-18 22 -58 60 -129 60c-100 0 -152 -76 -152 -166s52 -166 152 -166c71 0 111 38 129 60l19 -17
c-28 -31 -72 -68 -148 -68c-112 0 -179 84 -179 191zM735 350c0 186 -133 337 -327 337s-327 -151 -327 -337s133 -337 327 -337s327 151 327 337z" />
    <glyph glyph-name="trademark" unicode="&#x2122;" horiz-adv-x="685" 
d="M131 341v337h-98v22h219v-22h-98v-337h-23zM484 387h-16l-146 275v-321h-22v359h23l153 -287l153 287h23v-359h-22v321z" />
    <glyph glyph-name="acute" unicode="&#xb4;" 
d="M193 583l74 140h34l-82 -140h-26z" />
    <glyph glyph-name="dieresis" unicode="&#xa8;" 
d="M135 653c0 19 15 33 33 33s33 -14 33 -33s-15 -33 -33 -33s-33 14 -33 33zM293 653c0 19 15 33 33 33s33 -14 33 -33s-15 -33 -33 -33s-33 14 -33 33z" />
    <glyph glyph-name="AE" unicode="&#xc6;" horiz-adv-x="768" 
d="M9 0l347 700h341v-25h-281v-304h248v-25h-248v-321h293v-25h-319v265h-223l-130 -265h-28zM369 675l-190 -386h211v386h-21z" />
    <glyph glyph-name="Oslash" unicode="&#xd8;" horiz-adv-x="790" 
d="M395 -13c-80 0 -154 26 -213 72l-57 -73l-19 14l58 74c-73 65 -119 162 -119 276c0 208 157 363 350 363c79 0 152 -26 211 -72l58 74l19 -16l-58 -74c73 -65 120 -162 120 -275c0 -210 -158 -363 -350 -363zM718 350c0 104 -42 194 -109 255l-411 -526
c54 -42 122 -66 197 -66c182 0 323 141 323 337zM395 687c-182 0 -323 -144 -323 -337c0 -106 41 -196 107 -256l412 527c-54 42 -122 66 -196 66z" />
    <glyph glyph-name="yen" unicode="&#xa5;" horiz-adv-x="486" 
d="M230 0v199h-165v23h165v115h-165v23h151l-204 340h29l202 -338l202 338h29l-204 -340h150v-23h-164v-115h164v-23h-164v-199h-26z" />
    <glyph glyph-name="ordfeminine" unicode="&#xaa;" horiz-adv-x="406" 
d="M55 431c0 71 62 125 147 125c53 0 96 -24 118 -49v70c0 73 -47 113 -112 113c-51 0 -95 -21 -123 -38l-11 20c18 11 71 41 134 41c90 0 136 -55 136 -137v-267h-20l-4 48c-20 -27 -63 -57 -118 -57c-88 0 -147 58 -147 131zM79 431c0 -55 47 -108 123 -108
c71 0 121 49 121 108s-48 102 -121 102c-76 0 -123 -48 -123 -102z" />
    <glyph glyph-name="ordmasculine" unicode="&#xba;" horiz-adv-x="457" 
d="M51 506c0 -103 74 -183 176 -183s176 80 176 183c0 102 -75 184 -176 184s-176 -82 -176 -184zM27 506c0 120 85 207 200 207s200 -87 200 -207c0 -118 -85 -206 -200 -206s-200 88 -200 206z" />
    <glyph glyph-name="ae" unicode="&#xe6;" horiz-adv-x="927" 
d="M43 158c0 93 81 165 193 165c84 0 138 -40 164 -79v111c0 99 -63 149 -155 149c-73 0 -126 -26 -165 -50l-13 22c29 17 98 53 177 53c109 0 170 -59 179 -151c40 98 128 151 222 151c149 0 243 -110 243 -253v-18h-464c0 -157 98 -246 235 -246c100 0 156 51 191 99
l19 -13c-37 -57 -103 -111 -210 -111c-110 0 -193 53 -233 141c-27 -96 -99 -141 -190 -141c-117 0 -193 75 -193 171zM69 157c0 -76 63 -145 167 -145c99 0 167 65 167 145c0 82 -73 141 -167 141c-102 0 -167 -64 -167 -141zM425 282h437c-7 148 -110 222 -217 222
c-106 0 -209 -80 -220 -222z" />
    <glyph glyph-name="oslash" unicode="&#xf8;" horiz-adv-x="608" 
d="M304 529c59 0 113 -19 156 -51l40 51l20 -16l-40 -51c53 -49 86 -121 86 -204c0 -154 -112 -271 -262 -271c-60 0 -114 18 -157 50l-40 -51l-19 15l41 52c-54 49 -87 121 -87 205c0 154 112 271 262 271zM69 258c0 -74 28 -140 76 -184l299 383c-38 29 -86 46 -140 46
c-138 0 -235 -108 -235 -245zM304 13c138 0 235 108 235 245c0 73 -28 139 -75 183l-300 -383c38 -28 86 -45 140 -45z" />
    <glyph glyph-name="questiondown" unicode="&#xbf;" horiz-adv-x="454" 
d="M266 392v-45c0 -132 -190 -170 -190 -333c0 -89 62 -155 156 -155c88 0 132 58 152 101l21 -10c-23 -50 -77 -116 -173 -116c-115 0 -182 82 -182 180c0 176 191 211 191 333v45h25zM280 530c0 -16 -12 -30 -30 -30s-30 14 -30 30s12 30 30 30s30 -14 30 -30z" />
    <glyph glyph-name="exclamdown" unicode="&#xa1;" horiz-adv-x="228" 
d="M101 -153l2 545h21l2 -545h-25zM84 530c0 16 12 30 30 30s30 -14 30 -30s-12 -30 -30 -30s-30 14 -30 30z" />
    <glyph glyph-name="florin" unicode="&#x192;" horiz-adv-x="436" 
d="M187 380h-81v23h84l21 143c19 124 86 158 149 158c35 0 55 -7 55 -7l-5 -24s-20 6 -53 6c-61 0 -107 -37 -123 -149l-19 -127h123v-23h-126l-58 -414c-18 -126 -86 -158 -149 -158c-35 0 -55 7 -55 7l5 24s20 -6 53 -6c61 0 107 37 123 149z" />
    <glyph glyph-name="guillemotleft" unicode="&#xab;" horiz-adv-x="372" 
d="M165 109l-125 181l125 181h26l-123 -181l123 -181h-26zM296 109l-125 181l125 181h26l-123 -181l123 -181h-26z" />
    <glyph glyph-name="guillemotright" unicode="&#xbb;" horiz-adv-x="372" 
d="M322 290l-125 -181h-26l123 181l-123 181h26zM191 290l-125 -181h-26l123 181l-123 181h26z" />
    <glyph glyph-name="Agrave" unicode="&#xc0;" horiz-adv-x="604" 
d="M457 265h-310l-102 -265h-28l273 700h24l273 -700h-28zM448 289l-146 376l-146 -376h292zM236 888l74 -140h-26l-82 140h34z" />
    <glyph glyph-name="Atilde" unicode="&#xc3;" horiz-adv-x="604" 
d="M457 265h-310l-102 -265h-28l273 700h24l273 -700h-28zM448 289l-146 376l-146 -376h292zM370 798c26 0 47 21 47 52h25c0 -48 -32 -77 -75 -77c-53 0 -82 53 -130 53c-26 0 -47 -21 -47 -52h-25c0 48 32 77 75 77c53 0 82 -53 130 -53z" />
    <glyph glyph-name="Otilde" unicode="&#xd5;" horiz-adv-x="790" 
d="M395 -13c-192 0 -350 153 -350 363c0 208 157 363 350 363s350 -155 350 -363c0 -210 -158 -363 -350 -363zM395 687c-182 0 -323 -144 -323 -337c0 -196 141 -337 323 -337s323 141 323 337c0 193 -141 337 -323 337zM468 798c26 0 47 21 47 52h25
c0 -48 -32 -77 -75 -77c-53 0 -82 53 -130 53c-26 0 -47 -21 -47 -52h-25c0 48 32 77 75 77c53 0 82 -53 130 -53z" />
    <glyph glyph-name="OE" unicode="&#x152;" horiz-adv-x="1076" 
d="M395 -13c-192 0 -350 153 -350 363c0 208 157 363 350 363c33 0 65 -5 95 -13h515v-25h-452c108 -56 184 -167 191 -304h228v-25h-227c-2 -146 -79 -264 -191 -321h463v-25h-527c-31 -8 -62 -13 -95 -13zM395 687c-182 0 -323 -144 -323 -337c0 -196 141 -337 323 -337
s323 141 323 337c0 193 -141 337 -323 337z" />
    <glyph glyph-name="oe" unicode="&#x153;" horiz-adv-x="1069" 
d="M304 529c120 0 215 -75 248 -184c33 118 130 184 235 184c149 0 243 -110 243 -253v-18h-464c0 -157 98 -246 235 -246c100 0 156 51 191 99l19 -13c-37 -57 -103 -111 -210 -111c-127 0 -219 70 -249 182c-34 -108 -129 -182 -248 -182c-150 0 -262 117 -262 271
s112 271 262 271zM304 12c138 0 236 109 236 246s-98 246 -236 246s-236 -109 -236 -246s98 -246 236 -246zM567 282h437c-7 148 -110 222 -217 222c-106 0 -209 -80 -220 -222z" />
    <glyph glyph-name="endash" unicode="&#x2013;" horiz-adv-x="557" 
d="M519 285h-480v23h480v-23z" />
    <glyph glyph-name="emdash" unicode="&#x2014;" horiz-adv-x="818" 
d="M780 285h-741v23h741v-23z" />
    <glyph glyph-name="quotedblleft" unicode="&#x201c;" horiz-adv-x="248" 
d="M103 595c0 -16 -13 -30 -29 -30c-20 0 -31 16 -31 33c0 48 23 80 47 104l17 -16c-11 -11 -31 -34 -35 -61c16 0 31 -12 31 -30zM202 595c0 -16 -13 -30 -29 -30c-20 0 -31 16 -31 33c0 48 23 80 47 104l17 -16c-11 -11 -31 -34 -35 -61c16 0 31 -12 31 -30z" />
    <glyph glyph-name="quotedblright" unicode="&#x201d;" horiz-adv-x="248" 
d="M146 672c0 16 13 30 29 30c20 0 31 -16 31 -33c0 -48 -23 -80 -47 -104l-17 16c11 11 31 34 35 61c-16 0 -31 12 -31 30zM47 672c0 16 13 30 29 30c20 0 31 -16 31 -33c0 -48 -23 -80 -47 -104l-17 16c11 11 31 34 35 61c-16 0 -31 12 -31 30z" />
    <glyph glyph-name="quoteleft" unicode="&#x2018;" horiz-adv-x="148" 
d="M103 595c0 -16 -13 -30 -29 -30c-20 0 -31 16 -31 33c0 48 23 80 47 104l17 -16c-11 -11 -31 -34 -35 -61c16 0 31 -12 31 -30z" />
    <glyph glyph-name="quoteright" unicode="&#x2019;" horiz-adv-x="148" 
d="M47 672c0 16 13 30 29 30c20 0 31 -16 31 -33c0 -48 -23 -80 -47 -104l-17 16c11 11 31 34 35 61c-16 0 -31 12 -31 30z" />
    <glyph glyph-name="divide" unicode="&#xf7;" horiz-adv-x="550" 
d="M244 470c0 17 14 31 31 31s31 -14 31 -31s-14 -31 -31 -31s-31 14 -31 31zM244 153c0 17 14 31 31 31s31 -14 31 -31s-14 -31 -31 -31s-31 14 -31 31zM506 300h-463v23h463v-23z" />
    <glyph glyph-name="ydieresis" unicode="&#xff;" horiz-adv-x="480" 
d="M181 -179h-29l77 177l-222 518h28l208 -488l202 488h28zM132 653c0 19 15 33 33 33s33 -14 33 -33s-15 -33 -33 -33s-33 14 -33 33zM290 653c0 19 15 33 33 33s33 -14 33 -33s-15 -33 -33 -33s-33 14 -33 33z" />
    <glyph glyph-name="Ydieresis" unicode="&#x178;" horiz-adv-x="486" 
d="M230 0v337l-218 363h29l202 -338l202 338h29l-218 -363v-337h-26zM131 838c0 19 15 33 33 33s33 -14 33 -33s-15 -33 -33 -33s-33 14 -33 33zM289 838c0 19 15 33 33 33s33 -14 33 -33s-15 -33 -33 -33s-33 14 -33 33z" />
    <glyph glyph-name="fraction" unicode="&#x2044;" horiz-adv-x="405" 
d="M15 -41h-27l403 782h27z" />
    <glyph glyph-name="Euro" unicode="&#x20ac;" horiz-adv-x="612" 
d="M434 272h-315c31 -140 145 -259 299 -259c76 0 125 26 151 44l14 -19c-23 -18 -84 -51 -165 -51c-167 0 -295 128 -327 285h-60v24h56c-3 18 -4 36 -4 54c0 22 2 44 6 66h-58v24h63c36 146 157 273 324 273c74 0 125 -22 153 -41l-13 -21c-32 19 -75 37 -140 37
c-145 0 -261 -111 -297 -248h326l-2 -24h-329c-4 -22 -6 -44 -6 -66c0 -18 1 -36 4 -54h322z" />
    <glyph glyph-name="guilsinglleft" unicode="&#x2039;" horiz-adv-x="241" 
d="M165 109l-125 181l125 181h26l-123 -181l123 -181h-26z" />
    <glyph glyph-name="guilsinglright" unicode="&#x203a;" horiz-adv-x="241" 
d="M191 290l-125 -181h-26l123 181l-123 181h26z" />
    <glyph glyph-name="daggerdbl" unicode="&#x2021;" horiz-adv-x="329" 
d="M39 209v23h113v236h-113v23h113v209h25v-209h117v-23h-117v-236h117v-23h-117v-209h-25v209h-113z" />
    <glyph glyph-name="periodcentered" unicode="&#xb7;" horiz-adv-x="205" 
d="M72 314c0 16 12 30 30 30s30 -14 30 -30s-12 -30 -30 -30s-30 14 -30 30z" />
    <glyph glyph-name="quotesinglbase" unicode="&#x201a;" horiz-adv-x="194" 
d="M62 17c0 16 13 30 29 30c20 0 31 -16 31 -33c0 -48 -23 -80 -47 -104l-17 16c11 11 31 34 35 61c-16 0 -31 12 -31 30z" />
    <glyph glyph-name="quotedblbase" unicode="&#x201e;" horiz-adv-x="278" 
d="M146 17c0 16 13 30 29 30c20 0 31 -16 31 -33c0 -48 -23 -80 -47 -104l-17 16c11 11 31 34 35 61c-16 0 -31 12 -31 30zM47 17c0 16 13 30 29 30c20 0 31 -16 31 -33c0 -48 -23 -80 -47 -104l-17 16c11 11 31 34 35 61c-16 0 -31 12 -31 30z" />
    <glyph glyph-name="perthousand" unicode="&#x2030;" horiz-adv-x="1055" 
d="M72 0l537 700h33l-537 -700h-33zM80 571c0 -65 46 -117 112 -117s112 52 112 117s-46 117 -112 117s-112 -52 -112 -117zM54 571c0 78 57 142 138 142s138 -64 138 -142s-57 -142 -138 -142s-138 64 -138 142zM410 129c0 -65 46 -117 112 -117s112 52 112 117
s-46 117 -112 117s-112 -52 -112 -117zM384 129c0 78 57 142 138 142s138 -64 138 -142s-57 -142 -138 -142s-138 64 -138 142zM751 129c0 -65 46 -117 112 -117s112 52 112 117s-46 117 -112 117s-112 -52 -112 -117zM725 129c0 78 57 142 138 142s138 -64 138 -142
s-57 -142 -138 -142s-138 64 -138 142z" />
    <glyph glyph-name="Acircumflex" unicode="&#xc2;" horiz-adv-x="604" 
d="M457 265h-310l-102 -265h-28l273 700h24l273 -700h-28zM448 289l-146 376l-146 -376h292zM303 855l-81 -96h-27l94 121h28l94 -121h-27z" />
    <glyph glyph-name="Ecircumflex" unicode="&#xca;" horiz-adv-x="468" 
d="M90 0v700h307v-25h-281v-304h248v-25h-248v-321h293v-25h-319zM253 855l-81 -96h-27l94 121h28l94 -121h-27z" />
    <glyph glyph-name="Aacute" unicode="&#xc1;" horiz-adv-x="604" 
d="M457 265h-310l-102 -265h-28l273 700h24l273 -700h-28zM448 289l-146 376l-146 -376h292zM289 748l74 140h34l-82 -140h-26z" />
    <glyph glyph-name="Edieresis" unicode="&#xcb;" horiz-adv-x="468" 
d="M90 0v700h307v-25h-281v-304h248v-25h-248v-321h293v-25h-319zM141 812c0 19 15 33 33 33s33 -14 33 -33s-15 -33 -33 -33s-33 14 -33 33zM299 812c0 19 15 33 33 33s33 -14 33 -33s-15 -33 -33 -33s-33 14 -33 33z" />
    <glyph glyph-name="Egrave" unicode="&#xc8;" horiz-adv-x="468" 
d="M90 0v700h307v-25h-281v-304h248v-25h-248v-321h293v-25h-319zM203 888l74 -140h-26l-82 140h34z" />
    <glyph glyph-name="Iacute" unicode="&#xcd;" horiz-adv-x="206" 
d="M90 0v700h26v-700h-26zM84 748l74 140h34l-82 -140h-26z" />
    <glyph glyph-name="Icircumflex" unicode="&#xce;" horiz-adv-x="206" 
d="M90 0v700h26v-700h-26zM108 855l-81 -96h-27l94 121h28l94 -121h-27z" />
    <glyph glyph-name="Idieresis" unicode="&#xcf;" horiz-adv-x="206" 
d="M90 0v700h26v-700h-26zM-8 812c0 19 15 33 33 33s33 -14 33 -33s-15 -33 -33 -33s-33 14 -33 33zM150 812c0 19 15 33 33 33s33 -14 33 -33s-15 -33 -33 -33s-33 14 -33 33z" />
    <glyph glyph-name="Igrave" unicode="&#xcc;" horiz-adv-x="206" 
d="M90 0v700h26v-700h-26zM46 888l74 -140h-26l-82 140h34z" />
    <glyph glyph-name="Oacute" unicode="&#xd3;" horiz-adv-x="790" 
d="M395 -13c-192 0 -350 153 -350 363c0 208 157 363 350 363s350 -155 350 -363c0 -210 -158 -363 -350 -363zM395 687c-182 0 -323 -144 -323 -337c0 -196 141 -337 323 -337s323 141 323 337c0 193 -141 337 -323 337zM367 748l74 140h34l-82 -140h-26z" />
    <glyph glyph-name="Ocircumflex" unicode="&#xd4;" horiz-adv-x="790" 
d="M395 -13c-192 0 -350 153 -350 363c0 208 157 363 350 363s350 -155 350 -363c0 -210 -158 -363 -350 -363zM395 687c-182 0 -323 -144 -323 -337c0 -196 141 -337 323 -337s323 141 323 337c0 193 -141 337 -323 337zM397 855l-81 -96h-27l94 121h28l94 -121h-27z" />
    <glyph glyph-name="Ograve" unicode="&#xd2;" horiz-adv-x="790" 
d="M395 -13c-192 0 -350 153 -350 363c0 208 157 363 350 363s350 -155 350 -363c0 -210 -158 -363 -350 -363zM395 687c-182 0 -323 -144 -323 -337c0 -196 141 -337 323 -337s323 141 323 337c0 193 -141 337 -323 337zM337 888l74 -140h-26l-82 140h34z" />
    <glyph glyph-name="Uacute" unicode="&#xda;" horiz-adv-x="664" 
d="M332 -13c-156 0 -248 99 -248 254v459h26v-458c0 -141 77 -229 222 -229s222 88 222 229v458h26v-459c0 -155 -92 -254 -248 -254zM303 748l74 140h34l-82 -140h-26z" />
    <glyph glyph-name="Ucircumflex" unicode="&#xdb;" horiz-adv-x="664" 
d="M332 -13c-156 0 -248 99 -248 254v459h26v-458c0 -141 77 -229 222 -229s222 88 222 229v458h26v-459c0 -155 -92 -254 -248 -254zM332 855l-81 -96h-27l94 121h28l94 -121h-27z" />
    <glyph glyph-name="Ugrave" unicode="&#xd9;" horiz-adv-x="664" 
d="M332 -13c-156 0 -248 99 -248 254v459h26v-458c0 -141 77 -229 222 -229s222 88 222 229v458h26v-459c0 -155 -92 -254 -248 -254zM284 888l74 -140h-26l-82 140h34z" />
    <glyph glyph-name="dotlessi" unicode="&#x131;" horiz-adv-x="187" 
d="M81 0v516h25v-516h-25z" />
    <glyph glyph-name="circumflex" unicode="&#x2c6;" horiz-adv-x="456" 
d="M228 699l-81 -96h-27l94 121h28l94 -121h-27z" />
    <glyph glyph-name="tilde" unicode="&#x2dc;" horiz-adv-x="457" 
d="M295 641c26 0 47 21 47 52h25c0 -48 -32 -77 -75 -77c-53 0 -82 53 -130 53c-26 0 -47 -21 -47 -52h-25c0 48 32 77 75 77c53 0 82 -53 130 -53z" />
    <glyph glyph-name="macron" unicode="&#xaf;" horiz-adv-x="457" 
d="M115 655v26h227v-26h-227z" />
    <glyph glyph-name="breve" unicode="&#x2d8;" horiz-adv-x="458" 
d="M229 595c-71 0 -103 50 -103 108h24c0 -50 28 -84 79 -84s79 34 79 84h24c0 -58 -32 -108 -103 -108z" />
    <glyph glyph-name="dotaccent" unicode="&#x2d9;" horiz-adv-x="458" 
d="M198 660c0 16 14 30 31 30s31 -14 31 -30c0 -17 -14 -31 -31 -31s-31 14 -31 31z" />
    <glyph glyph-name="ring" unicode="&#x2da;" horiz-adv-x="458" 
d="M182 664c0 -27 17 -49 47 -49s47 22 47 49s-17 49 -47 49s-47 -22 -47 -49zM157 664c0 44 31 73 72 73s72 -29 72 -73s-31 -73 -72 -73s-72 29 -72 73z" />
    <glyph glyph-name="cedilla" unicode="&#xb8;" horiz-adv-x="457" 
d="M194 9h24l-11 -75c53 -4 85 -30 85 -71c0 -63 -49 -82 -100 -82c-14 0 -28 2 -28 2l3 23c8 -1 18 -2 28 -2c37 0 71 14 71 56c0 34 -27 52 -71 52h-12z" />
    <glyph glyph-name="hungarumlaut" unicode="&#x2dd;" horiz-adv-x="451" 
d="M121 583l74 140h34l-82 -140h-26zM222 583l74 140h34l-82 -140h-26z" />
    <glyph glyph-name="ogonek" unicode="&#x2db;" horiz-adv-x="456" 
d="M174 -97c0 44 33 81 72 97h36c-44 -15 -83 -47 -83 -93c0 -48 43 -71 83 -71v-25c-54 0 -108 29 -108 92z" />
    <glyph glyph-name="caron" unicode="&#x2c7;" horiz-adv-x="456" 
d="M147 724l81 -96l81 96h27l-94 -121h-28l-94 121h27z" />
    <glyph glyph-name="space" unicode=" " horiz-adv-x="265" 
 />
    <glyph glyph-name="hyphen.caps" horiz-adv-x="310" 
d="M271 342h-233v23h233v-23z" />
    <glyph glyph-name="endash.caps" horiz-adv-x="557" 
d="M519 342h-480v23h480v-23z" />
    <glyph glyph-name="emdash.caps" horiz-adv-x="818" 
d="M780 342h-741v23h741v-23z" />
    <glyph glyph-name="guillemotleft.caps" horiz-adv-x="372" 
d="M165 176l-125 181l125 181h26l-123 -181l123 -181h-26zM296 176l-125 181l125 181h26l-123 -181l123 -181h-26z" />
    <glyph glyph-name="guillemotright.caps" horiz-adv-x="372" 
d="M322 357l-125 -181h-26l123 181l-123 181h26zM191 357l-125 -181h-26l123 181l-123 181h26z" />
    <glyph glyph-name="guilsinglleft.caps" horiz-adv-x="241" 
d="M165 176l-125 181l125 181h26l-123 -181l123 -181h-26z" />
    <glyph glyph-name="guilsinglright.caps" horiz-adv-x="241" 
d="M191 357l-125 -181h-26l123 181l-123 181h26z" />
    <glyph glyph-name="parenleft.caps" horiz-adv-x="268" 
d="M87 13v654c0 84 45 113 94 113h13v-25h-14c-45 0 -67 -34 -67 -90v-650c0 -56 22 -90 67 -90h14v-25h-13c-49 0 -94 29 -94 113z" />
    <glyph glyph-name="parenright.caps" horiz-adv-x="268" 
d="M181 667v-654c0 -84 -45 -113 -94 -113h-13v25h14c45 0 67 34 67 90v650c0 56 -22 90 -67 90h-14v25h13c49 0 94 -29 94 -113z" />
    <glyph glyph-name="bracketleft.caps" horiz-adv-x="268" 
d="M87 -100v880h107v-25h-81v-830h81v-25h-107z" />
    <glyph glyph-name="bracketright.caps" horiz-adv-x="262" 
d="M181 780v-880h-107v25h81v830h-81v25h107z" />
    <glyph glyph-name="braceleft.caps" horiz-adv-x="297" 
d="M86 340c16 -8 56 -28 56 -117v-208c0 -56 22 -90 67 -90h14v-25h-13c-49 0 -94 29 -94 113v210c0 72 -23 105 -73 105v24c50 0 73 33 73 105v210c0 84 45 113 94 113h13v-25h-14c-45 0 -67 -34 -67 -90v-208c0 -89 -40 -109 -56 -117z" />
    <glyph glyph-name="bar.caps" horiz-adv-x="224" 
d="M99 -142v942h26v-942h-26z" />
    <glyph glyph-name="braceright.caps" horiz-adv-x="297" 
d="M211 340c-16 8 -56 28 -56 117v208c0 56 -22 90 -67 90h-14v25h13c49 0 94 -29 94 -113v-210c0 -72 23 -105 73 -105v-24c-50 0 -73 -33 -73 -105v-210c0 -84 -45 -113 -94 -113h-13v25h14c45 0 67 34 67 90v208c0 89 40 109 56 117z" />
    <glyph glyph-name="slash.caps" horiz-adv-x="402" 
d="M35 -81l305 858h27l-305 -858h-27z" />
    <glyph glyph-name="backslash.caps" horiz-adv-x="402" 
d="M62 777l305 -858h-27l-305 858h27z" />
    <glyph glyph-name="exclamdown.caps" horiz-adv-x="228" 
d="M101 0l2 545h21l2 -545h-25zM84 683c0 16 12 30 30 30s30 -14 30 -30s-12 -30 -30 -30s-30 14 -30 30z" />
    <glyph glyph-name="questiondown.caps" horiz-adv-x="454" 
d="M266 545v-45c0 -132 -190 -170 -190 -333c0 -89 62 -155 156 -155c88 0 132 58 152 101l21 -10c-23 -50 -77 -116 -173 -116c-115 0 -182 82 -182 180c0 176 191 211 191 333v45h25zM280 683c0 -16 -12 -30 -30 -30s-30 14 -30 30s12 30 30 30s30 -14 30 -30z" />
    <glyph glyph-name="periodcentered.caps" horiz-adv-x="205" 
d="M72 355c0 16 12 30 30 30s30 -14 30 -30s-12 -30 -30 -30s-30 14 -30 30z" />
    <glyph glyph-name="bullet.caps" horiz-adv-x="406" 
d="M203 182c-99 0 -172 77 -172 172s73 172 172 172s172 -77 172 -172s-73 -172 -172 -172z" />
    <glyph glyph-name="zero.tab" horiz-adv-x="535" 
d="M267 12c172 0 186 161 186 338c0 179 -14 338 -186 338s-186 -161 -186 -338c0 -179 14 -338 186 -338zM267 -13c-175 0 -212 142 -212 363c0 222 37 363 212 363s212 -142 212 -363c0 -222 -37 -363 -212 -363z" />
    <glyph glyph-name="one.tab" horiz-adv-x="535" 
d="M108 0v25h160v645l-157 -71l-12 23l175 78h19v-675h142v-25h-327z" />
    <glyph glyph-name="two.tab" horiz-adv-x="535" 
d="M71 0v14c0 188 355 291 355 512c0 89 -59 162 -163 162c-99 0 -145 -68 -161 -135l-23 7c7 48 56 153 183 153c130 0 190 -90 190 -187c0 -226 -355 -347 -355 -502h367v-24h-393z" />
    <glyph glyph-name="three.tab" horiz-adv-x="535" 
d="M454 700v-26l-217 -277h19c122 0 218 -67 218 -206c0 -110 -88 -204 -206 -204c-128 0 -186 74 -207 139l22 8c26 -66 77 -122 185 -122c100 0 180 75 180 179c0 108 -69 181 -192 181h-51v22l218 281h-341v25h372z" />
    <glyph glyph-name="four.tab" horiz-adv-x="535" 
d="M36 190v23l343 487h19v-486h100v-24h-100v-190h-25v190h-337zM65 214h308v436z" />
    <glyph glyph-name="five.tab" horiz-adv-x="535" 
d="M263 13c113 0 185 90 185 197c0 112 -77 199 -187 199c-67 0 -115 -27 -149 -61l-20 7l13 345h330v-23h-308l-12 -296c21 18 72 52 146 52c126 0 213 -99 213 -223c0 -120 -85 -222 -211 -222c-116 0 -179 71 -203 140l22 8c24 -67 77 -123 181 -123z" />
    <glyph glyph-name="six.tab" horiz-adv-x="535" 
d="M271 12c101 0 179 71 179 212c0 106 -62 194 -179 194c-89 0 -152 -59 -186 -133c0 -138 34 -273 186 -273zM291 713c70 0 123 -30 154 -54l-16 -18c-29 21 -75 47 -138 47c-162 0 -206 -181 -206 -358c29 51 92 113 186 113c143 0 205 -107 205 -221
c0 -145 -76 -235 -205 -235c-171 0 -212 153 -212 301c0 284 75 425 232 425z" />
    <glyph glyph-name="seven.tab" horiz-adv-x="535" 
d="M62 700h410v-25l-273 -675h-26l274 675h-385v25z" />
    <glyph glyph-name="eight.tab" horiz-adv-x="535" 
d="M267 -13c-122 0 -214 84 -214 200c0 124 89 177 145 190c-39 14 -115 66 -115 162c0 107 83 174 184 174s184 -67 184 -174c0 -96 -76 -148 -115 -162c56 -13 145 -66 145 -190c0 -116 -92 -200 -214 -200zM267 363c-102 0 -188 -62 -188 -176c0 -89 67 -175 188 -175
s188 86 188 175c0 114 -86 176 -188 176zM267 388c89 0 159 70 159 151c0 80 -56 150 -159 150s-159 -70 -159 -150c0 -81 70 -151 159 -151z" />
    <glyph glyph-name="nine.tab" horiz-adv-x="535" 
d="M264 688c-101 0 -179 -71 -179 -212c0 -106 62 -194 179 -194c89 0 152 59 186 133c0 138 -34 273 -186 273zM244 -13c-70 0 -123 30 -154 54l14 20c29 -21 77 -49 140 -49c168 0 206 181 206 358c-29 -51 -92 -113 -186 -113c-143 0 -205 107 -205 221
c0 151 87 235 205 235c171 0 212 -153 212 -301c0 -284 -69 -425 -232 -425z" />
    <glyph glyph-name="twosuperior" unicode="&#xb2;" horiz-adv-x="325" 
d="M57 305v23c0 112 190 173 190 276c0 45 -34 81 -84 81s-76 -37 -87 -62l-18 11c12 34 49 74 104 74c68 0 109 -49 109 -104c0 -120 -191 -172 -191 -277h198v-22h-221z" />
    <glyph glyph-name="threesuperior" unicode="&#xb3;" horiz-adv-x="326" 
d="M272 700v-22l-122 -148h6c70 0 126 -41 126 -115c0 -68 -49 -117 -118 -117c-57 0 -97 30 -119 74l19 11c16 -32 49 -63 101 -63c50 0 93 36 93 95c0 57 -38 93 -102 93h-34v21l123 149h-181v22h208z" />
    <glyph glyph-name="onesuperior" unicode="&#xb9;" horiz-adv-x="226" 
d="M62 650l-8 20l70 30h18v-395h-23v369z" />
    <glyph glyph-name="onequarter" unicode="&#xbc;" horiz-adv-x="750" 
d="M626 0v86h-192v19l198 290h17v-286h56v-23h-56v-86h-23zM465 109h161v237zM112 650l-8 20l70 30h18v-395h-23v369zM196 -41h-26l403 782h26z" />
    <glyph glyph-name="onehalf" unicode="&#xbd;" horiz-adv-x="759" 
d="M106 650l-8 20l70 30h18v-395h-23v369zM183 -41h-26l403 782h26zM473 0v23c0 112 190 173 190 276c0 45 -34 81 -84 81s-76 -37 -87 -62l-18 11c12 34 49 74 104 74c68 0 109 -49 109 -104c0 -120 -191 -172 -191 -277h198v-22h-221z" />
    <glyph glyph-name="threequarters" unicode="&#xbe;" horiz-adv-x="814" 
d="M670 0v86h-192v19l198 290h17v-286h56v-23h-56v-86h-23zM509 109h161v237zM258 -41h-26l403 782h26zM296 700v-22l-122 -148h6c70 0 126 -41 126 -115c0 -68 -49 -117 -118 -117c-57 0 -97 30 -119 74l19 11c16 -32 49 -63 101 -63c50 0 93 36 93 95c0 57 -38 93 -102 93
h-34v21l123 149h-181v22h208z" />
    <glyph glyph-name="Eth" unicode="&#xd0;" horiz-adv-x="622" 
d="M31 344v24h64v332h124c222 0 361 -131 361 -350c0 -231 -139 -350 -361 -350h-124v344h-64zM121 25h98c200 0 334 108 334 325c0 206 -134 325 -334 325h-98v-307h173v-24h-173v-319z" />
    <glyph glyph-name="multiply" unicode="&#xd7;" horiz-adv-x="534" 
d="M472 518l-190 -208l190 -207l-16 -16l-189 206l-189 -206l-16 16l189 207l-189 208l16 16l189 -207l189 207z" />
    <glyph glyph-name="Yacute" unicode="&#xdd;" horiz-adv-x="486" 
d="M230 0v337l-218 363h29l202 -338l202 338h29l-218 -363v-337h-26zM222 748l74 140h34l-82 -140h-26z" />
    <glyph glyph-name="Thorn" unicode="&#xde;" horiz-adv-x="477" 
d="M90 0v700h26v-149h135c109 0 192 -68 192 -188s-82 -188 -192 -188h-135v-175h-26zM116 200h133c97 0 167 61 167 163c0 101 -65 163 -167 163h-133v-326z" />
    <glyph glyph-name="eth" unicode="&#xf0;" horiz-adv-x="585" 
d="M42 246c0 141 95 256 248 256c92 0 149 -39 190 -83c-37 79 -121 156 -178 193l-158 -65l-7 23l143 59c-39 27 -82 51 -129 75l19 13c39 -18 91 -47 135 -78l115 48l7 -22l-99 -41c156 -118 215 -228 215 -371c0 -168 -93 -266 -255 -266c-145 0 -246 115 -246 259z
M69 246c0 -128 87 -234 219 -234c150 0 229 96 229 234s-96 231 -227 231c-139 0 -221 -105 -221 -231z" />
    <glyph glyph-name="yacute" unicode="&#xfd;" horiz-adv-x="480" 
d="M181 -179h-29l77 177l-222 518h28l208 -488l202 488h28zM217 583l74 140h34l-82 -140h-26z" />
    <glyph glyph-name="thorn" unicode="&#xfe;" horiz-adv-x="606" 
d="M106 723v-332c22 54 92 138 215 138c143 0 243 -111 243 -271s-100 -271 -243 -271c-123 0 -193 84 -215 138v-312h-25v910h25zM105 258c0 -165 107 -246 216 -246c122 0 217 101 217 246s-95 246 -217 246c-109 0 -216 -81 -216 -246z" />
    <glyph glyph-name="Amacron" unicode="&#x100;" horiz-adv-x="604" 
d="M457 265h-310l-102 -265h-28l273 700h24l273 -700h-28zM448 289l-146 376l-146 -376h292zM190 780v26h227v-26h-227z" />
    <glyph glyph-name="amacron" unicode="&#x101;" 
d="M43 158c0 93 81 165 193 165c84 0 138 -40 164 -79v111c0 99 -63 149 -155 149c-73 0 -126 -26 -165 -50l-13 22c29 17 98 53 177 53c119 0 181 -69 181 -175v-354h-20l-5 72c-24 -40 -77 -85 -164 -85c-117 0 -193 75 -193 171zM69 157c0 -76 63 -145 167 -145
c99 0 167 65 167 145c0 82 -73 141 -167 141c-102 0 -167 -64 -167 -141zM137 655v26h227v-26h-227z" />
    <glyph glyph-name="Abreve" unicode="&#x102;" horiz-adv-x="604" 
d="M457 265h-310l-102 -265h-28l273 700h24l273 -700h-28zM448 289l-146 376l-146 -376h292zM303 755c-71 0 -103 50 -103 108h24c0 -50 28 -84 79 -84s79 34 79 84h24c0 -58 -32 -108 -103 -108z" />
    <glyph glyph-name="abreve" unicode="&#x103;" 
d="M43 158c0 93 81 165 193 165c84 0 138 -40 164 -79v111c0 99 -63 149 -155 149c-73 0 -126 -26 -165 -50l-13 22c29 17 98 53 177 53c119 0 181 -69 181 -175v-354h-20l-5 72c-24 -40 -77 -85 -164 -85c-117 0 -193 75 -193 171zM69 157c0 -76 63 -145 167 -145
c99 0 167 65 167 145c0 82 -73 141 -167 141c-102 0 -167 -64 -167 -141zM247 595c-71 0 -103 50 -103 108h24c0 -50 28 -84 79 -84s79 34 79 84h24c0 -58 -32 -108 -103 -108z" />
    <glyph glyph-name="Aogonek" unicode="&#x104;" horiz-adv-x="604" 
d="M479 -97c0 44 32 84 78 101l-100 261h-310l-102 -265h-28l273 700h24l273 -700c-44 -18 -83 -50 -83 -93c0 -48 43 -71 83 -71v-25c-54 0 -108 29 -108 92zM448 289l-146 376l-146 -376h292z" />
    <glyph glyph-name="aogonek" unicode="&#x105;" 
d="M317 -97c0 51 43 90 83 104v65c-24 -40 -77 -85 -164 -85c-117 0 -193 75 -193 171c0 93 81 165 193 165c84 0 138 -40 164 -79v111c0 99 -63 149 -155 149c-73 0 -126 -26 -165 -50l-13 22c29 17 98 53 177 53c119 0 181 -69 181 -175v-354c-43 -16 -83 -47 -83 -93
c0 -48 43 -71 83 -71v-25c-54 0 -108 29 -108 92zM69 157c0 -76 63 -145 167 -145c99 0 167 65 167 145c0 82 -73 141 -167 141c-102 0 -167 -64 -167 -141z" />
    <glyph glyph-name="Cacute" unicode="&#x106;" horiz-adv-x="672" 
d="M618 104l13 -23c-25 -22 -109 -94 -240 -94c-193 0 -346 156 -346 363s159 363 346 363c117 0 190 -53 222 -81l-11 -24c-22 20 -96 79 -211 79c-170 0 -319 -141 -319 -337s146 -337 319 -337c118 0 202 68 227 91zM345 748l74 140h34l-82 -140h-26z" />
    <glyph glyph-name="cacute" unicode="&#x107;" horiz-adv-x="533" 
d="M495 443l-15 -22c-24 27 -78 82 -177 82c-127 0 -234 -106 -234 -245c0 -134 109 -245 234 -245c108 0 162 64 181 89l12 -24c-13 -20 -76 -91 -193 -91c-147 0 -261 120 -261 271c0 150 115 271 261 271c109 0 170 -60 192 -86zM277 583l74 140h34l-82 -140h-26z" />
    <glyph glyph-name="Ccircumflex" unicode="&#x108;" horiz-adv-x="672" 
d="M618 104l13 -23c-25 -22 -109 -94 -240 -94c-193 0 -346 156 -346 363s159 363 346 363c117 0 190 -53 222 -81l-11 -24c-22 20 -96 79 -211 79c-170 0 -319 -141 -319 -337s146 -337 319 -337c118 0 202 68 227 91zM398 855l-81 -96h-27l94 121h28l94 -121h-27z" />
    <glyph glyph-name="ccircumflex" unicode="&#x109;" horiz-adv-x="533" 
d="M495 443l-15 -22c-24 27 -78 82 -177 82c-127 0 -234 -106 -234 -245c0 -134 109 -245 234 -245c108 0 162 64 181 89l12 -24c-13 -20 -76 -91 -193 -91c-147 0 -261 120 -261 271c0 150 115 271 261 271c109 0 170 -60 192 -86zM307 699l-81 -96h-27l94 121h28l94 -121
h-27z" />
    <glyph glyph-name="Cdotaccent" unicode="&#x10a;" horiz-adv-x="672" 
d="M618 104l13 -23c-25 -22 -109 -94 -240 -94c-193 0 -346 156 -346 363s159 363 346 363c117 0 190 -53 222 -81l-11 -24c-22 20 -96 79 -211 79c-170 0 -319 -141 -319 -337s146 -337 319 -337c118 0 202 68 227 91zM362 814c0 16 14 30 31 30s31 -14 31 -30
c0 -17 -14 -31 -31 -31s-31 14 -31 31z" />
    <glyph glyph-name="cdotaccent" unicode="&#x10b;" horiz-adv-x="533" 
d="M495 443l-15 -22c-24 27 -78 82 -177 82c-127 0 -234 -106 -234 -245c0 -134 109 -245 234 -245c108 0 162 64 181 89l12 -24c-13 -20 -76 -91 -193 -91c-147 0 -261 120 -261 271c0 150 115 271 261 271c109 0 170 -60 192 -86zM276 660c0 16 14 30 31 30s31 -14 31 -30
c0 -17 -14 -31 -31 -31s-31 14 -31 31z" />
    <glyph glyph-name="Ccaron" unicode="&#x10c;" horiz-adv-x="672" 
d="M618 104l13 -23c-25 -22 -109 -94 -240 -94c-193 0 -346 156 -346 363s159 363 346 363c117 0 190 -53 222 -81l-11 -24c-22 20 -96 79 -211 79c-170 0 -319 -141 -319 -337s146 -337 319 -337c118 0 202 68 227 91zM309 880l81 -96l81 96h27l-94 -121h-28l-94 121h27z
" />
    <glyph glyph-name="ccaron" unicode="&#x10d;" horiz-adv-x="533" 
d="M495 443l-15 -22c-24 27 -78 82 -177 82c-127 0 -234 -106 -234 -245c0 -134 109 -245 234 -245c108 0 162 64 181 89l12 -24c-13 -20 -76 -91 -193 -91c-147 0 -261 120 -261 271c0 150 115 271 261 271c109 0 170 -60 192 -86zM224 724l81 -96l81 96h27l-94 -121h-28
l-94 121h27z" />
    <glyph glyph-name="Dcaron" unicode="&#x10e;" horiz-adv-x="620" 
d="M90 0v700h124c222 0 361 -131 361 -350c0 -231 -139 -350 -361 -350h-124zM116 25h98c200 0 334 108 334 325c0 206 -134 325 -334 325h-98v-650zM183 880l81 -96l81 96h27l-94 -121h-28l-94 121h27z" />
    <glyph glyph-name="dcaron" unicode="&#x10f;" horiz-adv-x="606" 
d="M566 563l14 160h27l-22 -160h-19zM500 0v125c-22 -54 -92 -138 -215 -138c-143 0 -243 111 -243 271s100 271 243 271c123 0 193 -84 215 -138v332h25v-723h-25zM501 258c0 165 -107 246 -216 246c-122 0 -217 -101 -217 -246s95 -246 217 -246c109 0 216 81 216 246z
" />
    <glyph glyph-name="Dcroat" unicode="&#x110;" horiz-adv-x="622" 
d="M31 344v24h64v332h124c222 0 361 -131 361 -350c0 -231 -139 -350 -361 -350h-124v344h-64zM121 25h98c200 0 334 108 334 325c0 206 -134 325 -334 325h-98v-307h173v-24h-173v-319z" />
    <glyph glyph-name="dcroat" unicode="&#x111;" horiz-adv-x="606" 
d="M500 608h-137v23h137v92h25v-92h71v-23h-71v-608h-25v125c-22 -54 -92 -138 -215 -138c-143 0 -243 111 -243 271s100 271 243 271c123 0 193 -84 215 -138v217zM501 258c0 165 -107 246 -216 246c-122 0 -217 -101 -217 -246s95 -246 217 -246c109 0 216 81 216 246z
" />
    <glyph glyph-name="Emacron" unicode="&#x112;" horiz-adv-x="468" 
d="M90 0v700h307v-25h-281v-304h248v-25h-248v-321h293v-25h-319zM139 780v26h227v-26h-227z" />
    <glyph glyph-name="emacron" unicode="&#x113;" horiz-adv-x="570" 
d="M41 257c0 174 119 272 247 272c149 0 243 -110 243 -253v-18h-464c0 -157 98 -246 235 -246c100 0 156 51 191 99l19 -13c-37 -57 -103 -111 -210 -111c-157 0 -261 107 -261 270zM68 282h437c-7 148 -110 222 -217 222c-106 0 -209 -80 -220 -222zM188 655v26h227v-26
h-227z" />
    <glyph glyph-name="Ebreve" unicode="&#x114;" horiz-adv-x="468" 
d="M90 0v700h307v-25h-281v-304h248v-25h-248v-321h293v-25h-319zM247 755c-71 0 -103 50 -103 108h24c0 -50 28 -84 79 -84s79 34 79 84h24c0 -58 -32 -108 -103 -108z" />
    <glyph glyph-name="ebreve" unicode="&#x115;" horiz-adv-x="570" 
d="M41 257c0 174 119 272 247 272c149 0 243 -110 243 -253v-18h-464c0 -157 98 -246 235 -246c100 0 156 51 191 99l19 -13c-37 -57 -103 -111 -210 -111c-157 0 -261 107 -261 270zM68 282h437c-7 148 -110 222 -217 222c-106 0 -209 -80 -220 -222zM293 595
c-71 0 -103 50 -103 108h24c0 -50 28 -84 79 -84s79 34 79 84h24c0 -58 -32 -108 -103 -108z" />
    <glyph glyph-name="Edotaccent" unicode="&#x116;" horiz-adv-x="468" 
d="M90 0v700h307v-25h-281v-304h248v-25h-248v-321h293v-25h-319zM234 814c0 16 14 30 31 30s31 -14 31 -30c0 -17 -14 -31 -31 -31s-31 14 -31 31z" />
    <glyph glyph-name="edotaccent" unicode="&#x117;" horiz-adv-x="570" 
d="M41 257c0 174 119 272 247 272c149 0 243 -110 243 -253v-18h-464c0 -157 98 -246 235 -246c100 0 156 51 191 99l19 -13c-37 -57 -103 -111 -210 -111c-157 0 -261 107 -261 270zM68 282h437c-7 148 -110 222 -217 222c-106 0 -209 -80 -220 -222zM262 660
c0 16 14 30 31 30s31 -14 31 -30c0 -17 -14 -31 -31 -31s-31 14 -31 31z" />
    <glyph glyph-name="Eogonek" unicode="&#x118;" horiz-adv-x="468" 
d="M90 0v700h307v-25h-281v-304h248v-25h-248v-321h293v-25c-44 -15 -83 -47 -83 -93c0 -48 43 -71 83 -71v-25c-54 0 -108 29 -108 92c0 44 31 81 69 97h-280z" />
    <glyph glyph-name="eogonek" unicode="&#x119;" horiz-adv-x="570" 
d="M279 -97c0 36 21 66 50 85c-9 -1 -18 -1 -27 -1c-157 0 -261 107 -261 270c0 174 119 272 247 272c149 0 243 -110 243 -253v-18h-464c0 -157 98 -246 235 -246c100 0 156 51 191 99l19 -13c-27 -42 -70 -82 -132 -100c-41 -16 -76 -47 -76 -91c0 -48 43 -71 83 -71v-25
c-54 0 -108 29 -108 92zM68 282h437c-7 148 -110 222 -217 222c-106 0 -209 -80 -220 -222z" />
    <glyph glyph-name="Ecaron" unicode="&#x11a;" horiz-adv-x="468" 
d="M90 0v700h307v-25h-281v-304h248v-25h-248v-321h293v-25h-319zM174 880l81 -96l81 96h27l-94 -121h-28l-94 121h27z" />
    <glyph glyph-name="ecaron" unicode="&#x11b;" horiz-adv-x="570" 
d="M41 257c0 174 119 272 247 272c149 0 243 -110 243 -253v-18h-464c0 -157 98 -246 235 -246c100 0 156 51 191 99l19 -13c-37 -57 -103 -111 -210 -111c-157 0 -261 107 -261 270zM68 282h437c-7 148 -110 222 -217 222c-106 0 -209 -80 -220 -222zM210 724l81 -96l81 96
h27l-94 -121h-28l-94 121h27z" />
    <glyph glyph-name="Gcircumflex" unicode="&#x11c;" horiz-adv-x="726" 
d="M392 713c128 0 203 -56 239 -89l-17 -20c-39 37 -109 83 -222 83c-183 0 -320 -143 -320 -337c0 -193 138 -337 320 -337c132 0 214 70 238 97v193h-179v25h204v-229c-70 -76 -154 -112 -263 -112c-203 0 -347 159 -347 363c0 209 151 363 347 363zM392 855l-81 -96h-27
l94 121h28l94 -121h-27z" />
    <glyph glyph-name="gcircumflex" unicode="&#x11d;" horiz-adv-x="599" 
d="M499 391v125h25v-456c0 -177 -93 -251 -240 -251c-67 0 -137 25 -185 56l14 22c27 -17 94 -52 171 -52c132 0 215 73 215 222v68c-22 -54 -92 -138 -215 -138c-143 0 -243 111 -243 271s100 271 243 271c123 0 193 -84 215 -138zM500 258c0 165 -107 246 -216 246
c-122 0 -217 -101 -217 -246s95 -246 217 -246c109 0 216 81 216 246zM299 699l-81 -96h-27l94 121h28l94 -121h-27z" />
    <glyph glyph-name="Gbreve" unicode="&#x11e;" horiz-adv-x="726" 
d="M392 713c128 0 203 -56 239 -89l-17 -20c-39 37 -109 83 -222 83c-183 0 -320 -143 -320 -337c0 -193 138 -337 320 -337c132 0 214 70 238 97v193h-179v25h204v-229c-70 -76 -154 -112 -263 -112c-203 0 -347 159 -347 363c0 209 151 363 347 363zM392 755
c-71 0 -103 50 -103 108h24c0 -50 28 -84 79 -84s79 34 79 84h24c0 -58 -32 -108 -103 -108z" />
    <glyph glyph-name="gbreve" unicode="&#x11f;" horiz-adv-x="599" 
d="M499 391v125h25v-456c0 -177 -93 -251 -240 -251c-67 0 -137 25 -185 56l14 22c27 -17 94 -52 171 -52c132 0 215 73 215 222v68c-22 -54 -92 -138 -215 -138c-143 0 -243 111 -243 271s100 271 243 271c123 0 193 -84 215 -138zM500 258c0 165 -107 246 -216 246
c-122 0 -217 -101 -217 -246s95 -246 217 -246c109 0 216 81 216 246zM288 595c-71 0 -103 50 -103 108h24c0 -50 28 -84 79 -84s79 34 79 84h24c0 -58 -32 -108 -103 -108z" />
    <glyph glyph-name="Gdotaccent" unicode="&#x120;" horiz-adv-x="726" 
d="M392 713c128 0 203 -56 239 -89l-17 -20c-39 37 -109 83 -222 83c-183 0 -320 -143 -320 -337c0 -193 138 -337 320 -337c132 0 214 70 238 97v193h-179v25h204v-229c-70 -76 -154 -112 -263 -112c-203 0 -347 159 -347 363c0 209 151 363 347 363zM361 814
c0 16 14 30 31 30s31 -14 31 -30c0 -17 -14 -31 -31 -31s-31 14 -31 31z" />
    <glyph glyph-name="gdotaccent" unicode="&#x121;" horiz-adv-x="599" 
d="M499 391v125h25v-456c0 -177 -93 -251 -240 -251c-67 0 -137 25 -185 56l14 22c27 -17 94 -52 171 -52c132 0 215 73 215 222v68c-22 -54 -92 -138 -215 -138c-143 0 -243 111 -243 271s100 271 243 271c123 0 193 -84 215 -138zM500 258c0 165 -107 246 -216 246
c-122 0 -217 -101 -217 -246s95 -246 217 -246c109 0 216 81 216 246zM259 660c0 16 14 30 31 30s31 -14 31 -30c0 -17 -14 -31 -31 -31s-31 14 -31 31z" />
    <glyph glyph-name="Gcommaaccent" unicode="&#x122;" horiz-adv-x="726" 
d="M392 713c128 0 203 -56 239 -89l-17 -20c-39 37 -109 83 -222 83c-183 0 -320 -143 -320 -337c0 -193 138 -337 320 -337c132 0 214 70 238 97v193h-179v25h204v-229c-70 -76 -154 -112 -263 -112c-203 0 -347 159 -347 363c0 209 151 363 347 363zM367 -67
c0 16 13 30 29 30c20 0 31 -16 31 -33c0 -45 -24 -82 -47 -104l-17 16c11 11 31 34 35 61c-16 0 -31 12 -31 30z" />
    <glyph glyph-name="gcommaaccent" unicode="&#x123;" horiz-adv-x="599" 
d="M499 391v125h25v-456c0 -177 -93 -251 -240 -251c-67 0 -137 25 -185 56l14 22c27 -17 94 -52 171 -52c132 0 215 73 215 222v68c-22 -54 -92 -138 -215 -138c-143 0 -243 111 -243 271s100 271 243 271c123 0 193 -84 215 -138zM500 258c0 165 -107 246 -216 246
c-122 0 -217 -101 -217 -246s95 -246 217 -246c109 0 216 81 216 246zM321 630c0 -16 -13 -30 -29 -30c-20 0 -31 16 -31 33c0 48 23 80 47 104l17 -16c-11 -11 -31 -34 -35 -61c16 0 31 -12 31 -30z" />
    <glyph glyph-name="Hcircumflex" unicode="&#x124;" horiz-adv-x="679" 
d="M90 0v700h26v-329h447v329h26v-700h-26v347h-447v-347h-26zM341 855l-81 -96h-27l94 121h28l94 -121h-27z" />
    <glyph glyph-name="hcircumflex" unicode="&#x125;" horiz-adv-x="542" 
d="M278 529c95 0 189 -62 189 -182v-347h-25v337c0 105 -73 167 -164 167c-98 0 -172 -73 -172 -186v-318h-25v723h25v-300c28 64 95 106 172 106zM275 846l-81 -96h-27l94 121h28l94 -121h-27z" />
    <glyph glyph-name="Hbar" unicode="&#x126;" horiz-adv-x="679" 
d="M90 0v524h-65v25h65v151h26v-151h447v151h26v-151h65v-25h-65v-524h-26v347h-447v-347h-26zM116 371h447v153h-447v-153z" />
    <glyph glyph-name="hbar" unicode="&#x127;" horiz-adv-x="542" 
d="M7 607v24h74v92h25v-92h128v-24h-128v-184c28 64 95 106 172 106c95 0 189 -62 189 -182v-347h-25v337c0 105 -73 167 -164 167c-98 0 -172 -73 -172 -186v-318h-25v607h-74z" />
    <glyph glyph-name="Itilde" unicode="&#x128;" horiz-adv-x="206" 
d="M90 0v700h26v-700h-26zM171 798c26 0 47 21 47 52h25c0 -48 -32 -77 -75 -77c-53 0 -82 53 -130 53c-26 0 -47 -21 -47 -52h-25c0 48 32 77 75 77c53 0 82 -53 130 -53z" />
    <glyph glyph-name="itilde" unicode="&#x129;" horiz-adv-x="187" 
d="M81 0v516h25v-516h-25zM161 641c26 0 47 21 47 52h25c0 -48 -32 -77 -75 -77c-53 0 -82 53 -130 53c-26 0 -47 -21 -47 -52h-25c0 48 32 77 75 77c53 0 82 -53 130 -53z" />
    <glyph glyph-name="Imacron" unicode="&#x12a;" horiz-adv-x="206" 
d="M90 0v700h26v-700h-26zM-8 780v26h227v-26h-227z" />
    <glyph glyph-name="imacron" unicode="&#x12b;" horiz-adv-x="187" 
d="M81 0v516h25v-516h-25zM-19 655v26h227v-26h-227z" />
    <glyph glyph-name="Ibreve" unicode="&#x12c;" horiz-adv-x="206" 
d="M90 0v700h26v-700h-26zM104 755c-71 0 -103 50 -103 108h24c0 -50 28 -84 79 -84s79 34 79 84h24c0 -58 -32 -108 -103 -108z" />
    <glyph glyph-name="ibreve" unicode="&#x12d;" horiz-adv-x="187" 
d="M81 0v516h25v-516h-25zM94 595c-71 0 -103 50 -103 108h24c0 -50 28 -84 79 -84s79 34 79 84h24c0 -58 -32 -108 -103 -108z" />
    <glyph glyph-name="Iogonek" unicode="&#x12e;" horiz-adv-x="206" 
d="M8 -97c0 44 35 81 82 100v697h26v-700c-40 -15 -83 -47 -83 -93c0 -48 43 -71 83 -71v-25c-54 0 -108 29 -108 92z" />
    <glyph glyph-name="iogonek" unicode="&#x12f;" horiz-adv-x="187" 
d="M-2 -97c0 44 35 83 83 100v513h25v-516c-44 -15 -83 -47 -83 -93c0 -48 43 -71 83 -71v-25c-54 0 -108 29 -108 92zM64 660c0 16 13 29 30 29s30 -13 30 -29c0 -17 -13 -30 -30 -30s-30 13 -30 30z" />
    <glyph glyph-name="Idotaccent" unicode="&#x130;" horiz-adv-x="206" 
d="M90 0v700h26v-700h-26zM73 814c0 16 14 30 31 30s31 -14 31 -30c0 -17 -14 -31 -31 -31s-31 14 -31 31z" />
    <glyph glyph-name="IJ" unicode="&#x132;" horiz-adv-x="524" 
d="M90 0v700h26v-700h-26zM229 4l3 22c21 -5 46 -9 73 -9c62 0 103 31 103 124v559h26v-559c0 -89 -37 -147 -129 -147c-34 0 -67 7 -76 10z" />
    <glyph glyph-name="ij" unicode="&#x133;" horiz-adv-x="374" 
d="M81 0v516h25v-516h-25zM64 660c0 16 13 29 30 29s30 -13 30 -29c0 -17 -13 -30 -30 -30s-30 13 -30 30zM268 -28v544h25v-541c0 -126 -56 -165 -127 -165c-9 0 -21 1 -21 1v25s12 -1 22 -1c66 0 101 41 101 137zM251 660c0 16 13 29 30 29s30 -13 30 -29
c0 -17 -13 -30 -30 -30s-30 13 -30 30z" />
    <glyph glyph-name="Jcircumflex" unicode="&#x134;" horiz-adv-x="319" 
d="M24 4l3 22c21 -5 46 -9 73 -9c62 0 103 31 103 124v559h26v-559c0 -89 -37 -147 -129 -147c-34 0 -67 7 -76 10zM219 855l-81 -96h-27l94 121h28l94 -121h-27z" />
    <glyph glyph-name="jcircumflex" unicode="&#x135;" horiz-adv-x="187" 
d="M81 -28v544h25v-541c0 -126 -56 -165 -127 -165c-9 0 -21 1 -21 1v25s12 -1 22 -1c66 0 101 41 101 137zM93 699l-81 -96h-27l94 121h28l94 -121h-27z" />
    <glyph glyph-name="Kcommaaccent" unicode="&#x136;" horiz-adv-x="520" 
d="M90 0v700h26v-330l330 330h35l-334 -335l349 -365h-33l-347 359v-359h-26zM251 -67c0 16 13 30 29 30c20 0 31 -16 31 -33c0 -45 -24 -82 -47 -104l-17 16c11 11 31 34 35 61c-16 0 -31 12 -31 30z" />
    <glyph glyph-name="kcommaaccent" unicode="&#x137;" horiz-adv-x="428" 
d="M81 0v723h25v-431l263 224h38l-272 -229l285 -287h-38l-276 281v-281h-25zM212 -67c0 16 13 30 29 30c20 0 31 -16 31 -33c0 -45 -24 -82 -47 -104l-17 16c11 11 31 34 35 61c-16 0 -31 12 -31 30z" />
    <glyph glyph-name="kgreenlandic" unicode="&#x138;" horiz-adv-x="428" 
d="M81 0v516h25v-232l263 232h38l-272 -237l285 -279h-38l-276 273v-273h-25z" />
    <glyph glyph-name="Lacute" unicode="&#x139;" horiz-adv-x="443" 
d="M90 0v700h26v-675h293v-25h-319zM89 748l74 140h34l-82 -140h-26z" />
    <glyph glyph-name="lacute" unicode="&#x13a;" horiz-adv-x="187" 
d="M81 0v723h25v-723h-25zM78 748l74 140h34l-82 -140h-26z" />
    <glyph glyph-name="Lcommaaccent" unicode="&#x13b;" horiz-adv-x="443" 
d="M90 0v700h26v-675h293v-25h-319zM223 -67c0 16 13 30 29 30c20 0 31 -16 31 -33c0 -45 -24 -82 -47 -104l-17 16c11 11 31 34 35 61c-16 0 -31 12 -31 30z" />
    <glyph glyph-name="lcommaaccent" unicode="&#x13c;" horiz-adv-x="187" 
d="M81 0v723h25v-723h-25zM63 -67c0 16 13 30 29 30c20 0 31 -16 31 -33c0 -45 -24 -82 -47 -104l-17 16c11 11 31 34 35 61c-16 0 -31 12 -31 30z" />
    <glyph glyph-name="Lcaron" unicode="&#x13d;" horiz-adv-x="443" 
d="M265 540l14 160h27l-22 -160h-19zM90 0v700h26v-675h293v-25h-319z" />
    <glyph glyph-name="lcaron" unicode="&#x13e;" horiz-adv-x="188" 
d="M147 563l14 160h27l-22 -160h-19zM81 0v723h25v-723h-25z" />
    <glyph glyph-name="Ldot" unicode="&#x13f;" horiz-adv-x="443" 
d="M90 0v700h26v-675h293v-25h-319zM259 363c0 16 12 30 30 30s30 -14 30 -30s-12 -30 -30 -30s-30 14 -30 30z" />
    <glyph glyph-name="ldot" unicode="&#x140;" horiz-adv-x="257" 
d="M81 0v723h25v-723h-25zM149 363c0 16 12 30 30 30s30 -14 30 -30s-12 -30 -30 -30s-30 14 -30 30z" />
    <glyph glyph-name="Lslash" unicode="&#x141;" horiz-adv-x="443" 
d="M29 282v29l61 38v351h26v-336l140 89v-30l-140 -88v-310h293v-25h-319v320z" />
    <glyph glyph-name="lslash" unicode="&#x142;" horiz-adv-x="226" 
d="M26 327v28l74 52v316h26v-298l76 54v-28l-76 -55v-396h-26v378z" />
    <glyph glyph-name="Nacute" unicode="&#x143;" horiz-adv-x="696" 
d="M90 0v700h24l467 -653v653h25v-700h-25l-466 656v-656h-25zM328 748l74 140h34l-82 -140h-26z" />
    <glyph glyph-name="nacute" unicode="&#x144;" horiz-adv-x="537" 
d="M275 529c95 0 186 -62 186 -182v-347h-25v337c0 105 -70 167 -161 167c-98 0 -169 -73 -169 -186v-318h-25v516h25v-93c28 64 92 106 169 106zM236 583l74 140h34l-82 -140h-26z" />
    <glyph glyph-name="Ncommaaccent" unicode="&#x145;" horiz-adv-x="696" 
d="M90 0v700h24l467 -653v653h25v-700h-25l-466 656v-656h-25zM317 -67c0 16 13 30 29 30c20 0 31 -16 31 -33c0 -45 -24 -82 -47 -104l-17 16c11 11 31 34 35 61c-16 0 -31 12 -31 30z" />
    <glyph glyph-name="ncommaaccent" unicode="&#x146;" horiz-adv-x="537" 
d="M275 529c95 0 186 -62 186 -182v-347h-25v337c0 105 -70 167 -161 167c-98 0 -169 -73 -169 -186v-318h-25v516h25v-93c28 64 92 106 169 106zM242 -67c0 16 13 30 29 30c20 0 31 -16 31 -33c0 -45 -24 -82 -47 -104l-17 16c11 11 31 34 35 61c-16 0 -31 12 -31 30z" />
    <glyph glyph-name="Ncaron" unicode="&#x147;" horiz-adv-x="696" 
d="M90 0v700h24l467 -653v653h25v-700h-25l-466 656v-656h-25zM265 880l81 -96l81 96h27l-94 -121h-28l-94 121h27z" />
    <glyph glyph-name="ncaron" unicode="&#x148;" horiz-adv-x="537" 
d="M275 529c95 0 186 -62 186 -182v-347h-25v337c0 105 -70 167 -161 167c-98 0 -169 -73 -169 -186v-318h-25v516h25v-93c28 64 92 106 169 106zM189 724l81 -96l81 96h27l-94 -121h-28l-94 121h27z" />
    <glyph glyph-name="napostrophe" unicode="&#x149;" horiz-adv-x="537" 
d="M275 529c95 0 186 -62 186 -182v-347h-25v337c0 105 -70 167 -161 167c-98 0 -169 -73 -169 -186v-318h-25v516h25v-93c28 64 92 106 169 106zM27 675c0 16 13 30 29 30c20 0 31 -16 31 -33c0 -45 -24 -82 -47 -104l-17 16c11 11 31 34 35 61c-16 0 -31 12 -31 30z" />
    <glyph glyph-name="Eng" unicode="&#x14a;" horiz-adv-x="696" 
d="M401 -180l3 22c21 -5 46 -9 73 -9c62 0 104 31 104 124v43l-466 656v-656h-25v700h24l467 -653v653h25v-743c0 -89 -37 -147 -129 -147c-34 0 -67 7 -76 10z" />
    <glyph glyph-name="eng" unicode="&#x14b;" horiz-adv-x="537" 
d="M436 -28v365c0 105 -70 167 -161 167c-98 0 -169 -73 -169 -186v-318h-25v516h25v-93c28 64 92 106 169 106c95 0 186 -62 186 -182v-372c0 -126 -56 -165 -127 -165c-9 0 -21 1 -21 1v25s12 -1 22 -1c66 0 101 41 101 137z" />
    <glyph glyph-name="Omacron" unicode="&#x14c;" horiz-adv-x="790" 
d="M395 -13c-192 0 -350 153 -350 363c0 208 157 363 350 363s350 -155 350 -363c0 -210 -158 -363 -350 -363zM395 687c-182 0 -323 -144 -323 -337c0 -196 141 -337 323 -337s323 141 323 337c0 193 -141 337 -323 337zM283 780v26h227v-26h-227z" />
    <glyph glyph-name="omacron" unicode="&#x14d;" horiz-adv-x="608" 
d="M304 12c138 0 236 109 236 246s-98 246 -236 246s-236 -109 -236 -246s98 -246 236 -246zM304 529c150 0 262 -117 262 -271s-112 -271 -262 -271s-262 117 -262 271s112 271 262 271zM198 655v26h227v-26h-227z" />
    <glyph glyph-name="Obreve" unicode="&#x14e;" horiz-adv-x="790" 
d="M395 -13c-192 0 -350 153 -350 363c0 208 157 363 350 363s350 -155 350 -363c0 -210 -158 -363 -350 -363zM395 687c-182 0 -323 -144 -323 -337c0 -196 141 -337 323 -337s323 141 323 337c0 193 -141 337 -323 337zM394 755c-71 0 -103 50 -103 108h24
c0 -50 28 -84 79 -84s79 34 79 84h24c0 -58 -32 -108 -103 -108z" />
    <glyph glyph-name="obreve" unicode="&#x14f;" horiz-adv-x="608" 
d="M304 12c138 0 236 109 236 246s-98 246 -236 246s-236 -109 -236 -246s98 -246 236 -246zM304 529c150 0 262 -117 262 -271s-112 -271 -262 -271s-262 117 -262 271s112 271 262 271zM304 595c-71 0 -103 50 -103 108h24c0 -50 28 -84 79 -84s79 34 79 84h24
c0 -58 -32 -108 -103 -108z" />
    <glyph glyph-name="Ohungarumlaut" unicode="&#x150;" horiz-adv-x="790" 
d="M395 -13c-192 0 -350 153 -350 363c0 208 157 363 350 363s350 -155 350 -363c0 -210 -158 -363 -350 -363zM395 687c-182 0 -323 -144 -323 -337c0 -196 141 -337 323 -337s323 141 323 337c0 193 -141 337 -323 337zM310 742l74 140h34l-82 -140h-26zM411 742l74 140
h34l-82 -140h-26z" />
    <glyph glyph-name="ohungarumlaut" unicode="&#x151;" horiz-adv-x="608" 
d="M304 12c138 0 236 109 236 246s-98 246 -236 246s-236 -109 -236 -246s98 -246 236 -246zM304 529c150 0 262 -117 262 -271s-112 -271 -262 -271s-262 117 -262 271s112 271 262 271zM223 583l74 140h34l-82 -140h-26zM324 583l74 140h34l-82 -140h-26z" />
    <glyph glyph-name="Racute" unicode="&#x154;" horiz-adv-x="512" 
d="M90 0v700h155c113 0 193 -73 193 -180c0 -103 -66 -159 -141 -179l186 -341h-29l-182 336s-27 -3 -53 -3h-103v-333h-26zM116 358h114c115 0 181 69 181 162c0 84 -60 155 -166 155h-129v-317zM217 748l74 140h34l-82 -140h-26z" />
    <glyph glyph-name="racute" unicode="&#x155;" horiz-adv-x="301" 
d="M271 529v-26c-127 0 -165 -108 -165 -230v-273h-25v516h25v-109c17 69 77 122 165 122zM149 583l74 140h34l-82 -140h-26z" />
    <glyph glyph-name="Rcommaaccent" unicode="&#x156;" horiz-adv-x="512" 
d="M90 0v700h155c113 0 193 -73 193 -180c0 -103 -66 -159 -141 -179l186 -341h-29l-182 336s-27 -3 -53 -3h-103v-333h-26zM116 358h114c115 0 181 69 181 162c0 84 -60 155 -166 155h-129v-317zM235 -67c0 16 13 30 29 30c20 0 31 -16 31 -33c0 -45 -24 -82 -47 -104
l-17 16c11 11 31 34 35 61c-16 0 -31 12 -31 30z" />
    <glyph glyph-name="rcommaaccent" unicode="&#x157;" horiz-adv-x="301" 
d="M271 529v-26c-127 0 -165 -108 -165 -230v-273h-25v516h25v-109c17 69 77 122 165 122zM71 -67c0 16 13 30 29 30c20 0 31 -16 31 -33c0 -45 -24 -82 -47 -104l-17 16c11 11 31 34 35 61c-16 0 -31 12 -31 30z" />
    <glyph glyph-name="Rcaron" unicode="&#x158;" horiz-adv-x="512" 
d="M90 0v700h155c113 0 193 -73 193 -180c0 -103 -66 -159 -141 -179l186 -341h-29l-182 336s-27 -3 -53 -3h-103v-333h-26zM116 358h114c115 0 181 69 181 162c0 84 -60 155 -166 155h-129v-317zM162 880l81 -96l81 96h27l-94 -121h-28l-94 121h27z" />
    <glyph glyph-name="rcaron" unicode="&#x159;" horiz-adv-x="301" 
d="M271 529v-26c-127 0 -165 -108 -165 -230v-273h-25v516h25v-109c17 69 77 122 165 122zM87 724l81 -96l81 96h27l-94 -121h-28l-94 121h27z" />
    <glyph glyph-name="Sacute" unicode="&#x15a;" horiz-adv-x="493" 
d="M45 132l26 7c19 -59 66 -126 181 -126c93 0 165 61 165 154c0 219 -350 164 -350 383c0 85 64 163 181 163c112 0 161 -73 181 -116l-24 -10c-18 39 -62 100 -157 100c-99 0 -155 -60 -155 -137c0 -195 351 -143 351 -382c0 -99 -75 -181 -192 -181
c-126 0 -182 69 -207 145zM224 748l74 140h34l-82 -140h-26z" />
    <glyph glyph-name="sacute" unicode="&#x15b;" horiz-adv-x="402" 
d="M39 110l25 6c13 -51 53 -104 144 -104c65 0 127 44 127 117c0 156 -274 108 -274 275c0 77 61 125 141 125c93 0 138 -61 148 -101l-23 -7c-12 36 -44 83 -125 83c-64 0 -115 -37 -115 -100c0 -143 274 -96 274 -275c0 -83 -65 -142 -153 -142c-109 0 -155 68 -169 123z
M171 583l74 140h34l-82 -140h-26z" />
    <glyph glyph-name="Scircumflex" unicode="&#x15c;" horiz-adv-x="493" 
d="M45 132l26 7c19 -59 66 -126 181 -126c93 0 165 61 165 154c0 219 -350 164 -350 383c0 85 64 163 181 163c112 0 161 -73 181 -116l-24 -10c-18 39 -62 100 -157 100c-99 0 -155 -60 -155 -137c0 -195 351 -143 351 -382c0 -99 -75 -181 -192 -181
c-126 0 -182 69 -207 145zM252 855l-81 -96h-27l94 121h28l94 -121h-27z" />
    <glyph glyph-name="scircumflex" unicode="&#x15d;" horiz-adv-x="402" 
d="M39 110l25 6c13 -51 53 -104 144 -104c65 0 127 44 127 117c0 156 -274 108 -274 275c0 77 61 125 141 125c93 0 138 -61 148 -101l-23 -7c-12 36 -44 83 -125 83c-64 0 -115 -37 -115 -100c0 -143 274 -96 274 -275c0 -83 -65 -142 -153 -142c-109 0 -155 68 -169 123z
M211 699l-81 -96h-27l94 121h28l94 -121h-27z" />
    <glyph glyph-name="Scedilla" unicode="&#x15e;" horiz-adv-x="493" 
d="M45 132l26 7c19 -59 66 -126 181 -126c93 0 165 61 165 154c0 219 -350 164 -350 383c0 85 64 163 181 163c112 0 161 -73 181 -116l-24 -10c-18 39 -62 100 -157 100c-99 0 -155 -60 -155 -137c0 -195 351 -143 351 -382c0 -98 -74 -179 -189 -181l-8 -53
c53 -4 85 -30 85 -71c0 -63 -49 -82 -100 -82c-14 0 -28 2 -28 2l3 23c8 -1 18 -2 28 -2c37 0 71 14 71 56c0 34 -27 52 -71 52h-12l8 76c-111 7 -163 72 -186 144z" />
    <glyph glyph-name="scedilla" unicode="&#x15f;" horiz-adv-x="402" 
d="M39 110l25 6c13 -51 53 -104 144 -104c65 0 127 44 127 117c0 156 -274 108 -274 275c0 77 61 125 141 125c93 0 138 -61 148 -101l-23 -7c-12 36 -44 83 -125 83c-64 0 -115 -37 -115 -100c0 -143 274 -96 274 -275c0 -83 -65 -142 -154 -142l-8 -53
c53 -4 85 -30 85 -71c0 -63 -49 -82 -100 -82c-14 0 -28 2 -28 2l3 23c8 -1 18 -2 28 -2c37 0 71 14 71 56c0 34 -27 52 -71 52h-12l8 76c-91 10 -131 71 -144 122z" />
    <glyph glyph-name="Scaron" unicode="&#x160;" horiz-adv-x="493" 
d="M45 132l26 7c19 -59 66 -126 181 -126c93 0 165 61 165 154c0 219 -350 164 -350 383c0 85 64 163 181 163c112 0 161 -73 181 -116l-24 -10c-18 39 -62 100 -157 100c-99 0 -155 -60 -155 -137c0 -195 351 -143 351 -382c0 -99 -75 -181 -192 -181
c-126 0 -182 69 -207 145zM168 880l81 -96l81 96h27l-94 -121h-28l-94 121h27z" />
    <glyph glyph-name="scaron" unicode="&#x161;" horiz-adv-x="402" 
d="M39 110l25 6c13 -51 53 -104 144 -104c65 0 127 44 127 117c0 156 -274 108 -274 275c0 77 61 125 141 125c93 0 138 -61 148 -101l-23 -7c-12 36 -44 83 -125 83c-64 0 -115 -37 -115 -100c0 -143 274 -96 274 -275c0 -83 -65 -142 -153 -142c-109 0 -155 68 -169 123z
M127 724l81 -96l81 96h27l-94 -121h-28l-94 121h27z" />
    <glyph glyph-name="Tcommaaccent" unicode="&#x162;" 
d="M235 0v675h-212v25h448v-25h-211v-675l-11 -66c53 -4 85 -30 85 -71c0 -63 -49 -82 -100 -82c-14 0 -28 2 -28 2l3 23c8 -1 18 -2 28 -2c37 0 71 14 71 56c0 34 -27 52 -71 52h-12z" />
    <glyph glyph-name="tcommaaccent" unicode="&#x163;" horiz-adv-x="271" 
d="M85 516v108h26v-108h129v-23h-129v-317c0 -109 23 -157 110 -157c7 0 17 1 24 2v-24s-10 -3 -35 -3c-11 0 -20 1 -29 3l-9 -63c53 -4 85 -30 85 -71c0 -63 -49 -82 -100 -82c-14 0 -28 2 -28 2l3 23c8 -1 18 -2 28 -2c37 0 71 14 71 56c0 34 -27 52 -71 52h-12l10 91
c-48 20 -73 71 -73 151v339h-66v23h66z" />
    <glyph glyph-name="Tcaron" unicode="&#x164;" 
d="M235 0v675h-212v25h448v-25h-211v-675h-25zM167 880l81 -96l81 96h27l-94 -121h-28l-94 121h27z" />
    <glyph glyph-name="tcaron" unicode="&#x165;" horiz-adv-x="271" 
d="M201 563l14 160h27l-22 -160h-19zM85 516v108h26v-108h129v-23h-129v-317c0 -109 23 -157 110 -157c7 0 17 1 24 2v-24s-10 -3 -35 -3c-82 0 -125 56 -125 160v339h-66v23h66z" />
    <glyph glyph-name="Tbar" unicode="&#x166;" 
d="M90 374v25h145v276h-212v25h448v-25h-211v-276h144v-25h-144v-374h-25v374h-145z" />
    <glyph glyph-name="tbar" unicode="&#x167;" horiz-adv-x="271" 
d="M22 321v23h63v149h-66v23h66v108h26v-108h129v-23h-129v-149h129v-23h-129v-145c0 -109 23 -157 110 -157c7 0 17 1 24 2v-24s-10 -3 -35 -3c-82 0 -125 56 -125 160v167h-63z" />
    <glyph glyph-name="Utilde" unicode="&#x168;" horiz-adv-x="664" 
d="M332 -13c-156 0 -248 99 -248 254v459h26v-458c0 -141 77 -229 222 -229s222 88 222 229v458h26v-459c0 -155 -92 -254 -248 -254zM408 798c26 0 47 21 47 52h25c0 -48 -32 -77 -75 -77c-53 0 -82 53 -130 53c-26 0 -47 -21 -47 -52h-25c0 48 32 77 75 77
c53 0 82 -53 130 -53z" />
    <glyph glyph-name="utilde" unicode="&#x169;" horiz-adv-x="530" 
d="M261 -13c-95 0 -186 62 -186 182v347h25v-337c0 -105 70 -167 161 -167c98 0 169 73 169 186v318h25v-516h-25v93c-28 -64 -92 -106 -169 -106zM330 641c26 0 47 21 47 52h25c0 -48 -32 -77 -75 -77c-53 0 -82 53 -130 53c-26 0 -47 -21 -47 -52h-25c0 48 32 77 75 77
c53 0 82 -53 130 -53z" />
    <glyph glyph-name="Umacron" unicode="&#x16a;" horiz-adv-x="664" 
d="M332 -13c-156 0 -248 99 -248 254v459h26v-458c0 -141 77 -229 222 -229s222 88 222 229v458h26v-459c0 -155 -92 -254 -248 -254zM231 780v26h227v-26h-227z" />
    <glyph glyph-name="umacron" unicode="&#x16b;" horiz-adv-x="530" 
d="M261 -13c-95 0 -186 62 -186 182v347h25v-337c0 -105 70 -167 161 -167c98 0 169 73 169 186v318h25v-516h-25v93c-28 -64 -92 -106 -169 -106zM155 655v26h227v-26h-227z" />
    <glyph glyph-name="Ubreve" unicode="&#x16c;" horiz-adv-x="664" 
d="M332 -13c-156 0 -248 99 -248 254v459h26v-458c0 -141 77 -229 222 -229s222 88 222 229v458h26v-459c0 -155 -92 -254 -248 -254zM333 755c-71 0 -103 50 -103 108h24c0 -50 28 -84 79 -84s79 34 79 84h24c0 -58 -32 -108 -103 -108z" />
    <glyph glyph-name="ubreve" unicode="&#x16d;" horiz-adv-x="530" 
d="M261 -13c-95 0 -186 62 -186 182v347h25v-337c0 -105 70 -167 161 -167c98 0 169 73 169 186v318h25v-516h-25v93c-28 -64 -92 -106 -169 -106zM268 595c-71 0 -103 50 -103 108h24c0 -50 28 -84 79 -84s79 34 79 84h24c0 -58 -32 -108 -103 -108z" />
    <glyph glyph-name="Uring" unicode="&#x16e;" horiz-adv-x="664" 
d="M332 -13c-156 0 -248 99 -248 254v459h26v-458c0 -141 77 -229 222 -229s222 88 222 229v458h26v-459c0 -155 -92 -254 -248 -254zM288 823c0 -27 17 -49 47 -49s47 22 47 49s-17 49 -47 49s-47 -22 -47 -49zM263 823c0 44 31 73 72 73s72 -29 72 -73s-31 -73 -72 -73
s-72 29 -72 73z" />
    <glyph glyph-name="uring" unicode="&#x16f;" horiz-adv-x="530" 
d="M261 -13c-95 0 -186 62 -186 182v347h25v-337c0 -105 70 -167 161 -167c98 0 169 73 169 186v318h25v-516h-25v93c-28 -64 -92 -106 -169 -106zM221 664c0 -27 17 -49 47 -49s47 22 47 49s-17 49 -47 49s-47 -22 -47 -49zM196 664c0 44 31 73 72 73s72 -29 72 -73
s-31 -73 -72 -73s-72 29 -72 73z" />
    <glyph glyph-name="Uhungarumlaut" unicode="&#x170;" horiz-adv-x="664" 
d="M332 -13c-156 0 -248 99 -248 254v459h26v-458c0 -141 77 -229 222 -229s222 88 222 229v458h26v-459c0 -155 -92 -254 -248 -254zM234 748l74 140h34l-82 -140h-26zM335 748l74 140h34l-82 -140h-26z" />
    <glyph glyph-name="uhungarumlaut" unicode="&#x171;" horiz-adv-x="530" 
d="M261 -13c-95 0 -186 62 -186 182v347h25v-337c0 -105 70 -167 161 -167c98 0 169 73 169 186v318h25v-516h-25v93c-28 -64 -92 -106 -169 -106zM174 583l74 140h34l-82 -140h-26zM275 583l74 140h34l-82 -140h-26z" />
    <glyph glyph-name="Uogonek" unicode="&#x172;" horiz-adv-x="664" 
d="M314 -97c0 36 21 67 50 86c0 0 -15 -2 -32 -2c-156 0 -248 99 -248 254v459h26v-458c0 -141 77 -229 222 -229s222 88 222 229v458h26v-459c0 -125 -60 -213 -164 -242c-42 -16 -77 -48 -77 -92c0 -48 43 -71 83 -71v-25c-54 0 -108 29 -108 92z" />
    <glyph glyph-name="uogonek" unicode="&#x173;" horiz-adv-x="530" 
d="M347 -97c0 44 38 86 83 101v89c-28 -64 -92 -106 -169 -106c-95 0 -186 62 -186 182v347h25v-337c0 -105 70 -167 161 -167c98 0 169 73 169 186v318h25v-516c-46 -18 -83 -47 -83 -93c0 -48 43 -71 83 -71v-25c-54 0 -108 29 -108 92z" />
    <glyph glyph-name="Wcircumflex" unicode="&#x174;" horiz-adv-x="912" 
d="M661 0l-205 667l-205 -667h-27l-210 700h27l196 -660l201 660h36l201 -660l196 660h27l-210 -700h-27zM458 855l-81 -96h-27l94 121h28l94 -121h-27z" />
    <glyph glyph-name="wcircumflex" unicode="&#x175;" horiz-adv-x="805" 
d="M580 0l-177 485l-178 -485h-25l-193 516h28l176 -479s0 1 176 479h31c176 -478 176 -479 176 -479l176 479h28l-193 -516h-25zM403 699l-81 -96h-27l94 121h28l94 -121h-27z" />
    <glyph glyph-name="Ycircumflex" unicode="&#x176;" horiz-adv-x="486" 
d="M230 0v337l-218 363h29l202 -338l202 338h29l-218 -363v-337h-26zM244 855l-81 -96h-27l94 121h28l94 -121h-27z" />
    <glyph glyph-name="ycircumflex" unicode="&#x177;" horiz-adv-x="480" 
d="M181 -179h-29l77 177l-222 518h28l208 -488l202 488h28zM246 699l-81 -96h-27l94 121h28l94 -121h-27z" />
    <glyph glyph-name="Zacute" unicode="&#x179;" horiz-adv-x="586" 
d="M38 0v25l473 650h-457v25h487v-25l-472 -650h474v-25h-505zM277 748l74 140h34l-82 -140h-26z" />
    <glyph glyph-name="zacute" unicode="&#x17a;" horiz-adv-x="458" 
d="M35 0v24l346 468h-333v24h365v-24l-346 -468h352v-24h-384zM192 583l74 140h34l-82 -140h-26z" />
    <glyph glyph-name="Zdotaccent" unicode="&#x17b;" horiz-adv-x="586" 
d="M38 0v25l473 650h-457v25h487v-25l-472 -650h474v-25h-505zM264 814c0 16 14 30 31 30s31 -14 31 -30c0 -17 -14 -31 -31 -31s-31 14 -31 31z" />
    <glyph glyph-name="zdotaccent" unicode="&#x17c;" horiz-adv-x="458" 
d="M35 0v24l346 468h-333v24h365v-24l-346 -468h352v-24h-384zM196 660c0 16 14 30 31 30s31 -14 31 -30c0 -17 -14 -31 -31 -31s-31 14 -31 31z" />
    <glyph glyph-name="Zcaron" unicode="&#x17d;" horiz-adv-x="586" 
d="M38 0v25l473 650h-457v25h487v-25l-472 -650h474v-25h-505zM212 880l81 -96l81 96h27l-94 -121h-28l-94 121h27z" />
    <glyph glyph-name="zcaron" unicode="&#x17e;" horiz-adv-x="458" 
d="M35 0v24l346 468h-333v24h365v-24l-346 -468h352v-24h-384zM146 724l81 -96l81 96h27l-94 -121h-28l-94 121h27z" />
    <glyph glyph-name="Aringacute" unicode="&#x1fa;" horiz-adv-x="605" 
d="M230 749c0 44 31 73 72 73s72 -29 72 -73c0 -37 -21 -63 -52 -71l265 -678h-28l-102 265h-310l-102 -265h-28l264 678c-30 8 -51 34 -51 71zM448 289l-146 376l-146 -376h292zM255 749c0 -26 15 -47 42 -49h5c30 0 47 22 47 49s-17 49 -47 49s-47 -22 -47 -49zM288 849
l66 134h34l-74 -134h-26z" />
    <glyph glyph-name="aringacute" unicode="&#x1fb;" horiz-adv-x="496" 
d="M43 158c0 93 81 165 193 165c84 0 138 -40 164 -79v111c0 99 -63 149 -155 149c-73 0 -126 -26 -165 -50l-13 22c29 17 98 53 177 53c119 0 181 -69 181 -175v-354h-20l-5 72c-24 -40 -77 -85 -164 -85c-117 0 -193 75 -193 171zM69 157c0 -76 63 -145 167 -145
c99 0 167 65 167 145c0 82 -73 141 -167 141c-102 0 -167 -64 -167 -141zM199 655c0 -27 17 -49 47 -49s47 22 47 49s-17 49 -47 49s-47 -22 -47 -49zM174 655c0 44 31 73 72 73s72 -29 72 -73s-31 -73 -72 -73s-72 29 -72 73zM224 758l74 140h34l-82 -140h-26z" />
    <glyph glyph-name="AEacute" unicode="&#x1fc;" horiz-adv-x="768" 
d="M9 0l347 700h341v-25h-281v-304h248v-25h-248v-321h293v-25h-319v265h-223l-130 -265h-28zM369 675l-190 -386h211v386h-21zM449 748l74 140h34l-82 -140h-26z" />
    <glyph glyph-name="aeacute" unicode="&#x1fd;" horiz-adv-x="927" 
d="M43 158c0 93 81 165 193 165c84 0 138 -40 164 -79v111c0 99 -63 149 -155 149c-73 0 -126 -26 -165 -50l-13 22c29 17 98 53 177 53c109 0 170 -59 179 -151c40 98 128 151 222 151c149 0 243 -110 243 -253v-18h-464c0 -157 98 -246 235 -246c100 0 156 51 191 99
l19 -13c-37 -57 -103 -111 -210 -111c-110 0 -193 53 -233 141c-27 -96 -99 -141 -190 -141c-117 0 -193 75 -193 171zM69 157c0 -76 63 -145 167 -145c99 0 167 65 167 145c0 82 -73 141 -167 141c-102 0 -167 -64 -167 -141zM425 282h437c-7 148 -110 222 -217 222
c-106 0 -209 -80 -220 -222zM413 583l74 140h34l-82 -140h-26z" />
    <glyph glyph-name="Oslashacute" unicode="&#x1fe;" horiz-adv-x="790" 
d="M395 -13c-80 0 -154 26 -213 72l-57 -73l-19 14l58 74c-73 65 -119 162 -119 276c0 208 157 363 350 363c79 0 152 -26 211 -72l58 74l19 -16l-58 -74c73 -65 120 -162 120 -275c0 -210 -158 -363 -350 -363zM718 350c0 104 -42 194 -109 255l-411 -526
c54 -42 122 -66 197 -66c182 0 323 141 323 337zM395 687c-182 0 -323 -144 -323 -337c0 -106 41 -196 107 -256l412 527c-54 42 -122 66 -196 66zM367 748l74 140h34l-82 -140h-26z" />
    <glyph glyph-name="oslashacute" unicode="&#x1ff;" horiz-adv-x="608" 
d="M304 529c59 0 113 -19 156 -51l40 51l20 -16l-40 -51c53 -49 86 -121 86 -204c0 -154 -112 -271 -262 -271c-60 0 -114 18 -157 50l-40 -51l-19 15l41 52c-54 49 -87 121 -87 205c0 154 112 271 262 271zM69 258c0 -74 28 -140 76 -184l299 383c-38 29 -86 46 -140 46
c-138 0 -235 -108 -235 -245zM304 13c138 0 235 108 235 245c0 73 -28 139 -75 183l-300 -383c38 -28 86 -45 140 -45zM269 583l74 140h34l-82 -140h-26z" />
    <glyph glyph-name="Scommaaccent" unicode="&#x218;" horiz-adv-x="493" 
d="M45 132l26 7c19 -59 66 -126 181 -126c93 0 165 61 165 154c0 219 -350 164 -350 383c0 85 64 163 181 163c112 0 161 -73 181 -116l-24 -10c-18 39 -62 100 -157 100c-99 0 -155 -60 -155 -137c0 -195 351 -143 351 -382c0 -99 -75 -181 -192 -181
c-126 0 -182 69 -207 145zM220 -67c0 16 13 30 29 30c20 0 31 -16 31 -33c0 -45 -24 -82 -47 -104l-17 16c11 11 31 34 35 61c-16 0 -31 12 -31 30z" />
    <glyph glyph-name="scommaaccent" unicode="&#x219;" horiz-adv-x="402" 
d="M39 110l25 6c13 -51 53 -104 144 -104c65 0 127 44 127 117c0 156 -274 108 -274 275c0 77 61 125 141 125c93 0 138 -61 148 -101l-23 -7c-12 36 -44 83 -125 83c-64 0 -115 -37 -115 -100c0 -143 274 -96 274 -275c0 -83 -65 -142 -153 -142c-109 0 -155 68 -169 123z
M176 -67c0 16 13 30 29 30c20 0 31 -16 31 -33c0 -45 -24 -82 -47 -104l-17 16c11 11 31 34 35 61c-16 0 -31 12 -31 30z" />
    <glyph glyph-name="Tcommaaccent.001" 
d="M235 0v675h-212v25h448v-25h-211v-675h-25zM215 -67c0 16 13 30 29 30c20 0 31 -16 31 -33c0 -45 -24 -82 -47 -104l-17 16c11 11 31 34 35 61c-16 0 -31 12 -31 30z" />
    <glyph glyph-name="tcommaaccent.001" horiz-adv-x="271" 
d="M85 516v108h26v-108h129v-23h-129v-317c0 -109 23 -157 110 -157c7 0 17 1 24 2v-24s-10 -3 -35 -3c-82 0 -125 56 -125 160v339h-66v23h66zM134 -67c0 16 13 30 29 30c20 0 31 -16 31 -33c0 -45 -24 -82 -47 -104l-17 16c11 11 31 34 35 61c-16 0 -31 12 -31 30z" />
    <glyph glyph-name="dotlessj" unicode="&#x237;" horiz-adv-x="187" 
d="M81 -28v544h25v-541c0 -126 -56 -165 -127 -165c-9 0 -21 1 -21 1v25s12 -1 22 -1c66 0 101 41 101 137z" />
    <glyph glyph-name="Wgrave" unicode="&#x1e80;" horiz-adv-x="912" 
d="M661 0l-205 667l-205 -667h-27l-210 700h27l196 -660l201 660h36l201 -660l196 660h27l-210 -700h-27zM405 888l74 -140h-26l-82 140h34z" />
    <glyph glyph-name="wgrave" unicode="&#x1e81;" horiz-adv-x="805" 
d="M580 0l-177 485l-178 -485h-25l-193 516h28l176 -479s0 1 176 479h31c176 -478 176 -479 176 -479l176 479h28l-193 -516h-25zM381 723l74 -140h-26l-82 140h34z" />
    <glyph glyph-name="Wacute" unicode="&#x1e82;" horiz-adv-x="912" 
d="M661 0l-205 667l-205 -667h-27l-210 700h27l196 -660l201 660h36l201 -660l196 660h27l-210 -700h-27zM430 748l74 140h34l-82 -140h-26z" />
    <glyph glyph-name="wacute" unicode="&#x1e83;" horiz-adv-x="805" 
d="M580 0l-177 485l-178 -485h-25l-193 516h28l176 -479s0 1 176 479h31c176 -478 176 -479 176 -479l176 479h28l-193 -516h-25zM373 583l74 140h34l-82 -140h-26z" />
    <glyph glyph-name="Wdieresis" unicode="&#x1e84;" horiz-adv-x="912" 
d="M661 0l-205 667l-205 -667h-27l-210 700h27l196 -660l201 660h36l201 -660l196 660h27l-210 -700h-27zM344 812c0 19 15 33 33 33s33 -14 33 -33s-15 -33 -33 -33s-33 14 -33 33zM502 812c0 19 15 33 33 33s33 -14 33 -33s-15 -33 -33 -33s-33 14 -33 33z" />
    <glyph glyph-name="wdieresis" unicode="&#x1e85;" horiz-adv-x="805" 
d="M580 0l-177 485l-178 -485h-25l-193 516h28l176 -479s0 1 176 479h31c176 -478 176 -479 176 -479l176 479h28l-193 -516h-25zM289 653c0 19 15 33 33 33s33 -14 33 -33s-15 -33 -33 -33s-33 14 -33 33zM447 653c0 19 15 33 33 33s33 -14 33 -33s-15 -33 -33 -33
s-33 14 -33 33z" />
    <glyph glyph-name="Ygrave" unicode="&#x1ef2;" horiz-adv-x="486" 
d="M230 0v337l-218 363h29l202 -338l202 338h29l-218 -363v-337h-26zM196 888l74 -140h-26l-82 140h34z" />
    <glyph glyph-name="ygrave" unicode="&#x1ef3;" horiz-adv-x="480" 
d="M181 -179h-29l77 177l-222 518h28l208 -488l202 488h28zM194 723l74 -140h-26l-82 140h34z" />
    <glyph glyph-name="numero" unicode="&#x2116;" horiz-adv-x="1126" 
d="M1050 541c0 -95 -67 -173 -169 -173s-169 78 -169 173c0 94 67 172 169 172s169 -78 169 -172zM735 541c0 -82 61 -149 146 -149s146 67 146 149c0 81 -61 148 -146 148s-146 -67 -146 -148zM90 0v700h24l467 -655v655h25v-700h-25l-466 658v-658h-25zM1041 264h-320v24
h320v-24z" />
    <glyph glyph-name="minus" unicode="&#x2212;" horiz-adv-x="549" 
d="M506 300h-463v23h463v-23z" />
    <glyph glyph-name="commaaccent" unicode="&#xf6c3;" horiz-adv-x="173" 
d="M58 -67c0 16 13 30 29 30c20 0 31 -16 31 -33c0 -45 -24 -82 -47 -104l-17 16c11 11 31 34 35 61c-16 0 -31 12 -31 30z" />
    <glyph glyph-name="uni021A" unicode="&#x21a;" 
d="M235 0v675h-212v25h448v-25h-211v-675h-25zM218 -67c0 16 13 30 29 30c20 0 31 -16 31 -33c0 -45 -24 -82 -47 -104l-17 16c11 11 31 34 35 61c-16 0 -31 12 -31 30z" />
    <glyph glyph-name="uni021B" unicode="&#x21b;" horiz-adv-x="271" 
d="M85 516v108h26v-108h129v-23h-129v-317c0 -109 23 -157 110 -157c7 0 17 1 24 2v-24s-10 -3 -35 -3c-82 0 -125 56 -125 160v339h-66v23h66zM148 -67c0 16 13 30 29 30c20 0 31 -16 31 -33c0 -45 -24 -82 -47 -104l-17 16c11 11 31 34 35 61c-16 0 -31 12 -31 30z" />
    </font>
</defs>
</svg>
