<?xml version="1.0" encoding="UTF-8"?>
<svg width="12px" height="11px" viewBox="0 0 12 11" version="1.1" xmlns="http://www.w3.org/2000/svg" xmlns:xlink="http://www.w3.org/1999/xlink">
    <title>Arrow/White/icon</title>
    <g id="Page-1" stroke="none" stroke-width="1" fill="none" fill-rule="evenodd">
        <g id="Menu-(new)" transform="translate(-1009.000000, -327.000000)" fill="#FFFFFF">
            <g id="Group-7" transform="translate(450.000000, 164.000000)">
                <g id="Group-4" transform="translate(553.000000, 0.000000)">
                    <path d="M12.9420903,163.281728 C12.5415124,162.90099 11.8925491,162.900513 11.4863081,163.286634 L11.4863081,163.286634 C11.0828798,163.670081 11.0820122,164.291624 11.4765721,164.667461 L15.5013117,168.501217 L11.4765721,172.334972 C11.0785208,172.714134 11.0800672,173.329679 11.4863081,173.715799 L11.4863081,173.715799 C11.8897365,174.099247 12.5422678,174.100725 12.9420903,173.720705 L17.7082489,169.190604 C18.1088269,168.809866 18.1080714,168.191849 17.7082489,167.811829 L12.9420903,163.281728 Z M8.07225992,170.470842 C9.21673747,170.470842 10.1445198,169.589011 10.1445198,168.501217 C10.1445198,167.413423 9.21673747,166.531591 8.07225992,166.531591 C6.92778237,166.531591 6,167.413423 6,168.501217 C6,169.589011 6.92778237,170.470842 8.07225992,170.470842 Z" id="Arrow/White/icon"></path>
                </g>
            </g>
        </g>
    </g>
</svg>