<?xml version="1.0" encoding="UTF-8"?>
<svg width="12px" height="11px" viewBox="0 0 12 11" version="1.1" xmlns="http://www.w3.org/2000/svg" xmlns:xlink="http://www.w3.org/1999/xlink">
    <title>Arrow/Green/icon</title>
    <g id="Page-1" stroke="none" stroke-width="1" fill="none" fill-rule="evenodd">
        <g id="Menu-(new)" transform="translate(-1009.000000, -415.000000)" fill="#00B46A">
            <g id="Group-7" transform="translate(450.000000, 164.000000)">
                <g id="Group-4" transform="translate(553.000000, 0.000000)">
                    <path d="M12.9420903,251.281728 C12.5415124,250.90099 11.8925491,250.900513 11.4863081,251.286634 L11.4863081,251.286634 C11.0828798,251.670081 11.0820122,252.291624 11.4765721,252.667461 L15.5013117,256.501217 L11.4765721,260.334972 C11.0785208,260.714134 11.0800672,261.329679 11.4863081,261.715799 L11.4863081,261.715799 C11.8897365,262.099247 12.5422678,262.100725 12.9420903,261.720705 L17.7082489,257.190604 C18.1088269,256.809866 18.1080714,256.191849 17.7082489,255.811829 L12.9420903,251.281728 Z M8.07225992,258.470842 C9.21673747,258.470842 10.1445198,257.589011 10.1445198,256.501217 C10.1445198,255.413423 9.21673747,254.531591 8.07225992,254.531591 C6.92778237,254.531591 6,255.413423 6,256.501217 C6,257.589011 6.92778237,258.470842 8.07225992,258.470842 Z" id="Arrow/Green/icon"></path>
                </g>
            </g>
        </g>
    </g>
</svg>